<svg xmlns="http://www.w3.org/2000/svg" xmlns:xlink="http://www.w3.org/1999/xlink" width="61.373" height="72.188" viewBox="0 0 61.373 72.188"><defs><style>.a{fill:url(#a);}.b{fill:#fdc010;}.c{fill:#46a2da;}.d{fill:url(#b);}</style><linearGradient id="a" x1="0.5" y1="1" x2="0.5" gradientUnits="objectBoundingBox"><stop offset="0" stop-color="#46a2da"/><stop offset="0.37" stop-color="#6c50a1"/><stop offset="0.7" stop-color="#ed177e"/><stop offset="1" stop-color="#fdc010"/></linearGradient><linearGradient id="b" x1="0" y1="0.5" x2="1" y2="0.5" xlink:href="#a"/></defs><path class="a" d="M165.2,88.4h0l-3.456-9.21-22.64-.115-4,9.771-.657-.393,8.77-21.981,13.746-.027L150.538,49.3l8.6-21.3.668.289-2.295,5.8L179.471,88.4H165.2" transform="translate(-118.098 -22.527)"/><path class="b" d="M478.368,94.016h0a1.368,1.368,0,1,1,1.368-1.368,1.368,1.368,0,0,1-1.368,1.368" transform="translate(-436.736 -87.566)"/><path class="c" d="M349.368,409.016h0a1.368,1.368,0,1,1,1.368-1.368,1.368,1.368,0,0,1-1.368,1.368" transform="translate(-332.95 -340.998)"/><path class="d" d="M111.422,108.76l-.723-.3L134.935,49.24l.723.3L110.64,110.519" transform="translate(-98.942 -39.616)"/><path class="b" d="M453.368,112.016h0a1.368,1.368,0,1,1,1.368-1.368,1.368,1.368,0,0,1-1.368,1.368" transform="translate(-416.622 -102.048)"/><path class="c" d="M324.368,427.016h0a1.368,1.368,0,1,1,1.368-1.368,1.368,1.368,0,0,1-1.368,1.368" transform="translate(-312.836 -355.479)"/><path class="d" d="M114.333,108.424l-.723-.3L133.154,60.24l.725.3-19.546,47.887" transform="translate(-101.331 -48.466)"/><path class="b" d="M432.038,123.016h0a1.368,1.368,0,1,1,1.368-1.368,1.368,1.368,0,0,1-1.368,1.368" transform="translate(-399.461 -110.898)"/><path class="c" d="M328.038,378.016h0a1.368,1.368,0,1,1,1.368-1.368,1.368,1.368,0,0,1-1.368,1.368" transform="translate(-315.789 -316.057)"/><path class="d" d="M93.092,71.76l-.723-.3L116.6,12.24l.725.3L92.31,73.519" transform="translate(-84.195 -9.848)"/><path class="b" d="M435.038,75.016h0a1.368,1.368,0,1,1,1.368-1.368,1.368,1.368,0,0,1-1.368,1.368" transform="translate(-401.875 -72.28)"/><path class="c" d="M306.038,390.016h0a1.368,1.368,0,1,1,1.368-1.368,1.368,1.368,0,0,1-1.368,1.368" transform="translate(-298.089 -325.711)"/><path class="d" d="M59.422,112.1l-.723-.3L82.935,52.58l.723.3L58.64,113.857" transform="translate(-57.106 -42.303)"/><path class="b" d="M401.368,115.346h0a1.368,1.368,0,1,1,1.368-1.368,1.368,1.368,0,0,1-1.368,1.368" transform="translate(-374.786 -104.727)"/><path class="c" d="M272.368,430.346h0a1.368,1.368,0,1,1,1.368-1.368,1.368,1.368,0,0,1-1.368,1.368" transform="translate(-271 -358.159)"/></svg>