<svg xmlns="http://www.w3.org/2000/svg" xmlns:xlink="http://www.w3.org/1999/xlink" width="298.843" height="314.876" viewBox="0 0 298.843 314.876">
  <defs>
    <linearGradient id="linear-gradient" x1="0.134" y1="0.515" x2="1.062" y2="0.477" gradientUnits="objectBoundingBox">
      <stop offset="0.005" stop-color="#fff" stop-opacity="0"/>
      <stop offset="0.174" stop-color="#fefefe" stop-opacity="0.012"/>
      <stop offset="0.31" stop-color="#fbfcfd" stop-opacity="0.055"/>
      <stop offset="0.433" stop-color="#f7f9fc" stop-opacity="0.129"/>
      <stop offset="0.549" stop-color="#f1f5f9" stop-opacity="0.231"/>
      <stop offset="0.661" stop-color="#e9eff6" stop-opacity="0.365"/>
      <stop offset="0.768" stop-color="#dfe8f2" stop-opacity="0.525"/>
      <stop offset="0.873" stop-color="#d3e0ee" stop-opacity="0.718"/>
      <stop offset="0.973" stop-color="#c6d7e9" stop-opacity="0.937"/>
      <stop offset="1" stop-color="#c3d5e8"/>
    </linearGradient>
    <linearGradient id="linear-gradient-2" x1="-1.274" y1="0.5" x2="-0.274" y2="0.5" gradientUnits="objectBoundingBox">
      <stop offset="0" stop-color="#fff"/>
      <stop offset="1" stop-color="#62bddd"/>
    </linearGradient>
  </defs>
  <g id="Group_984" data-name="Group 984" transform="translate(-1331.648 -1226)">
    <g id="Group_354" data-name="Group 354" transform="translate(1298.449 1186.401)">
      <g id="Group_149" data-name="Group 149" transform="translate(210.456 40.057)">
        <g id="Group_123" data-name="Group 123" transform="translate(0)">
          <path id="Path_202" data-name="Path 202" d="M396.9,89.544,314.622,42.038c-4.014-2.317-7.651-2.532-10.277-1.006l-8.1,4.727c2.626-1.526,6.263-1.311,10.277,1.006L388.8,94.271c7.976,4.6,14.422,15.769,14.4,24.934l-.56,207.775c-.013,4.553-1.621,7.757-4.213,9.264l8.1-4.727c2.593-1.506,4.2-4.71,4.213-9.263l.56-207.775C411.326,105.313,404.88,94.148,396.9,89.544Z" transform="translate(-289.714 -40.057)" fill="#8d3b53"/>
          <path id="Path_203" data-name="Path 203" d="M396.9,89.544,314.622,42.038c-4.014-2.317-7.651-2.532-10.277-1.006l-8.1,4.727c2.626-1.526,6.263-1.311,10.277,1.006l44.728,25.824L388.8,94.271c7.976,4.6,14.422,15.769,14.4,24.934l-.56,207.775c-.013,4.553-1.621,7.757-4.213,9.264l8.1-4.727c2.593-1.506,4.2-4.71,4.213-9.263l.56-207.775a23.048,23.048,0,0,0-.37-4.023C409.571,102.438,403.811,93.531,396.9,89.544Z" transform="translate(-289.714 -40.057)" fill="url(#linear-gradient)"/>
          <g id="Group_121" data-name="Group 121" transform="translate(0 4.644)">
            <g id="Group_120" data-name="Group 120">
              <path id="Path_204" data-name="Path 204" d="M385.988,99.1,303.706,51.593c-4.014-2.318-7.651-2.532-10.277-1.006l-2.991,1.776c2.626-1.526,6.263-1.311,10.277,1.006L383,100.875c7.976,4.6,14.422,15.769,14.4,24.934l-.56,207.776c-.013,4.553-1.621,7.757-4.214,9.263l2.991-1.776c2.593-1.507,4.2-4.71,4.213-9.264l.56-207.775C400.41,114.868,393.964,103.7,385.988,99.1Z" transform="translate(-286.731 -49.612)" fill="#f36a7b"/>
              <g id="Group_119" data-name="Group 119" transform="translate(0 0.709)">
                <path id="Path_205" data-name="Path 205" d="M380.144,100.557c7.976,4.6,14.422,15.769,14.4,24.934l-.56,207.776c-.026,9.165-6.514,12.862-14.49,8.257l-82.282-47.505c-7.976-4.605-14.422-15.77-14.4-24.935l.56-207.775c.026-9.166,6.514-12.863,14.49-8.258Z" transform="translate(-282.812 -51.071)" fill="#f36a7b"/>
              </g>
            </g>
          </g>
          <g id="Group_122" data-name="Group 122" transform="translate(3.804 12.5)">
            <path id="Path_206" data-name="Path 206" d="M380.1,111.329c7.245,4.183,13.1,14.325,13.077,22.651l-.509,201.061c-.023,8.326-5.917,11.684-13.163,7.5l-75.786-43.755c-7.246-4.183-13.1-14.325-13.077-22.651l.509-201.061c.023-8.326,5.917-11.684,13.163-7.5Z" transform="translate(-290.639 -65.774)" fill="#fff"/>
          </g>
        </g>
        <g id="Group_124" data-name="Group 124" transform="translate(7.608 33.537)">
          <path id="Path_207" data-name="Path 207" d="M393.393,163.862V342.209L298.464,287.4V109.054Z" transform="translate(-298.464 -109.054)" fill="#dfeef8"/>
        </g>
        <g id="Group_127" data-name="Group 127" transform="translate(117.061 115.892)">
          <g id="Group_125" data-name="Group 125">
            <path id="Path_208" data-name="Path 208" d="M526.243,278.491v21.121l-2.593,1.5V279.991l1.678-.969Z" transform="translate(-523.65 -278.491)" fill="#c78e90"/>
          </g>
          <g id="Group_126" data-name="Group 126" transform="translate(0 0.53)">
            <path id="Path_209" data-name="Path 209" d="M525.329,279.583v20.289l-1.678.969V280.552Z" transform="translate(-523.65 -279.583)" fill="#6b2d3f"/>
          </g>
        </g>
        <g id="Group_130" data-name="Group 130" transform="translate(115.57 146.933)">
          <g id="Group_128" data-name="Group 128">
            <path id="Path_210" data-name="Path 210" d="M524.666,342.353V425.57l-4.084,2.363V344.715l2.644-1.527Z" transform="translate(-520.582 -342.353)" fill="#c78e90"/>
          </g>
          <g id="Group_129" data-name="Group 129" transform="translate(0 0.836)">
            <path id="Path_211" data-name="Path 211" d="M523.226,344.072v81.907l-2.644,1.527V345.6Z" transform="translate(-520.582 -344.072)" fill="#6b2d3f"/>
          </g>
        </g>
        <g id="Group_133" data-name="Group 133" transform="translate(95.508 47.368)">
          <g id="Group_131" data-name="Group 131">
            <path id="Path_212" data-name="Path 212" d="M482.855,138.846a1.1,1.1,0,0,1-.46.453,2.823,2.823,0,0,1-2.552,0,1.114,1.114,0,0,1-.466-.46c-.172-.353-.019-.745.453-1.02a2.806,2.806,0,0,1,2.559,0C482.868,138.1,483.027,138.493,482.855,138.846Z" transform="translate(-479.308 -137.511)" fill="#c78e90"/>
          </g>
          <g id="Group_132" data-name="Group 132" transform="translate(0.068 0.567)">
            <path id="Path_213" data-name="Path 213" d="M482.928,139.445a1.1,1.1,0,0,1-.46.453,2.823,2.823,0,0,1-2.552,0,1.114,1.114,0,0,1-.466-.46,1.1,1.1,0,0,1,.453-.453,2.806,2.806,0,0,1,2.559,0A1.136,1.136,0,0,1,482.928,139.445Z" transform="translate(-479.449 -138.677)" fill="#6b2d3f"/>
          </g>
        </g>
        <g id="Group_136" data-name="Group 136" transform="translate(31.83 10.603)">
          <g id="Group_134" data-name="Group 134">
            <path id="Path_214" data-name="Path 214" d="M351.845,63.207a1.1,1.1,0,0,1-.46.453,2.823,2.823,0,0,1-2.552,0,1.116,1.116,0,0,1-.467-.46c-.172-.353-.019-.745.454-1.02a2.806,2.806,0,0,1,2.559,0C351.858,62.459,352.017,62.854,351.845,63.207Z" transform="translate(-348.298 -61.872)" fill="#c78e90"/>
          </g>
          <g id="Group_135" data-name="Group 135" transform="translate(0.068 0.567)">
            <path id="Path_215" data-name="Path 215" d="M351.917,63.807a1.1,1.1,0,0,1-.46.453,2.823,2.823,0,0,1-2.552,0,1.116,1.116,0,0,1-.467-.46,1.109,1.109,0,0,1,.454-.453,2.809,2.809,0,0,1,2.559,0A1.139,1.139,0,0,1,351.917,63.807Z" transform="translate(-348.438 -63.038)" fill="#6b2d3f"/>
          </g>
        </g>
        <g id="Group_139" data-name="Group 139" transform="translate(40.485 15.597)">
          <g id="Group_137" data-name="Group 137">
            <path id="Path_216" data-name="Path 216" d="M372.829,74.678a2.091,2.091,0,0,1-.872.859,5.351,5.351,0,0,1-4.838,0,2.115,2.115,0,0,1-.884-.872c-.326-.669-.037-1.412.859-1.934a5.323,5.323,0,0,1,4.851,0C372.854,73.26,373.155,74.009,372.829,74.678Z" transform="translate(-366.105 -72.147)" fill="#c78e90"/>
          </g>
          <g id="Group_138" data-name="Group 138" transform="translate(0.13 1.074)">
            <path id="Path_217" data-name="Path 217" d="M372.966,75.814a2.091,2.091,0,0,1-.872.859,5.351,5.351,0,0,1-4.838,0,2.115,2.115,0,0,1-.884-.872,2.093,2.093,0,0,1,.859-.859,5.32,5.32,0,0,1,4.851,0A2.154,2.154,0,0,1,372.966,75.814Z" transform="translate(-366.372 -74.357)" fill="#6b2d3f"/>
          </g>
        </g>
        <g id="Group_145" data-name="Group 145" transform="translate(34.141 34.292)">
          <g id="Group_140" data-name="Group 140" transform="translate(10.551 7.263)">
            <path id="Path_218" data-name="Path 218" d="M393.905,135.888a3.556,3.556,0,0,1,1.615,2.8c0,1.03-.729,1.447-1.625.929L376.378,129.5a3.567,3.567,0,0,1-1.618-2.8c0-1.029.732-1.442,1.628-.924Z" transform="translate(-374.76 -125.552)" fill="#c78e90"/>
          </g>
          <g id="Group_141" data-name="Group 141" transform="translate(34.166 20.898)">
            <path id="Path_219" data-name="Path 219" d="M428.676,155.963a3.555,3.555,0,0,1,1.615,2.8c0,1.03-.729,1.447-1.625.93l-3.7-2.137a3.566,3.566,0,0,1-1.618-2.8c0-1.03.732-1.442,1.628-.925Z" transform="translate(-423.346 -153.603)" fill="#c78e90"/>
          </g>
          <g id="Group_144" data-name="Group 144">
            <g id="Group_142" data-name="Group 142">
              <path id="Path_220" data-name="Path 220" d="M356.1,111.025a6.671,6.671,0,0,1,3.029,5.244c-.005,1.929-1.37,2.707-3.049,1.738a6.675,6.675,0,0,1-3.027-5.245C353.059,110.832,354.424,110.057,356.1,111.025Z" transform="translate(-353.053 -110.608)" fill="#c78e90"/>
            </g>
            <g id="Group_143" data-name="Group 143" transform="translate(1.15 1.479)">
              <path id="Path_221" data-name="Path 221" d="M357.312,113.909a4.145,4.145,0,0,1,1.883,3.259c0,1.2-.852,1.682-1.9,1.08a4.148,4.148,0,0,1-1.881-3.26C355.422,113.789,356.271,113.308,357.312,113.909Z" transform="translate(-355.419 -113.65)" fill="#8e3c54"/>
            </g>
          </g>
        </g>
        <g id="Group_148" data-name="Group 148" transform="translate(38.716 238.757)">
          <g id="Group_146" data-name="Group 146">
            <path id="Path_222" data-name="Path 222" d="M377.587,537.845a10.672,10.672,0,0,1,4.843,8.387l-.014,4.989c-.009,3.083-2.191,4.326-4.874,2.777l-10.236-5.91a10.67,10.67,0,0,1-4.839-8.385l.014-4.989c.009-3.083,2.191-4.326,4.871-2.779Z" transform="translate(-362.466 -531.27)" fill="#f36a7b"/>
          </g>
          <g id="Group_147" data-name="Group 147" transform="translate(2.32 2.72)">
            <path id="Path_223" data-name="Path 223" d="M378.846,541.911a8.19,8.19,0,0,1,3.716,6.437l-.011,3.829c-.007,2.366-1.682,3.32-3.741,2.131l-7.856-4.535a8.192,8.192,0,0,1-3.714-6.436l.011-3.829c.007-2.367,1.681-3.321,3.738-2.133Z" transform="translate(-367.24 -536.865)" fill="#fff"/>
          </g>
        </g>
        <path id="Path_224" data-name="Path 224" d="M298.464,345.353l94.929-123.539V400.161Z" transform="translate(-290.856 -133.47)" fill="#bac2e5"/>
      </g>
      <g id="Group_154" data-name="Group 154" transform="translate(201.172 229.366)">
        <g id="Group_153" data-name="Group 153" transform="translate(0)">
          <g id="Group_150" data-name="Group 150" transform="translate(90.51 52.256)">
            <path id="Path_225" data-name="Path 225" d="M467.258,537.047l-.007,2.609-17.326,10.024.007-2.609Z" transform="translate(-449.925 -537.047)" fill="#5ca82a"/>
          </g>
          <g id="Group_151" data-name="Group 151" transform="translate(0 10.024)">
            <path id="Path_226" data-name="Path 226" d="M354.229,502.416l-.007,2.609-90.51-52.256.007-2.609Z" transform="translate(-263.712 -450.16)" fill="#71648f"/>
          </g>
          <g id="Group_152" data-name="Group 152" transform="translate(0.007)">
            <path id="Path_227" data-name="Path 227" d="M371.563,481.793l-17.326,10.024-90.51-52.256,17.326-10.024Z" transform="translate(-263.727 -429.537)" fill="#698ab6"/>
          </g>
        </g>
      </g>
      <g id="Group_163" data-name="Group 163" transform="translate(198.76 83.924)">
        <g id="Group_162" data-name="Group 162" transform="translate(0 0)">
          <g id="Group_158" data-name="Group 158">
            <g id="Group_155" data-name="Group 155" transform="translate(0 3.197)">
              <path id="Path_228" data-name="Path 228" d="M353.1,219.588,258.749,165l14.105-28.112,94.353,54.589Z" transform="translate(-258.749 -136.886)" fill="#f4575b"/>
            </g>
            <g id="Group_156" data-name="Group 156" transform="translate(14.105)">
              <path id="Path_229" data-name="Path 229" d="M382.122,188.094l-94.353-54.589,5.538-3.2L387.66,184.9Z" transform="translate(-287.769 -130.308)" fill="#ff7a7e"/>
            </g>
            <g id="Group_157" data-name="Group 157" transform="translate(94.353 54.589)">
              <path id="Path_230" data-name="Path 230" d="M472.512,242.618l.057,19.936-19.7,11.373,14.105-28.112Z" transform="translate(-452.869 -242.618)" fill="#cf3438"/>
            </g>
          </g>
          <g id="Group_161" data-name="Group 161" transform="translate(6.946 7.214)">
            <g id="Group_159" data-name="Group 159">
              <path id="Path_231" data-name="Path 231" d="M279.982,177.378l-6.941-4.122,14.1-28.106,6.986,4.042Z" transform="translate(-273.041 -145.15)" fill="#ebf2ff"/>
            </g>
            <path id="Path_232" data-name="Path 232" d="M310.352,194.932l-6.948-4.106,14.1-28.107,6.985,4.043Z" transform="translate(-288.645 -154.179)" fill="#ebf2ff"/>
            <path id="Path_233" data-name="Path 233" d="M340.722,212.487l-6.956-4.091,14.1-28.107,6.982,4.042Z" transform="translate(-304.25 -163.209)" fill="#ebf2ff"/>
            <path id="Path_234" data-name="Path 234" d="M371.092,230.036l-6.963-4.076,14.1-28.113,6.981,4.047Z" transform="translate(-319.855 -172.233)" fill="#ebf2ff"/>
            <path id="Path_235" data-name="Path 235" d="M401.463,247.591l-6.971-4.061,14.1-28.113,6.98,4.046Z" transform="translate(-335.46 -181.263)" fill="#ebf2ff"/>
            <g id="Group_160" data-name="Group 160" transform="translate(73.79 42.694)">
              <path id="Path_236" data-name="Path 236" d="M431.833,265.145l-6.978-4.045,14.1-28.113,6.979,4.046Z" transform="translate(-424.855 -232.987)" fill="#ebf2ff"/>
            </g>
          </g>
        </g>
        <path id="Path_237" data-name="Path 237" d="M459.415,226.4l-5.543,3.2,6.979,4.046,5.553-3.206Z" transform="translate(-359.031 -179.695)" fill="#fff"/>
        <path id="Path_238" data-name="Path 238" d="M429.039,208.865l-5.543,3.2,6.979,4.046,5.553-3.206Z" transform="translate(-343.42 -170.682)" fill="#fff"/>
        <path id="Path_239" data-name="Path 239" d="M398.694,191.264l-5.543,3.2,6.979,4.046,5.553-3.206Z" transform="translate(-327.824 -161.636)" fill="#fff"/>
        <path id="Path_240" data-name="Path 240" d="M368.327,173.7l-5.543,3.2,6.979,4.046,5.553-3.206Z" transform="translate(-312.217 -152.611)" fill="#fff"/>
        <path id="Path_241" data-name="Path 241" d="M337.954,156.14l-5.539,3.2,6.979,4.046,5.553-3.206Z" transform="translate(-296.61 -143.584)" fill="#fff"/>
        <path id="Path_242" data-name="Path 242" d="M307.589,138.572l-5.538,3.2,6.987,4.042,5.537-3.2Z" transform="translate(-281.004 -134.555)" fill="#fff"/>
      </g>
      <g id="Group_203" data-name="Group 203" transform="translate(202.738 302.607)">
        <g id="Group_176" data-name="Group 176" transform="translate(0 5.234)">
          <g id="Group_175" data-name="Group 175">
            <g id="Group_164" data-name="Group 164" transform="translate(22.829 13.224)">
              <path id="Path_243" data-name="Path 243" d="M318.253,618.628a1.1,1.1,0,0,1,.015,2.091,3.975,3.975,0,0,1-3.613,0,1.1,1.1,0,0,1-.009-2.091A3.974,3.974,0,0,1,318.253,618.628Z" transform="translate(-313.903 -618.196)" fill="#758860"/>
            </g>
            <g id="Group_173" data-name="Group 173">
              <g id="Group_165" data-name="Group 165" transform="translate(28.212 16.314)">
                <path id="Path_244" data-name="Path 244" d="M344.4,626.486c4.462,2.577,4.486,6.758.053,9.335s-11.653,2.577-16.116,0-4.489-6.757-.052-9.335S339.938,623.908,344.4,626.486Zm-14.99,8.712a15.388,15.388,0,0,0,13.963,0c3.841-2.232,3.818-5.854-.049-8.086a15.38,15.38,0,0,0-13.96,0c-3.845,2.234-3.824,5.854.046,8.088" transform="translate(-324.976 -624.553)" fill="#b4d193"/>
              </g>
              <g id="Group_166" data-name="Group 166" transform="translate(50.997 36.108)">
                <path id="Path_245" data-name="Path 245" d="M378.781,665.574l-.447.26c.59.452.377.939-.373,1.374l-.151.088-.59-.341.191-.111c.493-.287.6-.579.15-.838a1.389,1.389,0,0,0-1.441.093c-1.255.73.626,1.822-.947,2.736a2.608,2.608,0,0,1-2.387.222l-.422.245-.512-.3.422-.245c-.6-.459-.389-.946.37-1.387l.342-.2.586.338-.382.222c-.5.292-.581.579-.132.839a1.37,1.37,0,0,0,1.447-.079c1.246-.724-.62-1.818.953-2.732a2.569,2.569,0,0,1,2.362-.226l.447-.26Z" transform="translate(-371.853 -665.278)" fill="#758860"/>
              </g>
              <g id="Group_167" data-name="Group 167" transform="translate(6.39 3.705)">
                <path id="Path_246" data-name="Path 246" d="M346.492,623.906c-1.8,1.046-1.791,2.741.021,3.787l-16.063,9.335a7.208,7.208,0,0,0-6.542,0L280.1,611.739c1.8-1.046,1.791-2.745-.021-3.791l16.063-9.335a7.208,7.208,0,0,0,6.542,0Zm-41.891-1.03c4.835,2.791,12.645,2.789,17.448,0s4.778-7.314-.057-10.105-12.648-2.791-17.449,0-4.778,7.318.057,10.109m-8.251-18.9a2.609,2.609,0,0,0,2.384-.224c1.572-.914-.308-2.006.947-2.736a1.393,1.393,0,0,1,1.441-.093c.45.26.347.554-.147.84l-.191.111.587.339.151-.088c.749-.435.963-.923.376-1.373l.447-.26-.515-.3-.447.26a2.574,2.574,0,0,0-2.359.227c-1.572.914.293,2.008-.953,2.732a1.376,1.376,0,0,1-1.453.079c-.45-.26-.368-.548.134-.84l.383-.222-.587-.338-.342.2c-.758.441-.972.928-.369,1.387l-.422.245.515.3.422-.245m29.272,30.819a2.609,2.609,0,0,0,2.387-.222c1.572-.914-.308-2.006.947-2.736a1.389,1.389,0,0,1,1.441-.093c.45.26.343.552-.15.839l-.192.111.59.341.151-.088c.749-.435.963-.923.373-1.374l.447-.26-.512-.3-.447.26a2.569,2.569,0,0,0-2.362.226c-1.572.914.293,2.008-.953,2.732a1.37,1.37,0,0,1-1.447.079c-.45-.26-.371-.547.132-.839l.382-.222-.586-.338-.342.2c-.759.441-.973.928-.37,1.387l-.422.245.512.3.422-.245m-28.349-24.14a3.975,3.975,0,0,0,3.613,0,1.1,1.1,0,0,0-.015-2.091,3.974,3.974,0,0,0-3.607,0,1.1,1.1,0,0,0,.009,2.091m28.448,16.424a3.976,3.976,0,0,0,3.61,0,1.1,1.1,0,0,0-.012-2.089,3.975,3.975,0,0,0-3.607,0,1.1,1.1,0,0,0,.009,2.091" transform="translate(-280.081 -598.613)" fill="#b4d193"/>
              </g>
              <g id="Group_168" data-name="Group 168" transform="translate(21.722 5.287)">
                <path id="Path_247" data-name="Path 247" d="M318.556,602.165l-.447.26c.587.45.373.937-.376,1.373l-.151.088-.587-.339.191-.111c.493-.286.6-.58.147-.84a1.393,1.393,0,0,0-1.441.093c-1.255.73.626,1.822-.947,2.736a2.609,2.609,0,0,1-2.384.224l-.422.245-.515-.3.422-.245c-.6-.459-.389-.946.369-1.387l.342-.2.587.338-.383.222c-.5.292-.584.581-.134.84a1.376,1.376,0,0,0,1.453-.079c1.245-.724-.62-1.818.953-2.732a2.574,2.574,0,0,1,2.359-.227l.447-.26Z" transform="translate(-311.625 -601.868)" fill="#758860"/>
              </g>
              <g id="Group_169" data-name="Group 169" transform="translate(33.388 19.056)">
                <path id="Path_248" data-name="Path 248" d="M348.488,630.96l-.758.441c.914.8.625,1.646-.763,2.453l-.324.188-1.53-.883.426-.247c.731-.425.716-.754.2-1.052a1.683,1.683,0,0,0-1.818.119c-2.106,1.223.955,3.108-1.965,4.805a4.87,4.87,0,0,1-4.266.452l-.743.432-1.322-.763.743-.432c-.93-.808-.625-1.665.766-2.473l.7-.407,1.53.883-.8.468c-.731.425-.67.764-.155,1.061a1.7,1.7,0,0,0,1.831-.093c2.106-1.224-.955-3.109,1.968-4.807a4.831,4.831,0,0,1,4.2-.466l.758-.441Z" transform="translate(-335.626 -630.196)" fill="#b4d193"/>
              </g>
              <g id="Group_170" data-name="Group 170" transform="translate(29.733 17.196)">
                <path id="Path_249" data-name="Path 249" d="M344.937,628.045c3.867,2.232,3.89,5.854.049,8.086a15.388,15.388,0,0,1-13.963,0c-3.87-2.234-3.89-5.854-.046-8.088A15.38,15.38,0,0,1,344.937,628.045Zm-11.111,7.222a4.871,4.871,0,0,0,4.266-.452c2.92-1.7-.14-3.582,1.965-4.805a1.683,1.683,0,0,1,1.818-.119c.515.3.529.627-.2,1.052l-.426.247,1.53.883.324-.188c1.387-.806,1.676-1.654.763-2.453l.758-.441-1.322-.764-.758.441a4.83,4.83,0,0,0-4.2.466c-2.923,1.7.138,3.583-1.968,4.807a1.7,1.7,0,0,1-1.831.093c-.515-.3-.576-.636.155-1.061l.8-.468-1.53-.883-.7.407c-1.391.808-1.7,1.664-.766,2.473l-.743.432,1.322.763.743-.432" transform="translate(-328.107 -626.369)" fill="#758860"/>
              </g>
              <g id="Group_171" data-name="Group 171">
                <path id="Path_250" data-name="Path 250" d="M292.354,590.99l53.79,31.056-25.421,14.773-53.789-31.056Zm31.339,42.121,16.063-9.335c-1.812-1.046-1.822-2.741-.021-3.788L295.929,594.7a7.208,7.208,0,0,1-6.542,0l-16.063,9.335c1.812,1.047,1.822,2.745.021,3.791l43.806,25.292a7.208,7.208,0,0,1,6.542,0" transform="translate(-266.934 -590.99)" fill="#758860"/>
              </g>
              <g id="Group_172" data-name="Group 172" transform="translate(51.277 29.648)">
                <path id="Path_251" data-name="Path 251" d="M376.781,652.42a1.1,1.1,0,0,1,.012,2.089,3.977,3.977,0,0,1-3.61,0,1.1,1.1,0,0,1-.009-2.091A3.975,3.975,0,0,1,376.781,652.42Z" transform="translate(-372.431 -651.988)" fill="#758860"/>
              </g>
            </g>
            <g id="Group_174" data-name="Group 174" transform="translate(27.268 15.768)">
              <path id="Path_252" data-name="Path 252" d="M344.068,625.524c4.835,2.791,4.858,7.315.057,10.105s-12.614,2.793-17.448,0-4.861-7.318-.057-10.109S339.234,622.733,344.068,625.524Zm-16.726,9.72c4.462,2.576,11.679,2.578,16.116,0s4.41-6.758-.053-9.335-11.682-2.577-16.116,0-4.413,6.757.052,9.335" transform="translate(-323.034 -623.43)" fill="#758860"/>
            </g>
          </g>
          <path id="Path_253" data-name="Path 253" d="M377.6,669.655v.806l25.316-14.616.1-.962Z" transform="translate(-323.81 -623.827)" fill="#536144"/>
          <path id="Path_254" data-name="Path 254" d="M267.077,621.383l53.72,31.055v.806l-53.72-31.015Z" transform="translate(-267.008 -606.61)" fill="#5e6e4d"/>
        </g>
        <g id="Group_189" data-name="Group 189" transform="translate(0 2.617)">
          <g id="Group_188" data-name="Group 188">
            <g id="Group_177" data-name="Group 177" transform="translate(22.829 13.224)">
              <path id="Path_255" data-name="Path 255" d="M318.253,613.245a1.1,1.1,0,0,1,.015,2.091,3.978,3.978,0,0,1-3.613,0,1.1,1.1,0,0,1-.009-2.091A3.973,3.973,0,0,1,318.253,613.245Z" transform="translate(-313.903 -612.812)" fill="#758860"/>
            </g>
            <g id="Group_186" data-name="Group 186">
              <g id="Group_178" data-name="Group 178" transform="translate(28.212 16.314)">
                <path id="Path_256" data-name="Path 256" d="M344.4,621.1c4.462,2.576,4.486,6.758.053,9.335s-11.653,2.577-16.116,0-4.489-6.757-.052-9.335S339.938,618.523,344.4,621.1Zm-14.99,8.711a15.387,15.387,0,0,0,13.963,0c3.841-2.233,3.818-5.854-.049-8.086a15.379,15.379,0,0,0-13.96,0c-3.845,2.234-3.824,5.853.046,8.088" transform="translate(-324.976 -619.169)" fill="#b4d193"/>
              </g>
              <g id="Group_179" data-name="Group 179" transform="translate(50.997 36.108)">
                <path id="Path_257" data-name="Path 257" d="M378.781,660.189l-.447.26c.59.452.377.939-.373,1.374l-.151.088-.59-.34.191-.111c.493-.287.6-.578.15-.838a1.389,1.389,0,0,0-1.441.093c-1.255.729.626,1.822-.947,2.736a2.61,2.61,0,0,1-2.387.223l-.422.245-.512-.3.422-.246c-.6-.458-.389-.946.37-1.387l.342-.2.586.339-.382.222c-.5.292-.581.579-.132.838a1.37,1.37,0,0,0,1.447-.079c1.246-.724-.62-1.819.953-2.733a2.571,2.571,0,0,1,2.362-.226l.447-.26Z" transform="translate(-371.853 -659.893)" fill="#758860"/>
              </g>
              <g id="Group_180" data-name="Group 180" transform="translate(6.39 3.705)">
                <path id="Path_258" data-name="Path 258" d="M346.492,618.521c-1.8,1.047-1.791,2.741.021,3.788l-16.063,9.335a7.21,7.21,0,0,0-6.542,0L280.1,606.354c1.8-1.046,1.791-2.745-.021-3.791l16.063-9.335a7.208,7.208,0,0,0,6.542,0Zm-41.891-1.03c4.835,2.791,12.645,2.79,17.448,0s4.778-7.314-.057-10.105-12.648-2.791-17.449,0-4.778,7.317.057,10.109m-8.251-18.9a2.61,2.61,0,0,0,2.384-.224c1.572-.914-.308-2.007.947-2.736a1.393,1.393,0,0,1,1.441-.093c.45.26.347.554-.147.84l-.191.111.587.339.151-.088c.749-.435.963-.923.376-1.372l.447-.26-.515-.3-.447.26a2.575,2.575,0,0,0-2.359.227c-1.572.914.293,2.008-.953,2.733a1.378,1.378,0,0,1-1.453.079c-.45-.26-.368-.548.134-.84l.383-.222-.587-.339-.342.2c-.758.441-.972.928-.369,1.387l-.422.246.515.3.422-.245m29.272,30.819a2.61,2.61,0,0,0,2.387-.223c1.572-.913-.308-2.007.947-2.736a1.389,1.389,0,0,1,1.441-.093c.45.26.343.552-.15.838l-.192.111.59.34.151-.088c.749-.435.963-.923.373-1.374l.447-.26-.512-.3-.447.26a2.571,2.571,0,0,0-2.362.226c-1.572.914.293,2.009-.953,2.733a1.37,1.37,0,0,1-1.447.079c-.45-.26-.371-.546.132-.839l.382-.222-.586-.339-.342.2c-.759.441-.973.928-.37,1.387l-.422.245.512.3.422-.245m-28.349-24.139a3.978,3.978,0,0,0,3.613,0,1.1,1.1,0,0,0-.015-2.091,3.973,3.973,0,0,0-3.607,0,1.1,1.1,0,0,0,.009,2.091m28.448,16.424a3.975,3.975,0,0,0,3.61,0,1.1,1.1,0,0,0-.012-2.089,3.975,3.975,0,0,0-3.607,0,1.1,1.1,0,0,0,.009,2.091" transform="translate(-280.081 -593.228)" fill="#b4d193"/>
              </g>
              <g id="Group_181" data-name="Group 181" transform="translate(21.722 5.287)">
                <path id="Path_259" data-name="Path 259" d="M318.556,596.78l-.447.26c.587.45.373.937-.376,1.372l-.151.088-.587-.339.191-.111c.493-.287.6-.581.147-.84a1.393,1.393,0,0,0-1.441.093c-1.255.729.626,1.822-.947,2.736a2.611,2.611,0,0,1-2.384.224l-.422.245-.515-.3.422-.246c-.6-.458-.389-.946.369-1.387l.342-.2.587.339-.383.222c-.5.292-.584.58-.134.84a1.378,1.378,0,0,0,1.453-.079c1.245-.724-.62-1.819.953-2.733a2.575,2.575,0,0,1,2.359-.227l.447-.26Z" transform="translate(-311.625 -596.483)" fill="#758860"/>
              </g>
              <g id="Group_182" data-name="Group 182" transform="translate(33.388 19.057)">
                <path id="Path_260" data-name="Path 260" d="M348.488,625.575l-.758.441c.914.8.625,1.647-.763,2.453l-.324.188-1.53-.883.426-.247c.731-.424.716-.754.2-1.051a1.684,1.684,0,0,0-1.818.118c-2.106,1.224.955,3.108-1.965,4.805a4.868,4.868,0,0,1-4.266.452l-.743.432-1.322-.764.743-.432c-.93-.808-.625-1.664.766-2.473l.7-.407,1.53.884-.8.468c-.731.424-.67.763-.155,1.061a1.7,1.7,0,0,0,1.831-.093c2.106-1.223-.955-3.108,1.968-4.807a4.832,4.832,0,0,1,4.2-.466l.758-.441Z" transform="translate(-335.626 -624.812)" fill="#b4d193"/>
              </g>
              <g id="Group_183" data-name="Group 183" transform="translate(29.733 17.196)">
                <path id="Path_261" data-name="Path 261" d="M344.937,622.66c3.867,2.232,3.89,5.854.049,8.086a15.386,15.386,0,0,1-13.963,0c-3.87-2.234-3.89-5.854-.046-8.087A15.379,15.379,0,0,1,344.937,622.66Zm-11.111,7.222a4.869,4.869,0,0,0,4.266-.452c2.92-1.7-.14-3.581,1.965-4.805a1.683,1.683,0,0,1,1.818-.118c.515.3.529.627-.2,1.051l-.426.247,1.53.883.324-.188c1.387-.806,1.676-1.654.763-2.453l.758-.441-1.322-.763-.758.441a4.832,4.832,0,0,0-4.2.466c-2.923,1.7.138,3.584-1.968,4.807a1.7,1.7,0,0,1-1.831.093c-.515-.3-.576-.636.155-1.061l.8-.468-1.53-.883-.7.407c-1.391.808-1.7,1.664-.766,2.473l-.743.432,1.322.764.743-.432" transform="translate(-328.107 -620.984)" fill="#758860"/>
              </g>
              <g id="Group_184" data-name="Group 184">
                <path id="Path_262" data-name="Path 262" d="M292.354,585.6l53.79,31.056-25.421,14.773-53.789-31.056Zm31.339,42.121,16.063-9.335c-1.812-1.047-1.822-2.741-.021-3.788l-43.806-25.291a7.209,7.209,0,0,1-6.542,0l-16.063,9.335c1.812,1.046,1.822,2.745.021,3.791l43.806,25.291a7.21,7.21,0,0,1,6.542,0" transform="translate(-266.934 -585.605)" fill="#758860"/>
              </g>
              <g id="Group_185" data-name="Group 185" transform="translate(51.277 29.648)">
                <path id="Path_263" data-name="Path 263" d="M376.781,647.035a1.1,1.1,0,0,1,.012,2.089,3.975,3.975,0,0,1-3.61,0,1.1,1.1,0,0,1-.009-2.091A3.975,3.975,0,0,1,376.781,647.035Z" transform="translate(-372.431 -646.603)" fill="#758860"/>
              </g>
            </g>
            <g id="Group_187" data-name="Group 187" transform="translate(27.268 15.768)">
              <path id="Path_264" data-name="Path 264" d="M344.068,620.139c4.835,2.791,4.858,7.316.057,10.105s-12.614,2.793-17.448,0-4.861-7.317-.057-10.109S339.234,617.348,344.068,620.139Zm-16.726,9.72c4.462,2.577,11.679,2.578,16.116,0s4.41-6.759-.053-9.335-11.682-2.577-16.116,0-4.413,6.757.052,9.335" transform="translate(-323.034 -618.045)" fill="#758860"/>
            </g>
          </g>
          <path id="Path_265" data-name="Path 265" d="M377.6,664.271v.806l25.316-14.616.1-.962Z" transform="translate(-323.81 -618.443)" fill="#536144"/>
          <path id="Path_266" data-name="Path 266" d="M267.077,616l53.72,31.055v.806l-53.72-31.015Z" transform="translate(-267.008 -601.225)" fill="#5e6e4d"/>
        </g>
        <g id="Group_202" data-name="Group 202">
          <g id="Group_201" data-name="Group 201">
            <g id="Group_190" data-name="Group 190" transform="translate(22.829 13.224)">
              <path id="Path_267" data-name="Path 267" d="M318.253,607.859a1.1,1.1,0,0,1,.015,2.091,3.975,3.975,0,0,1-3.613,0,1.1,1.1,0,0,1-.009-2.091A3.973,3.973,0,0,1,318.253,607.859Z" transform="translate(-313.903 -607.427)" fill="#758860"/>
            </g>
            <g id="Group_199" data-name="Group 199">
              <g id="Group_191" data-name="Group 191" transform="translate(28.212 16.314)">
                <path id="Path_268" data-name="Path 268" d="M344.4,615.717c4.462,2.577,4.486,6.758.053,9.335s-11.653,2.577-16.116,0-4.489-6.756-.052-9.335S339.938,613.139,344.4,615.717Zm-14.99,8.711a15.385,15.385,0,0,0,13.963,0c3.841-2.232,3.818-5.854-.049-8.086a15.381,15.381,0,0,0-13.96,0c-3.845,2.234-3.824,5.854.046,8.087" transform="translate(-324.976 -613.784)" fill="#b4d193"/>
              </g>
              <g id="Group_192" data-name="Group 192" transform="translate(50.997 36.108)">
                <path id="Path_269" data-name="Path 269" d="M378.781,654.8l-.447.26c.59.451.377.939-.373,1.374l-.151.088-.59-.34.191-.111c.493-.287.6-.579.15-.839a1.389,1.389,0,0,0-1.441.093c-1.255.729.626,1.822-.947,2.736a2.61,2.61,0,0,1-2.387.222l-.422.245-.512-.3.422-.246c-.6-.459-.389-.946.37-1.387l.342-.2.586.338-.382.222c-.5.292-.581.579-.132.839a1.37,1.37,0,0,0,1.447-.079c1.246-.724-.62-1.818.953-2.732a2.57,2.57,0,0,1,2.362-.226l.447-.26Z" transform="translate(-371.853 -654.509)" fill="#758860"/>
              </g>
              <g id="Group_193" data-name="Group 193" transform="translate(6.39 3.705)">
                <path id="Path_270" data-name="Path 270" d="M346.492,613.137c-1.8,1.046-1.791,2.741.021,3.787l-16.063,9.335a7.21,7.21,0,0,0-6.542,0L280.1,600.97c1.8-1.046,1.791-2.745-.021-3.791l16.063-9.335a7.21,7.21,0,0,0,6.542,0Zm-41.891-1.03c4.835,2.792,12.645,2.79,17.448,0s4.778-7.314-.057-10.105-12.648-2.791-17.449,0-4.778,7.318.057,10.109m-8.251-18.9a2.611,2.611,0,0,0,2.384-.224c1.572-.914-.308-2.007.947-2.736a1.394,1.394,0,0,1,1.441-.093c.45.26.347.554-.147.84l-.191.111.587.338.151-.087c.749-.435.963-.923.376-1.373l.447-.26-.515-.3-.447.26a2.575,2.575,0,0,0-2.359.228c-1.572.913.293,2.008-.953,2.732a1.376,1.376,0,0,1-1.453.079c-.45-.26-.368-.548.134-.84l.383-.222-.587-.338-.342.2c-.758.441-.972.928-.369,1.387l-.422.245.515.3.422-.245m29.272,30.819a2.61,2.61,0,0,0,2.387-.222c1.572-.914-.308-2.007.947-2.736a1.389,1.389,0,0,1,1.441-.093c.45.26.343.552-.15.838l-.192.111.59.34.151-.088c.749-.435.963-.923.373-1.374l.447-.26-.512-.3-.447.26a2.571,2.571,0,0,0-2.362.226c-1.572.914.293,2.008-.953,2.732a1.37,1.37,0,0,1-1.447.079c-.45-.26-.371-.546.132-.838l.382-.222-.586-.338-.342.2c-.759.44-.973.928-.37,1.387l-.422.245.512.3.422-.245m-28.349-24.14a3.975,3.975,0,0,0,3.613,0,1.1,1.1,0,0,0-.015-2.091,3.974,3.974,0,0,0-3.607,0,1.1,1.1,0,0,0,.009,2.091m28.448,16.424a3.977,3.977,0,0,0,3.61,0,1.1,1.1,0,0,0-.012-2.09,3.975,3.975,0,0,0-3.607,0,1.1,1.1,0,0,0,.009,2.091" transform="translate(-280.081 -587.844)" fill="#b4d193"/>
              </g>
              <g id="Group_194" data-name="Group 194" transform="translate(21.722 5.287)">
                <path id="Path_271" data-name="Path 271" d="M318.556,591.4l-.447.26c.587.45.373.937-.376,1.373l-.151.088-.587-.338.191-.111c.493-.286.6-.58.147-.84a1.393,1.393,0,0,0-1.441.093c-1.255.729.626,1.822-.947,2.736a2.61,2.61,0,0,1-2.384.224l-.422.245-.515-.3.422-.245c-.6-.459-.389-.946.369-1.387l.342-.2.587.338-.383.222c-.5.292-.584.581-.134.84a1.376,1.376,0,0,0,1.453-.079c1.245-.724-.62-1.819.953-2.732a2.574,2.574,0,0,1,2.359-.228l.447-.26Z" transform="translate(-311.625 -591.099)" fill="#758860"/>
              </g>
              <g id="Group_195" data-name="Group 195" transform="translate(33.388 19.056)">
                <path id="Path_272" data-name="Path 272" d="M348.488,620.19l-.758.441c.914.8.625,1.647-.763,2.453l-.324.188-1.53-.883.426-.247c.731-.425.716-.754.2-1.052a1.684,1.684,0,0,0-1.818.118c-2.106,1.224.955,3.109-1.965,4.806a4.872,4.872,0,0,1-4.266.451l-.743.432-1.322-.763.743-.432c-.93-.808-.625-1.664.766-2.473l.7-.406,1.53.883-.8.468c-.731.425-.67.763-.155,1.061a1.7,1.7,0,0,0,1.831-.093c2.106-1.224-.955-3.109,1.968-4.808a4.832,4.832,0,0,1,4.2-.466l.758-.441Z" transform="translate(-335.626 -619.427)" fill="#b4d193"/>
              </g>
              <g id="Group_196" data-name="Group 196" transform="translate(29.733 17.196)">
                <path id="Path_273" data-name="Path 273" d="M344.937,617.276c3.867,2.232,3.89,5.853.049,8.086a15.385,15.385,0,0,1-13.963,0c-3.87-2.234-3.89-5.853-.046-8.087A15.381,15.381,0,0,1,344.937,617.276ZM333.826,624.5a4.872,4.872,0,0,0,4.266-.451c2.92-1.7-.14-3.582,1.965-4.806a1.684,1.684,0,0,1,1.818-.118c.515.3.529.627-.2,1.052l-.426.247,1.53.883.324-.188c1.387-.806,1.676-1.654.763-2.453l.758-.441-1.322-.763-.758.441a4.832,4.832,0,0,0-4.2.466c-2.923,1.7.138,3.584-1.968,4.808a1.7,1.7,0,0,1-1.831.093c-.515-.3-.576-.636.155-1.061l.8-.468-1.53-.883-.7.406c-1.391.808-1.7,1.665-.766,2.473l-.743.432,1.322.763.743-.432" transform="translate(-328.107 -615.6)" fill="#758860"/>
              </g>
              <g id="Group_197" data-name="Group 197">
                <path id="Path_274" data-name="Path 274" d="M292.354,580.221l53.79,31.055-25.421,14.773-53.789-31.055Zm31.339,42.121,16.063-9.335c-1.812-1.046-1.822-2.741-.021-3.787l-43.806-25.291a7.21,7.21,0,0,1-6.542,0l-16.063,9.335c1.812,1.047,1.822,2.745.021,3.791l43.806,25.291a7.21,7.21,0,0,1,6.542,0" transform="translate(-266.934 -580.221)" fill="#758860"/>
              </g>
              <g id="Group_198" data-name="Group 198" transform="translate(51.277 29.648)">
                <path id="Path_275" data-name="Path 275" d="M376.781,641.651a1.1,1.1,0,0,1,.012,2.09,3.976,3.976,0,0,1-3.61,0,1.1,1.1,0,0,1-.009-2.091A3.976,3.976,0,0,1,376.781,641.651Z" transform="translate(-372.431 -641.218)" fill="#758860"/>
              </g>
            </g>
            <g id="Group_200" data-name="Group 200" transform="translate(27.268 15.768)">
              <path id="Path_276" data-name="Path 276" d="M344.068,614.755c4.835,2.791,4.858,7.315.057,10.105s-12.614,2.793-17.448,0-4.861-7.318-.057-10.109S339.234,611.963,344.068,614.755Zm-16.726,9.72c4.462,2.577,11.679,2.578,16.116,0s4.41-6.758-.053-9.335-11.682-2.577-16.116,0-4.413,6.757.052,9.335" transform="translate(-323.034 -612.661)" fill="#758860"/>
            </g>
          </g>
          <path id="Path_277" data-name="Path 277" d="M377.6,658.886v.806l25.316-14.616.1-.962Z" transform="translate(-323.81 -613.058)" fill="#536144"/>
          <path id="Path_278" data-name="Path 278" d="M267.077,610.614l53.72,31.055v.806l-53.72-31.015Z" transform="translate(-267.008 -595.841)" fill="#5e6e4d"/>
        </g>
      </g>
      <g id="Group_233" data-name="Group 233" transform="translate(180.135 126.58)">
        <g id="Group_225" data-name="Group 225" transform="translate(0 14.491)">
          <g id="Group_205" data-name="Group 205">
            <g id="Group_204" data-name="Group 204">
              <path id="Path_279" data-name="Path 279" d="M257.681,250.677l-32.23,18.729-5.021-3.015,32.44-18.511Z" transform="translate(-220.43 -247.88)" fill="#ff7a7e"/>
              <path id="Path_280" data-name="Path 280" d="M262.99,253.634l-32.23,18.729L230.8,297.3l32.191-18.585Z" transform="translate(-225.739 -250.837)" fill="#f4575b"/>
              <path id="Path_281" data-name="Path 281" d="M220.43,285.963l5.021,3.015.039,24.939-5.021-2.872Z" transform="translate(-220.43 -267.453)" fill="#f44747"/>
            </g>
          </g>
          <g id="Group_224" data-name="Group 224" transform="translate(7.118 10.625)">
            <g id="Group_212" data-name="Group 212" transform="translate(20.312)">
              <g id="Group_206" data-name="Group 206" transform="translate(1.762 6.475)">
                <path id="Path_282" data-name="Path 282" d="M284.45,292.845l-1.51-.878-2.451-8.907,1.51.878Z" transform="translate(-280.489 -283.061)" fill="#eb9c4d"/>
              </g>
              <g id="Group_207" data-name="Group 207" transform="translate(4.44 1.001)">
                <path id="Path_283" data-name="Path 283" d="M287.532,281.191l-1.51-.878L286,271.8l1.51.878Z" transform="translate(-285.997 -271.798)" fill="#eb9c4d"/>
              </g>
              <g id="Group_208" data-name="Group 208" transform="translate(4.44)">
                <path id="Path_284" data-name="Path 284" d="M287.508,271.617,286,270.74l1.733-1,1.51.878Z" transform="translate(-285.997 -269.739)" fill="#ffee79"/>
              </g>
              <g id="Group_209" data-name="Group 209" transform="translate(0 2.155)">
                <path id="Path_285" data-name="Path 285" d="M278.374,276.459l-1.51-.878,2.44-1.409,1.51.878Z" transform="translate(-276.864 -274.173)" fill="#ffee79"/>
              </g>
              <g id="Group_210" data-name="Group 210" transform="translate(0 3.564)">
                <path id="Path_286" data-name="Path 286" d="M278.414,292.176l-1.51-.878-.04-14.227,1.51.878Z" transform="translate(-276.864 -277.071)" fill="#eb9c4d"/>
              </g>
              <g id="Group_211" data-name="Group 211" transform="translate(1.51 0.878)">
                <path id="Path_287" data-name="Path 287" d="M286.143,271.545l.04,14.227-2,1.155-2.451-8.907.029,10.3-1.751,1.011-.04-14.227,2.44-1.409,2.024,7.361-.024-8.515Z" transform="translate(-279.971 -271.545)" fill="#ffcd57"/>
              </g>
            </g>
            <g id="Group_218" data-name="Group 218" transform="translate(13.82 4.248)">
              <g id="Group_213" data-name="Group 213" transform="translate(1.982 12.194)">
                <path id="Path_288" data-name="Path 288" d="M269.1,306.384l-1.51-.878,3.359-1.939,1.51.878Z" transform="translate(-267.585 -303.567)" fill="#ffee79"/>
              </g>
              <g id="Group_214" data-name="Group 214" transform="translate(1.964 6.392)">
                <path id="Path_289" data-name="Path 289" d="M269.059,294.05l-1.51-.878,2.67-1.542,1.51.878Z" transform="translate(-267.549 -291.631)" fill="#ffee79"/>
              </g>
              <g id="Group_215" data-name="Group 215" transform="translate(0 3.063)">
                <path id="Path_290" data-name="Path 290" d="M265.058,299.887l-1.51-.878-.04-14.227,1.51.878Z" transform="translate(-263.508 -284.782)" fill="#eb9c4d"/>
              </g>
              <g id="Group_216" data-name="Group 216">
                <path id="Path_291" data-name="Path 291" d="M265.018,282.421l-1.51-.878,5.306-3.063,1.51.878Z" transform="translate(-263.508 -278.479)" fill="#ffee79"/>
              </g>
              <g id="Group_217" data-name="Group 217" transform="translate(1.51 0.878)">
                <path id="Path_292" data-name="Path 292" d="M271.921,280.285l.006,2.033-3.359,1.939.011,3.962,2.67-1.542.006,2.033-2.67,1.542.012,4.166,3.359-1.939.006,2.033-5.306,3.063-.04-14.227Z" transform="translate(-266.615 -280.285)" fill="#ffcd57"/>
              </g>
            </g>
            <g id="Group_221" data-name="Group 221" transform="translate(7.155 8.977)">
              <path id="Path_293" data-name="Path 293" d="M257.212,295c0-.533-.095-.823-.272-.926l-1.511-.878c.178.1.271.393.273.926l.006,2.133a1.9,1.9,0,0,1-.952,1.893l-.919.531,1.51.877.919-.53a1.9,1.9,0,0,0,.951-1.893Z" transform="translate(-251.872 -290.774)" fill="#eb9c4d"/>
              <path id="Path_294" data-name="Path 294" d="M254.8,288.356c-.483-.281-1.194-.162-2.137.382l-2.864,1.654,1.511.878,2.864-1.654c.942-.544,1.653-.663,2.136-.383Z" transform="translate(-249.795 -288.209)" fill="#ffee79"/>
              <g id="Group_219" data-name="Group 219" transform="translate(0 2.183)">
                <path id="Path_295" data-name="Path 295" d="M251.346,307.8l-1.51-.878L249.8,292.7l1.51.878Z" transform="translate(-249.795 -292.699)" fill="#eb9c4d"/>
              </g>
              <g id="Group_220" data-name="Group 220" transform="translate(1.51 0.877)">
                <path id="Path_296" data-name="Path 296" d="M255.766,290.543c1.945-1.123,2.9-.436,2.91,1.842l.005,1.85a5.617,5.617,0,0,1-2.891,5.191l-.919.53.015,5.345-1.945,1.123L252.9,292.2Zm.971,4.956-.006-2.133c0-1.017-.339-1.148-.96-.79l-.919.53.014,4.816.919-.53a1.9,1.9,0,0,0,.951-1.893" transform="translate(-252.902 -290.014)" fill="#ffcd57"/>
              </g>
            </g>
            <g id="Group_223" data-name="Group 223" transform="translate(0 12.915)">
              <path id="Path_297" data-name="Path 297" d="M242.948,303.117c0-.533-.109-.83-.3-.941l-1.51-.877c.192.111.3.409.3.942l.022,7.682a2.076,2.076,0,0,1-1,1.984c-.3.17-.538.223-.711.122l1.51.878c.174.1.417.048.712-.122a2.076,2.076,0,0,0,1-1.984Z" transform="translate(-237.475 -298.873)" fill="#eb9c4d"/>
              <path id="Path_298" data-name="Path 298" d="M240.175,296.466c-.5-.291-1.225-.18-2.155.356a5.849,5.849,0,0,0-2.945,5.283l.021,7.4c0,1.167.281,1.919.809,2.226l1.51.878c-.528-.307-.805-1.059-.809-2.227l-.021-7.4a5.848,5.848,0,0,1,2.945-5.282c.929-.536,1.654-.646,2.154-.356Z" transform="translate(-235.075 -296.309)" fill="#ffee79"/>
              <g id="Group_222" data-name="Group 222" transform="translate(1.511 0.878)">
                <path id="Path_299" data-name="Path 299" d="M241.128,298.628c1.908-1.1,2.956-.4,2.963,1.872l.021,7.4a5.85,5.85,0,0,1-2.943,5.281c-1.911,1.1-2.959.4-2.965-1.87l-.021-7.4A5.848,5.848,0,0,1,241.128,298.628Zm1.039,10.535-.022-7.682c0-1.016-.394-1.177-1.012-.82a2.074,2.074,0,0,0-1,1.984l.022,7.682c0,1.017.392,1.178,1.012.82a2.076,2.076,0,0,0,1-1.984" transform="translate(-238.183 -298.115)" fill="#ffcd57"/>
              </g>
            </g>
          </g>
        </g>
        <g id="Group_230" data-name="Group 230" transform="translate(9.104 12.801)">
          <g id="Group_229" data-name="Group 229">
            <g id="Group_226" data-name="Group 226" transform="translate(10.139)">
              <path id="Path_300" data-name="Path 300" d="M260.707,244.8l-.685-.4,9.829,5.6.685.4Z" transform="translate(-260.022 -244.404)" fill="#9c298c"/>
            </g>
            <g id="Group_227" data-name="Group 227">
              <path id="Path_301" data-name="Path 301" d="M239.846,262.364l-.685-.4L249.3,244.4l.685.4Z" transform="translate(-239.161 -244.404)" fill="#6d6e71"/>
            </g>
            <g id="Group_228" data-name="Group 228" transform="translate(0.685 0.398)">
              <path id="Path_302" data-name="Path 302" d="M250.71,245.223l9.829,5.6-.489.843-9.337-5.321-9.654,16.721-.489-.279Z" transform="translate(-240.57 -245.223)" fill="#414042"/>
            </g>
          </g>
        </g>
        <g id="Group_232" data-name="Group 232" transform="translate(2.256 0)">
          <g id="Group_231" data-name="Group 231" transform="translate(2.857 1.582)">
            <path id="Path_303" data-name="Path 303" d="M230.95,239.417l.012,4.073,31.342-18.1-.012-4.073Z" transform="translate(-230.95 -221.322)" fill="#9a67c9"/>
          </g>
          <path id="Path_304" data-name="Path 304" d="M225.072,236.163l31.343-18.1,2.856,1.582-31.342,18.1Z" transform="translate(-225.072 -218.067)" fill="#ab72e0"/>
          <path id="Path_305" data-name="Path 305" d="M227.941,260.951l-2.863-1.586-.006-4.068,2.857,1.581Z" transform="translate(-225.072 -237.201)" fill="#7f55a6"/>
        </g>
      </g>
      <g id="Group_278" data-name="Group 278" transform="translate(224.053 155.49)">
        <g id="Group_263" data-name="Group 263" transform="translate(0 9.485)">
          <g id="Group_249" data-name="Group 249" transform="translate(3.575 3.912)">
            <g id="Group_236" data-name="Group 236" transform="translate(34.225 19.752)">
              <g id="Group_235" data-name="Group 235">
                <g id="Group_234" data-name="Group 234">
                  <path id="Path_306" data-name="Path 306" d="M388.555,400.717V361.969l28.118-16.221v38.737Z" transform="translate(-388.555 -345.747)" fill="#f77c1e"/>
                </g>
              </g>
            </g>
            <g id="Group_239" data-name="Group 239" transform="translate(0.001 16.214)">
              <g id="Group_238" data-name="Group 238">
                <g id="Group_237" data-name="Group 237">
                  <path id="Path_307" data-name="Path 307" d="M318.142,377.2V338.469l34.228,19.756V396.98Z" transform="translate(-318.142 -338.469)" fill="#ffcd57"/>
                </g>
              </g>
            </g>
            <path id="Path_308" data-name="Path 308" d="M318.141,321.321l28.113-16.211,34.23,19.751-28.117,16.221Z" transform="translate(-318.141 -305.11)" fill="#d41c22"/>
            <g id="Group_242" data-name="Group 242" transform="translate(34.225 19.752)">
              <g id="Group_241" data-name="Group 241">
                <g id="Group_240" data-name="Group 240">
                  <path id="Path_309" data-name="Path 309" d="M388.555,400.717V361.969l28.118-16.221v38.737Z" transform="translate(-388.555 -345.747)" fill="#eb9c4d"/>
                </g>
              </g>
            </g>
            <g id="Group_245" data-name="Group 245" transform="translate(48.475 24.401)">
              <g id="Group_244" data-name="Group 244">
                <g id="Group_243" data-name="Group 243">
                  <path id="Path_310" data-name="Path 310" d="M417.872,397.406V358.657l5.8-3.345v38.737Z" transform="translate(-417.872 -355.312)" fill="#ba2125"/>
                </g>
              </g>
            </g>
            <g id="Group_248" data-name="Group 248" transform="translate(14.217 24.401)">
              <g id="Group_247" data-name="Group 247">
                <g id="Group_246" data-name="Group 246">
                  <path id="Path_311" data-name="Path 311" d="M353.185,397.406V358.657l-5.8-3.345v38.737Z" transform="translate(-347.389 -355.312)" fill="#cf383b"/>
                </g>
              </g>
            </g>
          </g>
          <g id="Group_262" data-name="Group 262">
            <g id="Group_252" data-name="Group 252" transform="translate(37.795 21.812)">
              <g id="Group_251" data-name="Group 251">
                <g id="Group_250" data-name="Group 250">
                  <path id="Path_312" data-name="Path 312" d="M388.545,366.011V358.18l28.123-16.243v7.818Z" transform="translate(-388.545 -341.937)" fill="#eb9c4d"/>
                </g>
              </g>
            </g>
            <g id="Group_255" data-name="Group 255" transform="translate(0.001 16.235)">
              <g id="Group_254" data-name="Group 254">
                <g id="Group_253" data-name="Group 253">
                  <path id="Path_313" data-name="Path 313" d="M310.787,338.274v-7.811l37.8,21.817v7.838Z" transform="translate(-310.787 -330.463)" fill="#ffcd57"/>
                </g>
              </g>
            </g>
            <path id="Path_314" data-name="Path 314" d="M310.786,313.293l28.153-16.232L376.7,318.872l-28.121,16.243Z" transform="translate(-310.786 -297.061)" fill="#ffee79"/>
            <g id="Group_258" data-name="Group 258" transform="translate(54.055 25.327)">
              <g id="Group_257" data-name="Group 257">
                <g id="Group_256" data-name="Group 256">
                  <path id="Path_315" data-name="Path 315" d="M422,360.341v-7.829l5.8-3.345v7.817Z" transform="translate(-421.997 -349.167)" fill="#cf383b"/>
                </g>
              </g>
            </g>
            <g id="Group_261" data-name="Group 261" transform="translate(15.383 25.112)">
              <g id="Group_260" data-name="Group 260">
                <g id="Group_259" data-name="Group 259">
                  <path id="Path_316" data-name="Path 316" d="M348.23,359.9V352.07l-5.8-3.345v7.817Z" transform="translate(-342.434 -348.725)" fill="#cf383b"/>
                </g>
              </g>
            </g>
            <path id="Path_317" data-name="Path 317" d="M370.56,315.317l-28.126,16.238,5.8,3.345,28.135-16.244Z" transform="translate(-327.051 -306.443)" fill="#f4575b"/>
            <path id="Path_318" data-name="Path 318" d="M349.838,304.156l37.886,21.873-5.8,3.345-37.9-21.879Z" transform="translate(-327.873 -300.707)" fill="#f44747"/>
          </g>
          <path id="Path_319" data-name="Path 319" d="M318.075,350.783,352.3,370.562l0,1.64-34.283-19.793Z" transform="translate(-314.5 -324.671)" fill="#f7941e"/>
          <path id="Path_320" data-name="Path 320" d="M416.677,358.056,388.564,374.3l0,1.64,28.11-16.258Z" transform="translate(-350.759 -328.409)" fill="#ef8031"/>
        </g>
        <g id="Group_277" data-name="Group 277" transform="translate(14.578)">
          <g id="Group_271" data-name="Group 271">
            <path id="Path_321" data-name="Path 321" d="M361.43,298.041c-5.889-3.4-8.946-7.015-9.8-9.5a3.6,3.6,0,0,1,1.531-4.65l-6.14,3.568a3.6,3.6,0,0,0-1.531,4.65c.859,2.49,3.915,6.1,9.8,9.5a50.345,50.345,0,0,0,5.47,2.71l6.14-3.568A50.3,50.3,0,0,1,361.43,298.041Z" transform="translate(-343.048 -280.805)" fill="#ba2125"/>
            <g id="Group_264" data-name="Group 264" transform="translate(20.526 21.783)">
              <path id="Path_322" data-name="Path 322" d="M383.007,325.93l6.14-3.568.975,2.174-6.14,3.568Z" transform="translate(-383.007 -322.361)" fill="#ef8031"/>
            </g>
            <g id="Group_265" data-name="Group 265" transform="translate(20.177 23.442)">
              <path id="Path_323" data-name="Path 323" d="M382.289,329.343l6.14-3.568,1.324.515-6.14,3.568Z" transform="translate(-382.289 -325.775)" fill="#ef8031"/>
            </g>
            <g id="Group_266" data-name="Group 266" transform="translate(0 3.568)">
              <path id="Path_324" data-name="Path 324" d="M361.3,306.67l.975,2.174-1.324-.515-.363-.141a55.038,55.038,0,0,1-7.557-3.592c-6.067-3.5-10.283-7.74-11.748-11.988-1.146-3.326-.331-6.09,2.181-7.391a3.7,3.7,0,0,1,3.679.395q.3.171.6.382c4.814,3.329,10.241,13.766,12.5,18.42C360.86,305.685,361.239,306.526,361.3,306.67Zm-8.284-4.547a50.334,50.334,0,0,0,5.47,2.71c-2.495-5.137-7.3-13.978-10.96-16.5-.128-.09-.254-.169-.377-.24a2.2,2.2,0,0,0-2.2-.231,3.6,3.6,0,0,0-1.733,4.761c.859,2.49,3.915,6.1,9.8,9.5" transform="translate(-340.777 -284.887)" fill="#f4575b"/>
            </g>
            <g id="Group_267" data-name="Group 267" transform="translate(2.451)">
              <path id="Path_325" data-name="Path 325" d="M345.82,281.575l6.14-3.568q.117-.068.24-.132a3.7,3.7,0,0,1,3.679.394q.3.171.6.382c4.815,3.328,10.241,13.766,12.5,18.42.616,1.273,1,2.112,1.06,2.257l-6.14,3.569c-.065-.144-.443-.985-1.06-2.257-2.254-4.654-7.681-15.092-12.5-18.42q-.306-.211-.6-.382a3.7,3.7,0,0,0-3.679-.395C345.978,281.486,345.9,281.53,345.82,281.575Z" transform="translate(-345.82 -277.546)" fill="#cf383b"/>
            </g>
            <path id="Path_326" data-name="Path 326" d="M397.252,323.435a70.61,70.61,0,0,1-6.376-4.219l-4.327,2.515,4.327-2.515a25.454,25.454,0,0,1,4.157-3.058l-6.14,3.568a25.477,25.477,0,0,0-4.157,3.058h0A70.535,70.535,0,0,0,391.113,327c5.555,3.207,8.907,3.687,10.46,2.784l6.14-3.568C406.16,327.121,402.808,326.642,397.252,323.435Z" transform="translate(-363.37 -297.39)" fill="#ba2125"/>
            <g id="Group_268" data-name="Group 268" transform="translate(24.012 14.104)">
              <path id="Path_327" data-name="Path 327" d="M390.178,312.156l6.14-3.568c2.868-1.667,6.466-2.847,9.779-1.311q.336.156.662.344a11.548,11.548,0,0,1,4.037,4.234l-6.14,3.568a11.544,11.544,0,0,0-4.037-4.234q-.325-.188-.661-.344C396.644,309.309,393.046,310.489,390.178,312.156Z" transform="translate(-390.178 -306.563)" fill="#cf383b"/>
            </g>
            <g id="Group_269" data-name="Group 269" transform="translate(19.466 17.672)">
              <path id="Path_328" data-name="Path 328" d="M399.85,319.195c2.806,4.716,3.669,8.7,2.372,10.923-1.645,2.821-6.352,2.1-13.114-1.8a76.887,76.887,0,0,1-7.57-5.073l1.324.515-.975-2.174c-.065-.144-.443-.985-1.06-2.257,2.34-2.164,8.736-7.3,14.325-4.708q.336.155.662.344A11.545,11.545,0,0,1,399.85,319.195Zm.45,8.708c.847-1.448.138-4.288-1.94-7.781a7.293,7.293,0,0,0-2.563-2.694q-.215-.124-.439-.228c-4.234-1.963-9.828,1.891-12.631,4.426a70.608,70.608,0,0,0,6.377,4.219c6.706,3.871,10.2,3.768,11.2,2.057" transform="translate(-380.827 -313.904)" fill="#f4575b"/>
            </g>
            <g id="Group_270" data-name="Group 270" transform="translate(38.49 19.395)">
              <path id="Path_329" data-name="Path 329" d="M427.312,329.543l-6.14,3.568a3.187,3.187,0,0,0,1.165-1.172c1.3-2.227.434-6.207-2.372-10.923l6.14-3.568c2.806,4.715,3.669,8.7,2.372,10.922A3.188,3.188,0,0,1,427.312,329.543Z" transform="translate(-419.965 -317.448)" fill="#cf383b"/>
            </g>
          </g>
          <g id="Group_276" data-name="Group 276" transform="translate(3.951 23.181)">
            <g id="Group_275" data-name="Group 275">
              <g id="Group_272" data-name="Group 272" transform="translate(13.262 2.466)">
                <path id="Path_330" data-name="Path 330" d="M376.192,330.311l6.406,3.723a4.641,4.641,0,0,1,.86.621l-6.406-3.723A4.692,4.692,0,0,0,376.192,330.311Z" transform="translate(-376.192 -330.311)" fill="#c9181e"/>
              </g>
              <g id="Group_273" data-name="Group 273" transform="translate(0 5.738)">
                <path id="Path_331" data-name="Path 331" d="M355.625,341.968l-6.406-3.723-.312-1.2,6.406,3.723Z" transform="translate(-348.907 -337.043)" fill="#d14f4f"/>
              </g>
              <path id="Path_332" data-name="Path 332" d="M363,326.148c-1.419-.825-4.234-1.743-8.071.472q-.437.252-.89.56a57.423,57.423,0,0,0-5.134,3.8l6.406,3.723a57.3,57.3,0,0,1,5.134-3.8q.454-.308.89-.559c3.837-2.216,6.652-1.3,8.071-.472Z" transform="translate(-348.907 -325.238)" fill="#f44747"/>
              <g id="Group_274" data-name="Group 274" transform="translate(6.406 3.723)">
                <path id="Path_333" data-name="Path 333" d="M368.111,334.279c5.542-3.2,8.951.138,9.1.288l-1,1.417c-.032-.033-3.2-3.1-8.126-.261q-.37.214-.751.471a54.2,54.2,0,0,0-4.933,3.642l-.312-1.2a57.3,57.3,0,0,1,5.134-3.8Q367.674,334.53,368.111,334.279Z" transform="translate(-362.087 -332.897)" fill="#ba2125"/>
              </g>
            </g>
          </g>
        </g>
      </g>
      <g id="Group_297" data-name="Group 297" transform="translate(152.171 249.256)">
        <g id="Group_282" data-name="Group 282" transform="translate(0)">
          <g id="Group_279" data-name="Group 279" transform="translate(0 7.877)">
            <path id="Path_334" data-name="Path 334" d="M240.8,486.663l-40.93,23.631,5.412,44.722,40.93-23.63Z" transform="translate(-181.898 -486.663)" fill="#809ec5"/>
            <path id="Path_335" data-name="Path 335" d="M177.622,520.95l-10.4-1.873L162.9,559.1l14.724-2.364Z" transform="translate(-162.899 -503.322)" fill="#809ec5"/>
            <path id="Path_336" data-name="Path 336" d="M193.191,558.716V522.931l3.245,6,5.412,44.722Z" transform="translate(-178.467 -505.303)" fill="#5377a6"/>
            <path id="Path_337" data-name="Path 337" d="M162.9,598.917l14.724-2.364,8.657,14.94Z" transform="translate(-162.899 -543.141)" fill="#5377a6"/>
          </g>
          <g id="Group_281" data-name="Group 281" transform="translate(4.326)">
            <path id="Path_338" data-name="Path 338" d="M182.2,495.963l3.245,6,40.93-23.631-10.8-1.642-2.846-6.234L171.8,494.089Z" transform="translate(-171.799 -470.458)" fill="#fcfcfc"/>
            <g id="Group_280" data-name="Group 280" transform="translate(2.792 1.566)">
              <path id="Path_339" data-name="Path 339" d="M186.6,496.781l2.826,5.229,37.185-21.469-9.4-1.431-2.479-5.43L177.543,495.15Z" transform="translate(-177.543 -473.68)" fill="#f9c77d"/>
              <path id="Path_340" data-name="Path 340" d="M259.144,484.852v6.861l9.4-5.43Z" transform="translate(-219.481 -479.422)" fill="#eda437"/>
              <path id="Path_341" data-name="Path 341" d="M254.045,473.68V487.4l2.479-1.431v-6.861Z" transform="translate(-216.86 -473.68)" fill="#f7bf6a"/>
            </g>
          </g>
        </g>
        <g id="Group_285" data-name="Group 285" transform="translate(29.311 29.653)">
          <g id="Group_283" data-name="Group 283">
            <path id="Path_342" data-name="Path 342" d="M225.117,531.729c1.061-.613,1.923-.122,1.927,1.1a4.219,4.219,0,0,1-1.915,3.316c-1.061.613-1.924.122-1.927-1.1A4.218,4.218,0,0,1,225.117,531.729Z" transform="translate(-223.202 -531.465)" fill="#91be4a"/>
          </g>
          <g id="Group_284" data-name="Group 284" transform="translate(1.043 1.342)">
            <path id="Path_343" data-name="Path 343" d="M226.223,534.346c.485-.28.879-.055.88.5a1.926,1.926,0,0,1-.875,1.516c-.485.28-.879.055-.881-.5A1.928,1.928,0,0,1,226.223,534.346Z" transform="translate(-225.348 -534.226)" fill="#a7db55"/>
          </g>
        </g>
        <g id="Group_288" data-name="Group 288" transform="translate(49.57 17.957)">
          <g id="Group_286" data-name="Group 286">
            <path id="Path_344" data-name="Path 344" d="M266.8,507.664c1.061-.612,1.924-.121,1.927,1.1a4.219,4.219,0,0,1-1.915,3.316c-1.062.613-1.924.122-1.927-1.1A4.217,4.217,0,0,1,266.8,507.664Z" transform="translate(-264.883 -507.401)" fill="#91be4a"/>
          </g>
          <g id="Group_287" data-name="Group 287" transform="translate(1.043 1.342)">
            <path id="Path_345" data-name="Path 345" d="M267.9,510.282c.485-.28.879-.055.881.5a1.929,1.929,0,0,1-.875,1.516c-.485.28-.879.055-.881-.5A1.928,1.928,0,0,1,267.9,510.282Z" transform="translate(-267.029 -510.161)" fill="#a7db55"/>
          </g>
        </g>
        <g id="Group_296" data-name="Group 296" transform="translate(30.386 19.976)">
          <g id="Group_295" data-name="Group 295">
            <g id="Group_289" data-name="Group 289" transform="translate(20.46 0.994)">
              <path id="Path_346" data-name="Path 346" d="M268.57,526.337l-1.028-.6-.034-12.138,1.028.6Z" transform="translate(-267.508 -513.601)" fill="#d1d3d4"/>
            </g>
            <g id="Group_290" data-name="Group 290" transform="translate(20.46)">
              <path id="Path_347" data-name="Path 347" d="M268.536,513.147l-1.028-.6,1.722-.994,1.028.6Z" transform="translate(-267.508 -511.556)" fill="#fff"/>
            </g>
            <g id="Group_291" data-name="Group 291" transform="translate(1.76 13.133)">
              <path id="Path_348" data-name="Path 348" d="M230.062,549.988l-1.028-.6,18.735-10.816,1.028.6Z" transform="translate(-229.035 -538.575)" fill="#fff"/>
            </g>
            <g id="Group_292" data-name="Group 292" transform="translate(0 11.811)">
              <path id="Path_349" data-name="Path 349" d="M226.442,537.448l-1.028-.6,1.725-1,1.028.6Z" transform="translate(-225.414 -535.855)" fill="#fff"/>
            </g>
            <g id="Group_293" data-name="Group 293" transform="translate(0 12.807)">
              <path id="Path_350" data-name="Path 350" d="M226.482,552.623l-1.028-.6-.04-14.121,1.028.6Z" transform="translate(-225.414 -537.904)" fill="#d1d3d4"/>
            </g>
            <g id="Group_294" data-name="Group 294" transform="translate(1.028 0.597)">
              <path id="Path_351" data-name="Path 351" d="M249.711,512.784l.04,14.121-22.182,12.807-.04-14.121,1.725-1,.034,12.138,18.735-10.816-.034-12.138Z" transform="translate(-227.528 -512.784)" fill="#e6e7e8"/>
            </g>
          </g>
        </g>
      </g>
      <g id="Group_325" data-name="Group 325" transform="translate(181.473 314.692)">
        <g id="Group_306" data-name="Group 306" transform="translate(0.01 6.094)">
          <g id="Group_301" data-name="Group 301">
            <g id="Group_300" data-name="Group 300">
              <g id="Group_298" data-name="Group 298" transform="translate(0 5.612)">
                <path id="Path_352" data-name="Path 352" d="M242.678,629.222l-.006,2.247c0,1.434-.946,2.865-2.829,3.959a15.177,15.177,0,0,1-13.768,0c-1.919-1.108-2.877-2.563-2.874-4.015l.006-2.247c0,1.452.954,2.907,2.874,4.015a15.175,15.175,0,0,0,13.768,0C241.732,632.087,242.674,630.655,242.678,629.222Z" transform="translate(-223.202 -629.166)" fill="#e3a12e"/>
              </g>
              <g id="Group_299" data-name="Group 299" transform="translate(0.007)">
                <path id="Path_353" data-name="Path 353" d="M239.812,619.273c3.813,2.2,3.835,5.772.045,7.974a15.175,15.175,0,0,1-13.768,0c-3.815-2.2-3.833-5.773-.045-7.975A15.167,15.167,0,0,1,239.812,619.273Z" transform="translate(-223.216 -617.621)" fill="#f7941e"/>
              </g>
            </g>
          </g>
          <g id="Group_305" data-name="Group 305" transform="translate(0.006 0)">
            <g id="Group_302" data-name="Group 302">
              <path id="Path_354" data-name="Path 354" d="M239.812,619.273c3.813,2.2,3.833,5.773.045,7.974a15.172,15.172,0,0,1-13.768,0c-3.815-2.2-3.835-5.772-.045-7.975A15.17,15.17,0,0,1,239.812,619.273Zm-12.387,7.2a12.215,12.215,0,0,0,11.085,0c3.051-1.773,3.037-4.648-.034-6.421a12.221,12.221,0,0,0-11.088,0c-3.051,1.773-3.035,4.649.036,6.422" transform="translate(-223.215 -617.621)" fill="#ffd145"/>
            </g>
            <g id="Group_303" data-name="Group 303" transform="translate(4.829 2.595)">
              <path id="Path_355" data-name="Path 355" d="M243.3,623.563l-.6.348c.72.629.492,1.3-.6,1.936l-.254.147-1.205-.7.334-.194c.577-.335.562-.6.157-.831a1.326,1.326,0,0,0-1.433.094c-1.659.964.755,2.451-1.551,3.792a3.842,3.842,0,0,1-3.362.353l-.588.342-1.043-.6.588-.342c-.734-.636-.494-1.313.6-1.949l.555-.322,1.206.7-.634.368c-.577.335-.529.6-.122.838a1.342,1.342,0,0,0,1.445-.075c1.659-.964-.753-2.45,1.551-3.789a3.8,3.8,0,0,1,3.318-.368l.6-.348Z" transform="translate(-233.151 -622.961)" fill="#f7941e"/>
            </g>
            <g id="Group_304" data-name="Group 304" transform="translate(1.896 1.098)">
              <path id="Path_356" data-name="Path 356" d="M240.482,621.21c3.071,1.773,3.085,4.648.034,6.421a12.216,12.216,0,0,1-11.086,0c-3.071-1.773-3.087-4.649-.036-6.422A12.221,12.221,0,0,1,240.482,621.21Zm-8.8,5.718a3.842,3.842,0,0,0,3.362-.353c2.306-1.341-.108-2.828,1.551-3.792a1.326,1.326,0,0,1,1.433-.094c.4.234.419.5-.157.831l-.334.194,1.205.7.254-.147c1.1-.636,1.324-1.307.6-1.936l.6-.348-1.043-.6-.6.348a3.8,3.8,0,0,0-3.318.368c-2.3,1.339.108,2.825-1.551,3.789a1.342,1.342,0,0,1-1.445.075c-.407-.235-.454-.5.122-.838l.634-.368-1.206-.7-.555.322c-1.093.635-1.333,1.312-.6,1.949l-.588.342,1.043.6.588-.342" transform="translate(-227.116 -619.88)" fill="#ffee79"/>
            </g>
          </g>
        </g>
        <g id="Group_315" data-name="Group 315" transform="translate(0 3.033)">
          <g id="Group_310" data-name="Group 310" transform="translate(0 0)">
            <g id="Group_309" data-name="Group 309">
              <g id="Group_307" data-name="Group 307" transform="translate(0.01 5.639)">
                <path id="Path_357" data-name="Path 357" d="M242.678,622.981l-.006,2.247c0,1.434-.946,2.865-2.829,3.959a15.176,15.176,0,0,1-13.768,0c-1.919-1.108-2.877-2.562-2.874-4.015l.006-2.247c0,1.452.954,2.907,2.874,4.015a15.176,15.176,0,0,0,13.768,0C241.732,625.847,242.674,624.415,242.678,622.981Z" transform="translate(-223.202 -622.926)" fill="#e3a12e"/>
              </g>
              <g id="Group_308" data-name="Group 308">
                <ellipse id="Ellipse_14" data-name="Ellipse 14" cx="5.639" cy="9.735" rx="5.639" ry="9.735" transform="translate(0 11.278) rotate(-89.837)" fill="#f7941e"/>
              </g>
            </g>
          </g>
          <g id="Group_314" data-name="Group 314" transform="translate(0.016 0.027)">
            <g id="Group_311" data-name="Group 311">
              <path id="Path_358" data-name="Path 358" d="M239.812,613.032c3.813,2.2,3.833,5.773.045,7.975a15.173,15.173,0,0,1-13.768,0c-3.815-2.2-3.835-5.772-.045-7.975A15.173,15.173,0,0,1,239.812,613.032Zm-12.387,7.2a12.214,12.214,0,0,0,11.085,0c3.051-1.773,3.037-4.648-.034-6.421a12.221,12.221,0,0,0-11.088,0c-3.051,1.773-3.035,4.649.036,6.422" transform="translate(-223.215 -611.38)" fill="#ffd145"/>
            </g>
            <g id="Group_312" data-name="Group 312" transform="translate(4.829 2.595)">
              <path id="Path_359" data-name="Path 359" d="M243.3,617.322l-.6.348c.72.629.492,1.3-.6,1.936l-.254.148-1.205-.7.334-.194c.577-.335.562-.6.157-.831a1.324,1.324,0,0,0-1.433.094c-1.659.964.755,2.452-1.551,3.792a3.842,3.842,0,0,1-3.362.353l-.588.342-1.043-.6.588-.342c-.734-.637-.494-1.314.6-1.949l.555-.323,1.206.7-.634.368c-.577.335-.529.6-.122.838a1.342,1.342,0,0,0,1.445-.075c1.659-.964-.753-2.45,1.551-3.789a3.808,3.808,0,0,1,3.318-.368l.6-.348Z" transform="translate(-233.151 -616.72)" fill="#f7941e"/>
            </g>
            <g id="Group_313" data-name="Group 313" transform="translate(1.896 1.098)">
              <path id="Path_360" data-name="Path 360" d="M240.482,614.969c3.071,1.773,3.085,4.648.034,6.421a12.214,12.214,0,0,1-11.086,0c-3.071-1.773-3.087-4.649-.036-6.422A12.221,12.221,0,0,1,240.482,614.969Zm-8.8,5.718a3.842,3.842,0,0,0,3.362-.353c2.306-1.34-.108-2.828,1.551-3.792a1.324,1.324,0,0,1,1.433-.094c.4.233.419.5-.157.831l-.334.194,1.205.7.254-.147c1.1-.636,1.324-1.307.6-1.935l.6-.348-1.043-.6-.6.348a3.807,3.807,0,0,0-3.318.369c-2.3,1.339.108,2.825-1.551,3.789a1.342,1.342,0,0,1-1.445.075c-.407-.235-.454-.5.122-.839l.634-.368-1.206-.7-.555.323c-1.093.635-1.333,1.312-.6,1.949l-.588.341,1.043.6.588-.342" transform="translate(-227.116 -613.639)" fill="#ffee79"/>
            </g>
          </g>
        </g>
        <g id="Group_324" data-name="Group 324" transform="translate(0 0)">
          <g id="Group_319" data-name="Group 319" transform="translate(0)">
            <g id="Group_318" data-name="Group 318">
              <g id="Group_316" data-name="Group 316" transform="translate(0.01 5.639)">
                <path id="Path_361" data-name="Path 361" d="M242.678,616.74l-.006,2.247c0,1.434-.946,2.865-2.829,3.959a15.177,15.177,0,0,1-13.768,0c-1.919-1.108-2.877-2.562-2.874-4.015l.006-2.247c0,1.452.954,2.907,2.874,4.015a15.176,15.176,0,0,0,13.768,0C241.732,619.606,242.674,618.174,242.678,616.74Z" transform="translate(-223.202 -616.685)" fill="#e3a12e"/>
              </g>
              <g id="Group_317" data-name="Group 317">
                <ellipse id="Ellipse_15" data-name="Ellipse 15" cx="5.639" cy="9.735" rx="5.639" ry="9.735" transform="translate(0 11.278) rotate(-89.837)" fill="#f7941e"/>
              </g>
            </g>
          </g>
          <g id="Group_323" data-name="Group 323" transform="translate(0.016 0.027)">
            <g id="Group_320" data-name="Group 320">
              <path id="Path_362" data-name="Path 362" d="M239.812,606.791c3.813,2.2,3.833,5.773.045,7.975a15.172,15.172,0,0,1-13.768,0c-3.815-2.2-3.835-5.772-.045-7.975A15.172,15.172,0,0,1,239.812,606.791Zm-12.387,7.2a12.215,12.215,0,0,0,11.085,0c3.051-1.774,3.037-4.648-.034-6.421a12.221,12.221,0,0,0-11.088,0c-3.051,1.773-3.035,4.649.036,6.422" transform="translate(-223.215 -605.139)" fill="#ffd145"/>
            </g>
            <g id="Group_321" data-name="Group 321" transform="translate(4.829 2.595)">
              <path id="Path_363" data-name="Path 363" d="M243.3,611.081l-.6.348c.72.629.492,1.3-.6,1.936l-.254.147-1.205-.7.334-.194c.577-.335.562-.6.157-.831a1.324,1.324,0,0,0-1.433.094c-1.659.964.755,2.452-1.551,3.792a3.841,3.841,0,0,1-3.362.353l-.588.342-1.043-.6.588-.342c-.734-.636-.494-1.313.6-1.949l.555-.323,1.206.7-.634.368c-.577.335-.529.6-.122.839a1.341,1.341,0,0,0,1.445-.075c1.659-.964-.753-2.45,1.551-3.789a3.808,3.808,0,0,1,3.318-.368l.6-.348Z" transform="translate(-233.151 -610.479)" fill="#ffd145"/>
            </g>
            <g id="Group_322" data-name="Group 322" transform="translate(1.896 1.098)">
              <path id="Path_364" data-name="Path 364" d="M240.482,608.728c3.071,1.773,3.085,4.648.034,6.421a12.214,12.214,0,0,1-11.086,0c-3.071-1.773-3.087-4.649-.036-6.422A12.221,12.221,0,0,1,240.482,608.728Zm-8.8,5.718a3.84,3.84,0,0,0,3.362-.353c2.306-1.34-.108-2.827,1.551-3.792a1.324,1.324,0,0,1,1.433-.094c.4.233.419.5-.157.831l-.334.194,1.205.7.254-.147c1.1-.637,1.324-1.307.6-1.936l.6-.348-1.043-.6-.6.348a3.807,3.807,0,0,0-3.318.368c-2.3,1.339.108,2.825-1.551,3.789a1.341,1.341,0,0,1-1.445.075c-.407-.235-.454-.5.122-.838l.634-.368-1.206-.7-.555.323c-1.093.635-1.333,1.312-.6,1.949l-.588.342,1.043.6.588-.342" transform="translate(-227.116 -607.398)" fill="#ffee79"/>
            </g>
          </g>
        </g>
      </g>
      <g id="Group_344" data-name="Group 344" transform="translate(199.381 326.136)">
        <g id="Group_334" data-name="Group 334" transform="translate(0 3.033)">
          <g id="Group_329" data-name="Group 329" transform="translate(0 0)">
            <g id="Group_328" data-name="Group 328">
              <g id="Group_326" data-name="Group 326" transform="translate(0.01 5.639)">
                <path id="Path_365" data-name="Path 365" d="M279.522,646.524l-.006,2.247c0,1.433-.946,2.865-2.828,3.959a15.179,15.179,0,0,1-13.768,0c-1.919-1.108-2.877-2.563-2.874-4.015l.006-2.247c0,1.452.954,2.907,2.874,4.015a15.176,15.176,0,0,0,13.768,0C278.576,649.39,279.518,647.958,279.522,646.524Z" transform="translate(-260.046 -646.469)" fill="#e3a12e"/>
              </g>
              <g id="Group_327" data-name="Group 327">
                <ellipse id="Ellipse_16" data-name="Ellipse 16" cx="5.639" cy="9.735" rx="5.639" ry="9.735" transform="matrix(0.003, -1, 1, 0.003, 0, 11.278)" fill="#f7941e"/>
              </g>
            </g>
          </g>
          <g id="Group_333" data-name="Group 333" transform="translate(0.016 0.027)">
            <g id="Group_330" data-name="Group 330">
              <path id="Path_366" data-name="Path 366" d="M276.656,636.576c3.813,2.2,3.833,5.773.045,7.974a15.171,15.171,0,0,1-13.767,0c-3.815-2.2-3.835-5.772-.045-7.974A15.171,15.171,0,0,1,276.656,636.576Zm-12.387,7.2a12.215,12.215,0,0,0,11.085,0c3.051-1.773,3.037-4.648-.034-6.421a12.22,12.22,0,0,0-11.087,0c-3.051,1.774-3.035,4.649.036,6.423" transform="translate(-260.059 -634.924)" fill="#ffd145"/>
            </g>
            <g id="Group_331" data-name="Group 331" transform="translate(4.829 2.595)">
              <path id="Path_367" data-name="Path 367" d="M280.142,640.865l-.6.348c.72.629.492,1.3-.6,1.936l-.254.147-1.205-.7.334-.194c.577-.335.562-.6.157-.831a1.325,1.325,0,0,0-1.434.094c-1.659.964.755,2.452-1.551,3.792a3.842,3.842,0,0,1-3.362.353l-.588.342-1.043-.6.588-.342c-.734-.636-.494-1.313.6-1.949l.555-.323,1.205.7-.634.368c-.577.335-.529.6-.122.838a1.341,1.341,0,0,0,1.445-.075c1.659-.964-.753-2.45,1.551-3.789a3.807,3.807,0,0,1,3.318-.368l.6-.348Z" transform="translate(-269.995 -640.263)" fill="#f7941e"/>
            </g>
            <g id="Group_332" data-name="Group 332" transform="translate(1.896 1.097)">
              <path id="Path_368" data-name="Path 368" d="M277.325,638.512c3.071,1.774,3.085,4.648.034,6.421a12.215,12.215,0,0,1-11.085,0c-3.071-1.774-3.088-4.649-.036-6.423A12.22,12.22,0,0,1,277.325,638.512Zm-8.8,5.719a3.842,3.842,0,0,0,3.362-.353c2.306-1.34-.108-2.827,1.551-3.792a1.325,1.325,0,0,1,1.434-.094c.4.234.419.5-.158.831l-.334.194,1.205.7.254-.147c1.1-.636,1.324-1.307.6-1.936l.6-.348-1.043-.6-.6.348a3.807,3.807,0,0,0-3.318.368c-2.3,1.339.108,2.825-1.551,3.789a1.341,1.341,0,0,1-1.445.075c-.407-.235-.454-.5.122-.838l.634-.368-1.205-.7-.555.323c-1.093.635-1.333,1.312-.6,1.949l-.588.342,1.043.6.588-.342" transform="translate(-263.96 -637.182)" fill="#ffee79"/>
            </g>
          </g>
        </g>
        <g id="Group_343" data-name="Group 343" transform="translate(0 0)">
          <g id="Group_338" data-name="Group 338">
            <g id="Group_337" data-name="Group 337">
              <g id="Group_335" data-name="Group 335" transform="translate(0.01 5.639)">
                <path id="Path_369" data-name="Path 369" d="M279.522,640.284l-.006,2.247c0,1.433-.946,2.865-2.828,3.959a15.176,15.176,0,0,1-13.768,0c-1.919-1.108-2.877-2.563-2.874-4.015l.006-2.247c0,1.452.954,2.907,2.874,4.015a15.176,15.176,0,0,0,13.768,0C278.576,643.149,279.518,641.717,279.522,640.284Z" transform="translate(-260.046 -640.228)" fill="#e3a12e"/>
              </g>
              <g id="Group_336" data-name="Group 336">
                <ellipse id="Ellipse_17" data-name="Ellipse 17" cx="5.639" cy="9.735" rx="5.639" ry="9.735" transform="matrix(0.003, -1, 1, 0.003, 0, 11.278)" fill="#f7941e"/>
              </g>
            </g>
          </g>
          <g id="Group_342" data-name="Group 342" transform="translate(0.016 0.027)">
            <g id="Group_339" data-name="Group 339">
              <path id="Path_370" data-name="Path 370" d="M276.656,630.335c3.813,2.2,3.833,5.773.045,7.974a15.171,15.171,0,0,1-13.767,0c-3.815-2.2-3.835-5.772-.045-7.974A15.17,15.17,0,0,1,276.656,630.335Zm-12.387,7.2a12.215,12.215,0,0,0,11.085,0c3.051-1.773,3.037-4.648-.034-6.421a12.218,12.218,0,0,0-11.087,0c-3.051,1.773-3.035,4.649.036,6.422" transform="translate(-260.059 -628.683)" fill="#ffd145"/>
            </g>
            <g id="Group_340" data-name="Group 340" transform="translate(4.829 2.595)">
              <path id="Path_371" data-name="Path 371" d="M280.142,634.624l-.6.348c.72.629.492,1.3-.6,1.936l-.254.147-1.205-.7.334-.194c.577-.335.562-.6.157-.831a1.327,1.327,0,0,0-1.434.094c-1.659.964.755,2.452-1.551,3.792a3.84,3.84,0,0,1-3.362.353l-.588.342-1.043-.6.588-.342c-.734-.636-.494-1.313.6-1.949l.555-.322,1.205.7-.634.368c-.577.336-.529.6-.122.838a1.341,1.341,0,0,0,1.445-.075c1.659-.964-.753-2.45,1.551-3.789a3.806,3.806,0,0,1,3.318-.368l.6-.349Z" transform="translate(-269.995 -634.022)" fill="#ffd145"/>
            </g>
            <g id="Group_341" data-name="Group 341" transform="translate(1.896 1.098)">
              <path id="Path_372" data-name="Path 372" d="M277.325,632.271c3.071,1.774,3.085,4.648.034,6.421a12.215,12.215,0,0,1-11.085,0c-3.071-1.773-3.088-4.649-.036-6.422A12.219,12.219,0,0,1,277.325,632.271Zm-8.8,5.719a3.841,3.841,0,0,0,3.362-.353c2.306-1.34-.108-2.827,1.551-3.792a1.327,1.327,0,0,1,1.434-.094c.4.234.419.5-.158.831l-.334.194,1.205.7.254-.147c1.1-.636,1.324-1.307.6-1.936l.6-.348-1.043-.6-.6.349a3.806,3.806,0,0,0-3.318.368c-2.3,1.339.108,2.825-1.551,3.789a1.341,1.341,0,0,1-1.445.075c-.407-.235-.454-.5.122-.838l.634-.368-1.205-.7-.555.322c-1.093.635-1.333,1.312-.6,1.949l-.588.342,1.043.6.588-.342" transform="translate(-263.96 -630.941)" fill="#ffee79"/>
            </g>
          </g>
        </g>
      </g>
    </g>
    <g id="Group_355" data-name="Group 355" transform="translate(1331.648 1226)">
      <path id="Path_151" data-name="Path 151" d="M123.733,181.192c0-18.556,11.2-39.871,25.009-47.611a25.613,25.613,0,0,1,2.831-1.356c4.3-21.8,17.658-43.426,33.487-52.295,10.114-5.666,19.22-4.993,25.6.657.287.227.572.461.85.706.289.229.574.461.852.708.289.227.574.46.852.706.289.227.574.46.852.706.287.227.572.46.85.706.289.227.574.46.852.706.289.227.574.46.852.706.287.227.572.46.85.706a23.458,23.458,0,0,1,6.689,8.878c6.273-3.3,11.9-2.747,15.841.857.291.222.576.454.85.706.292.222.578.456.852.708.292.222.578.454.852.706.29.222.578.454.852.706.291.222.576.454.852.706.29.222.576.454.85.706.292.222.577.454.852.706.292.224.578.454.852.708,4.092,3.116,6.633,9.217,6.633,17.542,0,.873-.042,1.755-.1,2.641L131.494,190.08c-.021-.379-.026-.775-.044-1.159l-.806.453c-.023-.38-.028-.775-.046-1.159l-.806.452c-.023-.38-.026-.775-.044-1.159l-.808.453c-.021-.38-.026-.775-.044-1.159l-.806.452c-.023-.38-.028-.775-.046-1.159l-.806.453c-.023-.38-.026-.776-.044-1.159l-.808.452c-.021-.38-.026-.776-.044-1.159l-.806.451c-.023-.379-.028-.775-.046-1.159l-.806.452c-.023-.379-.026-.775-.044-1.159l-.808.452C123.781,182.895,123.733,182.065,123.733,181.192Z" transform="translate(-123.733 -76)" fill="url(#linear-gradient-2)"/>
      <path id="Path_152" data-name="Path 152" d="M128.183,187.335c-.048-.829-.1-1.659-.1-2.532,0-18.556,11.2-39.873,25.011-47.611a25.42,25.42,0,0,1,2.829-1.356c4.3-21.8,17.66-43.428,33.489-52.295,16.926-9.483,31.038-1.222,34.253,18.443a29.263,29.263,0,0,1,4.266-2.953c12.263-6.872,22.2.914,22.2,17.389,0,.873-.042,1.755-.1,2.641Z" transform="translate(-120.422 -73.255)" fill="#fff"/>
    </g>
  </g>
</svg>
