<svg xmlns="http://www.w3.org/2000/svg" width="272.75" height="206.5" viewBox="0 0 272.75 206.5"><defs><style>.a{fill:#efdca1;}.b{fill:#efc130;}.c{fill:#dea2aa;}.d{fill:#f36a7b;}.e{fill:#84beb8;}.f{fill:#51e3d4;}.g{fill:#7a81b1;}.h{fill:#474f85;}</style></defs><g transform="translate(-298.49 -28.678)"><g transform="translate(298.49 28.678)"><g transform="translate(0 24.133)"><g transform="translate(5.974 28.022)"><path class="a" d="M424.278,71.293l-99.7,57.94-22.707-13.11,99.7-57.94Z" transform="translate(-301.869 -58.183)"/></g><path class="b" d="M316.231,42.331,333.8,81.64,327.5,78l-.327,63.4-22.7-13.1.327-63.4-6.311-3.643Z" transform="translate(-298.49 -42.331)"/></g><g transform="translate(48.211)"><g transform="translate(5.974 79.934)"><path class="c" d="M451.552,87.007l-99.7,57.94-22.707-13.11,99.7-57.94Z" transform="translate(-329.143 -73.898)"/></g><path class="d" d="M343.5,28.679l17.565,39.309-6.3-3.637-.327,115.315-22.7-13.1.327-115.315L325.764,47.6Z" transform="translate(-325.764 -28.679)"/></g><g transform="translate(96.277 43.626)"><g transform="translate(5.974 64.091)"><path class="e" d="M478.743,102.725l-99.7,57.94-22.707-13.11,99.7-57.94Z" transform="translate(-356.334 -89.615)"/></g><path class="f" d="M370.7,53.358,388.26,92.668l-6.3-3.637-.327,99.472-22.7-13.1.327-99.472-6.311-3.643Z" transform="translate(-352.955 -53.358)"/></g><g transform="translate(144.367)"><g transform="translate(5.974 135.447)"><path class="g" d="M505.948,118.412l-99.7,57.94-22.707-13.11,99.7-57.94Z" transform="translate(-383.539 -105.302)"/></g><path class="h" d="M397.9,28.679l17.565,39.309-6.3-3.637-.327,170.828-22.7-13.1.327-170.828L380.16,47.6Z" transform="translate(-380.16 -28.679)"/></g></g></g></svg>