<svg xmlns="http://www.w3.org/2000/svg" width="71.987" height="70.55" viewBox="0 0 71.987 70.55"><defs><style>.a{fill:#3b1274;}.b{fill:#efc130;}</style></defs><g transform="translate(38.458 -35.403) rotate(47)"><path class="a" d="M67.62,38,62.2,24.82A3,3,0,0,0,59.46,23H56.58c-.84-3.27-3.16-5.49-5.84-5.49-3.22,0-5.87,3.18-6.15,7.37v.76a9.57,9.57,0,0,0,1.81,5.75,3.854,3.854,0,1,0,1.21-1.67,8,8,0,0,1-1.09-4.08v-.61c.21-3.11,2.05-5.55,4.19-5.55,1.61,0,3.09,1.43,3.78,3.52H49a1,1,0,0,0,0,2H59.46a1,1,0,0,1,.91.61L65.8,38.8a1.94,1.94,0,0,1,.15.74v39a2,2,0,0,1-2,2H36a2,2,0,0,1-2-2v-39a2,2,0,0,1,.15-.75l5.43-13.22a1,1,0,0,1,.91-.61H41.6a1,1,0,0,0,0-2H40.54a3,3,0,0,0-2.73,1.83L32.38,38a3.94,3.94,0,0,0-.3,1.5v39a3.94,3.94,0,0,0,3.92,4H64a3.94,3.94,0,0,0,3.94-3.94v-39A3.91,3.91,0,0,0,67.62,38ZM50,34.72A1.93,1.93,0,0,1,48.09,33a5,5,0,0,0,2.65.77,4.81,4.81,0,0,0,1-.11A1.93,1.93,0,0,1,50,34.72Zm1.58-3.05a3,3,0,0,1-2.66-.49,1.93,1.93,0,0,1,2.66.49Z"/><path class="b" d="M56,63.71a3.67,3.67,0,1,0,3.67,3.67A3.67,3.67,0,0,0,56,63.71Zm0,5.38a1.71,1.71,0,1,1,1.71-1.71A1.71,1.71,0,0,1,56,69.09Z"/><path class="b" d="M43.51,51.19a3.68,3.68,0,1,0,3.68,3.67A3.68,3.68,0,0,0,43.51,51.19Zm0,5.38a.709.709,0,1,1,0,.01Z"/><path class="b" d="M57.44,52.06,40.7,68.81a1,1,0,1,0,1.39,1.39L58.84,53.45a1,1,0,0,0-1.39-1.39Z"/></g></svg>