<svg xmlns="http://www.w3.org/2000/svg" width="871.077" height="920.679" viewBox="0 0 871.077 920.679"><defs><style>.a,.f{fill:#51e3d4;}.a{opacity:0.35;}.b,.d,.h{fill:#474f85;}.b{opacity:0.3;}.c{fill:#f3ecd3;opacity:0.61;}.d{opacity:0.64;}.e{fill:#fff;}.f,.g{opacity:0.47;}.g{fill:#46c6b6;}.i{fill:#242843;}.j{fill:#f36a7b;}.k{fill:#e6e6e6;}.l{opacity:0.467;}.m{fill:#efc130;}.n{fill:#ffb583;}.o,.u{fill:#1a1a1a;}.o{opacity:0.19;}.p,.q,.v{fill:none;stroke:#fff;stroke-miterlimit:10;}.p,.q{stroke-width:0.75px;}.q{stroke-dasharray:2.004 2.004;}.r{fill:#e6a03b;}.s{fill:#b39124;}.t{fill:#dd9666;}.u{opacity:0.09;}.v{stroke-width:0.5px;stroke-dasharray:2;}</style></defs><g transform="translate(-241.753 -598.366)"><g transform="translate(241.753 598.366)"><g transform="translate(0 0)"><path class="a" d="M595.48,395.412c0,91.687-51,179.128-143.032,179.128S258.993,554.149,258.993,462.462,360.459,244.817,452.448,242.515C506.756,241.154,595.48,303.729,595.48,395.412Z" transform="translate(-191.151 127.939)"/><path class="b" d="M570.284,304.978c-16.956,43.75-115.687,89.952-201.208,56.807S214.11,208.218,261.582,163.249c34.459-32.649,64.6,75.085,155.341,72.9C543.061,233.12,587.24,261.228,570.284,304.978Z" transform="translate(-228.856 -122.75)"/><path class="c" d="M743.168,356.954c23.61,191.374-93.962,260.977-167.893,260.977S441.329,503.543,441.329,391.543,317.56,175.1,388.7,154.952C488.279,126.753,722.332,188.053,743.168,356.954Z" transform="translate(124.829 -148.357)"/><path class="c" d="M544.918,378.623c0,38.756-25.216,90.392-97.9,90.392S315.409,437.6,315.409,398.841s58.924-70.174,131.608-70.174S544.918,339.866,544.918,378.623Z" transform="translate(-25.566 380.863)"/><path class="d" d="M278.495,262.582a5.247,5.247,0,1,1-5.249-5.249A5.247,5.247,0,0,1,278.495,262.582Z" transform="translate(-164.715 171.494)"/><path class="d" d="M272.828,213.811a5.247,5.247,0,1,1-5.245-5.245A5.247,5.247,0,0,1,272.828,213.811Z" transform="translate(-181.348 28.359)"/><circle class="d" cx="5.247" cy="5.247" r="5.247" transform="translate(214.967 72.272)"/><circle class="d" cx="5.247" cy="5.247" r="5.247" transform="translate(374.306 372.718)"/><path class="d" d="M321.522,311.893a5.245,5.245,0,1,1-5.245-5.245A5.247,5.247,0,0,1,321.522,311.893Z" transform="translate(-38.416 316.236)"/><path class="d" d="M384.026,340.082a5.247,5.247,0,1,1-5.246-5.249A5.246,5.246,0,0,1,384.026,340.082Z" transform="translate(145.025 398.961)"/><path class="d" d="M338.934,360.26a5.245,5.245,0,1,1-5.245-5.245A5.247,5.247,0,0,1,338.934,360.26Z" transform="translate(12.689 458.197)"/><path class="d" d="M402.164,365.639a5.247,5.247,0,1,1-5.245-5.245A5.246,5.246,0,0,1,402.164,365.639Z" transform="translate(198.262 473.984)"/><path class="d" d="M430.247,221.794A5.247,5.247,0,1,1,425,216.545,5.247,5.247,0,0,1,430.247,221.794Z" transform="translate(280.687 51.778)"/><path class="d" d="M411.117,233.662a5.247,5.247,0,1,1-5.249-5.245A5.247,5.247,0,0,1,411.117,233.662Z" transform="translate(224.539 86.623)"/><circle class="d" cx="5.247" cy="5.247" r="5.247" transform="translate(665.581 110.493)"/><path class="d" d="M445.26,266.912a5.245,5.245,0,1,1-5.245-5.245A5.246,5.246,0,0,1,445.26,266.912Z" transform="translate(324.763 184.214)"/><path class="d" d="M437.652,333.02a5.247,5.247,0,1,1-5.245-5.245A5.247,5.247,0,0,1,437.652,333.02Z" transform="translate(302.421 378.245)"/><circle class="e" cx="5.247" cy="5.247" r="5.247" transform="translate(297.481 474.678)"/><path class="e" d="M328.511,223.124a5.247,5.247,0,1,1-5.249-5.245A5.247,5.247,0,0,1,328.511,223.124Z" transform="translate(-17.915 55.694)"/><path class="e" d="M298.161,196.782a5.247,5.247,0,1,1-5.245-5.249A5.247,5.247,0,0,1,298.161,196.782Z" transform="translate(-106.994 -21.634)"/><path class="e" d="M376.179,191.244a5.245,5.245,0,1,1-5.245-5.249A5.246,5.246,0,0,1,376.179,191.244Z" transform="translate(122.006 -37.888)"/><circle class="e" cx="5.247" cy="5.247" r="5.247" transform="translate(601.483 445.88)"/><path class="e" d="M411.117,323.649a5.247,5.247,0,1,1-5.249-5.249A5.247,5.247,0,0,1,411.117,323.649Z" transform="translate(224.539 350.729)"/><path class="e" d="M353.221,353.811a5.245,5.245,0,1,1-5.245-5.249A5.244,5.244,0,0,1,353.221,353.811Z" transform="translate(54.623 439.256)"/><path class="e" d="M450.158,225.794a5.245,5.245,0,1,1-5.245-5.249A5.246,5.246,0,0,1,450.158,225.794Z" transform="translate(339.139 63.518)"/><path class="e" d="M424.041,209.423a5.245,5.245,0,1,1-5.245-5.249A5.246,5.246,0,0,1,424.041,209.423Z" transform="translate(262.484 15.469)"/><path class="e" d="M454.323,282.981a5.247,5.247,0,1,1-5.249-5.245A5.248,5.248,0,0,1,454.323,282.981Z" transform="translate(351.352 231.378)"/><path class="e" d="M431.58,295.888a5.247,5.247,0,1,1-5.245-5.245A5.246,5.246,0,0,1,431.58,295.888Z" transform="translate(284.599 269.261)"/><path class="e" d="M312.154,323.649A5.247,5.247,0,1,1,306.9,318.4,5.247,5.247,0,0,1,312.154,323.649Z" transform="translate(-65.924 350.729)"/><path class="e" d="M274.158,240.245A5.245,5.245,0,1,1,268.912,235,5.247,5.247,0,0,1,274.158,240.245Z" transform="translate(-177.432 105.945)"/><circle class="d" cx="7.375" cy="7.375" r="7.375" transform="translate(117.714 300.205)"/><circle class="d" cx="7.375" cy="7.375" r="7.375" transform="translate(463.849 64.897)"/><circle class="d" cx="7.375" cy="7.375" r="7.375" transform="translate(751.098 132.424)"/><circle class="d" cx="7.375" cy="7.375" r="7.375" transform="translate(212.838 462.197)"/><circle class="d" cx="7.375" cy="7.375" r="7.375" transform="translate(400.47 227.411)"/><g transform="translate(411.588 82.765)"><path class="f" d="M357.7,202.364l-9.451-2.731V188.146l2.731-9.448,6.009-9.307,9.451,2.731V183l-2.731,9.45Z" transform="translate(-340.772 -169.39)"/><path class="f" d="M379.322,179.97l-2.731,9.451-11.2-.649-9.448-2.73-9.6-5.36,2.731-9.451L360,172.267,369.451,175Z" transform="translate(-346.348 -163.99)"/></g><g transform="translate(639.042 354.642)"><path class="f" d="M418.78,270.265l-9.833-.321L406.12,258.81l.321-9.829,3.534-10.5,9.833.321,2.677,10.543-.321,9.832Z" transform="translate(-398.366 -238.481)"/><path class="f" d="M435.934,243.389l-.321,9.833L424.6,255.349l-9.829-.321-10.621-2.833.321-9.832,10.841-1.682,9.832.321Z" transform="translate(-404.15 -232.027)"/></g><g transform="translate(0 562.372)"><path class="g" d="M247.423,318.16l-5.67-8.039,7.18-8.967,8.037-5.668,10.508-3.509,5.67,8.039-6.8,8.491-8.039,5.67Z" transform="translate(-241.753 -289.199)"/><path class="g" d="M268.606,317l-8.039,5.67-8.335-7.506-5.669-8.037-4.141-10.183,8.039-5.67,7.876,7.636,5.67,8.039Z" transform="translate(-239.787 -291.27)"/></g><g transform="translate(314.805 335.752)"><path class="f" d="M323.547,236.536l9.414-2.856,6.256,9.635,2.855,9.411.028,11.079-9.414,2.856-5.923-9.123-2.856-9.414Z" transform="translate(-316.486 -233.68)"/><path class="f" d="M324.609,254.087l-2.856-9.414,9.746-5.554,9.411-2.855,10.968-.73,2.856,9.414-9.725,5.077-9.414,2.856Z" transform="translate(-321.753 -228.239)"/></g><g transform="translate(678.054 606.709)"><path class="f" d="M426.246,335.416l-9.592-2.181-.663-11.468,2.181-9.59,5.462-9.638,9.592,2.181.628,10.859-2.181,9.593Z" transform="translate(-408.408 -302.537)"/><path class="f" d="M446.941,311.552l-2.181,9.592H433.543l-9.59-2.181-9.89-4.8,2.181-9.593,10.962.405,9.592,2.181Z" transform="translate(-414.063 -296.566)"/></g><g transform="translate(560.027 887.876)"><path class="f" d="M386.013,392.81l-1.944-9.644,10.189-5.307,9.641-1.943,11.031,1.03,1.943,9.644-9.648,5.025-9.643,1.944Z" transform="translate(-384.07 -368.332)"/><path class="f" d="M402.349,404.849l-9.644,1.944-4.6-10.232-1.943-9.641.321-10.987,9.644-1.944,4.124,10.165L402.2,393.8Z" transform="translate(-377.919 -373.989)"/></g><g transform="translate(252.428 30.783)"><rect class="h" width="98.377" height="46.828" rx="2.989" transform="matrix(0.5, -0.866, 0.866, 0.5, 0, 90.431)"/><rect class="e" width="23.61" height="31.384" transform="translate(16.975 57.065) rotate(-60)"/><path class="i" d="M339.43,178.279l-18.172-10.495,4.427-7.669a7.872,7.872,0,0,1,10.751-2.88l4.541,2.625a7.865,7.865,0,0,1,2.88,10.751Z" transform="translate(-260.827 -156.18)"/></g><g transform="translate(577.599 109.296)"><path class="j" d="M403.606,176.132s-1.476,5.411-4.919,6.886-7.378,12.3-7.378,12.3l20.659,30.217L440.5,245.444h17.216s-.984-12.317-5.411-19.911-10.821-15.461-12.3-22.839-1.476-11.805-6.394-11.805-7.87.492-9.1,2.951,4.183,10.821,0,10.33-9.59-4.919-10.573-11.805-2.459-16.232-6.394-16.232Z" transform="translate(-380.394 -176.132)"/><g transform="translate(14.686 30.515)"><rect class="e" width="24.692" height="3.935" transform="translate(0 2.17) rotate(-5.043)"/><rect class="h" width="24.692" height="3.935" transform="translate(3.946 9.614) rotate(-5.043)"/></g><g transform="translate(25.183 46.584)"><rect class="e" width="24.692" height="3.935" transform="translate(0 2.168) rotate(-5.038)"/><rect class="h" width="24.692" height="3.935" transform="translate(3.947 9.613) rotate(-5.043)"/></g><path class="e" d="M399.45,179.89s-4.592-.331-6.56,2.621-4.919,11.152-4.262,12.136,12.482,19.778,14.764,19.888,7.532-3.061,8.354,0-.165,5.033,0,6.343,22.135,20.99,30,23.61,18.361,3.282,21.643,0,4.588-10.042,4.588-10.042l-2.129-3.892a17.4,17.4,0,0,1-15.579,1.476c-8.523-3.443-22.627-15.17-26.231-18.735S400.434,186.777,399.45,179.89Z" transform="translate(-388.535 -165.134)"/></g><g transform="translate(166.995 509.2)"><path class="e" d="M285.788,289.31l1.466,88.868,37.527,3.538,18.528-86.983Z" transform="translate(-279.5 -243.852)"/><g transform="translate(14.666 55.187)"><path class="j" d="M292.894,355.637c-.063,0-.126,0-.189-.008a1.973,1.973,0,0,1-1.775-2.145L296.55,293.9a2,2,0,0,1,2.141-1.775,1.974,1.974,0,0,1,1.779,2.145l-5.619,59.577A1.972,1.972,0,0,1,292.894,355.637Z" transform="translate(-279.098 -290.776)"/><path class="j" d="M289.884,355.525l-.106,0a1.959,1.959,0,0,1-1.857-2.07l3.239-59.805a1.888,1.888,0,0,1,2.074-1.857,1.961,1.961,0,0,1,1.853,2.07l-3.239,59.809A1.964,1.964,0,0,1,289.884,355.525Z" transform="translate(-287.917 -291.782)"/><path class="j" d="M295.95,355.77a1.5,1.5,0,0,1-.264-.02A1.963,1.963,0,0,1,294,353.539l8-59.36a1.965,1.965,0,0,1,3.9.523l-8,59.36A1.973,1.973,0,0,1,295.95,355.77Z" transform="translate(-270.121 -289.772)"/></g><path class="j" d="M286.721,309.455s-.984-16.574,14.969-15.071c0,0,5.277-23.217,26.668-14.78,0,0,17.759,7.768,9.247,26.07,0,0,6.784.008,5.922,9.137Z" transform="translate(-276.797 -277.758)"/><rect class="k" width="17.038" height="70.823" transform="translate(0 47.875) rotate(-84.614)"/><path class="e" d="M297.339,287.265a3.854,3.854,0,1,1-3.475-4.2A3.854,3.854,0,0,1,297.339,287.265Z" transform="translate(-268.169 -262.226)"/><path class="e" d="M301.773,284.152a3.854,3.854,0,1,1-3.475-4.2A3.859,3.859,0,0,1,301.773,284.152Z" transform="translate(-255.155 -271.366)"/><path class="e" d="M303.446,287.264a3.854,3.854,0,1,1-3.475-4.195A3.851,3.851,0,0,1,303.446,287.264Z" transform="translate(-250.245 -262.22)"/></g><g class="l" transform="translate(158.387 320.286)"><path class="m" d="M50.172,0A50.172,50.172,0,1,1,0,50.172,50.172,50.172,0,0,1,50.172,0Z"/></g><g transform="translate(557.958 674.083)"><path class="e" d="M400.749,401.721a1.969,1.969,0,0,1-.921-3.711c3.388-1.787,12.23-7.583,12.451-12.868.094-2.251-.878-4.97-2-8.122-2.278-6.391-5.116-14.343-.913-23.862,2.7-6.123,7.26-8.445,11.671-10.688,6.387-3.246,12.986-6.6,17.554-21.419a1.968,1.968,0,0,1,3.762,1.161c-5.064,16.409-13.084,20.49-19.526,23.764-4.321,2.2-7.728,3.931-9.865,8.771-3.565,8.083-1.125,14.922,1.027,20.95,1.2,3.392,2.345,6.591,2.223,9.605-.354,8.476-13.1,15.425-14.552,16.189A1.972,1.972,0,0,1,400.749,401.721Z" transform="translate(-338.831 -319.659)"/><g transform="translate(0 66.779)"><rect class="e" width="57.058" height="95.917" rx="3.131" transform="matrix(0.278, -0.961, 0.961, 0.278, 0, 54.815)"/><g transform="translate(17.203 18.904)"><path class="h" d="M399.266,374.407l-9.451-2.731,1.587-10.807,2.73-9.448,4.422-9.988,9.451,2.731-1.687,10.265-2.731,9.451Z" transform="translate(-382.34 -341.433)"/><path class="h" d="M420.89,352.013l-2.731,9.451-10.807-1.587-9.449-2.731-9.988-4.422,2.731-9.451,10.265,1.687,9.45,2.731Z" transform="translate(-387.916 -336.033)"/></g><path class="j" d="M413.1,352.114a5.718,5.718,0,1,1-3.907-7.079A5.721,5.721,0,0,1,413.1,352.114Z" transform="translate(-329.696 -312.622)"/><path class="m" d="M411.715,356.918a5.718,5.718,0,1,1-3.9-7.079A5.72,5.72,0,0,1,411.715,356.918Z" transform="translate(-333.773 -298.522)"/></g></g><g transform="translate(277.861 148.03)"><path class="e" d="M359.092,378.962s-4.919,4.262-5.9,7.213-.327,13.773.984,15.414,11.479,7.54,15.083,6.886,14.43-8.2,18.038-13.119,7.54-14.426,12.132-16.394,17.381-14.756,19.018-19.022-6.556-16.724-7.54-17.377-3.608-1.641-4.592-.984L362.043,380.6Z" transform="translate(-193.93 270.093)"/><path class="n" d="M350.438,254.5l-1.914,11.485L346.5,278.11l43.286,19.675,11.805-3.935,4.46-11.149,3.411-8.526Z" transform="translate(-212.166 15.148)"/><path class="o" d="M404.547,282.7l3.412-8.527L348.932,254.5l-1.916,11.486s25.515,12.124,55.028,16.716Z" transform="translate(-210.659 15.148)"/><path class="n" d="M358,342.723s1.145,4.1,2.129,9.267,1.806,11.392,1.149,15.658l9.838-.657,11.148-11.805-5.828-10.566-4.663-8.453Z" transform="translate(-178.412 254.846)"/><path class="o" d="M376.439,344.62l-4.663-8.453L358,342.723s1.145,4.1,2.129,9.267c0,0,10.156.984,15.319-7.134Z" transform="translate(-178.412 254.846)"/><path class="n" d="M333.794,328.31a79.144,79.144,0,0,1-.071,12.242c-.35,3.431-1.086,6.627-2.554,8.091l9.184,8.527,11.148-7.217-1.775-12.419L348.224,327Z" transform="translate(-257.171 227.94)"/><path class="o" d="M347.822,337.534,346.319,327l-14.43,1.31a79.14,79.14,0,0,1-.071,12.242s8.094,1.944,14.981-2.239Z" transform="translate(-255.266 227.94)"/><path class="i" d="M372.068,352.783s-5.9,19.018-9.18,23.61S353.05,391.476,353.7,394.1s7.87,7.87,13.119,5.245,14.426-16.393,19.018-21.643,21.643-18.361,20.332-24.264-5.9-12.462-8.527-13.119a24.661,24.661,0,0,0-5.245-.653S389.118,352.783,372.068,352.783Z" transform="translate(-191.166 265.119)"/><path class="e" d="M334.388,344.882s-6.347,1.436-8.61,3.573-6.788,11.986-6.406,14.052,6.56,12.065,10.046,13.19,16.59-.417,22.092-3.05,13.462-9.161,18.436-8.728,22.288-4.8,25.747-7.792,2.113-17.838,1.554-18.88-2.408-3.148-3.585-3.034l-57.444,13.505Z" transform="translate(-291.863 249.102)"/><path class="i" d="M357.109,333.3s-14.178,13.977-19.238,16.48-15.791,8.653-16.453,11.274,3.223,10.656,9.086,10.818,20.462-7.642,26.983-10.1,27.75-5.973,29.379-11.8.677-13.769-1.326-15.587a24.457,24.457,0,0,0-4.313-3.054S372.145,341.346,357.109,333.3Z" transform="translate(-286.004 240.652)"/><g transform="translate(42.846 287.356)"><path class="h" d="M486.229,350.817c3.935-30.166-7.87-52.466-7.87-57.712s-1.31-17.708-1.31-17.708-6.776-.338-16.441-1.767c-13.619-2.015-32.98-6.19-47.177-14.63,0,0-41.971,42.629-51.809,50.5s-36.073,39.351-37.383,45.91-1.314,19.675,0,24.921S354.4,527.241,353.751,535.111c0,0,17.708,2.621,22.3-5.9l-.653-69.521s67.549,93.784,72.142,102.969,5.9,11.148,5.9,11.148S471.8,577.083,479.016,562c0,0-12.462-31.48-18.365-44.6s-35.416-66.243-34.759-76.08,8.527-29.513,21.643-42.629S484.864,361.3,486.229,350.817ZM378.672,396.07s-7.213-13.116,0-20.329,28.2-22.3,28.2-22.3S379.982,391.482,378.672,396.07Z" transform="translate(-323.253 -259)"/></g><path class="i" d="M375.916,282.193c0-5.249-1.31-17.708-1.31-17.708s-6.776-.338-16.441-1.767c0,0-.948,17.834,15.776,19.475Z" transform="translate(-177.964 39.269)"/><path class="i" d="M382.574,283s-20.824,15.083-28.037,22.3,0,20.329,0,20.329-13.773,20.332-12.462,30.827,9.184,32.791,9.184,32.791v20.333s-18.44-53.725-19.675-74.766c-.657-11.152,1.31-25.578,17.051-34.762A368.507,368.507,0,0,1,382.574,283Z" transform="translate(-256.271 98.798)"/><g transform="translate(134.947 303.096)"><path class="p" d="M360.223,263s-.134,1.554-.295,3.919" transform="translate(-307.709 -263)"/><path class="q" d="M398.456,266a80.889,80.889,0,0,0,.224,12.313c.984,6.886,4.427,42.3-9.346,60.01s-36.4,51.156-41.318,69.847,4.919,30.989,7.378,35.416c2.046,3.687,35.144,69.584,46.15,91.51" transform="translate(-346.658 -254.207)"/><path class="p" d="M361.055,335.275l1.763,3.51" transform="translate(-304.401 -50.868)"/></g><g transform="translate(188.445 373.927)"><path class="r" d="M510.769,328.221,395.338,281,360.58,313.791l-.327,23.776,121.975,52.458,11.817-3.762,24.1-46.442ZM388.562,340.069l-3.986-1.562a3.941,3.941,0,0,1-2.227-5.1l11.392-29.072a3.773,3.773,0,0,1,5.045-2.094l4.1,1.779a4.1,4.1,0,0,1,2.156,5.226l-11.36,28.6A3.972,3.972,0,0,1,388.562,340.069Zm22.627,9.346-3.986-1.562a3.941,3.941,0,0,1-2.227-5.1l11.392-29.072a3.773,3.773,0,0,1,5.045-2.093l4.1,1.779a4.1,4.1,0,0,1,2.156,5.226l-11.361,28.6A3.971,3.971,0,0,1,411.188,349.415Zm39.1-21.474-11.36,28.6a3.972,3.972,0,0,1-5.116,2.223l-3.986-1.562a3.941,3.941,0,0,1-2.227-5.1l11.392-29.072a3.773,3.773,0,0,1,5.045-2.094l4.1,1.779A4.1,4.1,0,0,1,450.291,327.941Zm12.25,38.926a3.972,3.972,0,0,1-5.116,2.223l-3.986-1.562a3.941,3.941,0,0,1-2.227-5.1L462.6,333.36a3.773,3.773,0,0,1,5.045-2.094l4.1,1.779a4.1,4.1,0,0,1,2.156,5.226Zm34.479-18.758-11.36,28.6a3.971,3.971,0,0,1-5.116,2.223l-3.986-1.562a3.941,3.941,0,0,1-2.227-5.1L485.723,343.2a3.773,3.773,0,0,1,5.045-2.094l4.1,1.779A4.1,4.1,0,0,1,497.02,348.109Z" transform="translate(-360.253 -281)"/></g><path class="m" d="M358.253,299.019s7.378,71.323,8.854,77.226,3.443,13.773,6.394,15.74,89.523,35.907,92.474,35.416,6.394-3.443,8.854-4.919,23.118-25.086,24.594-27.054,24.594-81.653,24.594-81.653l-24.1,38.367L488.6,358.537,366.123,303.446l-5.9-10.821Z" transform="translate(-177.678 127.048)"/><path class="s" d="M385.628,411.625c2.951-.492,6.394-3.443,8.854-4.919s23.118-25.086,24.594-27.054S443.67,298,443.67,298l-24.1,38.367-11.313,6.394Z" transform="translate(-97.331 142.824)"/><g transform="translate(197.334 455.344)"><path class="s" d="M366.6,301.973a2.458,2.458,0,0,0-3.664,2.412l-.421,46.729a5.9,5.9,0,0,0,3.675,5.245l.94.331a3.113,3.113,0,0,0,4.273-2.585l6.253-43.365a5.377,5.377,0,0,0-3.065-5.418Z" transform="translate(-362.512 -301.69)"/><path class="s" d="M376.544,304.37a2.79,2.79,0,0,0-4.092,2.341l-5.426,43.837a5.191,5.191,0,0,0,3.215,5.253l3.423,1.243a3.323,3.323,0,0,0,4.506-2.507l8.712-41.483a5.043,5.043,0,0,0-2.8-5.419Z" transform="translate(-349.36 -294.701)"/><path class="s" d="M384.5,306.956a3.094,3.094,0,0,0-4.372,2.385l-7.89,41.944a4.651,4.651,0,0,0,3,5.112l4.34,1.448a3.494,3.494,0,0,0,4.6-2.6l9.1-40.523A4.828,4.828,0,0,0,390.5,309.4Z" transform="translate(-334.165 -287.036)"/><path class="s" d="M390.739,309.129a3.134,3.134,0,0,0-4.47,2.271l-9.1,40.523a4.608,4.608,0,0,0,2.837,5.187l3.424,1.243a3.44,3.44,0,0,0,4.616-2.479l9.48-39.571a4.884,4.884,0,0,0-2.692-5.395Z" transform="translate(-319.778 -280.761)"/><path class="s" d="M396.933,311.208a3.356,3.356,0,0,0-4.628,2.326l-10.333,40.094a4.421,4.421,0,0,0,2.723,5.143l4.891,1.759a3.632,3.632,0,0,0,4.777-2.452l11.128-39.158a4.5,4.5,0,0,0-2.566-5.269Z" transform="translate(-305.769 -274.565)"/></g><g transform="translate(178.48 366.331)"><path class="m" d="M524.1,330.444c-3.443-2.459-117.068-50.664-120.02-51.156a16.649,16.649,0,0,0-5.411,0s-34.924,32.956-38.859,36.891-1.476,19.675.492,25.086,7.378,8.854,10.33,10.821,113.133,50.664,118.052,50.172,15.74-3.443,18.691-6.886,21.643-46.729,21.643-50.172S527.547,332.9,524.1,330.444Zm-26.892,59.191c-2.786,3.6-3.113,2.294-5.572,2.786s-115.592-50.172-118.052-51.648-2.951-11.313-.984-17.708,29.513-30.5,29.513-30.5c1.968-.984,7.87,1.476,7.87,1.476s91,38.367,98.869,41.81,9.346,7.378,9.838,9.346S500,386.027,497.212,389.635Z" transform="translate(-357.721 -279.069)"/></g><path class="i" d="M384.632,380.838s6.886,4.919,12.3,5.411c0,0-11.313-62.469-8.854-67.88S425.95,289.84,428.9,290.824s9.838,31.481,9.838,31.481l10.821,4.427-9.838-44.27s-3.443-7.378-8.362-6.394-53.123,31.972-54.6,33.448a13.316,13.316,0,0,0-2.951,9.346C374.3,322.3,384.632,380.838,384.632,380.838Z" transform="translate(-132.242 78.185)"/><path class="n" d="M389.906,275.625s-.984,9.838-3.935,11.805-7.378,4.427-8.854,6.886,0,10.33,0,10.33l7.378-4.919s.984-4.427,2.951-3.935,7.378,9.838,6.394,11.805-7.378,5.9-7.378,5.9,2.459,3.935,5.9,4.427,11.313,0,13.773-1.968,4.919-6.886,5.411-9.838-8.854-17.708-9.346-20.659a33.689,33.689,0,0,1,0-7.378Z" transform="translate(-124.235 77.152)"/><path class="o" d="M395.11,285.463a33.689,33.689,0,0,1,0-7.378l-12.3-2.459s-.984,9.838-3.935,11.805c0,0,5.726-2.459,14.91-1.8Z" transform="translate(-117.142 77.152)"/><path class="i" d="M374.232,223.127S352.1,249.688,358,275.758s34.432,48.7,78.7,49.68,75.75-6.886,80.669-26.07-9.838-23.61-16.724-25.086-14.265-5.411-10.821-10.329,17.708-4.919,22.135-18.692.492-18.692-3.935-20.167-7.378,6.886-17.708,6.394-27.054-5.411-34.432-14.756-30.989-25.086-58.042-20.659S374.232,223.127,374.232,223.127Z" transform="translate(-181.36 -158.594)"/><path class="n" d="M372.984,214.132s-9.346,15.248-10.821,18.692-1.476,21.643-2.459,26.562,5.411,10.821,9.838,12.3a56.45,56.45,0,0,1,9.346,4.427l-.976,3.305-1.688,5.706-3.73,12.632,16.724,5.9,3.955-12.994,2.932-9.633s11.313-4.427,15.248-9.838a63.089,63.089,0,0,0,6.395-11.313s12.3-3.443,13.281-6.394,4.427-7.87.492-8.854-11.313-.492-11.313-.492l10.33-19.675-31.972-25.086Z" transform="translate(-173.718 -146.647)"/><path class="o" d="M366.49,218.875l-.976,3.305-1.688,5.706s8.693,4.868,17.641,3.258l2.239-7.351S371.094,221.327,366.49,218.875Z" transform="translate(-161.321 -89.413)"/><path class="i" d="M375.289,196.5s-11.805,5.9-13.773,12.789a31.959,31.959,0,0,0-.492,13.773s9.838,3.935,13.281,4.427,14.265.492,14.265.492-4.427,4.919-1.967,4.919,11.313,1.476,11.313,1.476-3.935,2.459,0,3.443,13.281,2.459,13.281,2.459-.492,10.329,1.476,12.3,4.919,0,4.919,0l9.838-3.443,8.854-20.167-48.2-30Z" transform="translate(-171.104 -155.085)"/><path class="t" d="M372.258,207.525s-11.463,16.618-9.743,17.763,6.3,4.584,8.024,2.865,6.875-17.192,6.875-17.192S375.694,205.805,372.258,207.525Z" transform="translate(-165.684 -123.757)"/><path class="n" d="M362.1,239.687s-.854-2.676-1.956-6.4c-2.034-6.871-4.931-17.314-4.931-21.143,0-5.9.984-13.773,0-16.232s.492-5.9-2.951-5.9-4.427,13.773-4.427,13.773-15.248-13.773-18.692-15.248-9.346-2.951-11.313-2.459-8.362,5.9-3.935,9.346c3.089,2.4,19.589,22.528,30.28,35.475,4.636,5.608,8.177,9.869,9.07,10.762C356.2,244.606,362.1,239.687,362.1,239.687Z" transform="translate(-312.364 -185.975)"/><path class="o" d="M336.417,199.783c1.1,3.727,1.956,6.4,1.956,6.4s-5.9,4.919-8.854,1.968c-.893-.893-4.435-5.155-9.07-10.762,0,0,4.466,3.384,13.977,3.058Z" transform="translate(-288.638 -152.473)"/><path class="e" d="M481.017,293.484s-2.459,11.313-5.9,11.805-12.3.984-16.724-1.476-29.513-13.281-45.745-16.232-34.432-4.919-37.875-8.854-35.907-78.7-37.383-79.685-12.789,1.476-15.248,3.443,20.659,89.523,24.594,93.95c2.129,2.4,22.434,14.6,41.385,25.291,16.047,9.051,31.126,17.011,33.381,17.011,4.919,0,5.9-.492,5.9,1.476s-2.951,28.529-3.935,38.859-2.459,21.151-5.411,25.578-5.411,9.346-.984,12.789c3.077,2.393,30.65,14.3,49.645,21.167,8.327,3.01,15,5.053,17.251,4.9,0,0,5.411-1.476,5.9-3.443s12.789-26.07,17.708-34.432,14.756-18.2,14.756-18.2,19.675,18.2,25.578,23.118,6.394,9.346,6.394,14.265-7.87,78.209-7.87,78.209,14.265,4.427,18.692,2.951c0,0,17.216-84.112,17.708-91.982S566.605,366.774,562.67,358.9s-28.037-30.989-35.907-35.416-12.3-4.427-12.789-8.362,1.476-12.789,1.476-12.789S483.477,294.467,481.017,293.484Z" transform="translate(-284.21 -148.282)"/><path class="u" d="M338.77,230.052c16.047,9.051,31.126,17.011,33.381,17.011,4.919,0,5.9-.492,5.9,1.476,0,0,2.94-2.294,1.629-4.919s-20.99-8.854-26.562-10.495S338.77,230.052,338.77,230.052Z" transform="translate(-234.862 -56.608)"/><path class="u" d="M446.335,288.3c0-4.919-.492-9.346-6.394-14.265s-25.578-23.118-25.578-23.118-9.838,9.838-14.756,18.2S382.39,301.583,381.9,303.551s-5.9,3.443-5.9,3.443c-2.251.15-8.925-1.893-17.251-4.9,0,0,2.341,1.625,10.857-5.592s32.126-33.188,41.633-49.55c0,0,4.592-3.644,8.527,0s24.618,22.662,26.573,27.581S446.335,288.3,446.335,288.3Z" transform="translate(-176.237 -11.768)"/><path class="u" d="M322.371,188.168s13.2,9.255,15.17,12.616-6.241,7.4-8.539,6.052-16.807-14.3-14.509-15.98S318.432,185.811,322.371,188.168Z" transform="translate(-306.837 -181.921)"/><path class="v" d="M362.783,261.625s-10.164,37.057-13.116,43.451" transform="translate(-202.878 36.061)"/><path class="i" d="M361.962,260.375s-19.183,41.318-16.232,44.269,9.838,6.886,12.789,2.459,12.3-43.286,12.3-43.286Z" transform="translate(-215.339 32.392)"/><path class="i" d="M345.593,273.76s4.919-15.083,6.233-14.756,4.919,1.968,5.245,2.951-6.229,15.414-6.229,15.414S345.267,276.385,345.593,273.76Z" transform="translate(-214.876 28.352)"/><path class="i" d="M354.215,276.677s2.621-14.426,3.6-14.757,5.576,0,5.576,1.314-3.278,16.067-4.262,15.74S353.558,278.645,354.215,276.677Z" transform="translate(-189.718 36.583)"/></g></g></g></g></svg>