<svg xmlns="http://www.w3.org/2000/svg" width="526.729" height="323.577" viewBox="0 0 526.729 323.577"><defs><style>.a{fill:#f36a7b;}.b{fill:#f794a4;}.c{fill:#d41c22;}.d{fill:#eeeff0;}.e{fill:#f2a6af;}.f{fill:#e85366;}.g{fill:#dbddde;}.h{fill:#e2e4e6;}.i{fill:#fff;}.j{fill:#f1f2f2;}.k{fill:#ad171c;}.l{fill:#ffc13b;}.m{fill:#3b1274;}.n{fill:#8091f4;}.o{fill:#f55b7f;}.p,.q{fill:#efc130;}.p{opacity:0.7;}.r{fill:#151f3d;}.s{fill:#46a2da;}.t{fill:#161f3d;}</style></defs><g transform="translate(-1201.964 -2235.758)"><g transform="translate(908 2046.103)"><g transform="translate(307.261 221.928)"><g transform="translate(127.302 73.468)"><path class="a" d="M383.476,478.473V334.347l127.651-73.7V404.73Z" transform="translate(-383.476 -260.65)"/></g><g transform="translate(0.002 73.671)"><path class="b" d="M302.431,404.838V260.779L429.74,334.262v144.15Z" transform="translate(-302.431 -260.779)"/></g><path class="c" d="M302.43,287.537l127.712-73.66,127.241,73.463-127.648,73.7Z" transform="translate(-302.43 -213.877)"/><g transform="translate(180.302 104.122)"><path class="d" d="M417.219,436.735V292.609l21.556-12.443v144.08Z" transform="translate(-417.219 -280.166)"/></g><g transform="translate(52.879 104.122)"><path class="d" d="M357.651,436.735V292.609l-21.556-12.443v144.08Z" transform="translate(-336.095 -280.166)"/></g></g><g transform="translate(293.964 199.77)"><g transform="translate(140.579 81.131)"><path class="a" d="M383.464,361.934V332.806L524.43,251.422V280.5Z" transform="translate(-383.464 -251.422)"/></g><g transform="translate(0.003 81.355)"><path class="e" d="M293.966,280.619V251.565l140.588,81.147v29.155Z" transform="translate(-293.966 -251.565)"/></g><path class="f" d="M293.964,281.113,435,199.77,575.51,280.9,434.548,362.279Z" transform="translate(-293.964 -199.77)"/><g transform="translate(201.058 115.17)"><path class="g" d="M421.968,314.655v-29.12l21.556-12.443v29.074Z" transform="translate(-421.968 -273.093)"/></g><g transform="translate(57.217 114.371)"><path class="h" d="M351.947,314.147v-29.12l-21.556-12.443v29.074Z" transform="translate(-330.391 -272.584)"/></g><path class="i" d="M471.307,220.788,330.391,302.146l21.556,12.443L492.9,233.21Z" transform="translate(-273.175 -187.775)"/><path class="j" d="M353.823,221.285l140.916,81.358-21.556,12.443L332.231,233.707Z" transform="translate(-272.125 -187.491)"/></g><path class="k" d="M383.482,399.335" transform="translate(51.09 113.897)"/></g><g transform="translate(1083 2129.329)"><path class="l" d="M352.286,142.636s-7.58-6.492-15.771-8.748.357,6.709.357,6.709-12.623-.166-19.294,4.058,9.284,16.324,28.089,22.047Z" transform="translate(0 88.029)"/><path class="m" d="M481.163,131.018c-7.6-2.919-14.569-2.061-22.671-1.266-10.167,1-23.844,7.652-33.247,11.646a212.686,212.686,0,0,1-28,9.653c-7.066,1.9-14.471,3.441-21.665,2.095-6.985-1.309-13.29-5.26-20.313-6.343-12.572-1.942-25.5,6.441-30.383,18.185s-2.32,25.824,5.014,36.217a32.587,32.587,0,0,0,8.557,8.574c5.358,3.526,11.841,4.907,18.215,5.621,36.463,4.1,72.777-11.6,101.83-34.016,6.692-5.162,13.549-11.463,14.714-19.833" transform="translate(20.634 73.291)"/><path class="n" d="M387.47,197.2s21.261,2.689,34.007,2.6,18.928-6.123-.786-11.323c-14.25-3.76-14.174-6.1-27.723-16.1-4.032-2.974-11.331.076-11.331.076S379.588,183.8,387.47,197.2Z" transform="translate(212.354 210.036)"/><path class="n" d="M395.305,174.56s6.45,11.285-3.467,11.353-51.691.348-56.649.382-.076-11.331,30.375-11.535C410.881,174.453,395.305,174.56,395.305,174.56Z" transform="translate(56.793 221.285)"/><path class="o" d="M423.994,179.974s-28.569-36.629-61.123-33.578-41.336,66.137-3.476,115.452l2.868,4.937,29.741-.2s-5.222-38.915-7.427-50.939,22.03,11.183,31.989,18.2,55.272,5.294,49.311-38.57S423.994,179.974,423.994,179.974Z" transform="translate(60.093 129.259)"/><path class="p" d="M423.994,179.974s-28.569-36.629-61.123-33.578-41.336,66.137-3.476,115.452l2.868,4.937,29.741-.2s-5.222-38.915-7.427-50.939,22.03,11.183,31.989,18.2,55.272,5.294,49.311-38.57S423.994,179.974,423.994,179.974Z" transform="translate(60.093 129.259)"/><path class="q" d="M486.97,154.164s15.674,14.059,22.88,32.422-11.1,34.067-15.33,36.926S501.8,253.56,501.8,253.56s-62.257,8.561-116.829,2.553-39.187-35.851-22.272-48,82.579-40.21,82.579-40.21Z" transform="translate(100.507 155.082)"/><path class="r" d="M394.815,182.751a45.4,45.4,0,0,1-38.762.1c-8.124-3.883-15.678-13.154-11.663-21.214,1.814-3.637,5.5-5.872,8.468-8.655,6.5-6.1,9.543-14.9,13.991-22.625s11.778-15.138,20.679-14.718c6.076.285,12.062,4.236,17.866,2.418,3.535-1.109,6.067-4.126,8.952-6.445,5.281-4.249,12.513-6.322,19.056-4.55s11.977,7.775,12.2,14.548c.157,4.652-1.972,9.4-.612,13.855,2.384,7.826,13.244,9.207,18.232,15.7,6.063,7.886.51,20.156-8.221,24.911s-19.217,4.372-29.155,4.657a188.219,188.219,0,0,0-34.262,4.143" transform="translate(88.52)"/><path class="m" d="M387.8,137.17c22.4-16.846,56.186-12.508,77.761,5.383s32.1,46.414,34.033,74.375c.451,6.518.391,13.447-2.961,19.056-2.617,4.385-6.955,7.44-11.323,10.087-19.009,11.514-40.954,17.688-63.082,19.791-17.9,1.7-37.44.306-51.376-11.051-15.772-12.853-20.279-35.1-20.076-55.442.132-13.562,1.976-27.388,8.035-39.522s16.821-22.417,30.039-25.446" transform="translate(112.85 65.474)"/><path class="l" d="M369.412,161.523s-9.874,1.44-16.961,6.131,5.29,4.143,5.29,4.143-8.425,9.4-9.632,17.2,18.4,3.739,35.082-6.662Z" transform="translate(104.037 178.989)"/><path class="l" d="M368.278,115.859s-18.4,1.542-16.855,20.649,5.217,38.915,26.44,35.231l2.218,14.148s17,1.3,30.345-15.784l-5.111-22.625S407.863,104.973,368.278,115.859Z" transform="translate(114.675 24.842)"/><path class="r" d="M350.868,127.241c1.4,5.961,7.376,9.938,13.409,10.979s12.19-.234,18.21-1.347,12.3-2.052,18.189-.378c4.6,1.309,9.245,5.579,7.894,10.163-.527,1.78-1.886,3.246-2.3,5.052-.922,4.028,3.238,7.542,7.282,8.387a16.383,16.383,0,0,0,19.056-20.7,25.419,25.419,0,0,0-5.957-9.6,55.677,55.677,0,0,0-38.5-17.943,54.845,54.845,0,0,0-39.684,15.058" transform="translate(105.389 17.479)"/><path class="s" d="M418.516,135.415s-12.6,54.61-41.2,66.485-25.514-3.012-25.514-3.012.153,22.306,28.93,36.981C380.731,235.869,435.06,193.373,418.516,135.415Z" transform="translate(115.89 94.17)"/><path class="t" d="M399.9,210.509s7.193-36.166-4.72-70.075c0,0-10.121,74.422-23.9,79.826C371.287,220.26,387.2,216.967,399.9,210.509Z" transform="translate(179.51 110.476)"/><path class="m" d="M461.612,158.5c.123,25.289-4.091,51.3-17.331,72.854s-36.722,37.882-62.011,37.691c-7.529-.055-15.3-1.661-21.316-6.186s-9.861-12.411-8.107-19.731c1.156-4.818,4.512-8.846,8.37-11.952,7.605-6.114,17.25-9.2,25.064-15.053,6.071-4.546,10.843-10.626,14.833-17.076a104.353,104.353,0,0,0,15.075-63.63" transform="translate(118.218 94.17)"/><path class="t" d="M440.236,179.39l-1.653-8.485s-52.532,7.257-74.83,8.468C363.754,179.373,412.109,182.768,440.236,179.39Z" transform="translate(155.037 209.469)"/></g></g></svg>