<svg id="Cusomised_needs_icon" data-name="Cusomised needs icon" xmlns="http://www.w3.org/2000/svg" xmlns:xlink="http://www.w3.org/1999/xlink" width="669.099" height="669.099" viewBox="0 0 669.099 669.099">
  <defs>
    <clipPath id="clip-path">
      <rect id="Rectangle_34" data-name="Rectangle 34" width="669.099" height="669.099" fill="none"/>
    </clipPath>
  </defs>
  <g id="BACKGROUND">
    <g id="Group_360" data-name="Group 360">
      <g id="Group_359" data-name="Group 359" clip-path="url(#clip-path)">
        <path id="Path_432" data-name="Path 432" d="M41.484,0A41.484,41.484,0,1,1,0,41.484,41.484,41.484,0,0,1,41.484,0Z" transform="translate(398.783 12.044)" fill="#46a2da"/>
        <path id="Path_433" data-name="Path 433" d="M21.411,0A21.411,21.411,0,1,1,0,21.411,21.411,21.411,0,0,1,21.411,0Z" transform="translate(57.542 362.652)" fill="#f3ecd3"/>
        <circle id="Ellipse_23" data-name="Ellipse 23" cx="17.397" cy="17.397" r="17.397" transform="translate(614.233 392.092)" fill="#efc130"/>
        <circle id="Ellipse_25" data-name="Ellipse 25" cx="8.029" cy="8.029" r="8.029" transform="translate(353.284 602.189)" fill="#ebe7fe"/>
      </g>
    </g>
  </g>
  <g id="OBJECTS" transform="translate(101.022 2.884)">
    <g id="Group_363" data-name="Group 363">
      <path id="Path_373" data-name="Path 373" d="M255.962,312.249,267.01,266.68a5.416,5.416,0,0,0-7.138-4.874c-.135.047-.269.1-.4.145a26.335,26.335,0,0,1-15.48.919c-18.138-4.4-27.339-26.5-13.687-43.5a23.179,23.179,0,0,1,13.836-8.191c10.782-2,20.006,1.784,25.854,8.364l.062.068a5.383,5.383,0,0,0,8.613-1.016l11-45.366A16.8,16.8,0,0,0,277.3,152.948l-139.016-33.7A16.8,16.8,0,0,0,118,131.613l-33.7,139.016a16.8,16.8,0,0,0,12.369,20.284l43.966,10.659a5.407,5.407,0,0,1,2.47,9.2l-.067.06c-6.58,5.848-10.362,15.072-8.364,25.854a23.166,23.166,0,0,0,8.191,13.836c16.992,13.652,39.1,4.451,43.5-13.687a26.346,26.346,0,0,0-.919-15.48c-.05-.134-.1-.268-.146-.4a5.422,5.422,0,0,1,6.435-6.988l43.952,10.655A16.8,16.8,0,0,0,255.962,312.249Z" transform="translate(-72.676 37.283)" fill="#51e3d4"/>
      <path id="Path_374" data-name="Path 374" d="M130,120.076a5.247,5.247,0,1,0-6.708,5.038" transform="translate(-60.607 35.951)" fill="none" stroke="#161f3d" stroke-linecap="round" stroke-miterlimit="10" stroke-width="2"/>
      <path id="Path_375" data-name="Path 375" d="M231.25,144.826a5.247,5.247,0,1,0-6.708,5.038" transform="translate(-26.364 44.321)" fill="none" stroke="#161f3d" stroke-linecap="round" stroke-miterlimit="10" stroke-width="2"/>
      <line id="Line_1" data-name="Line 1" y1="50.182" x2="79.957" transform="translate(64.926 101.83)" fill="none" stroke="#ffc13b" stroke-linecap="round" stroke-miterlimit="10" stroke-width="2"/>
      <g id="Group_361" data-name="Group 361" transform="translate(136.869 72.742)">
        <path id="Path_376" data-name="Path 376" d="M193.447,82.853A9.031,9.031,0,1,1,190.3,68.4l1.445-8.092" transform="translate(-177.77 -55.23)" fill="none" stroke="#161f3d" stroke-linecap="round" stroke-miterlimit="10" stroke-width="2"/>
        <path id="Path_377" data-name="Path 377" d="M192.189,59.013A2.676,2.676,0,1,0,189.7,61.86,2.678,2.678,0,0,0,192.189,59.013Z" transform="translate(-174.701 -56.514)" fill="none" stroke="#161f3d" stroke-linecap="round" stroke-miterlimit="10" stroke-width="2"/>
      </g>
      <line id="Line_2" data-name="Line 2" x2="54.532" y2="82.968" transform="translate(144.883 101.83)" fill="none" stroke="#ffc13b" stroke-linecap="round" stroke-miterlimit="10" stroke-width="2"/>
      <path id="Path_378" data-name="Path 378" d="M282.351,309.333H235.462a5.415,5.415,0,0,0-3.054,8.085c.076.12.155.24.236.357a26.34,26.34,0,0,1,4.541,14.827c0,18.663-19.317,32.814-39.047,23.551a23.178,23.178,0,0,1-11.221-11.517c-4.482-10.008-2.979-19.863,2.037-27.1l.052-.075a5.385,5.385,0,0,0-3.016-8.132H139.307a16.8,16.8,0,0,0-16.8,16.8V469.177a16.8,16.8,0,0,0,16.8,16.8H282.351a16.8,16.8,0,0,0,16.8-16.8v-45.24a5.405,5.405,0,0,1,8.354-4.569l.075.051c7.234,5.017,17.089,6.52,27.1,2.038a23.184,23.184,0,0,0,11.517-11.221c9.263-19.732-4.888-39.047-23.551-39.047a26.339,26.339,0,0,0-14.827,4.541c-.119.08-.237.158-.357.235a5.422,5.422,0,0,1-8.308-4.606V326.133A16.8,16.8,0,0,0,282.351,309.333Z" transform="translate(-59.59 101.732)" fill="#f36a7b"/>
      <path id="Path_379" data-name="Path 379" d="M292.509,338.759v46.889a5.414,5.414,0,0,0,8.084,3.054c.12-.076.24-.155.357-.236a26.344,26.344,0,0,1,14.829-4.54c18.662,0,32.814,19.317,23.55,39.047a23.173,23.173,0,0,1-11.517,11.221c-10.008,4.482-19.863,2.979-27.1-2.037l-.075-.052a5.383,5.383,0,0,0-8.131,3.016V481.8a16.8,16.8,0,0,0,16.8,16.8H452.351a16.8,16.8,0,0,0,16.8-16.8V338.759a16.8,16.8,0,0,0-16.8-16.8h-45.24a5.406,5.406,0,0,1-4.569-8.354l.052-.075c5.016-7.234,6.518-17.089,2.037-27.1a23.179,23.179,0,0,0-11.221-11.516c-19.73-9.263-39.047,4.888-39.047,23.551a26.34,26.34,0,0,0,4.541,14.827c.08.118.159.237.236.357a5.422,5.422,0,0,1-4.606,8.307H309.307A16.8,16.8,0,0,0,292.509,338.759Z" transform="translate(-2.097 89.106)" fill="#3b1274"/>
      <path id="Path_380" data-name="Path 380" d="M327.451,136.394a15.206,15.206,0,0,0-4.967-2.755c-2.58-.709.112,2.113.112,2.113s-3.976-.052-6.077,1.278,2.924,5.141,8.847,6.944Z" transform="translate(5.859 42.274)" fill="#ffc13b"/>
      <path id="Path_381" data-name="Path 381" d="M372.393,129.628c-2.394-.919-4.589-.649-7.141-.4-3.2.314-7.51,2.41-10.471,3.668a66.991,66.991,0,0,1-8.817,3.04,15.526,15.526,0,0,1-6.823.66c-2.2-.412-4.186-1.657-6.4-2-3.96-.612-8.031,2.029-9.569,5.727a12.149,12.149,0,0,0,1.579,11.407,10.264,10.264,0,0,0,2.7,2.7,12.948,12.948,0,0,0,5.737,1.77c11.484,1.29,22.922-3.655,32.073-10.714,2.108-1.626,4.268-3.61,4.634-6.247" transform="translate(8.007 40.739)" fill="#3b1274"/>
      <path id="Path_382" data-name="Path 382" d="M383.309,179.307a106.5,106.5,0,0,0,10.711.82c4.015-.027,5.962-1.928-.248-3.566-4.488-1.184-4.464-1.922-8.732-5.072-1.27-.937-3.569.024-3.569.024A12.327,12.327,0,0,0,383.309,179.307Z" transform="translate(27.965 54.975)" fill="#8091f4"/>
      <path id="Path_383" data-name="Path 383" d="M352.976,174.547s2.031,3.554-1.092,3.576l-17.842.12c-1.56.009-.024-3.569,9.567-3.633Z" transform="translate(11.771 56.146)" fill="#8091f4"/>
      <path id="Path_384" data-name="Path 384" d="M338.743,372.753l11.563-3.214s4.851-3.346,21.8,21.188,28.215,78.341,28.215,78.341H388.947c-4.684-17.62-42.042-64.735-42.266-65.4C346.681,403.663,342.625,383.775,338.743,372.753Z" transform="translate(13.54 122.041)" fill="#727fcb"/>
      <path id="Path_385" data-name="Path 385" d="M346.619,371.9a80.714,80.714,0,0,0-15.368,8.16s-11.933,17.62-15.055,38.808,3.791,36.577,17.173,48.621h10.036s-10.482-15.835-8.922-29.663,19.851-35.686,20.073-35.017C354.558,402.812,358.531,385.6,346.619,371.9Z" transform="translate(5.663 122.892)" fill="#46a2da"/>
      <path id="Path_386" data-name="Path 386" d="M145.634,369.963a15.192,15.192,0,0,1,5.52-1.338c2.676,0-.669,2.007-.669,2.007s3.847,1,5.52,2.844-4.182,4.182-10.371,4.349Z" transform="translate(-51.769 121.784)" fill="#ffc13b"/>
      <path id="Path_387" data-name="Path 387" d="M362.707,156.848s-9-11.537-19.251-10.576-13.019,20.83-1.095,36.363l.9,1.555,9.367-.063s-1.645-12.257-2.339-16.044,6.939,3.522,10.075,5.731,17.409,1.667,15.531-12.148S362.707,156.848,362.707,156.848Z" transform="translate(12.115 46.566)" fill="#f55b7f"/>
      <path id="Path_388" data-name="Path 388" d="M362.707,156.848s-9-11.537-19.251-10.576-13.019,20.83-1.095,36.363l.9,1.555,9.367-.063s-1.645-12.257-2.339-16.044,6.939,3.522,10.075,5.731,17.409,1.667,15.531-12.148S362.707,156.848,362.707,156.848Z" transform="translate(12.115 46.566)" fill="#151f3d" opacity="0.7"/>
      <path id="Path_389" data-name="Path 389" d="M391.064,154.164a30.923,30.923,0,0,1,7.206,10.212c2.27,5.784-3.5,10.73-4.828,11.63s2.294,9.464,2.294,9.464-19.609,2.7-36.8.8-12.342-11.292-7.015-15.119,26.009-12.665,26.009-12.665Z" transform="translate(16.322 49.254)" fill="#f55b7f"/>
      <path id="Path_390" data-name="Path 390" d="M127.572,379.634l-28.6-2.509s-8.2,15.891-7.695,26.429,3.513,24.255-4.851,42.99-10.538,23.418-10.538,23.418a31.782,31.782,0,0,0,10.538,0A100.331,100.331,0,0,0,107.332,442.7c6.949-13.62,9.164-29.9,9.714-35.013" transform="translate(-75.359 124.659)" fill="#46a2da"/>
      <path id="Path_391" data-name="Path 391" d="M106.643,407.052c.111-1.041.155-1.621.155-1.621s14.72,12.211,19.571,24.757-3.847,38.139-3.847,38.139a29.844,29.844,0,0,0,10.036.167,64.608,64.608,0,0,0,13.382-26.429c3.513-15.557,1-26.262-13.549-45.164S117.169,379,117.169,379" transform="translate(-64.956 125.29)" fill="#3e88b5"/>
      <path id="Path_392" data-name="Path 392" d="M359.511,130.467a14.3,14.3,0,0,1-12.208.032c-2.559-1.223-4.938-4.143-3.673-6.682.571-1.145,1.733-1.849,2.667-2.726,2.046-1.922,3.006-4.694,4.407-7.126s3.709-4.768,6.513-4.636c1.914.09,3.8,1.334,5.627.761a9.455,9.455,0,0,0,2.82-2.03,6.916,6.916,0,0,1,6-1.433,5.176,5.176,0,0,1,3.843,4.582c.049,1.465-.621,2.961-.193,4.364.751,2.465,4.171,2.9,5.742,4.943,1.91,2.484.161,6.348-2.589,7.846s-6.053,1.377-9.183,1.467a59.279,59.279,0,0,0-10.791,1.3" transform="translate(15.074 33.11)" fill="#151f3d"/>
      <path id="Path_393" data-name="Path 393" d="M314.488,336.756a7.972,7.972,0,0,0-3.178,8.2c1.171,5.353,2.509,7.862,6.022,8.2s9.535-1.505,10.371-6.524S321.012,332.742,314.488,336.756Z" transform="translate(4.194 110.663)" fill="#ffc13b"/>
      <path id="Path_394" data-name="Path 394" d="M105.509,356.645s5.131-22.86,23.641-32.228v13.717l-15.492,24.644Z" transform="translate(-65.34 106.833)" fill="#8091f4"/>
      <path id="Path_395" data-name="Path 395" d="M105.509,356.645s5.131-22.86,23.641-32.228v13.717l-15.492,24.644Z" transform="translate(-65.34 106.833)" fill="#151f3d" opacity="0.7"/>
      <path id="Path_396" data-name="Path 396" d="M122.036,348.239s7.584-1.56,11.82,7.138,8.029,13.6,14.051,16.727,17.62,1.56,18.289,6.244.669,11.375-9.591,10.036-15.166-2.453-18.735-4.906c0,0-1.115,5.8-1.56,9.813s1.115,9.144-11.375,12.044S101.517,407.12,92.15,401.1s10.036-42.6,12.713-46.168,11.375-14.273,20.519-8.7Z" transform="translate(-70.715 113.677)" fill="#51e3d4"/>
      <path id="Path_397" data-name="Path 397" d="M129.2,338.079c-2.676-2.007-5.409-2.175-8.978-1.282s-3.791,7.471-3.791,7.471c-.223-1.338-3.624-2.955-4.238.78a3.045,3.045,0,0,0,3.345,3.9,7.014,7.014,0,0,0,.355,2.118,6.2,6.2,0,0,1,2.656.335c2.83,1.113,4.729,2.055,6.252,4.357,4.909-.3,6.354-3.473,7.019-8.706C132.715,340.031,129.2,338.079,129.2,338.079Z" transform="translate(-63.105 110.845)" fill="#ffc13b"/>
      <path id="Path_398" data-name="Path 398" d="M113.941,343.312a5.876,5.876,0,0,0,.153,2.082,2,2,0,0,0,1.418,1.409,2.313,2.313,0,0,0,2.225-1.364c.458-.81.676-1.745,1.2-2.514a3.824,3.824,0,0,1,3.252-1.643,12.312,12.312,0,0,1,2.713.662,9.946,9.946,0,0,0,10.727-4.154,5.815,5.815,0,0,0,.982-4.269,3.271,3.271,0,0,0-3.166-2.644c-1.6.111-2.731,1.622-4.242,2.156-1.716.608-3.586-.127-5.4-.211a9,9,0,0,0-7.861,3.909c-1.607,2.563-1.673,3.791-1.994,6.581" transform="translate(-62.496 109.016)" fill="#151f3d"/>
      <path id="Path_399" data-name="Path 399" d="M129.649,377.81c-3.265-1.483-14.162-10.26-15.724-16.393,0,0,3.458,22.637,14.163,26.206Z" transform="translate(-62.493 119.346)" fill="#161f3d"/>
      <path id="Path_400" data-name="Path 400" d="M359.282,330.731a15.177,15.177,0,0,1,1.657-5.433c1.361-2.3,1.388,1.6,1.388,1.6s2.821-2.8,5.256-3.307,1.472,5.727-1.531,11.142Z" transform="translate(20.486 106.543)" fill="#ffc13b"/>
      <path id="Path_401" data-name="Path 401" d="M287.084,363.92a15.2,15.2,0,0,0-4.577-3.366c-2.469-1.033-.157,2.11-.157,2.11s-3.937-.559-6.19.492,2.244,5.472,7.889,8.016Z" transform="translate(-7.827 118.984)" fill="#ffc13b"/>
      <path id="Path_402" data-name="Path 402" d="M342.274,351.345a135.162,135.162,0,0,0-13.549,1.84c-5.52,1.171-9.033,3.011-13.717,10.706s-11.2,11.063-14.553,11.542c-5.855.836-10.414-1.382-12.546-1.84-4.684-1-10.538,7.36-4.349,12.378s25.258,10.706,38.64-5.687c0,0,2.175,8.2,11.542,6.858,0,0,5.018,5.687,9.2,7.695a72.168,72.168,0,0,1,26.931-11.375s-2.175-9.7-6.189-15.724c0,0,15.724,0,24.422-16.058s4.851-22.582-.335-23.418-7.862,10.706-12.044,14.386-8.866,7.527-21.411,6.189S342.274,351.345,342.274,351.345Z" transform="translate(-6.028 108.118)" fill="#f3ecd3"/>
      <path id="Path_403" data-name="Path 403" d="M312.84,336.331a16.554,16.554,0,0,0-2.576,3.556,3.036,3.036,0,0,0,.436,3.052,3.492,3.492,0,0,0,3.6.557c1.223-.393,2.331-1.108,3.577-1.423a6.083,6.083,0,0,1,7.228,5.362c.1,2.072-.9,4.017-1.39,6.033s-.273,4.542,1.511,5.6c2.858,1.7,6.336-1.895,9.6-1.266,2.173.419,3.529,2.548,5.376,3.767,2.747,1.815,6.482,1.456,9.433,0a10.714,10.714,0,0,0,5.248-5.223,6.981,6.981,0,0,0-.879-7.129c-1.453-1.689-3.993-2.786-4.167-5.006-.112-1.426.867-2.7,1.121-4.111.451-2.506-1.578-4.934-3.977-5.786a11.808,11.808,0,0,0-7.55-.039c-2.171.721-4.851,2.347-7.356,1.892-1.456-.264-4.267-1.928-5.687-2.342C321.682,332.454,317.858,332.651,312.84,336.331Z" transform="translate(3.835 109.75)" fill="#151f3d"/>
      <path id="Path_404" data-name="Path 404" d="M362.432,129.917c7.056-5.306,17.7-3.94,24.492,1.7s10.111,14.618,10.719,23.425c.142,2.053.123,4.235-.933,6a9.95,9.95,0,0,1-3.566,3.177,46.878,46.878,0,0,1-19.868,6.233c-5.638.537-11.792.1-16.181-3.481-4.967-4.048-6.387-11.055-6.323-17.462a28.388,28.388,0,0,1,2.531-12.448c1.907-3.821,5.3-7.06,9.461-8.014" transform="translate(17.607 39.926)" fill="#3b1274"/>
      <path id="Path_405" data-name="Path 405" d="M354.782,161.523a15.193,15.193,0,0,0-5.342,1.931c-2.232,1.477,1.666,1.3,1.666,1.3s-2.654,2.96-3.034,5.418,5.8,1.178,11.05-2.1Z" transform="translate(16.689 51.743)" fill="#ffc13b"/>
      <path id="Path_406" data-name="Path 406" d="M342.507,444.05a2.233,2.233,0,0,1-2.4,2.9H322.267c-1.562,0,0-3.424,9.59-3.569C343.009,443.213,342.507,444.05,342.507,444.05Z" transform="translate(7.79 147.059)" fill="#f55b7f"/>
      <path id="Path_407" data-name="Path 407" d="M118.064,446.425a2.232,2.232,0,0,0,2.4,2.9H138.3c1.56,0,0-3.424-9.591-3.569C117.563,445.588,118.064,446.425,118.064,446.425Z" transform="translate(-61.118 147.862)" fill="#161f3d"/>
      <path id="Path_408" data-name="Path 408" d="M75.564,446.425a2.232,2.232,0,0,0,2.4,2.9H95.8c1.56,0,0-3.424-9.591-3.569C75.063,445.588,75.564,446.425,75.564,446.425Z" transform="translate(-75.491 147.862)" fill="#161f3d"/>
      <path id="Path_409" data-name="Path 409" d="M390.382,444.05a2.233,2.233,0,0,1-2.4,2.9H370.142c-1.562,0,0-3.424,9.59-3.569C390.884,443.213,390.382,444.05,390.382,444.05Z" transform="translate(23.981 147.059)" fill="#f55b7f"/>
      <path id="Path_410" data-name="Path 410" d="M331.356,382.6l9.114-4.237,3.618,7.589-2.922,6.446-6.848-2.688Z" transform="translate(11.041 125.077)" fill="#93c3fc"/>
      <path id="Path_411" data-name="Path 411" d="M346.023,377.265l9.114-4.237,3.618,7.589-2.922,6.446-6.848-2.688Z" transform="translate(16.001 123.273)" fill="#7fa4f7"/>
      <g id="Group_362" data-name="Group 362" transform="translate(130.372 42.321)">
        <path id="Path_412" data-name="Path 412" d="M200.5,41.226a70.491,70.491,0,0,0-2.8-6.956c-1.087-2.023-1.158,2.884-1.158,2.884s-6.205-2.769-8.692-.574,9.223,9.949,9.223,9.949Z" transform="translate(-167.98 -33.78)" fill="#ffc13b"/>
        <path id="Path_413" data-name="Path 413" d="M250.949,92.395,224.412,76.727s-8.156,8.579-22.745,30-27.679,39.744-27.679,39.744a24.341,24.341,0,0,0,9.7,2.818s34.439-24.255,46.716-40.134" transform="translate(-172.552 -19.256)" fill="#7fa4f7"/>
        <path id="Path_414" data-name="Path 414" d="M236.894,86.631l6.09,2.988s.737,10.494.6,20.084-.946,18.946-8.882,27.752-23.445,16.832-23.445,16.832c-7.146.565-10.442-2.829-10.442-2.829,26.6-19.016,20.521-45.649,20.521-45.649Z" transform="translate(-163.48 -15.906)" fill="#8091f4"/>
        <path id="Path_415" data-name="Path 415" d="M259.115,59.973s-5.061-4.759-19.543-5.863-23.092-7.253-31.251-13.619-18.051-1.156-12.843,8.734S213.5,67.335,225.75,68.854c0,0-6.4,10.612-8.943,16.6s-1.262,10.019,4.251,14.337,17.687,10.743,23.465,12.167,17.486-5.99,25.311-22.381a11.927,11.927,0,0,1,2.932,12.981c-3.012,7.763-15.183,1.116-17.091,9.564s10.541,11.306,20.66,5.655,21-32.7-1.73-49.321l-8.894-1.915S259.466,66.448,259.115,59.973Z" transform="translate(-165.774 -32.454)" fill="#f36a7b"/>
        <path id="Path_416" data-name="Path 416" d="M240.787,61.614c-.242-.624,7.258-8.147,7.258-8.147s-4.448-.958-1.489-4.93c2.445-3.283,4.223.954,4.223.954s2.749-4.867,6.53-4.142,9.759,3.712,9.759,3.712a16.934,16.934,0,0,1-1.659,6.667c-1.338,2.581-4.375,9.3-7.04,8.6s-5.109-1.413-5.109-1.413L249.9,63.977S243.153,67.671,240.787,61.614Z" transform="translate(-149.963 -29.893)" fill="#ffc13b"/>
        <path id="Path_417" data-name="Path 417" d="M244.319,92.435s-4.425-2.52-7.589.335.509,10.937,7.707,6.8Z" transform="translate(-151.72 -14.291)" fill="#ffc13b"/>
        <path id="Path_418" data-name="Path 418" d="M254.371,46.406a2.08,2.08,0,0,0-1.35-2.909,3.383,3.383,0,0,0-3.3,1.273,10,10,0,0,0-1.618,3.344q-1.261,3.746-2.522,7.491c-.692,2.05-1.39,4.215-.974,6.339a9.6,9.6,0,0,0,2.3,4.261,11.565,11.565,0,0,0,5.711,3.928,6.314,6.314,0,0,0,6.415-1.807,10.045,10.045,0,0,0,1.583-3.549q.642-2.156,1.286-4.313a12.8,12.8,0,0,1-7.779-2.555A4.816,4.816,0,0,1,252.4,55.87c-.673-1.792.482-3.7,1.524-5.3s2.038-3.667,1.095-5.331" transform="translate(-148.712 -30.523)" fill="#151f3d"/>
        <path id="Path_419" data-name="Path 419" d="M251.324,45.981a3.337,3.337,0,0,1,1.906-2.905,3.137,3.137,0,0,1,1.471-.42c1.2,0,2.168.9,3.224,1.456,2.248,1.2,4.955.874,7.5.951,1.539.047,3.379.49,3.855,1.952.511,1.571-.97,3.1-2.474,3.778a9.85,9.85,0,0,1-8.265-.123c-2.642-1.293-4.622-3.743-7.357-4.823" transform="translate(-146.444 -30.779)" fill="#151f3d"/>
        <path id="Path_420" data-name="Path 420" d="M201.2,135.074s-3.847,3.735.613,3.8,8.862,4.146,14.436,4.227,1.372-2.211-1.964-2.929-2.643-2.27-2.643-2.27Z" transform="translate(-163.87 0.477)" fill="#6d47a8"/>
        <path id="Path_421" data-name="Path 421" d="M174.35,128.847s-3.578,3.739.567,3.8,8.231,4.135,13.411,4.211,1.277-2.212-1.823-2.927-2.454-2.267-2.454-2.267Z" transform="translate(-172.915 -1.629)" fill="#6d47a8"/>
        <path id="Path_422" data-name="Path 422" d="M239.933,98.821s-21.776-5.673-28.671-22.28l-3.66,6.192S216.3,98.027,239.933,98.821Z" transform="translate(-161.184 -19.319)" fill="#161f3d"/>
        <path id="Path_423" data-name="Path 423" d="M250.676,77.388l2.061-3.651a13.836,13.836,0,0,1,1.491,12.4S253.332,78.765,250.676,77.388Z" transform="translate(-146.616 -20.267)" fill="#161f3d"/>
        <path id="Path_424" data-name="Path 424" d="M222.973,63.087l2.279-3.313s-14.384-.21-23.013-5.021C202.239,54.753,213.049,62.941,222.973,63.087Z" transform="translate(-162.998 -26.688)" fill="#161f3d"/>
      </g>
      <path id="Path_425" data-name="Path 425" d="M356.668,114.637s-5.8.486-5.309,6.5,1.643,12.257,8.328,11.1l.7,4.456s5.355.409,9.557-4.971l-1.61-7.126S369.136,111.208,356.668,114.637Z" transform="translate(17.797 35.696)" fill="#ffc13b"/>
      <path id="Path_426" data-name="Path 426" d="M349.227,116.669a5.074,5.074,0,0,0,4.223,3.458,16.385,16.385,0,0,0,5.736-.424,12.645,12.645,0,0,1,5.729-.119c1.448.412,2.912,1.757,2.486,3.2-.166.561-.594,1.022-.724,1.591-.29,1.269,1.02,2.375,2.294,2.642a5.16,5.16,0,0,0,6-6.521,8.007,8.007,0,0,0-1.876-3.024,17.536,17.536,0,0,0-12.125-5.651,17.274,17.274,0,0,0-12.5,4.743" transform="translate(16.83 34.929)" fill="#151f3d"/>
      <path id="Path_427" data-name="Path 427" d="M372.747,135.415s-3.968,17.2-12.976,20.94-8.036-.949-8.036-.949.048,7.026,9.112,11.648C360.847,167.054,377.958,153.669,372.747,135.415Z" transform="translate(17.923 42.913)" fill="#161f3d"/>
      <path id="Path_428" data-name="Path 428" d="M380.3,162.5s2.266-11.391-1.487-22.071c0,0-3.188,23.44-7.526,25.142A41.927,41.927,0,0,0,380.3,162.5Z" transform="translate(24.546 44.61)" fill="#161f3d"/>
      <path id="Path_429" data-name="Path 429" d="M386.811,142.685c.039,7.965-1.289,16.159-5.458,22.946s-11.566,11.931-19.531,11.871a11.247,11.247,0,0,1-6.714-1.948,6.278,6.278,0,0,1-2.553-6.215,7.183,7.183,0,0,1,2.636-3.764c2.4-1.926,5.433-2.9,7.894-4.741a19.214,19.214,0,0,0,4.672-5.378,32.867,32.867,0,0,0,4.748-20.041" transform="translate(18.165 42.913)" fill="#3b1274"/>
      <path id="Path_430" data-name="Path 430" d="M387.843,173.577l-.521-2.672s-16.545,2.286-23.568,2.667C363.754,173.572,378.984,174.641,387.843,173.577Z" transform="translate(21.998 54.916)" fill="#161f3d"/>
      <path id="Path_431" data-name="Path 431" d="M321.934,353.975h46.889a5.415,5.415,0,0,0,3.055-8.085c-.078-.119-.157-.238-.237-.356a26.354,26.354,0,0,1-4.541-14.829c0-18.663,19.317-32.814,39.047-23.55a23.173,23.173,0,0,1,11.221,11.517c4.482,10.008,2.98,19.863-2.037,27.1l-.051.075a5.383,5.383,0,0,0,3.015,8.131h46.682a16.8,16.8,0,0,0,16.8-16.8V194.133a16.8,16.8,0,0,0-16.8-16.8H321.934a16.8,16.8,0,0,0-16.8,16.8v45.24a5.407,5.407,0,0,1-8.356,4.569l-.075-.052c-7.234-5.016-17.089-6.518-27.1-2.037a23.181,23.181,0,0,0-11.518,11.221c-9.263,19.73,4.888,39.047,23.551,39.047a26.344,26.344,0,0,0,14.829-4.541c.118-.08.237-.159.356-.236a5.423,5.423,0,0,1,8.309,4.606v45.226A16.8,16.8,0,0,0,321.934,353.975Z" transform="translate(-14.723 57.089)" fill="#efc130"/>
      <line id="Line_3" data-name="Line 3" x1="16.949" y2="72.724" transform="translate(152.578)" fill="none" stroke="#9f62d1" stroke-linecap="round" stroke-miterlimit="10" stroke-width="1.5"/>
    </g>
  </g>
</svg>
