<svg xmlns="http://www.w3.org/2000/svg" xmlns:xlink="http://www.w3.org/1999/xlink" width="472.132" height="497.716" viewBox="0 0 472.132 497.716">
  <defs>
    <clipPath id="clip-path">
      <path id="Path_483" data-name="Path 483" d="M246.4,387.006l-75-23.181,2.758-37.133-11.9,19.661-7.506.79-4.291.243-5.761-1.31,1.6-30.143,4.372,2.894V282.571a27.841,27.841,0,0,1,15.495-24.962c7.063-3.492,14.373-5.941,16.789-6.042,4.967-.207,5.174-7.449,5.174-7.449V230.873l22.971-3.519,1.449,21.11s18.432,7.1,23.312,9c.331.129.656.259.976.389A31.91,31.91,0,0,1,256.161,282.5l5.221,33.226,3.932-1.656,2.9,12.624-23.385,9.519-9.959-31.46-2.251,21.941Z" transform="translate(-144.695 -227.354)" fill="none"/>
    </clipPath>
    <clipPath id="clip-path-2">
      <circle id="Ellipse_28" data-name="Ellipse 28" cx="90.424" cy="90.424" r="90.424" fill="none"/>
    </clipPath>
    <clipPath id="clip-path-3">
      <path id="Path_571" data-name="Path 571" d="M267.576,171.365s-29.232.677-29.145,23.449c.1,25.249.343,28.034.343,28.034l19.893,1.5-.093-10s4.086,10.967-.159,37.291l63.77,3.009,1.757-47.493.343,14.971,22.41.525s0-57.421-43.511-53.45C278.545,171.446,267.576,171.365,267.576,171.365Z" transform="translate(-238.431 -169)" fill="none"/>
    </clipPath>
  </defs>
  <g id="Objects" transform="translate(0 0)">
    <g id="Group_485" data-name="Group 485">
      <rect id="Rectangle_36" data-name="Rectangle 36" width="95.414" height="23.392" transform="translate(271.762 317.877)" fill="#90abc4"/>
      <rect id="Rectangle_37" data-name="Rectangle 37" width="401.118" height="16.506" transform="translate(66.029 303.388)" fill="#90abc4"/>
      <path id="Path_434" data-name="Path 434" d="M140.537,319.553l55.572,169.521,5.2-1.572L154.83,319.533Z" transform="translate(-7.82 -4.48)" fill="#90abc4"/>
      <path id="Path_435" data-name="Path 435" d="M129.558,320.315,81.348,487.8l5.188,1.626,55.992-165.043Z" transform="translate(-34.311 -4.13)" fill="#90abc4"/>
      <g id="Group_364" data-name="Group 364" transform="translate(93.34 210.462)">
        <path id="Path_436" data-name="Path 436" d="M114.8,406.342s28.4,29.215,101.44,21.1,73.037-34.083,74.66-44.633,30.027-136.335-39.763-135.523S178.1,355.215,164.3,373.069,104.6,399,114.8,406.342Z" transform="translate(-113.335 -247.28)" fill="#dfebfd"/>
        <path id="Path_437" data-name="Path 437" d="M141.363,367.376,113.335,474.807s2.151-1.01,3.667,0,37.987-103.533,37.987-103.533Z" transform="translate(-113.335 -193.529)" fill="#c5daf7"/>
        <path id="Path_438" data-name="Path 438" d="M164.326,372.681s.521,99.261,2.035,99.758a13.055,13.055,0,0,0,4.542,0l2.507-99.758Z" transform="translate(-90.513 -191.155)" fill="#c5daf7"/>
        <path id="Path_439" data-name="Path 439" d="M199.685,370.471,238.87,475.218l4.543-.221-29.63-108.031Z" transform="translate(-74.687 -193.713)" fill="#c5daf7"/>
      </g>
      <path id="Path_440" data-name="Path 440" d="M148.323,434.963l14.206-2.239-.286-25.509L142.11,413.2l6.214,21.763" transform="translate(-7.116 34.763)" fill="#ba8a7b"/>
      <path id="Path_441" data-name="Path 441" d="M176.753,193.527s-11.638,14.063-11.476,17.3-6.291,21.278,2.761,31.461,11.882,10.54,22.455,5.068c.431-.223,14.548-7.112,14.548-7.112l9.859-10.021-4.364-12.284L201,201.286l-4.04-4.2-19.4-2.91" transform="translate(2.322 -60.877)" fill="#ba8a7b"/>
      <g id="Group_404" data-name="Group 404" transform="translate(138.736 181.617)">
        <g id="Group_403" data-name="Group 403" transform="translate(0)" clip-path="url(#clip-path)">
          <path id="Path_442" data-name="Path 442" d="M190.115,230.873v13.245s-.207,7.242-5.174,7.449c-2.416.1-9.726,2.551-16.789,6.042a27.841,27.841,0,0,0-15.495,24.962v36.256l-4.761-1.656-7.656,24.421,12.21,5.795,2.276-4.76,9.521,3.726,3.518-2.484-2.587,19.247,75.227-5.588-5.795-30.836-1.035-7.037,6.83-12,6.416,28.559,23.385-9.519-2.9-12.624-3.932,1.656-6.83-43.46s-1.183-9.057-9.328-11.006c-5.091-1.217-32.683-12.794-32.683-12.794l-1.449-21.11Z" transform="translate(-146.689 -227.354)" fill="#ba8a7b"/>
          <path id="Path_443" data-name="Path 443" d="M190.115,230.873v13.245s-.207,7.242-5.174,7.449c-2.416.1-9.726,2.551-16.789,6.042a27.841,27.841,0,0,0-15.495,24.962v36.256l-4.761-1.656-7.656,24.421,12.21,5.795,2.276-4.76,9.521,3.726,3.518-2.484-2.587,19.247,75.227-5.588-5.795-30.836-1.035-7.037,6.83-12,6.416,28.559,23.385-9.519-2.9-12.624-3.932,1.656L258.155,282.5a31.91,31.91,0,0,0-19.332-24.649c-.32-.13-.644-.261-.976-.389-4.88-1.895-23.312-9-23.312-9l-1.449-21.11Z" transform="translate(-146.689 -227.354)" fill="#ba8a7b"/>
          <path id="Path_444" data-name="Path 444" d="M175.6,246.1c-.2.087,30.3,24.891,30.3,24.891l32.654-22.97,18.1,2.671,22.641,72.219-35.134,7.222,5.654,50.355L161.4,357.267l2.927-18.153-5.855-.391s-3.318,4.1-3.9,4.295-19.128-7.222-19.128-7.222l14.638-88.419Z" transform="translate(-148.835 -218.962)" fill="#51e3d4"/>
          <g id="Group_365" data-name="Group 365" transform="translate(87.782 56.633)">
            <path id="Path_445" data-name="Path 445" d="M205.475,309.182c-.217-.023-.165-2.426.054-6.3s.612-9.209,1.1-15.1.973-11.22,1.352-15.075.614-6.233.834-6.233.385,2.417.276,6.3-.405,9.237-.895,15.137C207.222,299.71,205.914,309.228,205.475,309.182Z" transform="translate(-205.336 -266.477)" fill="#84abd3"/>
          </g>
          <g id="Group_366" data-name="Group 366" transform="translate(101.694 86.526)">
            <path id="Path_446" data-name="Path 446" d="M233.389,287.217c.13.427-4.027,2.06-9.081,4.185s-9.141,3.929-9.354,3.536c-.2-.371,3.6-2.84,8.746-4.987S233.268,286.811,233.389,287.217Z" transform="translate(-214.947 -287.127)" fill="#84abd3"/>
          </g>
          <g id="Group_367" data-name="Group 367" transform="translate(104.962 85.044)">
            <path id="Path_447" data-name="Path 447" d="M229.116,286.3c.1.423-2.49,1.38-5.777,2.138s-6.035,1.029-6.132.605,2.488-1.381,5.779-2.138S229.019,285.88,229.116,286.3Z" transform="translate(-217.204 -286.104)" fill="#84abd3"/>
          </g>
          <g id="Group_368" data-name="Group 368" transform="translate(64.131 82.443)">
            <path id="Path_448" data-name="Path 448" d="M205.9,288.41c.1.171-.741.925-2.432,1.546a12.284,12.284,0,0,1-12.983-3.147c-1.217-1.326-1.617-2.381-1.453-2.487.194-.136.9.657,2.208,1.668a14.394,14.394,0,0,0,11.935,2.894C204.8,288.58,205.791,288.2,205.9,288.41Z" transform="translate(-188.998 -284.306)" fill="#84abd3"/>
          </g>
          <g id="Group_369" data-name="Group 369" transform="translate(21.908 60.568)">
            <path id="Path_449" data-name="Path 449" d="M166.745,316.574c-.1,0-.178-.779-.09-2.166s.323-3.371.65-5.809c.161-1.217.345-2.551.492-3.971.075-.714.135-1.433.149-2.179a3.969,3.969,0,0,0-.324-1.954,2.8,2.8,0,0,0-1.6-1.112,10.021,10.021,0,0,1-2.485-1.252,9.01,9.01,0,0,1-3.376-4.823,8.331,8.331,0,0,1-.208-3.785,8.67,8.67,0,0,1,1.406-3.342,8.8,8.8,0,0,1,5.4-3.636l-.517.88a51.554,51.554,0,0,1-1.925-10.253c-.194-2.519-.1-3.968.038-3.976.158-.009.346,1.42.772,3.874a71.42,71.42,0,0,0,2.438,9.948l.23.7-.747.177a7.513,7.513,0,0,0-4.43,3.141,7.27,7.27,0,0,0-1.128,2.76,6.843,6.843,0,0,0,.185,3.075,7.587,7.587,0,0,0,2.769,4.01,8.6,8.6,0,0,0,2.142,1.106,6.574,6.574,0,0,1,1.262.654,3.268,3.268,0,0,1,1.049,1.168,5.236,5.236,0,0,1,.428,2.685c-.041.8-.132,1.566-.236,2.289-.21,1.452-.459,2.779-.691,3.991-.476,2.39-.866,4.334-1.141,5.711A7.068,7.068,0,0,1,166.745,316.574Z" transform="translate(-159.829 -269.195)" fill="#84abd3"/>
          </g>
          <g id="Group_370" data-name="Group 370" transform="translate(5.752 92.862)">
            <path id="Path_450" data-name="Path 450" d="M152.932,305.515c-.417.123-1.679-2.914-2.82-6.78s-1.727-7.1-1.31-7.226,1.679,2.913,2.82,6.782S153.349,305.392,152.932,305.515Z" transform="translate(-148.668 -291.504)" fill="#84abd3"/>
          </g>
          <g id="Group_371" data-name="Group 371" transform="translate(6.481 91.357)">
            <path id="Path_451" data-name="Path 451" d="M155.337,301.814c-.384.206-2.056-2.166-3.736-5.3s-2.733-5.835-2.351-6.041,2.056,2.166,3.736,5.3S155.719,301.609,155.337,301.814Z" transform="translate(-149.172 -290.464)" fill="#84abd3"/>
          </g>
          <g id="Group_372" data-name="Group 372" transform="translate(36.991 58.611)">
            <path id="Path_452" data-name="Path 452" d="M174.366,277.175c-1.707.33-3.492-1.484-3.988-4.049s.485-4.915,2.192-5.245,3.49,1.484,3.987,4.05S176.071,276.845,174.366,277.175Z" transform="translate(-170.249 -267.843)" fill="#fcfdff"/>
          </g>
          <g id="Group_373" data-name="Group 373" transform="translate(62.828 62.03)">
            <path id="Path_453" data-name="Path 453" d="M194.042,270.41c1.558.77,1.789,3.48.518,6.052s-3.567,4.033-5.124,3.263-1.789-3.479-.517-6.052S192.486,269.64,194.042,270.41Z" transform="translate(-188.098 -270.205)" fill="#fcfdff"/>
          </g>
          <g id="Group_374" data-name="Group 374" transform="translate(48.237 82.239)">
            <path id="Path_454" data-name="Path 454" d="M181.334,284.167c1.737.061,3.069,2.27,2.976,4.936s-1.576,4.777-3.313,4.716-3.069-2.27-2.975-4.936S179.6,284.107,181.334,284.167Z" transform="translate(-178.018 -284.166)" fill="#fcfdff"/>
          </g>
          <g id="Group_375" data-name="Group 375" transform="translate(76.045 94.412)">
            <path id="Path_455" data-name="Path 455" d="M206.022,293.393c1.078,1.364.083,3.949-2.226,5.777s-5.053,2.2-6.133.842-.081-3.948,2.228-5.776S204.943,292.032,206.022,293.393Z" transform="translate(-197.228 -292.575)" fill="#fcfdff"/>
          </g>
          <g id="Group_376" data-name="Group 376" transform="translate(73.889 44.906)">
            <path id="Path_456" data-name="Path 456" d="M202.885,261.42a3.6,3.6,0,1,1-3.661-3.043A3.381,3.381,0,0,1,202.885,261.42Z" transform="translate(-195.738 -258.376)" fill="#fcfdff"/>
          </g>
          <g id="Group_377" data-name="Group 377" transform="translate(98.266 43.107)">
            <path id="Path_457" data-name="Path 457" d="M219.425,258.717a3.723,3.723,0,1,1-4.709-1.118A3.442,3.442,0,0,1,219.425,258.717Z" transform="translate(-212.578 -257.133)" fill="#fcfdff"/>
          </g>
          <g id="Group_378" data-name="Group 378" transform="translate(77.31 67.413)">
            <path id="Path_458" data-name="Path 458" d="M204.185,274.526c1.335,1.113,1.27,3.39-.145,5.087s-3.645,2.168-4.98,1.055-1.268-3.389.146-5.085S202.85,273.413,204.185,274.526Z" transform="translate(-198.102 -273.924)" fill="#fcfdff"/>
          </g>
          <g id="Group_379" data-name="Group 379" transform="translate(98.012 61.273)">
            <path id="Path_459" data-name="Path 459" d="M218.782,271.74a3.3,3.3,0,1,1-4.157-1.859A3.222,3.222,0,0,1,218.782,271.74Z" transform="translate(-212.403 -269.682)" fill="#fcfdff"/>
          </g>
          <g id="Group_380" data-name="Group 380" transform="translate(108.475 69.54)">
            <path id="Path_460" data-name="Path 460" d="M227.3,278.233a3.163,3.163,0,0,1-1,2.263,4.277,4.277,0,0,1-4.922.767,3.17,3.17,0,0,1-1.639-1.853,2.663,2.663,0,0,1,.527-2.455,4.546,4.546,0,0,1,5.782-.9A2.661,2.661,0,0,1,227.3,278.233Z" transform="translate(-219.631 -275.393)" fill="#fcfdff"/>
          </g>
          <g id="Group_381" data-name="Group 381" transform="translate(90.866 83.937)">
            <path id="Path_461" data-name="Path 461" d="M214.33,286.645c.932,1.468.243,3.574-1.537,4.7s-3.979.858-4.912-.609-.242-3.573,1.539-4.7S213.4,285.178,214.33,286.645Z" transform="translate(-207.467 -285.339)" fill="#fcfdff"/>
          </g>
          <g id="Group_382" data-name="Group 382" transform="translate(104.901 100.586)">
            <path id="Path_462" data-name="Path 462" d="M221.549,302.207a4.357,4.357,0,0,1-2.3.454,2.007,2.007,0,0,1-2.076-2.435,4.366,4.366,0,0,1,.812-2.2,2.793,2.793,0,0,1,2.079-1.183,2.944,2.944,0,0,1,2.982,3.5A2.793,2.793,0,0,1,221.549,302.207Z" transform="translate(-217.162 -296.84)" fill="#fcfdff"/>
          </g>
          <g id="Group_383" data-name="Group 383" transform="translate(118.517 91.648)">
            <path id="Path_463" data-name="Path 463" d="M232.086,293.567a3.92,3.92,0,0,1-.664,2.254,2.17,2.17,0,0,1-3.39.53,3.93,3.93,0,0,1-1.32-1.944,3.011,3.011,0,0,1,.221-2.367,2.742,2.742,0,0,1,4.221-.66A3.016,3.016,0,0,1,232.086,293.567Z" transform="translate(-226.568 -290.666)" fill="#fcfdff"/>
          </g>
          <g id="Group_384" data-name="Group 384" transform="translate(89.736 28.561)">
            <path id="Path_464" data-name="Path 464" d="M212.908,247.389c1.488.9,1.563,3.5.168,5.818s-3.735,3.467-5.223,2.569-1.563-3.5-.167-5.818S211.42,246.492,212.908,247.389Z" transform="translate(-206.686 -247.084)" fill="#fcfdff"/>
          </g>
          <g id="Group_385" data-name="Group 385" transform="translate(40.273 43.141)">
            <path id="Path_465" data-name="Path 465" d="M178.2,257.856a3.6,3.6,0,1,1-4.716.628A3.379,3.379,0,0,1,178.2,257.856Z" transform="translate(-172.516 -257.156)" fill="#fcfdff"/>
          </g>
          <g id="Group_386" data-name="Group 386" transform="translate(15.677 26.269)">
            <path id="Path_466" data-name="Path 466" d="M155.859,246.318a2.6,2.6,0,0,1,2.766-.725,9.041,9.041,0,0,1,6.4,6.226,2.605,2.605,0,0,1-.65,2.787,2.918,2.918,0,0,1-2.8.028,11.645,11.645,0,0,1-5.67-5.518A2.918,2.918,0,0,1,155.859,246.318Z" transform="translate(-155.525 -245.501)" fill="#fcfdff"/>
          </g>
          <g id="Group_387" data-name="Group 387" transform="translate(25.258 44.644)">
            <path id="Path_467" data-name="Path 467" d="M168.379,259.893a2.668,2.668,0,0,1,.2,2.445,3.723,3.723,0,0,1-4.99,1.8,2.668,2.668,0,0,1-1.41-2.006,3.644,3.644,0,0,1,.5-2.349,3.028,3.028,0,0,1,3.81-1.375A3.644,3.644,0,0,1,168.379,259.893Z" transform="translate(-162.143 -258.195)" fill="#fcfdff"/>
          </g>
          <g id="Group_388" data-name="Group 388" transform="translate(53.99 53.302)">
            <path id="Path_468" data-name="Path 468" d="M185.4,264.179c1.736.091,3.03,2.307,2.891,4.951s-1.659,4.713-3.395,4.622-3.028-2.307-2.889-4.952S183.661,264.088,185.4,264.179Z" transform="translate(-181.992 -264.176)" fill="#fcfdff"/>
          </g>
          <g id="Group_389" data-name="Group 389" transform="translate(27.71 80.619)">
            <path id="Path_469" data-name="Path 469" d="M170.11,283.848a2.594,2.594,0,0,1,.792,2.381,4.427,4.427,0,0,1-4.752,3.5,2.6,2.6,0,0,1-2.04-1.461,3.358,3.358,0,0,1-.08-2.452,3.981,3.981,0,0,1,3.762-2.772A3.355,3.355,0,0,1,170.11,283.848Z" transform="translate(-163.838 -283.047)" fill="#fcfdff"/>
          </g>
          <g id="Group_390" data-name="Group 390" transform="translate(38.038 99.297)">
            <path id="Path_470" data-name="Path 470" d="M176.186,304.3a2.923,2.923,0,0,1-2.538-.382A5.944,5.944,0,0,1,171,298.534a2.928,2.928,0,0,1,1.246-2.244,2.637,2.637,0,0,1,2.6,0,5.814,5.814,0,0,1,2.928,5.954A2.638,2.638,0,0,1,176.186,304.3Z" transform="translate(-170.972 -295.95)" fill="#fcfdff"/>
          </g>
          <g id="Group_391" data-name="Group 391" transform="translate(60.408 104.959)">
            <path id="Path_471" data-name="Path 471" d="M190.149,299.87c1.73.171,2.888,2.788,2.587,5.847s-1.948,5.4-3.678,5.23-2.886-2.788-2.584-5.847S188.421,299.7,190.149,299.87Z" transform="translate(-186.426 -299.861)" fill="#fcfdff"/>
          </g>
          <g id="Group_392" data-name="Group 392" transform="translate(41.454 118.301)">
            <path id="Path_472" data-name="Path 472" d="M182.2,314.7c-.759,1.563-3.309,1.892-5.7.734s-3.71-3.364-2.952-4.928,3.308-1.892,5.7-.734S182.952,313.134,182.2,314.7Z" transform="translate(-173.332 -309.078)" fill="#fcfdff"/>
          </g>
          <g id="Group_393" data-name="Group 393" transform="translate(76.183 115.71)">
            <path id="Path_473" data-name="Path 473" d="M200.334,307.289c1.737-.055,3.206,1.818,3.282,4.183s-1.272,4.328-3.009,4.383-3.2-1.818-3.28-4.184S198.6,307.344,200.334,307.289Z" transform="translate(-197.323 -307.288)" fill="#fcfdff"/>
          </g>
          <g id="Group_394" data-name="Group 394" transform="translate(62.444 125.191)">
            <path id="Path_474" data-name="Path 474" d="M193.475,322.341a2.605,2.605,0,0,1-2.624-.068A6.144,6.144,0,0,1,187.939,316a2.606,2.606,0,0,1,1.644-2.047,2.921,2.921,0,0,1,2.533.518,6.416,6.416,0,0,1,2.6,5.606A2.926,2.926,0,0,1,193.475,322.341Z" transform="translate(-187.832 -313.838)" fill="#fcfdff"/>
          </g>
          <g id="Group_395" data-name="Group 395" transform="translate(11.558 111.412)">
            <path id="Path_475" data-name="Path 475" d="M158.146,310.487a3.55,3.55,0,1,1,.308-4.716A3.353,3.353,0,0,1,158.146,310.487Z" transform="translate(-152.679 -304.319)" fill="#fcfdff"/>
          </g>
          <g id="Group_396" data-name="Group 396" transform="translate(19.119 100.212)">
            <path id="Path_476" data-name="Path 476" d="M165.5,303.768c-1.177,1.28-3.7.874-5.631-.9s-2.546-4.257-1.369-5.537,3.7-.873,5.63.906S166.677,302.49,165.5,303.768Z" transform="translate(-157.903 -296.582)" fill="#fcfdff"/>
          </g>
          <g id="Group_397" data-name="Group 397" transform="translate(2.334 76.874)">
            <path id="Path_477" data-name="Path 477" d="M146.583,281.511c.9-1.484,3.769-1.385,6.4.217s4.023,4.107,3.118,5.59-3.768,1.385-6.4-.22S145.678,282.993,146.583,281.511Z" transform="translate(-146.308 -280.459)" fill="#fcfdff"/>
          </g>
          <g id="Group_398" data-name="Group 398" transform="translate(16.463 69.855)">
            <path id="Path_478" data-name="Path 478" d="M163.1,277.232a2.7,2.7,0,0,1,.029,2.5,4.371,4.371,0,0,1-5.288,2.087,2.7,2.7,0,0,1-1.686-1.843,3.179,3.179,0,0,1,.43-2.425,4.086,4.086,0,0,1,4.545-1.795A3.173,3.173,0,0,1,163.1,277.232Z" transform="translate(-156.068 -275.611)" fill="#fcfdff"/>
          </g>
          <g id="Group_399" data-name="Group 399" transform="translate(1.829 55.505)">
            <path id="Path_479" data-name="Path 479" d="M146.075,267.273c.611-1.626,3.447-2.066,6.333-.98s4.729,3.283,4.117,4.91-3.445,2.064-6.332.98S145.464,268.9,146.075,267.273Z" transform="translate(-145.958 -265.697)" fill="#fcfdff"/>
          </g>
          <g id="Group_400" data-name="Group 400" transform="translate(14.741 46.285)">
            <path id="Path_480" data-name="Path 480" d="M157.2,259.39c1.7-.379,3.458,1.039,3.936,3.169s-.51,4.166-2.206,4.545-3.457-1.038-3.934-3.169S155.509,259.771,157.2,259.39Z" transform="translate(-154.878 -259.329)" fill="#fcfdff"/>
          </g>
          <g id="Group_401" data-name="Group 401" transform="translate(1.127 37.144)">
            <path id="Path_481" data-name="Path 481" d="M145.738,254.41c.809-1.539,3.237-1.853,5.421-.7s3.3,3.329,2.491,4.867-3.237,1.851-5.421.7S144.928,255.947,145.738,254.41Z" transform="translate(-145.474 -253.014)" fill="#fcfdff"/>
          </g>
          <g id="Group_402" data-name="Group 402" transform="translate(-0.674 104.082)">
            <path id="Path_482" data-name="Path 482" d="M151.74,300.864c.74,1.572-.287,3.613-2.294,4.56s-4.236.437-4.977-1.135.288-3.612,2.3-4.558S151,299.294,151.74,300.864Z" transform="translate(-144.229 -299.255)" fill="#fcfdff"/>
          </g>
        </g>
      </g>
      <path id="Path_484" data-name="Path 484" d="M200.666,251.124a28.663,28.663,0,0,0,1.078,8.033c2.044,7.409,7.051,19.124,23.6,15.351,18.461-4.208,9.254-23.535,9.254-23.535l1.2-.85a5.816,5.816,0,0,0,2.525-4.671,3.5,3.5,0,0,0-2.071-3.492c4.967-13.611-6.989-14.531-6.989-14.531v-1.472c-2.807-19.525-11.714-30.274-21.26-35.193-6.747-3.476-16.447-2.881-16.447-2.881s-4.414-4.231-15.082-2.759-4.231,17.29-4.231,17.29l-1.838,1.1c-11.955,5.334-7.174,40.834-7.174,40.834s-8.645,6.254-7.54,16.922,13.111,12,13.111,12,13.927-3.172,14.662-3.355-.382-17.216-.382-17.216c-7.553-3.111-13.713-11.188-13.6-27.113C169.6,209.509,181.81,199.1,181.81,199.1c4.783,6.989,16,7.173,16,7.173,0,6.806,7.174,13.612,7.174,13.612s1.5,16.56-1.859,21.709A18.128,18.128,0,0,0,200.666,251.124Z" transform="translate(-1.081 -64.776)" fill="#00215f"/>
      <g id="Group_409" data-name="Group 409" transform="translate(177.115 157.471)">
        <path id="Path_491" data-name="Path 491" d="M176.438,221.111c.026.051-.159.232-.589.4a3.5,3.5,0,0,1-1.94.107,3.74,3.74,0,0,1-2.419-1.691,2.159,2.159,0,0,1-.281-.939,1.435,1.435,0,0,1,.09-.58,1.138,1.138,0,0,1,.421-.53,1.235,1.235,0,0,1,.621-.21,2.2,2.2,0,0,1,.536.036,3.211,3.211,0,0,0,.746.1,1.318,1.318,0,0,0,.952-.748,3.656,3.656,0,0,0,.411-1.348,8.442,8.442,0,0,0-.127-2.567,9.147,9.147,0,0,1-.411-2.464c.109-.036.589.8,1.061,2.309a7.718,7.718,0,0,1,.342,2.813,4.286,4.286,0,0,1-.469,1.708,2.824,2.824,0,0,1-.631.792,1.873,1.873,0,0,1-1.051.446,3.629,3.629,0,0,1-.981-.111c-.261-.049-.411-.038-.481.016s-.125.13-.126.316a1.34,1.34,0,0,0,.145.556,3.267,3.267,0,0,0,1.828,1.458,4.019,4.019,0,0,0,1.679.18C176.172,221.11,176.406,221.046,176.438,221.111Z" transform="translate(-171.208 -210.673)" fill="#876359"/>
      </g>
      <g id="Group_410" data-name="Group 410" transform="translate(179.13 168.668)">
        <path id="Path_493" data-name="Path 493" d="M184.668,218.415c.1.056-.164.827-.977,1.847a9.711,9.711,0,0,1-9.14,3.421c-1.284-.235-1.989-.641-1.95-.75.043-.138.8.033,2.024.087a11.317,11.317,0,0,0,8.575-3.211C184.085,218.969,184.547,218.34,184.668,218.415Z" transform="translate(-172.6 -218.409)" fill="#876359"/>
      </g>
      <g id="Group_411" data-name="Group 411" transform="translate(189.576 168.15)">
        <path id="Path_494" data-name="Path 494" d="M182.619,220.049c-.248.1-.7-.446-1.4-.847-.683-.428-1.375-.57-1.406-.837-.007-.124.191-.266.55-.305a2.352,2.352,0,0,1,2.264,1.361C182.765,219.756,182.733,220,182.619,220.049Z" transform="translate(-179.816 -218.051)" fill="#876359"/>
      </g>
      <path id="Path_496" data-name="Path 496" d="M268.415,346.853s-88.539-49.469-116.208-37.478-76.089,119.9-76.089,119.9l16.268,9.761s33.023-39.755,70.887-92.183c0,0,69.172,42.964,98.223,23.957S268.415,346.853,268.415,346.853Z" transform="translate(-36.651 -9.865)" fill="#46a2da"/>
      <path id="Path_497" data-name="Path 497" d="M193.283,330.589l26.15-9.105s9.023,22.339,4.131,29.006-1.1,0-1.1,0Z" transform="translate(15.787 -3.607)" fill="#46a2da"/>
      <path id="Path_498" data-name="Path 498" d="M80.688,392.138l-12,15.871,14.17,2.161,11.022-10.629S88.2,392.141,80.688,392.138Z" transform="translate(-39.98 28.015)" fill="#ba8a7b"/>
      <path id="Path_499" data-name="Path 499" d="M143.241,423.611" transform="translate(-6.61 42.102)" fill="#ba8a7b"/>
      <path id="Path_500" data-name="Path 500" d="M149.452,427.344s-14.415,24.1-8.394,27.714,22.6-29.578,22.6-29.578V424.24Z" transform="translate(-8.245 42.383)" fill="#00215f"/>
      <path id="Path_501" data-name="Path 501" d="M78.645,402.013s-33.141,12.6-29.513,17.9,42.415-9.922,42.415-9.922L93.7,405.3Z" transform="translate(-48.854 32.435)" fill="#00215f"/>
      <path id="Path_502" data-name="Path 502" d="M180.094,330.99,232.722,312.3l-1.8-7.669,18.147-7.846s8.279,21.045.951,29.113c-4.949,5.45-53.721,12.18-53.721,12.18Z" transform="translate(9.884 -14.663)" fill="#ba8a7b"/>
      <ellipse id="Ellipse_26" data-name="Ellipse 26" cx="6.971" cy="9.559" rx="6.971" ry="9.559" transform="translate(205.075 154.253)" fill="#d9ecfd"/>
      <path id="Path_503" data-name="Path 503" d="M197.216,218.949s3.057-22.455-10.763-31.661a23.419,23.419,0,0,1,7.74,2.37s9.548,4.694,6.973,32.745Z" transform="translate(12.731 -63.669)" fill="#d9ecfd"/>
      <path id="Path_504" data-name="Path 504" d="M186.326,225.13c0,.925-1.562,1.675-3.487,1.675s-3.486-.75-3.486-1.675,1.56-1.675,3.486-1.675S186.326,224.2,186.326,225.13Z" transform="translate(9.553 -47.482)" fill="#d9ecfd"/>
      <g id="Group_413" data-name="Group 413" transform="translate(193.583 168.361)">
        <path id="Path_505" data-name="Path 505" d="M202.209,218.2c.1.02-.138,1.381-1.391,3.161a14.866,14.866,0,0,1-6.66,5,26.083,26.083,0,0,1-8.147,1.615,10.844,10.844,0,0,1-3.426-.107,14.581,14.581,0,0,1,3.366-.557,33.31,33.31,0,0,0,7.86-1.83,16.227,16.227,0,0,0,6.478-4.532C201.607,219.377,202.06,218.138,202.209,218.2Z" transform="translate(-182.584 -218.197)" fill="#d9ecfd"/>
      </g>
      <path id="Path_525" data-name="Path 525" d="M76.119,394.5l16.774,10.347,5.867-7.04L79.253,385.2Z" transform="translate(-36.651 24.908)" fill="#46a2da"/>
      <path id="Path_526" data-name="Path 526" d="M123.174,359.177l26.755,94.68,22.822-3.491s3.557-64.3-17.194-89.99h44.824a283.45,283.45,0,0,1-57.852-25.686h0A19.37,19.37,0,0,0,123.174,359.177Z" transform="translate(-15.906 2.298)" fill="#46a2da"/>
      <path id="Path_537" data-name="Path 537" d="M140.59,420.779l27.757-2.685-1.194-9.511-27.706,4.652Z" transform="translate(-8.308 35.376)" fill="#46a2da"/>
      <g id="Group_445" data-name="Group 445" transform="translate(132.238 335.144)" opacity="0.11">
        <path id="Path_538" data-name="Path 538" d="M231.145,356.48c.1.407-1.11,1.144-3.471,1.97a47.066,47.066,0,0,1-10.346,2.125c-1.113.143-2.281.181-3.5.268-1.219.061-2.49.074-3.807.084a82.8,82.8,0,0,1-8.38-.5,99.385,99.385,0,0,1-18.732-4.029,137.049,137.049,0,0,1-17.655-7.054c-5.247-2.516-9.817-5.038-13.574-7.27-7.5-4.482-11.843-7.727-11.447-8.486.41-.782,5.514,1.089,13.465,4.519,3.978,1.708,8.677,3.777,13.914,5.939s11.025,4.389,17.19,6.35a132,132,0,0,0,17.63,4.286c2.748.47,5.373.779,7.84,1.032,1.233.1,2.426.2,3.576.271,1.148.043,2.255.142,3.309.142C225.605,356.36,230.921,355.552,231.145,356.48Z" transform="translate(-140.206 -333.412)" fill="#00215f"/>
      </g>
      <path id="Path_542" data-name="Path 542" d="M333.024,322.883,388.6,492.4l5.2-1.572L347.317,322.863Z" transform="translate(78.331 -2.99)" fill="#90abc4"/>
      <path id="Path_543" data-name="Path 543" d="M329.582,320.315,281.372,487.8l5.188,1.626,55.993-165.043Z" transform="translate(55.213 -4.13)" fill="#90abc4"/>
      <g id="Group_452" data-name="Group 452" transform="translate(299.272 211.203)">
        <path id="Path_544" data-name="Path 544" d="M263.987,247.792,255.6,324.887H372.024l8.391-77.094Z" transform="translate(-255.595 -247.792)" fill="#dfebfd"/>
        <path id="Path_545" data-name="Path 545" d="M287.925,297.981s2.632,16.921-1.88,19.554h33.09s4.955-8.1.924-19.554Z" transform="translate(-241.967 -225.33)" fill="#dfebfd"/>
        <path id="Path_546" data-name="Path 546" d="M257.572,308.046H371.081l7.066-59.153H264.16Z" transform="translate(-254.711 -247.3)" fill="#c5daf7"/>
        <path id="Path_547" data-name="Path 547" d="M302.182,296.332a4.321,4.321,0,1,1-4.321-4.321A4.32,4.32,0,0,1,302.182,296.332Z" transform="translate(-238.613 -228.002)" fill="#c5daf7"/>
        <path id="Path_548" data-name="Path 548" d="M262.043,256.68l114.081-.777-2.939,24.6-113.8.851Z" transform="translate(-253.9 -244.163)" fill="#a3bfe2"/>
        <g id="Group_451" data-name="Group 451" transform="translate(12.856 17.472)">
          <g id="Group_446" data-name="Group 446">
            <rect id="Rectangle_38" data-name="Rectangle 38" width="18.555" height="1.749" fill="#f8fbff"/>
          </g>
          <g id="Group_447" data-name="Group 447" transform="translate(0 3.875)">
            <rect id="Rectangle_39" data-name="Rectangle 39" width="34.524" height="0.604" fill="#f8fbff"/>
          </g>
          <g id="Group_448" data-name="Group 448" transform="translate(0 6.304)">
            <rect id="Rectangle_40" data-name="Rectangle 40" width="37.827" height="0.604" fill="#f8fbff"/>
          </g>
          <g id="Group_449" data-name="Group 449" transform="translate(0 8.635)">
            <rect id="Rectangle_41" data-name="Rectangle 41" width="19.43" height="0.604" fill="#f8fbff"/>
          </g>
          <g id="Group_450" data-name="Group 450" transform="translate(0 12.094)">
            <rect id="Rectangle_42" data-name="Rectangle 42" width="10.978" height="3.206" fill="#f8fbff"/>
          </g>
        </g>
        <rect id="Rectangle_43" data-name="Rectangle 43" width="9.328" height="2.618" transform="translate(13.96 6.75)" fill="#a3bfe2"/>
        <rect id="Rectangle_44" data-name="Rectangle 44" width="9.441" height="1.706" transform="translate(75.861 7.122)" fill="#a3bfe2"/>
        <rect id="Rectangle_45" data-name="Rectangle 45" width="9.441" height="1.706" transform="translate(88.974 7.122)" fill="#a3bfe2"/>
        <rect id="Rectangle_46" data-name="Rectangle 46" width="9.441" height="1.706" transform="translate(102.087 7.122)" fill="#a3bfe2"/>
        <path id="Path_549" data-name="Path 549" d="M283.133,295.553H261.51l2.041-18.75H285.7Z" transform="translate(-252.948 -234.808)" fill="#a3bfe2"/>
        <path id="Path_550" data-name="Path 550" d="M301.437,295.553H279.814l2.041-18.75H304Z" transform="translate(-244.756 -234.808)" fill="#a3bfe2"/>
        <path id="Path_551" data-name="Path 551" d="M319.74,295.553H298.117l2.041-18.75h22.15Z" transform="translate(-236.564 -234.808)" fill="#a3bfe2"/>
        <path id="Path_552" data-name="Path 552" d="M338.044,295.553H316.421l2.041-18.75h22.15Z" transform="translate(-228.372 -234.808)" fill="#a3bfe2"/>
        <path id="Path_553" data-name="Path 553" d="M322.751,256.062,303.182,280.81l24.81-.185,20.063-24.562Z" transform="translate(-234.297 -244.091)" fill="#fcfdff" opacity="0.42"/>
      </g>
      <g id="Group_453" data-name="Group 453" transform="translate(134.694 477.715)">
        <path id="Path_554" data-name="Path 554" d="M152.447,433.817c-.13.249-2.318-.857-5.237-.961-2.92-.155-5.2.754-5.3.5-.049-.109.46-.491,1.417-.853a10.388,10.388,0,0,1,7.789.344C152.032,433.287,152.507,433.713,152.447,433.817Z" transform="translate(-141.903 -431.902)" fill="#6a89ba"/>
      </g>
      <g id="Group_454" data-name="Group 454" transform="translate(135.736 470.406)">
        <path id="Path_555" data-name="Path 555" d="M148.185,432.983c-.048.035-.339-.222-.719-.809a7.122,7.122,0,0,1-1.018-2.781,3.5,3.5,0,0,1,.007-1.057,1.951,1.951,0,0,1,.566-1.129,1.424,1.424,0,0,1,1.437-.265,1.923,1.923,0,0,1,1.078.99,3.65,3.65,0,0,1,.327,1.355,6.189,6.189,0,0,1-.436,2.769,3.741,3.741,0,0,1-.829,1.322,1.915,1.915,0,0,1-1.655.52,3.577,3.577,0,0,1-1.4-.594,10.527,10.527,0,0,1-1.992-1.708,4.373,4.373,0,0,1-.763-1.049,1.66,1.66,0,0,1-.166-.722,1.108,1.108,0,0,1,.314-.761,1.161,1.161,0,0,1,.695-.329,1.861,1.861,0,0,1,.631.042,3.234,3.234,0,0,1,.968.433,5.631,5.631,0,0,1,2.041,2.17c.32.628.371,1.019.317,1.038s-.236-.313-.628-.844a6.172,6.172,0,0,0-2.061-1.785,2.634,2.634,0,0,0-.785-.3.673.673,0,0,0-.612.113c-.1.117-.106.3.035.585a3.727,3.727,0,0,0,.65.815,10.333,10.333,0,0,0,1.859,1.526,2.772,2.772,0,0,0,1.036.442.962.962,0,0,0,.866-.276,4.846,4.846,0,0,0,.8-4.385,1.086,1.086,0,0,0-.579-.588.617.617,0,0,0-.64.078,1.931,1.931,0,0,0-.423,1.52,8.466,8.466,0,0,0,.679,2.682C148.054,432.613,148.243,432.941,148.185,432.983Z" transform="translate(-142.623 -426.853)" fill="#6a89ba"/>
      </g>
      <g id="Group_455" data-name="Group 455" transform="translate(132.456 467.134)">
        <path id="Path_556" data-name="Path 556" d="M160.9,424.594a23.981,23.981,0,0,1-1.927,4.922,100.377,100.377,0,0,1-6.1,11.2c-1.326,2.111-2.666,4.074-3.937,5.819-.633.876-1.255,1.691-1.84,2.452a17.305,17.305,0,0,1-1.791,2.038,6.147,6.147,0,0,1-3.518,1.788c-.954.091-1.453-.142-1.436-.187.01-.081.518.017,1.375-.177a6.264,6.264,0,0,0,3.109-1.9,44.579,44.579,0,0,0,3.392-4.519c1.222-1.762,2.53-3.723,3.846-5.818,2.637-4.185,4.787-8.119,6.3-10.991A37.33,37.33,0,0,1,160.9,424.594Z" transform="translate(-140.357 -424.593)" fill="#6a89ba"/>
      </g>
      <g id="Group_456" data-name="Group 456" transform="translate(0.286 438.111)">
        <path id="Path_557" data-name="Path 557" d="M93.385,404.556a6.821,6.821,0,0,1-1.617.863c-1.064.5-2.626,1.178-4.571,1.972-3.893,1.588-9.353,3.59-15.5,5.447s-11.8,3.2-15.926,4.033c-2.06.417-3.735.717-4.9.887a6.79,6.79,0,0,1-1.824.175,59.79,59.79,0,0,1,6.576-1.714c4.073-.993,9.678-2.441,15.8-4.285s11.588-3.743,15.531-5.168A59.667,59.667,0,0,1,93.385,404.556Z" transform="translate(-49.052 -404.544)" fill="#6a89ba"/>
      </g>
      <g id="Group_481" data-name="Group 481" transform="translate(234.132)">
        <g id="Group_480" data-name="Group 480">
          <g id="Group_479" data-name="Group 479" clip-path="url(#clip-path-2)">
            <path id="Path_601" data-name="Path 601" d="M90.424,0A90.424,90.424,0,1,1,0,90.424,90.424,90.424,0,0,1,90.424,0Z" transform="translate(-0.08 0.24)" fill="#f3ecd3"/>
            <path id="Path_558" data-name="Path 558" d="M298.558,202.568v31.5h19.453L318,200.982Z" transform="translate(-171.227 -57.54)" fill="#ffc4b0"/>
            <path id="Path_559" data-name="Path 559" d="M239.063,202.568v31.5H257l-.013-33.088Z" transform="translate(-197.854 -57.54)" fill="#ffc4b0"/>
            <g id="Group_468" data-name="Group 468" transform="translate(40.293 97.146)">
              <g id="Group_467" data-name="Group 467" clip-path="url(#clip-path-3)">
                <path id="Path_560" data-name="Path 560" d="M267.576,171.365s-29.232.677-29.145,23.449c.1,25.249.343,28.034.343,28.034l19.893,1.5-.093-10s4.086,10.967-.159,37.291l65.377,3.875.151-48.359.343,14.971,22.41.525s0-57.421-43.511-53.45C278.545,171.446,267.576,171.365,267.576,171.365Z" transform="translate(-238.431 -169)" fill="#f36a7b"/>
                <g id="Group_457" data-name="Group 457" transform="translate(-0.304 23.656)" opacity="0.48">
                  <path id="Path_561" data-name="Path 561" d="M340.92,186.128c0,.434-22.992.786-51.348.786s-51.351-.352-51.351-.786,22.986-.786,51.351-.786S340.92,185.694,340.92,186.128Z" transform="translate(-238.221 -185.342)" fill="#fffbf8"/>
                </g>
                <g id="Group_458" data-name="Group 458" transform="translate(-0.304 16.407)" opacity="0.48">
                  <path id="Path_562" data-name="Path 562" d="M340.92,181.12c0,.434-22.992.786-51.348.786s-51.351-.352-51.351-.786,22.986-.786,51.351-.786S340.92,180.686,340.92,181.12Z" transform="translate(-238.221 -180.334)" fill="#fffbf8"/>
                </g>
                <g id="Group_459" data-name="Group 459" transform="translate(-0.304 8.552)" opacity="0.48">
                  <path id="Path_563" data-name="Path 563" d="M340.92,175.7c0,.434-22.992.786-51.348.786s-51.351-.352-51.351-.786,22.986-.787,51.351-.787S340.92,175.26,340.92,175.7Z" transform="translate(-238.221 -174.908)" fill="#fffbf8"/>
                </g>
                <g id="Group_460" data-name="Group 460" transform="translate(-0.304 29.697)" opacity="0.48">
                  <path id="Path_564" data-name="Path 564" d="M345.149,190.3c0,.434-23.939.787-53.462.787s-53.466-.353-53.466-.787,23.933-.786,53.466-.786S345.149,189.867,345.149,190.3Z" transform="translate(-238.221 -189.515)" fill="#fffbf8"/>
                </g>
                <g id="Group_461" data-name="Group 461" transform="translate(0.3 37.55)" opacity="0.48">
                  <path id="Path_565" data-name="Path 565" d="M345.567,195.726c0,.436-23.94.787-53.462.787s-53.467-.352-53.467-.787,23.934-.786,53.467-.786S345.567,195.292,345.567,195.726Z" transform="translate(-238.638 -194.94)" fill="#fffbf8"/>
                </g>
                <g id="Group_462" data-name="Group 462" transform="translate(-0.304 45.403)" opacity="0.48">
                  <path id="Path_566" data-name="Path 566" d="M348.17,201.152c0,.434-24.614.786-54.971.786s-54.977-.352-54.977-.786,24.609-.787,54.977-.787S348.17,200.718,348.17,201.152Z" transform="translate(-238.221 -200.365)" fill="#fffbf8"/>
                </g>
                <g id="Group_463" data-name="Group 463" transform="translate(-0.304 53.257)" opacity="0.48">
                  <path id="Path_567" data-name="Path 567" d="M348.17,206.577c0,.434-24.614.786-54.971.786s-54.977-.352-54.977-.786,24.609-.786,54.977-.786S348.17,206.143,348.17,206.577Z" transform="translate(-238.221 -205.791)" fill="#fffbf8"/>
                </g>
                <g id="Group_464" data-name="Group 464" transform="translate(-0.304 63.527)" opacity="0.48">
                  <path id="Path_568" data-name="Path 568" d="M348.17,213.672c0,.434-24.614.786-54.971.786s-54.977-.352-54.977-.786,24.609-.788,54.977-.788S348.17,213.238,348.17,213.672Z" transform="translate(-238.221 -212.885)" fill="#fffbf8"/>
                </g>
                <g id="Group_465" data-name="Group 465" transform="translate(-0.304 71.985)" opacity="0.48">
                  <path id="Path_569" data-name="Path 569" d="M348.17,219.514c0,.434-24.614.788-54.971.788s-54.977-.353-54.977-.788,24.609-.786,54.977-.786S348.17,219.08,348.17,219.514Z" transform="translate(-238.221 -218.728)" fill="#fffbf8"/>
                </g>
                <g id="Group_466" data-name="Group 466" transform="translate(-0.304 79.234)" opacity="0.48">
                  <path id="Path_570" data-name="Path 570" d="M348.17,224.522c0,.434-24.614.787-54.971.787s-54.977-.353-54.977-.787,24.609-.786,54.977-.786S348.17,224.088,348.17,224.522Z" transform="translate(-238.221 -223.736)" fill="#fffbf8"/>
                </g>
              </g>
            </g>
            <path id="Path_572" data-name="Path 572" d="M254.343,127.211c2.442,2.189,2.073,6.1.417,8.885s-4.3,4.894-6.268,7.482-3.23,6.13-1.669,8.962a16.138,16.138,0,0,1,1.668,2.817c.492,1.62-.382,3.357-1.581,4.595s-2.717,2.158-3.936,3.379c-4.014,4.018-3.892,10.77-.741,15.44s8.7,7.454,14.358,8.719c5.7,1.275,11.913,1.151,17.159-1.336,4.553-2.16,8.59-6.1,13.671-5.971,3.376.083,6.356,1.985,9.262,3.629a34.959,34.959,0,0,0,12.427,4.612c4.431.588,9.2-.207,12.708-2.863s5.436-7.355,4.029-11.414c-1.049-3.031-3.686-5.3-6.387-7.176-1.775-1.236-3.8-2.632-4.06-4.716-.434-3.447,4.124-5.647,4.89-9.04.695-3.082-1.937-5.909-4.606-7.762s-5.8-3.594-6.864-6.578c-.9-2.532-.061-5.317-.333-7.98-.611-5.984-6.912-10.255-13.161-10.936,0,0-4.17-9.967-17.461-5.925" transform="translate(-197.475 -96.888)" fill="#efc130"/>
            <path id="Path_573" data-name="Path 573" d="M283.223,173.811s-3.082-18.8-1.7-23.879c0,0,4.055-4.7,2.182-10.359l-7.265,6.353S277.522,169.959,283.223,173.811Z" transform="translate(-181.124 -85.025)" fill="#efc130" opacity="0.43"/>
            <path id="Path_574" data-name="Path 574" d="M255.7,121.641s-11.728,25.765,1.8,42.392c0,0,5.69,8.135,13.017,8.416,0,0,.4,11.472-.725,14.008a9.811,9.811,0,0,1-7.891,6.2s6.482,20.008,19.445,18.881,24.517-20.854,24.517-20.854-11.835-1.409-14.936-19.163-1.126-47.626-1.126-47.626Z" transform="translate(-192.519 -93.051)" fill="#ffc4b0"/>
            <g id="Group_471" data-name="Group 471" transform="translate(70.666 49.168)">
              <path id="Path_579" data-name="Path 579" d="M264.642,146.294c.026.051-.158.232-.588.4a3.5,3.5,0,0,1-1.94.107,3.742,3.742,0,0,1-2.42-1.691,2.146,2.146,0,0,1-.279-.939,1.389,1.389,0,0,1,.09-.58,1.144,1.144,0,0,1,.42-.53,1.235,1.235,0,0,1,.622-.21,2.279,2.279,0,0,1,.536.036,3.12,3.12,0,0,0,.744.1,1.319,1.319,0,0,0,.953-.747,3.646,3.646,0,0,0,.411-1.349,8.4,8.4,0,0,0-.126-2.567,9.146,9.146,0,0,1-.411-2.464,5.461,5.461,0,0,1,1.061,2.309,7.724,7.724,0,0,1,.342,2.813,4.309,4.309,0,0,1-.469,1.708,2.849,2.849,0,0,1-.631.792,1.867,1.867,0,0,1-1.052.446,3.62,3.62,0,0,1-.98-.111c-.26-.048-.413-.038-.482.016s-.124.13-.126.317a1.32,1.32,0,0,0,.146.554,3.272,3.272,0,0,0,1.828,1.459,4.034,4.034,0,0,0,1.678.178C264.375,146.293,264.611,146.229,264.642,146.294Z" transform="translate(-259.413 -135.856)" fill="#af8379"/>
            </g>
            <g id="Group_472" data-name="Group 472" transform="translate(72.681 60.366)">
              <path id="Path_581" data-name="Path 581" d="M272.873,143.6c.1.056-.164.827-.977,1.847a9.715,9.715,0,0,1-9.141,3.421c-1.283-.235-1.989-.641-1.948-.75.042-.138.8.033,2.022.087a11.318,11.318,0,0,0,8.575-3.209C272.289,144.152,272.752,143.523,272.873,143.6Z" transform="translate(-260.805 -143.592)" fill="#af8379"/>
            </g>
            <g id="Group_473" data-name="Group 473" transform="translate(83.127 59.849)">
              <path id="Path_582" data-name="Path 582" d="M270.824,145.231c-.249.1-.7-.444-1.4-.847-.683-.428-1.374-.57-1.4-.837-.009-.124.19-.265.55-.3a2.347,2.347,0,0,1,2.263,1.359C270.968,144.939,270.938,145.181,270.824,145.231Z" transform="translate(-268.021 -143.235)" fill="#af8379"/>
            </g>
            <path id="Path_586" data-name="Path 586" d="M266.611,111.594c.292.129.582.246.879.362,5.915,2.294,15.874,7.756,12.274,12.61C268.389,139.9,250.9,129.01,250.9,129.01s-9.3-6.853-1.762-17.042C253.431,106.166,264.447,110.639,266.611,111.594Z" transform="translate(-194.666 -98.687)" fill="#efc130"/>
            <path id="Path_589" data-name="Path 589" d="M266.029,122.147a8.494,8.494,0,0,0,9.977,5.386A19.6,19.6,0,0,0,279,134.206c1.53,1.918,5,6.471,7.39,5.9l-.958-17.251-17.589-2.81-1.812,3.157" transform="translate(-185.785 -93.763)" fill="#efc130"/>
            <path id="Path_590" data-name="Path 590" d="M307.011,195.355,276.26,241.9l29.225-5.34Z" transform="translate(-181.206 -60.059)" fill="#00215f" opacity="0.2"/>
          </g>
        </g>
        <path id="Path_591" data-name="Path 591" d="M222.218,196.687l-8.459,27.783,27.051-5.885" transform="translate(-209.18 -59.462)" fill="#f3ecd3"/>
      </g>
      <path id="Path_592" data-name="Path 592" d="M298.558,206.248v3.8L318,209.46v-2.581Z" transform="translate(62.905 -55.183)" fill="#b76555" opacity="0.25"/>
      <path id="Path_593" data-name="Path 593" d="M239.1,209.8v-2.982l17.843,1.491v5.768Z" transform="translate(36.295 -54.929)" fill="#b76555" opacity="0.25"/>
      <path id="Path_594" data-name="Path 594" d="M277.306,132.709s4.252,5.339,4.844,7.315-4.844,1.089-4.844,1.089Z" transform="translate(53.394 -88.097)" fill="#efc130" opacity="0.43"/>
      <g id="Group_483" data-name="Group 483" transform="translate(330.173 51.712)">
        <path id="Path_595" data-name="Path 595" d="M276.942,138.284s6.254-2.5,6.544,2.166-6.544,7.3-6.544,7.3Z" transform="translate(-276.942 -137.614)" fill="#ffc4b0"/>
        <g id="Group_482" data-name="Group 482" transform="translate(1.642 1.811)">
          <path id="Path_596" data-name="Path 596" d="M279.2,143.227c-.01-.1.405-.159.854-.56a1.863,1.863,0,0,0-.953-3.358c-.592-.106-.977.061-1.019-.03-.046-.052.307-.408,1.055-.413a2.355,2.355,0,0,1,1.226.356,2.123,2.123,0,0,1,.809,2.858,2.366,2.366,0,0,1-.856.947C279.674,143.415,279.186,143.3,279.2,143.227Z" transform="translate(-278.076 -138.865)" fill="#af8379"/>
        </g>
      </g>
      <path id="Path_597" data-name="Path 597" d="M159.648,324.107l-48.363-38.9,5.6-8.769L160.856,295.2Z" transform="translate(-20.912 -23.767)" fill="#ba8a7b"/>
      <path id="Path_598" data-name="Path 598" d="M120.192,295.393l2.558-10.255L112.128,267.82a3.378,3.378,0,0,0-1.151-1.193l-11.145-6.912s-1.442,2.969,3.956,6.707c7.438,5.149-1.27,12.885-1.27,12.885Z" transform="translate(-26.117 -31.253)" fill="#ba8a7b"/>
      <path id="Path_599" data-name="Path 599" d="M116.023,271.037s-2.976,2.193-5.169,1.723S95.433,256.611,93.866,257.6s2.158,6.407,3.7,7.946c2.045,2.045,6.7,6.757,6.287,7.277-.465.591-13.525-8.85-14.457-8.525-3.053,1.065,3.759,6.109,11.122,10.339s-.313,1.181-.313,1.181S88.46,270.5,87.671,272.447c-.65,1.6,13.471,8.146,13.471,8.146s1.254,1.566-1.254,1.1S89.55,277.929,88.767,278.4s27.789,19.089,33.1,15.262,4.183-8.769,4.183-8.769Z" transform="translate(-31.491 -32.218)" fill="#ba8a7b"/>
      <g id="Group_484" data-name="Group 484" transform="translate(80.158 237.699)">
        <path id="Path_600" data-name="Path 600" d="M109.673,279.815c-.052.1-.934-.123-2.267-.832a6.585,6.585,0,0,1-2.074-1.737,4.764,4.764,0,0,1-.77-1.474,4.123,4.123,0,0,1-.132-1.805c.08-.6.224-1.128.314-1.62a8.081,8.081,0,0,0,.123-1.423,13.815,13.815,0,0,0-.262-2.472c-.274-1.416-.468-2.315-.333-2.354.116-.035.53.776.981,2.2a10.815,10.815,0,0,1,.483,2.607,7.893,7.893,0,0,1-.083,1.6c-.087.546-.221,1.073-.288,1.585a3.609,3.609,0,0,0,.67,2.648,6.955,6.955,0,0,0,1.726,1.682C108.932,279.23,109.743,279.684,109.673,279.815Z" transform="translate(-104.229 -266.096)" fill="#876359"/>
      </g>
    </g>
  </g>
</svg>
