<svg xmlns="http://www.w3.org/2000/svg" width="425.095" height="302.542" viewBox="0 0 425.095 302.542"><defs><style>.a{fill:#90abc4;}.b{fill:#ba8a7b;}.c{fill:#dfebfd;}.d{fill:#c5daf7;}.e{fill:#f36a7b;}.f{fill:#f8fbff;}.g{fill:#a3bfe2;}.h{fill:#efc130;}.i{fill:#474f85;}.j{fill:#51e3d4;}.k{fill:#46a2da;}.l{fill:#fcfdff;opacity:0.42;}</style></defs><g transform="translate(-117.757 -334.682)"><g transform="translate(70.72 147.493)"><rect class="a" width="95.414" height="23.392" transform="translate(271.762 317.877)"/><rect class="a" width="401.118" height="16.506" transform="translate(66.029 303.388)"/><path class="a" d="M140.537,319.553l55.572,169.521,5.2-1.572L154.83,319.533Z" transform="translate(-7.82 -4.48)"/><path class="a" d="M129.558,320.315,81.348,487.8l5.188,1.626,55.992-165.043Z" transform="translate(-34.311 -4.13)"/><path class="b" d="M143.241,423.611" transform="translate(-6.61 42.102)"/><path class="a" d="M457.364,360.745l-9.762-.827.132-2.881c7.9.043,13.771.085,13.771.085v-5.952H406.639s-.389,6.34,0,5.952c.13-.132,6.449-.175,14.751-.174v3.279h-9.057L401.981,480.051h2.329l2.155-19.41,27.52.518v18.892h3.968V460.9l28.727-.776,2.587,19.927h3.882Zm-48.479,94.146,8.5-86.279,13.593.944,2.267,85.336Zm31.152,0c-.567-.378-2.471-85.524-2.471-85.524h15.5l11.327,85.524S440.6,455.269,440.036,454.891Z" transform="translate(-243.806 9.68)"/><path class="a" d="M333.024,322.883,388.6,492.4l5.2-1.572L347.317,322.863Z" transform="translate(78.331 -2.99)"/><path class="a" d="M329.582,320.315,281.372,487.8l5.188,1.626,55.993-165.043Z" transform="translate(55.213 -4.13)"/><g transform="translate(193.272 187.189)"><path class="c" d="M266.172,247.792,255.6,344.966H402.347l10.577-97.173Z" transform="translate(-255.595 -247.792)"/><path class="c" d="M288.415,297.981s3.317,21.328-2.37,24.647h41.708s6.246-10.214,1.164-24.647Z" transform="translate(-230.487 -206.408)"/><path class="d" d="M257.572,323.452H400.644l8.906-74.559H265.876Z" transform="translate(-253.966 -246.885)"/><path class="d" d="M304.433,297.457a5.446,5.446,0,1,1-5.446-5.446A5.445,5.445,0,0,1,304.433,297.457Z" transform="translate(-224.307 -211.331)"/><path class="e" d="M262.736,256.882l143.793-.98-3.7,31.009-143.44,1.072Z" transform="translate(-252.471 -241.105)"/><g transform="translate(16.204 22.022)"><rect class="f" width="23.388" height="2.204"/><g transform="translate(0 4.884)"><rect class="f" width="43.515" height="0.761"/></g><g transform="translate(0 7.946)"><rect class="f" width="47.679" height="0.762"/></g><g transform="translate(0 10.885)"><rect class="f" width="24.49" height="0.761"/></g><g transform="translate(0 15.244)"><rect class="f" width="13.837" height="4.041"/></g></g><rect class="g" width="11.757" height="3.3" transform="translate(17.596 8.507)"/><rect class="g" width="11.899" height="2.151" transform="translate(95.619 8.977)"/><rect class="g" width="11.9" height="2.151" transform="translate(112.147 8.977)"/><rect class="g" width="11.9" height="2.151" transform="translate(128.675 8.977)"/><path class="h" d="M288.765,300.437H261.51l2.573-23.633H292Z" transform="translate(-250.718 -223.87)"/><path class="i" d="M307.068,300.437H279.814l2.573-23.633H310.3Z" transform="translate(-235.626 -223.87)"/><path class="j" d="M325.372,300.437H298.117L300.69,276.8h27.918Z" transform="translate(-220.533 -223.87)"/><path class="k" d="M343.675,300.437H316.421l2.573-23.633h27.918Z" transform="translate(-205.44 -223.87)"/><path class="l" d="M327.847,256.062l-24.665,31.193,31.271-.234,25.288-30.96Z" transform="translate(-216.356 -240.974)"/></g></g></g></svg>