<svg xmlns="http://www.w3.org/2000/svg" xmlns:xlink="http://www.w3.org/1999/xlink" width="530.415" height="549.093" viewBox="0 0 530.415 549.093"><defs><style>.a{fill:#f3ecd3;}.b{fill:#404040;}.c,.j,.p{opacity:0.3;}.d{fill:url(#a);}.e,.h{opacity:0.2;}.f{opacity:0.1;}.g,.x{fill:#00b6c4;}.h,.l{fill:#f36a7b;}.i{fill:#00416b;}.j,.k{fill:#51e3d4;}.m{fill:#efc130;}.n,.x{opacity:0.5;}.o{fill:url(#b);}.q{opacity:0.4;}.r{fill:url(#c);}.s{fill:#46a2da;}.t{fill:#7fd0ff;}.u{fill:#bf458d;}.v{fill:#474f85;}.w{fill:#3b1274;}</style><linearGradient id="a" y1="0.5" x2="1" y2="0.5" gradientUnits="objectBoundingBox"><stop offset="0" stop-color="#efc130"/><stop offset="1" stop-color="#f36a7b"/></linearGradient><linearGradient id="b" y1="0.5" x2="1" y2="0.5" gradientUnits="objectBoundingBox"><stop offset="0" stop-color="#ff9c1d"/><stop offset="1" stop-color="#ff681d"/></linearGradient><linearGradient id="c" y1="0.5" x2="1" y2="0.5" gradientUnits="objectBoundingBox"><stop offset="0" stop-color="#efc130"/><stop offset="0.03" stop-color="#ff9a1d"/><stop offset="1" stop-color="#f36a7b"/></linearGradient></defs><g transform="translate(-29.946 -47.969)"><g transform="translate(29.946 47.969)"><path class="a" d="M160.471,538.187c-19.582-8.506-39.612-17.3-55.019-32.083S79.97,469.08,85.421,448.438c4.4-16.663,17.692-29.193,27.608-43.289a119.742,119.742,0,0,0,21.183-78.128c-2.721-32.526-18.587-62.28-33.934-91.087s-30.83-58.864-32.666-91.452,13.853-68.527,44.462-79.863c23.662-8.764,50.12-1.3,73.346,8.565s46.24,22.3,71.435,23.662C306.636,99.534,349,58.917,398.477,52.817c28.118-3.467,61.065,8.355,70.1,35.2,9.513,28.273-10.825,59.752-2.742,88.465,9.7,34.46,53.876,46.928,71.443,78.12,10.942,19.429,9.911,43.107,8.572,65.365-2.678,44.519-7.121,93.2-38.374,125.016-48.37-4.191-91.345,20.388-133.306,44.809s-83.252,52.452-130.716,62.673C215.7,558.446,186.511,549.5,160.471,538.187Z" transform="translate(-16.478 -46.441)"/><g transform="translate(87.991 75.705)"><g transform="translate(0 222.947)"><path class="b" d="M500.538,343.9c8.571,4.949,8.616,12.968.1,17.918L257.592,503.058c-8.516,4.949-22.361,4.949-30.932,0L101.178,430.61c-8.571-4.948-8.617-12.967-.1-17.916L344.124,271.45c8.516-4.949,22.361-4.949,30.932,0Z" transform="translate(-94.687 -267.738)"/><path class="b" d="M506.95,331.059c-.02.231-.037.461-.079.689-.034.188-.091.374-.14.561-.057.217-.11.436-.188.652-.064.179-.148.356-.226.534-.1.227-.2.455-.318.679-.088.163-.194.325-.294.486-.159.257-.326.512-.515.764s-.368.484-.578.722c-.049.056-.092.111-.143.167-.281.307-.593.607-.921.9-.211.19-.444.372-.674.557-.2.162-.394.325-.61.481-.249.181-.522.353-.79.527s-.534.361-.829.533L257.6,480.559a22.762,22.762,0,0,1-2.064,1.044c-.205.092-.416.179-.625.266q-.838.353-1.719.652c-.209.071-.414.148-.628.215-.37.117-.749.219-1.127.322-.287.077-.569.16-.86.231-.4.1-.8.177-1.209.26-.274.056-.546.118-.825.167-.818.144-1.648.258-2.486.345-.26.027-.519.045-.78.065-.491.042-.981.077-1.474.1-.317.014-.633.02-.95.026-.4.008-.8.011-1.2.005q-.5-.006-1-.027c-.371-.015-.742-.034-1.112-.06q-.505-.035-1.007-.084c-.367-.035-.731-.076-1.1-.122q-.489-.061-.976-.137c-.39-.061-.776-.129-1.161-.2-.3-.057-.606-.117-.905-.183-.459-.1-.911-.213-1.359-.333-.25-.067-.5-.129-.75-.2-.8-.235-1.589-.5-2.348-.792-.375-.147-.738-.307-1.1-.469-.189-.084-.385-.16-.569-.247-.552-.262-1.089-.541-1.6-.838L101.186,408.113c-4.313-2.491-6.467-5.759-6.458-9.022L94.7,410.513c-.01,3.263,2.144,6.531,6.458,9.021l125.483,72.448c.516.3,1.053.576,1.6.837.183.087.376.163.563.246.327.145.651.3.989.431.038.015.08.024.12.039.76.3,1.544.559,2.347.792.065.019.125.046.19.065.183.052.376.088.561.137.448.118.9.232,1.358.333.122.027.239.062.363.088.178.037.363.061.542.1.385.073.771.141,1.161.2.156.024.308.058.465.082s.342.035.514.057c.363.046.724.087,1.09.122.175.016.348.043.523.058s.326.015.489.026c.368.026.736.045,1.108.058.186.008.37.026.556.03.15,0,.3,0,.446,0,.4.005.8,0,1.2-.005.2,0,.4,0,.6,0,.118,0,.235-.019.353-.025.493-.02.984-.057,1.476-.1.2-.016.4-.02.6-.039.061-.007.12-.019.182-.026.837-.087,1.667-.2,2.486-.347.041-.007.082-.01.121-.016.238-.044.469-.1.7-.151.406-.082.813-.162,1.211-.258.291-.071.572-.154.859-.231.378-.1.757-.205,1.127-.322.079-.025.162-.044.241-.069.133-.043.255-.1.387-.147q.881-.3,1.72-.651c.209-.088.419-.174.624-.266a22.742,22.742,0,0,0,2.064-1.044L500.615,350.737l.268-.159c.2-.121.372-.251.564-.376.268-.174.54-.344.787-.525.216-.158.41-.322.613-.484.228-.183.462-.365.671-.554.042-.038.094-.073.136-.111.281-.26.539-.525.786-.792.05-.056.1-.113.144-.17.145-.164.295-.329.427-.5.057-.073.1-.149.151-.223.188-.251.355-.507.514-.764.067-.107.155-.212.216-.321.03-.054.048-.11.077-.164.121-.226.22-.454.319-.682.057-.132.136-.262.186-.4.016-.045.022-.091.038-.136.077-.217.13-.436.188-.654.039-.148.1-.294.128-.442.007-.039.005-.079.012-.118.042-.228.058-.458.079-.688.014-.149.048-.3.052-.448,0-.064,0-.129,0-.193L507,330.42C507,330.633,506.969,330.845,506.95,331.059Z" transform="translate(-94.696 -245.24)"/><path class="c" d="M506.95,331.059c-.02.231-.037.461-.079.689-.034.188-.091.374-.14.561-.057.217-.11.436-.188.652-.064.179-.148.356-.226.534-.1.227-.2.455-.318.679-.088.163-.194.325-.294.486-.159.257-.326.512-.515.764s-.368.484-.578.722c-.049.056-.092.111-.143.167-.281.307-.593.607-.921.9-.211.19-.444.372-.674.557-.2.162-.394.325-.61.481-.249.181-.522.353-.79.527s-.534.361-.829.533L257.6,480.559a22.762,22.762,0,0,1-2.064,1.044c-.205.092-.416.179-.625.266q-.838.353-1.719.652c-.209.071-.414.148-.628.215-.37.117-.749.219-1.127.322-.287.077-.569.16-.86.231-.4.1-.8.177-1.209.26-.274.056-.546.118-.825.167-.818.144-1.648.258-2.486.345-.26.027-.519.045-.78.065-.491.042-.981.077-1.474.1-.317.014-.633.02-.95.026-.4.008-.8.011-1.2.005q-.5-.006-1-.027c-.371-.015-.742-.034-1.112-.06q-.505-.035-1.007-.084c-.367-.035-.731-.076-1.1-.122q-.489-.061-.976-.137c-.39-.061-.776-.129-1.161-.2-.3-.057-.606-.117-.905-.183-.459-.1-.911-.213-1.359-.333-.25-.067-.5-.129-.75-.2-.8-.235-1.589-.5-2.348-.792-.375-.147-.738-.307-1.1-.469-.189-.084-.385-.16-.569-.247-.552-.262-1.089-.541-1.6-.838L101.186,408.113c-4.313-2.491-6.467-5.759-6.458-9.022L94.7,410.513c-.01,3.263,2.144,6.531,6.458,9.021l125.483,72.448c.516.3,1.053.576,1.6.837.183.087.376.163.563.246.327.145.651.3.989.431.038.015.08.024.12.039.76.3,1.544.559,2.347.792.065.019.125.046.19.065.183.052.376.088.561.137.448.118.9.232,1.358.333.122.027.239.062.363.088.178.037.363.061.542.1.385.073.771.141,1.161.2.156.024.308.058.465.082s.342.035.514.057c.363.046.724.087,1.09.122.175.016.348.043.523.058s.326.015.489.026c.368.026.736.045,1.108.058.186.008.37.026.556.03.15,0,.3,0,.446,0,.4.005.8,0,1.2-.005.2,0,.4,0,.6,0,.118,0,.235-.019.353-.025.493-.02.984-.057,1.476-.1.2-.016.4-.02.6-.039.061-.007.12-.019.182-.026.837-.087,1.667-.2,2.486-.347.041-.007.082-.01.121-.016.238-.044.469-.1.7-.151.406-.082.813-.162,1.211-.258.291-.071.572-.154.859-.231.378-.1.757-.205,1.127-.322.079-.025.162-.044.241-.069.133-.043.255-.1.387-.147q.881-.3,1.72-.651c.209-.088.419-.174.624-.266a22.742,22.742,0,0,0,2.064-1.044L500.615,350.737l.268-.159c.2-.121.372-.251.564-.376.268-.174.54-.344.787-.525.216-.158.41-.322.613-.484.228-.183.462-.365.671-.554.042-.038.094-.073.136-.111.281-.26.539-.525.786-.792.05-.056.1-.113.144-.17.145-.164.295-.329.427-.5.057-.073.1-.149.151-.223.188-.251.355-.507.514-.764.067-.107.155-.212.216-.321.03-.054.048-.11.077-.164.121-.226.22-.454.319-.682.057-.132.136-.262.186-.4.016-.045.022-.091.038-.136.077-.217.13-.436.188-.654.039-.148.1-.294.128-.442.007-.039.005-.079.012-.118.042-.228.058-.458.079-.688.014-.149.048-.3.052-.448,0-.064,0-.129,0-.193L507,330.42C507,330.633,506.969,330.845,506.95,331.059Z" transform="translate(-94.696 -245.24)"/></g><g transform="translate(12.587 230.327)"><path class="d" d="M488.09,347.183c3.548,2.048,3.552,5.407.011,7.466L245.055,495.893a14.253,14.253,0,0,1-12.913,0L106.651,423.445c-3.578-2.066-3.589-5.422-.042-7.484L349.657,274.718a14.245,14.245,0,0,1,12.921,0l19.293,11.139a2.646,2.646,0,0,1,.007,4.58h0c-4.3,2.5-4.277,6.546.05,9.044l63.326,36.562c4.319,2.492,11.306,2.492,15.6-.005l2.625-1.526a2.647,2.647,0,0,1,2.653,0Z" transform="translate(-103.958 -273.169)"/></g><path class="e" d="M235.081,331.954c3.373-7.566,8.679-15.923,16.951-16.371,7.224-.391,13.082,5.512,19.83,8.121,18.1,7,36.479-10.434,55.852-11.632,7.081-.438,15.817,3.164,16.041,10.256.315,9.977-16.193,14.963-14.562,24.813,1.273,7.693,12.789,9.922,14.661,17.491,1.2,4.835-2.34,9.764-6.712,12.147s-9.465,2.95-14.307,4.118c-23.508,5.665-40.946,25.446-63.154,35.014-5.331,2.3-11.124,4.012-16.887,3.319s-11.468-4.253-13.3-9.761c-2.029-6.091.949-12.846-.363-19.13-2.525-12.108-20.122-19.463-13.044-33.764C220.615,347.419,230.456,342.331,235.081,331.954Z" transform="translate(-51.724 -28.891)"/><g transform="translate(133.167)"><path class="a" d="M308.3,234.267c1.911-1.439,3-3.689,4.05-5.841s2.2-4.384,4.184-5.727,5.036-1.415,6.49.487c1.5-1.787,3.665-3.454,5.99-3.679a5.5,5.5,0,0,1,5.672,3.2c.92,2.487-.518,5.21-2.177,7.28a30.584,30.584,0,0,1-20.693,11.185C309.646,239.728,306.216,235.837,308.3,234.267Z" transform="translate(-151.426 -62.112)"/><path class="a" d="M236.562,127.75a12.833,12.833,0,0,1,2.688-5.309,11.628,11.628,0,0,0,2.551-5.362c.2-1.994-.965-4.272-2.943-4.586a8.114,8.114,0,0,0,.323-5.876,4.6,4.6,0,0,0-4.618-2.9c-2.2.313-3.63,2.457-4.494,4.5a25.608,25.608,0,0,0,.007,19.7C232,128.932,236.236,129.907,236.562,127.75Z" transform="translate(-179.978 -103.678)"/><path class="f" d="M269.3,177.086a15.875,15.875,0,0,0,3.677,15.876c3.306,3.343,8.011,5.076,11.157,8.571,4.085,4.536,4.777,11.453,2.825,17.237s-6.19,10.548-10.961,14.356c-8.493-.443-15.641-6.228-19.558-13.778s-4.1-16.749-1.311-24.782S262.53,182.232,269.3,177.086Z" transform="translate(-170.957 -77.329)"/><path class="g" d="M270.754,213.39c-9.314-8.285-18.848-16.854-24.419-28-4.908-9.828-6.387-21.02-6.655-32s.6-21.978.058-32.95a22.683,22.683,0,0,0-9.961-.878c-6.282,17.632-9,37.432-6.228,55.945a114.96,114.96,0,0,0,21.343,51.332C254.573,226.317,266.466,222.083,270.754,213.39Z" transform="translate(-182.001 -98.052)"/><path class="h" d="M270.754,213.39c-9.314-8.285-18.848-16.854-24.419-28-4.908-9.828-6.387-21.02-6.655-32s.6-21.978.058-32.95a22.683,22.683,0,0,0-9.961-.878c-6.282,17.632-9,37.432-6.228,55.945a114.96,114.96,0,0,0,21.343,51.332C254.573,226.317,266.466,222.083,270.754,213.39Z" transform="translate(-182.001 -98.052)"/><path class="g" d="M243.33,367.462c-3.545,5.24-4.112,11.946-3.7,18.26.137,2.075.6,4.5,2.472,5.4,1.495.723,3.3.14,4.718-.723,3.584-2.178,5.9-5.944,7.591-9.782s2.907-7.9,4.993-11.537c.974-1.7,2.162-3.369,2.437-5.311a6.267,6.267,0,0,0-5.308-6.829A26.439,26.439,0,0,0,243.33,367.462Z" transform="translate(-175.882 -12.773)"/><path class="g" d="M246.384,304.332c-.6,4.789,1.341,9.542,3.81,13.689.811,1.364,1.964,2.848,3.55,2.816a3.892,3.892,0,0,0,2.956-2.124c1.681-2.721,1.951-6.083,1.773-9.276s-.76-6.373-.6-9.568a11.845,11.845,0,0,0-.182-4.453,4.777,4.777,0,0,0-5.971-2.8A20.175,20.175,0,0,0,246.384,304.332Z" transform="translate(-173.456 -35.959)"/><path class="i" d="M225.924,241.583a136.027,136.027,0,0,0-31.1,46.076c-1.566,3.839-2.963,8.145-1.56,12.047,1.628,4.531,6.435,6.973,10.874,8.83a194.861,194.861,0,0,0,61.28,15,16.167,16.167,0,0,0,6.2-13c-8.4-2.057-16.006-8.1-20.842-15.278a35.575,35.575,0,0,1-5.64-24.741c.673-4.614,2.26-9.288,1.214-13.831-1.093-4.739-4.836-8.357-8.561-11.484S229.4,238.206,225.924,241.583Z" transform="translate(-192.69 -54.648)"/><path class="j" d="M225.924,241.583a136.027,136.027,0,0,0-31.1,46.076c-1.566,3.839-2.963,8.145-1.56,12.047,1.628,4.531,6.435,6.973,10.874,8.83a194.861,194.861,0,0,0,61.28,15,16.167,16.167,0,0,0,6.2-13c-8.4-2.057-16.006-8.1-20.842-15.278a35.575,35.575,0,0,1-5.64-24.741c.673-4.614,2.26-9.288,1.214-13.831-1.093-4.739-4.836-8.357-8.561-11.484S229.4,238.206,225.924,241.583Z" transform="translate(-192.69 -54.648)"/><path class="k" d="M223.071,248.694c-6.1,24.616-12.245,49.937-8.935,75.081,3.9,29.617,20.618,56.076,40.1,78.72,5.444.518,11.336-2.914,12.582-8.238-13.093-19.873-13.74-46.919-29.638-64.627,1.734-6.588,5.108-12.188,8.687-18.129.883-1.466,1.928-3.2,2.932-4.97,5.627-9.926,8.735-18.5,8.735-30.011,0-4.986-1.241-10.452-.79-15.277.367-3.918-5.618-4.937-9.186-6.6a50.26,50.26,0,0,0-11.324-3.24C232.177,250.584,227.129,249.518,223.071,248.694Z" transform="translate(-185.325 -51.627)"/><path class="f" d="M257.966,263.105a3.439,3.439,0,0,0,0-.626c-.005-.052-.011-.1-.018-.154a3.11,3.11,0,0,0-.114-.523c-.005-.015-.008-.031-.012-.046a3.244,3.244,0,0,0-.232-.515c-.024-.043-.05-.086-.076-.129a3.871,3.871,0,0,0-.285-.4c-.019-.023-.035-.048-.054-.071a4.756,4.756,0,0,0-.41-.42c-.041-.037-.084-.073-.128-.111-.125-.107-.255-.211-.394-.313l-.114-.084c-.169-.118-.347-.231-.531-.341l-.183-.106c-.144-.08-.289-.16-.44-.238-.063-.031-.124-.065-.188-.1q-.289-.143-.591-.279l-.262-.114c-.133-.057-.268-.114-.4-.17-.1-.041-.194-.082-.294-.121-.174-.069-.349-.137-.525-.205-1.364-.523-2.772-.995-3.927-1.532a42.229,42.229,0,0,0-9.136-2.786c-1.514-3.872-4.763-6.962-8-9.678l-.633-.531a104.73,104.73,0,0,0-16.818,2.681q-2.252,2.462-4.381,5.033a71.063,71.063,0,0,0,48.4,34.92,55.62,55.62,0,0,0,.542-7.766C258.755,273.395,257.515,267.929,257.966,263.105Z" transform="translate(-186.544 -53.487)"/><path class="l" d="M281.068,189.724c-6.212-5.5-15.427-6.478-23.4-3.93a45.7,45.7,0,0,0-10.413,2.64c-6.966,2.761-13.269,8.124-15.408,15.306-1.292,4.335-.98,8.822-.338,13.349-2.207,6.466-3.851,13.145-5.725,19.726-2.67,9.377-11.725,24.563-17.612,32.334,9.473,15.556,33.692,20.532,51.9,19.99.47-9.851,6.613-20.379,11.893-28.709,5.519-8.7,13.375-15.9,17.807-25.2C297.02,220.022,293.676,200.895,281.068,189.724Z" transform="translate(-187.131 -74.684)"/><path class="l" d="M270.04,195.532q13.557,25.028,24.628,51.3c11.151-2.958,22.32-5.8,33.472-8.762a18.615,18.615,0,0,1,4.476,13.536c-14.511,10.3-31.768,17.072-49.5,18.517a53.259,53.259,0,0,1-17-21.006c-3.516-8.019-5.566-16.588-7.6-25.1-1.358-5.687.193-8.969,1.957-14.545S266.945,200.492,270.04,195.532Z" transform="translate(-169.248 -70.709)"/><path class="f" d="M260.352,233.094a34.728,34.728,0,0,0,40.174,15.954q-8.237-18.882-17.772-37.164A36.922,36.922,0,0,0,271.96,194.69a21.268,21.268,0,0,0-11.044-4.986c-6.252-5.767-12.194-11.893-16.537-19.084-2.434,5.475-6.119,10.45-8.571,15.965-3.13,7.035-3.593,16.511,2.446,21.286,2.688,2.125,6.194,2.915,9.093,4.739C254.287,216.98,256.263,225.985,260.352,233.094Z" transform="translate(-178.023 -79.65)"/><path class="a" d="M258.057,179.982q-3.645,8.241-7.287,16.484a14.168,14.168,0,0,0,7.954,5.493,12.846,12.846,0,0,0,9.093-1.325c2.283-5.608,4.13-10.892,6.413-16.5C269.954,180.994,263.351,179.669,258.057,179.982Z" transform="translate(-171.843 -76.306)"/><path class="e" d="M271.538,189.944c.731-1.917,1.473-3.842,2.275-5.811-4.275-3.139-10.878-4.464-16.173-4.152q-2.856,6.456-5.709,12.913A38.082,38.082,0,0,0,271.538,189.944Z" transform="translate(-171.426 -76.306)"/><path class="a" d="M270.31,159.016a41.473,41.473,0,0,0-21.584,30.732c6.878,4.224,15.107,6.186,23,4.5,6.537-1.393,12.752-5.051,16.344-10.687s4.176-13.32.663-19.006S276.24,155.93,270.31,159.016Z" transform="translate(-172.576 -84.263)"/><path class="m" d="M259.358,161.182a20.989,20.989,0,0,0,8.53.974c-1.446,1.931-.242,4.932,1.019,6.986s3.2,3.584,4.906,5.289,3.268,3.786,3.418,6.194a9.6,9.6,0,0,1-2.165,5.992,60.426,60.426,0,0,0-3.851,5.228c-2.056,3.634-2.124,8.493.393,11.824s7.73,4.5,11.12,2.068c5.5-3.948,8.071-10.689,11.274-16.651,2.091-3.893,4.048-8.091,3.882-12.506a20.566,20.566,0,0,0-2.227-7.933,27.644,27.644,0,0,0-5.046-7.535,22.355,22.355,0,0,0-15.686-6.545C269.108,154.521,263.84,157.478,259.358,161.182Z" transform="translate(-168.76 -85.412)"/><path class="m" d="M267.591,158.971a20.319,20.319,0,0,0-4.184,5.549,6.888,6.888,0,0,0,.289,6.67c1.269,1.78,3.632,2.674,4.539,4.665,1,2.2-.175,4.7-1.11,6.931a19.3,19.3,0,0,0-1.727,7.5,10.2,10.2,0,0,0,2.657,7.075,6.99,6.99,0,0,0,7.092,1.888c-.2-3.363,2.021-6.193,4.171-8.787s4.694-4.9,6.388-7.807a16.649,16.649,0,0,0-1.272-18.2C280.441,159.38,272.045,154.295,267.591,158.971Z" transform="translate(-167.564 -84.494)"/></g><g class="n" transform="translate(37.382 383.795)"><path class="o" d="M219.512,439.5c1.345.776,1.352,2.029.016,2.8a5.325,5.325,0,0,1-4.835,0l-91.474-52.814c-1.345-.776-1.352-2.029-.024-2.8a5.321,5.321,0,0,1,4.843,0Z" transform="translate(-122.204 -386.102)"/></g><g class="p" transform="translate(6.182 390.418)"><path d="M100.865,391.2a3.56,3.56,0,0,1,1.617,2.8c0,1.026-.726,1.447-1.628.927a3.555,3.555,0,0,1-1.609-2.8C99.248,391.1,99.971,390.68,100.865,391.2Z" transform="translate(-99.245 -390.975)"/><g transform="translate(7.141 4.122)"><path d="M106.118,394.229a3.558,3.558,0,0,1,1.617,2.8c0,1.027-.726,1.449-1.627.928a3.555,3.555,0,0,1-1.609-2.8C104.5,394.135,105.226,393.713,106.118,394.229Z" transform="translate(-104.5 -394.009)"/></g><g transform="translate(14.281 8.247)"><path d="M111.382,397.267a3.555,3.555,0,0,1,1.609,2.8c0,1.027-.726,1.449-1.62.932a3.556,3.556,0,0,1-1.617-2.8C109.758,397.168,110.48,396.747,111.382,397.267Z" transform="translate(-109.754 -397.044)"/></g><g transform="translate(21.422 12.37)"><path d="M116.637,400.3a3.577,3.577,0,0,1,1.617,2.8c0,1.027-.734,1.445-1.628.928a3.558,3.558,0,0,1-1.617-2.8C115.012,400.2,115.735,399.781,116.637,400.3Z" transform="translate(-115.009 -400.078)"/></g><g transform="translate(28.563 16.494)"><path d="M121.891,403.335a3.568,3.568,0,0,1,1.617,2.8c0,1.027-.734,1.443-1.627.928a3.57,3.57,0,0,1-1.617-2.8C120.267,403.235,121,402.818,121.891,403.335Z" transform="translate(-120.264 -403.113)"/></g><g transform="translate(93.862 53.772)"><path d="M169.933,430.765a3.556,3.556,0,0,1,1.617,2.8c0,1.027-.724,1.449-1.627.928a3.555,3.555,0,0,1-1.609-2.8C168.318,430.671,169.041,430.249,169.933,430.765Z" transform="translate(-168.315 -430.545)"/><g transform="translate(7.141 4.123)"><path d="M175.188,433.8a3.556,3.556,0,0,1,1.617,2.8c0,1.027-.726,1.449-1.628.928a3.554,3.554,0,0,1-1.608-2.8C173.573,433.705,174.294,433.283,175.188,433.8Z" transform="translate(-173.57 -433.579)"/></g><g transform="translate(14.281 8.247)"><path d="M180.452,436.837a3.555,3.555,0,0,1,1.609,2.8c0,1.027-.726,1.449-1.62.932a3.556,3.556,0,0,1-1.617-2.8C178.827,436.738,179.55,436.316,180.452,436.837Z" transform="translate(-178.824 -436.614)"/></g><g transform="translate(21.422 12.37)"><path d="M185.706,439.871a3.575,3.575,0,0,1,1.618,2.8c0,1.027-.735,1.445-1.628.928a3.558,3.558,0,0,1-1.617-2.8C184.082,439.772,184.8,439.35,185.706,439.871Z" transform="translate(-184.079 -439.648)"/></g><g transform="translate(28.562 16.495)"><path d="M190.961,442.9a3.569,3.569,0,0,1,1.617,2.8c0,1.027-.734,1.443-1.628.928a3.577,3.577,0,0,1-1.617-2.8C189.336,442.805,190.067,442.388,190.961,442.9Z" transform="translate(-189.333 -442.683)"/></g></g></g><g class="q" transform="translate(60.035 420.531)"><path d="M153.146,420.109A6.28,6.28,0,0,1,156,425.048c-.005,1.818-1.292,2.544-2.874,1.629l-11.4-6.58a6.28,6.28,0,0,1-2.856-4.938c.005-1.818,1.292-2.543,2.874-1.629Z" transform="translate(-138.874 -413.135)"/></g></g><path class="r" d="M471.148,211.09C443,194.841,409.09,183.956,373.232,178.426c-.14.482-.289.957-.443,1.427,35.377,5.475,68.833,16.226,96.6,32.258,84.341,48.695,84.788,127.933.993,176.629s-220.59,48.7-304.932,0-84.788-127.933-.993-176.629c30.97-18,69.185-29.335,109.311-34.029q-.265-.707-.522-1.416c-40.586,4.749-79.235,16.22-110.56,34.423C77.912,260.358,78.364,340.5,163.694,389.764s223.686,49.264,308.46,0S556.464,260.347,471.148,211.09Z" transform="translate(-5.016 -1.775)"/><g transform="translate(327.216 287.434)"><path class="s" d="M371.6,298.677c0,.126-.02.254-.033.382s-.022.273-.046.41c-.02.111-.054.223-.084.334-.034.13-.065.26-.111.389-.038.107-.088.212-.134.318-.058.136-.118.273-.19.406-.052.1-.116.194-.174.289-.1.154-.194.306-.307.455-.067.09-.139.177-.211.264a7.442,7.442,0,0,1-.552.594c-.073.071-.14.143-.216.212-.125.113-.264.22-.4.329s-.238.2-.367.289c-.147.107-.31.209-.467.313s-.319.216-.495.318a14.125,14.125,0,0,1-1.821.864c-.167.067-.336.129-.507.192a17.621,17.621,0,0,1-1.905.582c-.075.018-.152.033-.228.049-.645.147-1.309.255-1.979.34-.13.016-.257.041-.386.054-.724.077-1.458.116-2.193.122-.116,0-.231,0-.348,0-.724-.005-1.447-.045-2.163-.12l-.325-.037a20.648,20.648,0,0,1-2.094-.36c-.125-.027-.249-.06-.372-.091a17.75,17.75,0,0,1-1.81-.55c-.1-.038-.215-.068-.318-.107a14.38,14.38,0,0,1-1.988-.939c-2.572-1.484-3.857-3.433-3.851-5.377l-.156,55.387c-.005,1.945,1.279,3.893,3.85,5.377a14.158,14.158,0,0,0,1.883.9v-.015h0v.015c.034.012.071.022.1.035.1.039.213.069.319.107.38.139.761.277,1.159.391.212.061.434.106.65.159.125.031.247.064.374.092s.223.058.337.082q.638.133,1.292.226c.154.022.31.033.465.052.109.014.216.024.325.037.159.016.317.039.477.053.425.035.855.058,1.283.068.135,0,.269,0,.4,0,.117,0,.231,0,.348,0,.194,0,.389,0,.583,0q.726-.024,1.445-.1c.056-.005.109-.016.164-.023.13-.014.255-.037.386-.053.372-.048.746-.09,1.113-.155.292-.053.579-.121.866-.186.076-.016.154-.03.228-.049.467-.111.927-.235,1.374-.38.183-.058.352-.136.531-.2s.34-.125.508-.192a14.282,14.282,0,0,0,1.82-.864l.159-.094c.121-.072.223-.151.338-.226.158-.1.319-.2.465-.311s.247-.193.368-.289.273-.216.4-.329c.026-.022.056-.043.08-.065.052-.048.087-.1.136-.147a7.677,7.677,0,0,0,.552-.592c.037-.045.086-.086.121-.13s.057-.09.091-.135c.111-.149.211-.3.306-.454.039-.064.092-.126.129-.192.018-.033.029-.067.046-.1.072-.133.13-.269.19-.4.034-.079.08-.158.11-.238.011-.026.014-.054.024-.082.045-.129.077-.258.111-.389.023-.088.057-.175.075-.264.005-.023,0-.048.008-.071.026-.137.035-.273.048-.41.008-.09.027-.178.03-.268,0-.038,0-.076,0-.114h0Z" transform="translate(-243.946 -245.442)"/><path class="e" d="M369.39,299.039c-.012.136-.022.273-.046.41-.02.111-.054.223-.084.334-.034.13-.065.26-.111.389-.038.107-.088.212-.135.318-.058.136-.118.273-.19.406-.052.1-.116.194-.174.289-.1.154-.194.306-.307.455-.067.09-.139.177-.211.264a7.431,7.431,0,0,1-.552.594c-.073.071-.14.143-.216.212-.125.113-.264.22-.4.329s-.238.2-.367.289c-.147.107-.31.209-.467.313s-.319.216-.495.318a14.126,14.126,0,0,1-1.821.864c-.167.067-.336.129-.507.192a17.633,17.633,0,0,1-1.905.582c-.075.018-.152.033-.228.049-.473.107-.962.177-1.45.249l-.136,48.15c0,.038,0,.076,0,.114,0,.09-.023.178-.031.268-.012.137-.022.273-.046.41-.005.023,0,.048-.008.071-.018.088-.053.175-.076.264-.034.13-.065.26-.111.389-.01.027-.014.056-.023.082-.03.08-.077.159-.111.238-.06.136-.118.272-.19.4-.018.033-.029.067-.046.1-.037.065-.09.128-.129.192-.094.152-.194.3-.306.454-.033.045-.056.091-.09.135s-.086.086-.122.13a7.649,7.649,0,0,1-.55.592c-.05.048-.086.1-.136.147-.024.022-.056.043-.081.065-.124.113-.261.22-.4.329s-.238.2-.367.289c-.147.107-.308.208-.466.311-.114.075-.217.154-.338.226l-.159.094a14.286,14.286,0,0,1-1.82.864c-.167.067-.336.129-.507.192s-.349.143-.533.2c-.446.145-.906.269-1.373.38-.044.011-.088.019-.132.029.031.007.061.015.092.023.113.024.223.058.337.081q.638.133,1.292.226c.154.022.31.033.465.052.109.014.216.024.325.037.159.016.317.039.477.053.425.035.855.058,1.283.068.135,0,.269,0,.4,0,.117,0,.231,0,.348,0,.194,0,.389,0,.583,0,.484-.016.966-.049,1.445-.1.056-.005.109-.016.164-.023.13-.014.255-.037.386-.053.372-.048.746-.09,1.113-.155.292-.053.579-.121.866-.186.076-.016.154-.03.228-.049.467-.111.927-.235,1.374-.38.183-.058.352-.136.531-.2s.34-.125.508-.192a14.288,14.288,0,0,0,1.82-.864l.159-.094c.121-.072.223-.151.338-.226.158-.1.319-.2.465-.311s.247-.193.368-.289.273-.216.4-.329c.026-.022.056-.044.08-.065.052-.048.087-.1.136-.147a7.666,7.666,0,0,0,.552-.592c.037-.045.086-.086.121-.13s.057-.09.091-.135c.111-.149.211-.3.306-.454.039-.064.092-.126.129-.192.018-.033.029-.067.046-.1.072-.133.13-.269.19-.4.034-.079.08-.158.11-.238.011-.026.015-.054.024-.082.045-.129.077-.258.111-.389.023-.088.057-.175.075-.264.005-.023,0-.048.008-.071.026-.137.035-.273.048-.41.008-.09.029-.178.03-.268,0-.038,0-.076,0-.114l.156-55.387C369.422,298.783,369.4,298.911,369.39,299.039Z" transform="translate(-241.768 -245.422)"/><path class="t" d="M367.712,295.284c5.111,2.95,5.129,7.735.06,10.68s-13.327,2.95-18.437,0-5.138-7.73-.061-10.68S362.6,292.334,367.712,295.284Z" transform="translate(-243.905 -247.427)"/><path class="l" d="M346.691,265.467c-.012.137-.022.275-.048.412-.02.111-.054.223-.083.333-.035.13-.067.261-.113.39-.038.107-.088.213-.135.319-.058.136-.117.272-.19.4-.052.1-.114.194-.174.291-.1.152-.194.3-.307.455-.067.088-.139.175-.211.262a7.231,7.231,0,0,1-.553.6c-.072.069-.137.141-.215.211-.125.113-.264.222-.4.33s-.236.194-.366.288c-.147.107-.308.209-.466.313s-.321.216-.5.318a14.12,14.12,0,0,1-1.821.864c-.166.067-.336.13-.507.192a17.623,17.623,0,0,1-1.905.582c-.075.019-.152.033-.228.049-.645.147-1.309.257-1.979.341-.13.016-.257.039-.386.053-.724.077-1.458.116-2.192.122-.117,0-.232,0-.349,0-.724-.005-1.447-.045-2.163-.12-.109-.012-.216-.023-.325-.037a21.042,21.042,0,0,1-2.094-.359c-.125-.029-.249-.061-.372-.092a17.814,17.814,0,0,1-1.809-.55c-.1-.038-.216-.068-.321-.107a14.362,14.362,0,0,1-1.987-.939,10.579,10.579,0,0,1-1.688-1.193,7.458,7.458,0,0,1-1.2-1.322,6.053,6.053,0,0,1-.421-.7,4.715,4.715,0,0,1-.538-2.165l-.156,120.681c-.005,1.945,1.279,3.892,3.85,5.377a14.333,14.333,0,0,0,1.883.9c.034.014.071.022.1.035.1.041.215.069.321.109.38.137.76.277,1.158.391.212.06.434.1.65.159.125.03.247.062.374.091s.223.058.337.083q.638.133,1.292.224c.154.022.31.034.465.052.109.014.216.026.325.037.159.016.317.041.477.053.425.035.855.058,1.283.069.135,0,.269,0,.4,0l.349,0c.194,0,.389,0,.583,0,.484-.016.966-.048,1.445-.1.056-.007.109-.018.164-.023.13-.015.257-.038.386-.054.372-.046.747-.088,1.113-.155.292-.053.579-.12.866-.185.076-.018.154-.031.228-.049.467-.111.928-.236,1.374-.38.183-.06.353-.137.533-.2s.34-.125.507-.193a14.106,14.106,0,0,0,1.82-.863l.159-.094c.12-.073.223-.151.337-.226.159-.1.321-.205.467-.311.129-.094.245-.192.364-.288.136-.11.276-.219.4-.33.024-.023.054-.043.079-.067.052-.048.087-.1.136-.145a7.978,7.978,0,0,0,.553-.594c.037-.045.086-.086.12-.13s.057-.09.091-.133c.111-.149.212-.3.306-.455.039-.064.092-.126.129-.19.018-.033.029-.067.046-.1.072-.135.13-.27.19-.406.034-.079.08-.156.11-.236.011-.027.015-.054.024-.082.046-.129.077-.26.111-.39.023-.088.058-.175.076-.264,0-.023,0-.046.007-.069.026-.137.035-.274.048-.412.008-.09.029-.178.031-.268,0-.038,0-.076,0-.114l.156-120.68C346.722,265.213,346.7,265.341,346.691,265.467Z" transform="translate(-252.876 -257.499)"/><path class="e" d="M344.605,265.447c-.012.137-.022.275-.048.412-.02.111-.054.223-.083.333-.035.13-.067.261-.113.39-.038.107-.088.213-.135.319-.058.136-.117.272-.19.4-.052.1-.114.194-.174.291-.1.152-.194.3-.307.455-.067.088-.139.175-.211.262a7.225,7.225,0,0,1-.553.6c-.072.069-.137.141-.215.211-.125.113-.264.222-.4.33-.121.1-.236.194-.366.288-.147.107-.308.209-.466.313s-.321.216-.5.318a14.043,14.043,0,0,1-1.821.864c-.166.067-.336.13-.507.192a17.633,17.633,0,0,1-1.905.582c-.075.019-.152.033-.228.049-.645.147-1.309.257-1.979.341-.052.005-.1.014-.151.02l-.147,113.33c0,.038,0,.076,0,.114,0,.09-.022.178-.03.268-.012.137-.022.274-.048.412,0,.023,0,.046-.008.069-.018.088-.052.175-.075.264-.034.13-.067.261-.113.39-.009.027-.012.054-.023.082-.03.08-.076.158-.111.236-.058.136-.117.272-.189.406-.018.033-.029.067-.048.1-.037.064-.088.126-.128.19-.1.154-.194.306-.307.455-.033.044-.056.09-.09.133s-.084.086-.121.13a7.679,7.679,0,0,1-.552.594c-.049.048-.084.1-.136.145-.024.023-.054.043-.08.067-.125.111-.264.22-.4.33s-.235.194-.364.288c-.148.106-.31.208-.467.311-.114.075-.217.152-.337.226l-.159.094a14.031,14.031,0,0,1-1.821.863c-.167.068-.336.13-.507.193s-.349.141-.531.2c-.379.122-.77.224-1.165.322l.069.018c.125.03.247.063.374.091s.223.058.337.083q.638.133,1.292.224c.154.022.31.034.465.052.109.014.216.026.325.037.159.016.317.041.477.053.425.035.855.059,1.283.069.135,0,.269,0,.4,0l.349,0c.194,0,.389,0,.583,0,.484-.016.966-.048,1.445-.1.056-.007.109-.018.164-.023.13-.015.257-.038.386-.054.372-.046.747-.088,1.113-.155.292-.053.579-.12.866-.185.076-.018.154-.031.23-.049.466-.111.927-.237,1.373-.381.183-.06.353-.137.533-.2s.34-.125.507-.193a14.1,14.1,0,0,0,1.82-.863l.159-.094c.12-.073.223-.151.337-.226.159-.1.321-.205.467-.311.129-.094.245-.192.364-.288.136-.11.276-.219.4-.33.025-.023.054-.043.08-.067.05-.048.086-.1.135-.145a7.977,7.977,0,0,0,.553-.594c.037-.045.086-.086.12-.13s.057-.09.091-.133c.111-.149.212-.3.306-.455.039-.064.092-.126.129-.19.018-.033.029-.067.046-.1.072-.135.13-.27.19-.406.034-.079.08-.156.11-.236.011-.027.015-.054.024-.082.046-.129.077-.26.111-.39.023-.088.059-.175.076-.264,0-.023,0-.046.007-.069.026-.137.035-.275.048-.412.008-.09.028-.178.031-.268,0-.038,0-.076,0-.114l.156-120.68C344.637,265.193,344.616,265.321,344.605,265.447Z" transform="translate(-250.79 -257.479)"/><path class="u" d="M342.834,261.694c5.111,2.95,5.129,7.735.061,10.68s-13.328,2.95-18.438,0-5.138-7.73-.06-10.68S337.724,258.744,342.834,261.694Z" transform="translate(-252.835 -259.483)"/><path class="i" d="M317.956,300.842c5.111,2.95,5.138,7.73.061,10.68s-13.328,2.95-18.438,0-5.137-7.73-.06-10.68S312.846,297.892,317.956,300.842Z" transform="translate(-261.764 -245.432)"/><path class="v" d="M321.849,304.235c0,.128-.02.254-.033.382s-.022.273-.046.409c-.022.113-.056.224-.084.334-.034.131-.065.26-.111.389-.038.107-.088.213-.135.319-.06.136-.118.27-.19.4-.052.1-.116.193-.175.289-.094.154-.193.3-.306.454-.067.09-.139.177-.211.264a7.437,7.437,0,0,1-.552.594c-.073.071-.14.143-.217.212-.124.113-.264.221-.4.332s-.237.194-.366.288c-.148.107-.311.209-.47.314s-.319.216-.495.318a14.039,14.039,0,0,1-1.821.863c-.166.068-.336.13-.507.193a17.622,17.622,0,0,1-1.905.582c-.075.018-.152.031-.227.049-.645.147-1.309.255-1.98.34-.129.016-.257.041-.386.054-.724.077-1.458.115-2.193.122h-.347q-1.088-.008-2.166-.121l-.322-.035a20.685,20.685,0,0,1-2.1-.36c-.125-.029-.247-.06-.372-.091a17.751,17.751,0,0,1-1.807-.55c-.106-.038-.217-.068-.322-.109a14.2,14.2,0,0,1-1.987-.938,8.913,8.913,0,0,1-2.892-2.515,4.941,4.941,0,0,1-.959-2.862l-.156,87.128c-.005,1.945,1.279,3.893,3.85,5.377a14.154,14.154,0,0,0,1.884.9c.034.014.071.023.1.035.1.041.215.071.321.109.38.139.76.279,1.158.391.213.06.433.106.651.159.124.031.246.064.372.091s.223.06.337.083q.638.132,1.292.226c.154.022.311.033.466.052l.322.035c.159.018.318.041.478.054.427.035.855.057,1.283.068.135,0,.269,0,.4,0,.117,0,.231,0,.346,0,.2,0,.39,0,.584,0,.484-.016.966-.049,1.445-.1.056-.005.11-.018.164-.023.131-.014.257-.038.387-.054.372-.046.746-.088,1.112-.154.294-.053.58-.121.867-.186.076-.018.152-.03.227-.049.468-.111.927-.235,1.374-.381.183-.058.353-.136.533-.2s.34-.125.507-.192a14.1,14.1,0,0,0,1.82-.864l.159-.094c.121-.072.223-.151.337-.224.159-.1.321-.207.469-.314.129-.094.246-.192.366-.288.137-.11.276-.219.4-.33.026-.023.056-.045.082-.068.05-.046.086-.1.135-.144a7.723,7.723,0,0,0,.553-.6c.037-.045.086-.086.121-.13s.056-.088.088-.132c.113-.149.213-.3.307-.455.039-.065.092-.126.129-.192.018-.033.029-.065.046-.1.072-.135.13-.269.189-.4.035-.08.081-.158.111-.238.011-.027.014-.054.023-.082.046-.128.077-.258.111-.389.023-.087.058-.175.076-.264.005-.023,0-.046.008-.069.026-.137.035-.274.048-.41.007-.09.027-.178.03-.268,0-.038,0-.076,0-.114h0Z" transform="translate(-261.805 -243.447)"/><path class="e" d="M319.876,304.6c-.012.136-.022.273-.046.41-.022.111-.056.223-.084.333-.034.13-.065.26-.111.389-.038.107-.088.213-.135.319-.058.136-.118.27-.19.4-.052.1-.116.193-.175.289-.094.154-.193.3-.306.455-.067.088-.139.175-.211.262a7.431,7.431,0,0,1-.552.594c-.073.071-.14.143-.217.212-.124.113-.264.222-.4.332s-.236.194-.366.288c-.148.107-.311.209-.47.314s-.319.216-.495.318a14.023,14.023,0,0,1-1.821.863c-.166.068-.336.13-.507.193a17.634,17.634,0,0,1-1.905.582c-.075.018-.152.031-.227.049-.646.147-1.309.256-1.98.34-.129.016-.257.041-.386.054-.266.029-.538.027-.806.045l-.144,79.7c0,.038,0,.076,0,.114,0,.09-.023.178-.031.268-.012.136-.022.273-.046.41-.005.023,0,.046-.008.069-.018.088-.053.177-.076.264-.034.13-.065.261-.111.389-.009.027-.014.054-.023.082-.03.08-.077.158-.111.238-.06.136-.118.27-.19.4-.018.033-.027.065-.046.1-.037.065-.088.126-.128.192-.1.154-.2.306-.307.455-.033.043-.056.09-.09.132s-.084.086-.121.13a7.465,7.465,0,0,1-.553.6c-.049.046-.083.1-.135.144-.024.023-.056.045-.082.068-.125.111-.264.22-.4.33-.121.1-.236.194-.366.288-.148.107-.311.211-.47.314-.114.073-.216.152-.336.224l-.159.094a14.047,14.047,0,0,1-1.821.864c-.167.067-.334.129-.505.192s-.349.143-.533.2c-.22.072-.45.125-.675.188.2.057.414.1.622.152.124.031.246.064.372.091s.223.06.337.083q.638.132,1.292.226c.154.022.311.033.466.052.107.012.213.024.322.035.16.018.318.041.478.054.427.035.855.057,1.283.068.135,0,.269,0,.4,0,.117,0,.231,0,.347,0,.2,0,.39,0,.584,0q.726-.025,1.446-.1c.054-.005.109-.018.163-.023.13-.014.257-.038.387-.054.372-.046.746-.088,1.112-.154.294-.053.58-.121.867-.186.076-.018.152-.03.227-.049.467-.111.927-.235,1.374-.381.184-.058.353-.136.533-.2s.34-.125.507-.192a14.116,14.116,0,0,0,1.82-.864l.159-.094c.121-.072.223-.151.337-.224.159-.1.322-.206.469-.314.129-.094.246-.192.366-.288.137-.11.276-.219.4-.33.026-.023.056-.045.082-.068.05-.046.086-.1.135-.144a7.735,7.735,0,0,0,.553-.6c.037-.045.086-.086.121-.13s.056-.088.088-.132c.113-.15.213-.3.307-.455.039-.065.092-.126.129-.192.018-.033.029-.065.046-.1.072-.135.13-.269.189-.4.035-.08.082-.158.111-.238.011-.027.014-.054.023-.082.046-.128.077-.258.111-.389.023-.087.058-.175.076-.264.005-.023,0-.046.008-.069.026-.137.035-.275.048-.41.007-.09.027-.178.03-.268,0-.038,0-.076,0-.114l.158-87.128C319.909,304.343,319.888,304.469,319.876,304.6Z" transform="translate(-259.865 -243.428)"/><path class="k" d="M296.938,342.43c-.012.137-.022.275-.046.41-.02.111-.054.223-.084.334-.034.129-.065.26-.111.389-.038.106-.088.212-.135.318-.058.136-.118.272-.19.4-.052.1-.115.194-.175.291-.094.152-.193.3-.306.454-.067.088-.137.175-.211.262a7.214,7.214,0,0,1-.552.594c-.073.072-.14.144-.217.213-.124.113-.262.22-.4.329-.121.1-.238.2-.367.291-.148.106-.31.208-.467.311s-.321.217-.5.319a14.028,14.028,0,0,1-1.821.864c-.166.067-.336.13-.505.192a17.96,17.96,0,0,1-1.907.583c-.075.018-.152.031-.228.049-.646.145-1.307.255-1.979.34-.129.016-.255.039-.386.053a21.788,21.788,0,0,1-2.192.122c-.117,0-.232,0-.348,0-.724,0-1.449-.045-2.163-.12-.109-.011-.217-.023-.325-.037a20.58,20.58,0,0,1-2.094-.359c-.126-.029-.249-.061-.374-.091a18.165,18.165,0,0,1-1.81-.552c-.1-.038-.215-.068-.318-.107a14.3,14.3,0,0,1-1.988-.939c-2.571-1.484-3.855-3.431-3.85-5.376l-.158,55.387c-.005,1.945,1.279,3.892,3.85,5.377a14.342,14.342,0,0,0,1.883.9c.034.014.071.022.106.035.1.039.212.069.317.107.382.139.762.279,1.16.391v-.038h0v.038c.213.061.433.106.651.16.125.03.246.063.372.091s.223.058.337.083q.638.132,1.292.224c.154.022.31.034.465.052.109.014.216.026.325.037.159.016.317.041.477.053q.64.053,1.284.069c.133,0,.268,0,.4,0,.117,0,.231,0,.348,0,.194,0,.39,0,.583,0q.726-.025,1.446-.1v-.014h0v.014c.054-.005.107-.016.163-.022.13-.015.258-.038.389-.054.372-.048.745-.09,1.11-.155.294-.053.579-.12.867-.185.075-.018.152-.031.228-.049.466-.113.927-.236,1.373-.38.183-.06.353-.137.533-.2s.34-.124.507-.192a13.919,13.919,0,0,0,1.82-.864c.054-.03.107-.062.16-.094.12-.072.221-.149.336-.224.159-.1.322-.205.469-.313.13-.1.246-.193.367-.289.136-.109.275-.217.4-.33.024-.023.056-.044.081-.067.05-.048.086-.1.135-.145a7.242,7.242,0,0,0,.553-.6c.037-.043.086-.084.121-.129s.057-.09.09-.133c.111-.149.211-.3.306-.454.039-.065.092-.128.129-.192.018-.033.029-.067.046-.1.072-.133.13-.269.189-.4.035-.079.082-.158.111-.238.011-.026.015-.054.024-.08.045-.129.076-.258.11-.389.024-.088.058-.175.076-.264.005-.023,0-.048.008-.071.026-.136.035-.273.048-.41.008-.088.027-.178.03-.266,0-.038,0-.077,0-.116l.158-55.387C296.971,342.176,296.95,342.3,296.938,342.43Z" transform="translate(-270.735 -229.874)"/><path class="e" d="M295.033,342.411c-.012.137-.022.274-.046.41-.02.111-.054.223-.084.334-.034.129-.065.26-.111.389-.038.106-.088.212-.135.318-.058.136-.118.272-.19.4-.052.1-.116.194-.175.291-.094.152-.193.3-.306.454-.067.088-.137.175-.211.262a7.229,7.229,0,0,1-.552.594c-.073.072-.14.144-.217.213-.124.113-.262.22-.4.329s-.238.2-.367.291c-.148.106-.31.208-.467.311s-.321.217-.5.319a14.041,14.041,0,0,1-1.821.864c-.166.067-.336.13-.506.192a17.964,17.964,0,0,1-1.907.583c-.075.018-.152.031-.228.049-.645.145-1.307.255-1.979.34-.129.016-.255.039-.386.053-.364.039-.734.042-1.1.061l-.136,47.943c0,.038,0,.077,0,.116,0,.088-.022.178-.03.266-.012.137-.022.274-.048.41,0,.023,0,.048-.008.071-.018.088-.052.175-.075.264-.034.131-.067.26-.111.389-.01.026-.014.054-.023.08-.031.08-.077.159-.111.238-.06.136-.118.272-.19.4-.018.033-.027.067-.046.1-.037.064-.09.126-.129.192-.094.152-.194.3-.306.454-.033.043-.056.09-.09.133s-.084.086-.121.13a7.692,7.692,0,0,1-.552.594c-.05.048-.086.1-.136.145-.024.023-.056.043-.082.067-.125.113-.264.221-.4.33s-.236.194-.366.289c-.148.107-.31.209-.469.313-.114.075-.217.152-.337.224-.053.031-.106.064-.159.094a13.944,13.944,0,0,1-1.821.864c-.167.068-.336.13-.507.192s-.349.143-.533.2c-.168.054-.348.1-.522.144.037.011.071.026.106.035.213.061.435.106.651.16.125.03.246.063.372.091s.223.058.337.083q.638.133,1.292.224c.154.022.31.034.465.052.109.014.216.026.325.037.159.016.317.041.477.053q.64.053,1.284.069c.133,0,.268,0,.4,0,.117,0,.231,0,.348,0,.194,0,.39,0,.583,0q.726-.024,1.446-.1c.054-.005.107-.016.163-.022.131-.015.258-.038.389-.054.372-.048.745-.09,1.11-.155.294-.053.579-.12.867-.185.076-.018.152-.031.228-.049.466-.113.927-.236,1.373-.38.183-.06.353-.137.533-.2s.34-.124.507-.192a13.923,13.923,0,0,0,1.82-.864c.054-.03.107-.062.16-.094.12-.072.221-.149.336-.224.159-.1.322-.205.469-.313.13-.1.246-.193.367-.289s.275-.217.4-.33c.024-.023.056-.044.082-.067.05-.048.086-.1.135-.145a7.452,7.452,0,0,0,.553-.594c.037-.045.086-.086.121-.13s.057-.09.09-.133c.111-.149.211-.3.306-.454.039-.065.092-.128.129-.192.018-.033.029-.067.046-.1.072-.133.13-.269.189-.4.035-.079.082-.158.111-.238.011-.026.015-.054.024-.08.045-.129.076-.258.111-.389.023-.088.057-.175.075-.264.005-.023,0-.048.008-.071.026-.136.035-.273.048-.41.008-.088.027-.178.03-.266,0-.038,0-.077,0-.116l.156-55.387C295.066,342.157,295.046,342.283,295.033,342.411Z" transform="translate(-268.83 -229.855)"/><path class="g" d="M293.079,338.656c5.109,2.952,5.137,7.73.06,10.68s-13.327,2.952-18.438,0-5.137-7.728-.06-10.68S287.968,335.706,293.079,338.656Z" transform="translate(-270.693 -231.859)"/><path class="w" d="M367.712,295.284c5.111,2.95,5.129,7.735.06,10.68s-13.327,2.95-18.437,0-5.138-7.73-.061-10.68S362.6,292.334,367.712,295.284Z" transform="translate(-243.905 -247.427)"/><path class="l" d="M342.834,261.694c5.111,2.95,5.129,7.735.061,10.68s-13.328,2.95-18.438,0-5.138-7.73-.06-10.68S337.724,258.744,342.834,261.694Z" transform="translate(-252.835 -259.483)"/><path class="v" d="M317.956,300.842c5.111,2.95,5.138,7.73.061,10.68s-13.328,2.95-18.438,0-5.137-7.73-.06-10.68S312.846,297.892,317.956,300.842Z" transform="translate(-261.764 -245.432)"/><path class="k" d="M293.079,338.656c5.109,2.952,5.137,7.73.06,10.68s-13.327,2.952-18.438,0-5.137-7.728-.06-10.68S287.968,335.706,293.079,338.656Z" transform="translate(-270.693 -231.859)"/></g><g class="p" transform="translate(0 107.466)"><path class="d" d="M47.768,360.031c-9.878-5.7-17.854-19.528-17.822-30.871l.538-189.433c.031-11.351,8.06-15.927,17.938-10.223L213.28,224.685c9.871,5.7,17.855,19.518,17.822,30.87l-.537,189.434c-.033,11.342-8.068,15.921-17.939,10.222Z" transform="translate(-29.946 -127.05)"/><g transform="translate(16.498 22.753)"><path class="o" d="M46.212,165.814a8.865,8.865,0,0,1-4.022-6.967c.007-2.56,1.82-3.593,4.048-2.307l160.224,92.505a8.869,8.869,0,0,1,4.031,6.973c-.007,2.56-1.821,3.593-4.056,2.3Z" transform="translate(-42.049 -139.417)"/><path class="o" d="M107.929,274.706a8.865,8.865,0,0,1-4.022-6.967c.007-2.57,1.82-3.6,4.048-2.316l76.073,43.921a8.875,8.875,0,0,1,4.031,6.979c-.008,2.562-1.821,3.594-4.058,2.3Z" transform="translate(-19.896 -100.335)"/><path class="o" d="M107.894,286.89a8.868,8.868,0,0,1-4.022-6.967c.008-2.56,1.821-3.593,4.05-2.306l76.072,43.919a8.869,8.869,0,0,1,4.031,6.973c-.007,2.56-1.821,3.593-4.056,2.3Z" transform="translate(-19.909 -95.958)"/><path class="o" d="M46.142,190.193a8.868,8.868,0,0,1-4.022-6.967c.008-2.56,1.821-3.593,4.05-2.306l160.224,92.505a8.869,8.869,0,0,1,4.031,6.971c-.008,2.56-1.821,3.593-4.056,2.3Z" transform="translate(-42.074 -130.666)"/><path class="o" d="M107.825,311.27A8.869,8.869,0,0,1,103.8,304.3c.008-2.562,1.821-3.594,4.05-2.307l76.072,43.921a8.869,8.869,0,0,1,4.031,6.971c-.008,2.56-1.821,3.594-4.056,2.3Z" transform="translate(-19.934 -87.208)"/><path class="o" d="M56.006,318.987c-6.2-3.577-11.195-12.244-11.175-19.354l.235-82.909c.02-7.11,5.053-9.987,11.247-6.41l50.7,29.273c6.187,3.573,11.195,12.245,11.175,19.355l-.235,82.909c-.02,7.11-5.061,9.981-11.248,6.409Z" transform="translate(-41.101 -120.468)"/><path class="o" d="M108,250.327a8.869,8.869,0,0,1-4.022-6.967c.007-2.56,1.821-3.6,4.048-2.317L184.1,284.963a8.886,8.886,0,0,1,4.031,6.981c-.008,2.56-1.821,3.594-4.056,2.3Z" transform="translate(-19.872 -109.085)"/><path class="o" d="M46.246,153.621a8.864,8.864,0,0,1-4.022-6.967c.007-2.56,1.821-3.593,4.048-2.307L206.5,236.853a8.873,8.873,0,0,1,4.031,6.971c-.008,2.56-1.821,3.593-4.058,2.3Z" transform="translate(-42.036 -143.793)"/><path class="o" d="M107.963,262.511a8.872,8.872,0,0,1-4.022-6.967c.008-2.56,1.821-3.593,4.05-2.307l76.072,43.921a8.865,8.865,0,0,1,4.031,6.971c-.007,2.562-1.82,3.594-4.056,2.3Z" transform="translate(-19.884 -104.709)"/><path class="o" d="M46.177,178a8.868,8.868,0,0,1-4.022-6.967c.007-2.562,1.82-3.594,4.048-2.307l160.225,92.505a8.867,8.867,0,0,1,4.029,6.971c-.007,2.56-1.82,3.594-4.056,2.3Z" transform="translate(-42.061 -135.043)"/><path class="o" d="M107.86,299.085a8.861,8.861,0,0,1-4.022-6.967c.007-2.57,1.82-3.6,4.048-2.316l76.073,43.921a8.87,8.87,0,0,1,4.029,6.981c-.007,2.56-1.82,3.593-4.056,2.3Z" transform="translate(-19.921 -91.584)"/><path class="o" d="M46.108,202.38a8.868,8.868,0,0,1-4.022-6.967c.007-2.562,1.82-3.594,4.048-2.307l160.225,92.505a8.867,8.867,0,0,1,4.029,6.971c-.007,2.562-1.82,3.594-4.056,2.3Z" transform="translate(-42.086 -126.292)"/><path class="o" d="M107.791,323.464a8.861,8.861,0,0,1-4.022-6.967c.007-2.568,1.82-3.6,4.048-2.316L183.89,358.1a8.87,8.87,0,0,1,4.029,6.981c-.007,2.56-1.82,3.593-4.056,2.3Z" transform="translate(-19.946 -82.834)"/></g></g><g transform="translate(95.801)"><g transform="translate(228.015 74.631)"><path class="x" d="M273.285,102.888a16.828,16.828,0,0,0,5.019,8.694,3.856,3.856,0,0,0-5.051,2.878,16.838,16.838,0,0,0-5.02-8.693A3.861,3.861,0,0,0,273.285,102.888Z" transform="translate(-268.233 -102.888)"/></g><g transform="translate(298.77 17.483)"><path class="x" d="M325.352,60.834a16.829,16.829,0,0,0,5.02,8.694,3.857,3.857,0,0,0-5.053,2.878,16.843,16.843,0,0,0-5.02-8.693A3.86,3.86,0,0,0,325.352,60.834Z" transform="translate(-320.299 -60.834)"/></g><g transform="translate(326.883 214.441)"><path class="x" d="M346.038,205.77a16.829,16.829,0,0,0,5.02,8.693,3.858,3.858,0,0,0-5.053,2.88,16.835,16.835,0,0,0-5.019-8.693A3.859,3.859,0,0,0,346.038,205.77Z" transform="translate(-340.987 -205.77)"/></g><g transform="translate(100.321)"><path class="x" d="M179.318,47.969a16.819,16.819,0,0,0,5.019,8.693,3.858,3.858,0,0,0-5.053,2.88,16.835,16.835,0,0,0-5.019-8.693A3.861,3.861,0,0,0,179.318,47.969Z" transform="translate(-174.266 -47.969)"/></g><g transform="translate(0 91.791)"><path class="x" d="M105.5,115.515a16.818,16.818,0,0,0,5.019,8.693,3.856,3.856,0,0,0-5.051,2.88,16.847,16.847,0,0,0-5.02-8.694A3.86,3.86,0,0,0,105.5,115.515Z" transform="translate(-100.443 -115.515)"/></g><g transform="translate(339.61 263.315)"><path class="g" d="M352.632,242.046a5,5,0,0,1,2.265,3.925c0,1.443-1.029,2.022-2.28,1.3a4.985,4.985,0,0,1-2.265-3.923C350.356,241.9,351.375,241.322,352.632,242.046Z" transform="translate(-350.352 -241.735)"/></g><g transform="translate(123.084 211.325)"><path class="g" d="M193.3,203.789a5,5,0,0,1,2.265,3.925c0,1.443-1.029,2.022-2.28,1.3a4.993,4.993,0,0,1-2.265-3.925C191.021,203.645,192.042,203.064,193.3,203.789Z" transform="translate(-191.017 -203.477)"/></g><g transform="translate(262.95 40.172)"><path class="g" d="M296.22,77.843a5,5,0,0,1,2.267,3.923c0,1.443-1.029,2.022-2.282,1.3a4.993,4.993,0,0,1-2.265-3.925C293.944,77.7,294.965,77.117,296.22,77.843Z" transform="translate(-293.94 -77.53)"/></g><g transform="translate(44.322 37.248)"><path class="g" d="M135.338,75.69a5,5,0,0,1,2.267,3.925c0,1.443-1.029,2.022-2.28,1.3a4.986,4.986,0,0,1-2.267-3.923C133.062,75.546,134.083,74.966,135.338,75.69Z" transform="translate(-133.058 -75.379)"/></g><g transform="translate(79.595 113.596)"><path class="g" d="M163.567,132.184a9.979,9.979,0,0,1,4.523,7.834c-.008,2.881-2.053,4.037-4.552,2.594a9.962,9.962,0,0,1-4.523-7.834C159.023,131.9,161.06,130.736,163.567,132.184Z" transform="translate(-159.015 -131.561)"/></g><g transform="translate(399.961 61.353)"><path class="g" d="M399.315,93.741a9.975,9.975,0,0,1,4.523,7.834c-.008,2.881-2.053,4.036-4.552,2.594a9.966,9.966,0,0,1-4.523-7.834C394.771,93.454,396.808,92.292,399.315,93.741Z" transform="translate(-394.763 -93.117)"/></g></g></g></g></svg>