<svg xmlns="http://www.w3.org/2000/svg" xmlns:xlink="http://www.w3.org/1999/xlink" width="156.834" height="173.946" viewBox="0 0 156.834 173.946"><defs><style>.a{fill:url(#a);}.b{fill:#809229;}.c{fill:#411f68;}</style><linearGradient id="a" x1="0.5" y1="1" x2="0.5" gradientUnits="objectBoundingBox"><stop offset="0" stop-color="#411f68"/><stop offset="1" stop-color="#809229"/></linearGradient></defs><g transform="translate(-251 -36.28)"><g transform="translate(275.491 53.706)"><path class="a" d="M312.734,228.941l-1.743-.714,58.4-142.706,1.743.714L310.851,233.18" transform="translate(-307.153 -79.756)"/><path class="b" d="M435.3,79.874h0a3.3,3.3,0,1,1,3.3-3.3,3.3,3.3,0,0,1-3.3,3.3" transform="translate(-371.244 -73.28)"/><path class="c" d="M306.3,394.874h0a3.3,3.3,0,1,1,3.3-3.3,3.3,3.3,0,0,1-3.3,3.3" transform="translate(-303 -239.923)"/></g><g transform="translate(277.218 58.887)"><path class="a" d="M315.56,212.624l-1.743-.714,47.1-115.389,1.743.714-47.1,115.389" transform="translate(-310.45 -90.756)"/><path class="b" d="M413.964,90.874h0a3.3,3.3,0,1,1,3.3-3.3,3.3,3.3,0,0,1-3.3,3.3" transform="translate(-361.686 -84.28)"/><path class="c" d="M309.964,345.874h0a3.3,3.3,0,1,1,3.3-3.3,3.3,3.3,0,0,1-3.3,3.3" transform="translate(-306.667 -219.182)"/></g><g transform="translate(266.856 36.28)"><path class="a" d="M294.4,191.941l-1.743-.714,58.4-142.706,1.743.714L292.518,196.18" transform="translate(-288.82 -42.756)"/><path class="b" d="M416.964,42.874h0a3.3,3.3,0,1,1,3.3-3.3,3.3,3.3,0,0,1-3.3,3.3" transform="translate(-352.911 -36.28)"/><path class="c" d="M287.964,357.874h0a3.3,3.3,0,1,1,3.3-3.3,3.3,3.3,0,0,1-3.3,3.3" transform="translate(-284.667 -202.923)"/></g><g transform="translate(251 55.276)"><path class="a" d="M260.734,232.274l-1.743-.714,58.4-142.706,1.743.714L258.851,236.513" transform="translate(-255.153 -83.089)"/><path class="b" d="M383.3,83.207h0a3.3,3.3,0,1,1,3.3-3.3,3.3,3.3,0,0,1-3.3,3.3" transform="translate(-319.244 -76.613)"/><path class="c" d="M254.3,398.207h0a3.3,3.3,0,1,1,3.3-3.3,3.3,3.3,0,0,1-3.3,3.3" transform="translate(-251 -243.256)"/></g><path class="a" d="M434.211,186.822h0a54.632,54.632,0,0,1-76.917,0c-.322-.322-4.408-4.726-4.408-4.726L344.7,200.03l-2.173-.473,21.787-51.7c0,14.642,16.656,27.464,31.435,27.464,14.637,0,27.2-12.439,27.2-26.993V129.6c0,.1,27.572-65.87,27.572-65.87l1.852.58-2.229,5.618v78.49a52.3,52.3,0,0,1-15.934,38.408" transform="translate(-48.422 -14.52)"/><path class="b" d="M573.3,58.874h0a3.3,3.3,0,1,1,3.3-3.3,3.3,3.3,0,0,1-3.3,3.3" transform="translate(-168.759 -8.464)"/><path class="c" d="M339.3,357.874h0a3.3,3.3,0,1,1,3.3-3.3,3.3,3.3,0,0,1-3.3,3.3" transform="translate(-44.968 -166.643)"/><path class="a" d="M502.556,122.044l-8.478,20.723-1.413-1.256,9.419-24.176.471-42.388h20.129l-20.129,47.1" transform="translate(-127.847 -20.456)"/><path class="c" d="M488.3,220.874h0a3.3,3.3,0,1,1,3.3-3.3,3.3,3.3,0,0,1-3.3,3.3" transform="translate(-123.793 -94.167)"/></g></svg>