<svg xmlns="http://www.w3.org/2000/svg" xmlns:xlink="http://www.w3.org/1999/xlink" width="419.379" height="635.208" viewBox="0 0 419.379 635.208"><defs><style>.a{fill:url(#a);}.b{fill:#809229;}.c{fill:#411f68;}.d{fill:#fff;}</style><linearGradient id="a" x1="0.5" y1="1" x2="0.5" gradientUnits="objectBoundingBox"><stop offset="0" stop-color="#411f68"/><stop offset="1" stop-color="#809229"/></linearGradient></defs><g transform="translate(-251 -36.28)"><g transform="translate(316.489 82.878)"><path class="a" d="M315.888,469.029l-4.66-1.909,156.163-381.6,4.661,1.91-161.2,392.932" transform="translate(-300.964 -70.105)"/><path class="b" d="M440.816,90.912h0a8.816,8.816,0,1,1,8.816-8.816,8.817,8.817,0,0,1-8.816,8.816" transform="translate(-269.538 -73.28)"/><path class="c" d="M311.816,405.912h0a8.816,8.816,0,1,1,8.816-8.816,8.815,8.815,0,0,1-8.816,8.816" transform="translate(-303 8.431)"/></g><g transform="translate(321.107 96.731)"><path class="a" d="M318.477,406.984l-4.66-1.909L439.755,96.521l4.661,1.91L318.477,406.984" transform="translate(-304.812 -81.105)"/><path class="b" d="M419.483,101.912h0A8.816,8.816,0,1,1,428.3,93.1a8.817,8.817,0,0,1-8.816,8.816" transform="translate(-279.69 -84.28)"/><path class="c" d="M315.483,356.912h0A8.816,8.816,0,1,1,324.3,348.1a8.815,8.815,0,0,1-8.816,8.816" transform="translate(-306.667 -18.133)"/></g><g transform="translate(293.4 36.28)"><path class="a" d="M297.555,432.029l-4.66-1.909,156.163-381.6,4.661,1.91-161.2,392.932" transform="translate(-282.631 -33.105)"/><path class="b" d="M422.483,53.912h0A8.816,8.816,0,1,1,431.3,45.1a8.817,8.817,0,0,1-8.816,8.816" transform="translate(-251.205 -36.28)"/><path class="c" d="M293.483,368.912h0A8.816,8.816,0,1,1,302.3,360.1a8.815,8.815,0,0,1-8.816,8.816" transform="translate(-284.667 45.431)"/></g><g transform="translate(251 87.075)"><path class="a" d="M263.888,472.362l-4.66-1.909,156.163-381.6,4.661,1.91L258.851,483.7" transform="translate(-248.964 -73.438)"/><path class="b" d="M388.816,94.245h0a8.816,8.816,0,1,1,8.816-8.816,8.816,8.816,0,0,1-8.816,8.816" transform="translate(-217.538 -76.613)"/><path class="c" d="M259.816,409.245h0a8.816,8.816,0,1,1,8.816-8.816,8.816,8.816,0,0,1-8.816,8.816" transform="translate(-251 5.098)"/></g><path class="a" d="M587.687,392.889h0q-42.83,42.331-102.613,42.33-60.455,0-103.064-42.33c-.86-.86-11.788-12.637-11.788-12.637l-21.88,47.954-5.811-1.264L400.791,288.7c0,39.153,44.54,73.441,84.059,73.441,39.14,0,72.723-33.263,72.723-72.181v-50.1c0,.266,73.729-176.137,73.729-176.137l4.953,1.55L630.295,80.3V290.183q0,60.153-42.608,102.705" transform="translate(23.743 7.119)"/><path class="b" d="M578.816,69.913h0a8.816,8.816,0,1,1,8.816-8.816,8.817,8.817,0,0,1-8.816,8.816" transform="translate(82.748 4.15)"/><path class="c" d="M344.814,368.912h0a8.816,8.816,0,1,1,8.816-8.816,8.814,8.814,0,0,1-8.816,8.816" transform="translate(22.049 81.711)"/><path class="a" d="M519.113,200.887,496.444,256.3l-3.778-3.358,25.188-64.648,1.259-113.347h53.824L519.113,200.887" transform="translate(62.688 10.03)"/><path class="c" d="M493.814,231.912h0a8.816,8.816,0,1,1,8.817-8.816,8.814,8.814,0,0,1-8.817,8.816" transform="translate(60.699 46.173)"/><path class="d" d="M363,524.877q-3.786-3.058-10.983-3.062H339.142v23.726h12.876q7.2,0,10.983-3.057t3.788-8.8q0-5.741-3.788-8.8Z" transform="translate(22.864 125.947)"/></g></svg>