<svg xmlns="http://www.w3.org/2000/svg" width="1425.348" height="1187.385" viewBox="0 0 1425.348 1187.385"><defs><style>.a{fill:#51e3d4;}.a,.c{opacity:0.3;}.b{fill:#474f85;opacity:0.28;}.c{fill:#efc130;}</style></defs><g transform="translate(-494.604 19.315)"><path class="a" d="M760.456,302.9c-85.9,144.383-410.063,260.826-525.014,218.782s-138.5-193.187-52.606-337.57S431.56-43.239,546.512-1.189,846.359,158.512,760.456,302.9Z" transform="translate(1833.42 1092.968) rotate(-157)"/><path class="b" d="M955.033,458.02c10.876,122.831-220.1-13.905-493.63,5.488S-24.624,651.076-35.5,528.245-2.635-87.175,270.9-106.568,944.161,335.188,955.033,458.02Z" transform="matrix(-0.259, 0.966, -0.966, -0.259, 1571.992, 217.488)"/><path class="c" d="M760.456,302.9c-85.9,144.383-410.063,260.826-525.014,218.782s-138.5-193.187-52.606-337.57,352.4-340.4,467.35-298.353S846.359,158.512,760.456,302.9Z" transform="translate(776.916 -27.162) rotate(45)"/></g></svg>