<svg xmlns="http://www.w3.org/2000/svg" width="2043.484" height="1507.184" viewBox="0 0 2043.484 1507.184"><defs><style>.a{fill:#51e3d4;}.a,.d{opacity:0.3;}.b{fill:#474f85;}.b,.c{opacity:0.28;}.c{fill:#46a2da;}.d{fill:#efc130;}</style></defs><g transform="translate(123.533 159.506)"><path class="a" d="M760.456,302.9c-85.9,144.383-410.063,260.826-525.014,218.782s-138.5-193.187-52.606-337.57S431.56-43.239,546.512-1.189,846.359,158.512,760.456,302.9Z" transform="translate(1833.42 1092.968) rotate(-157)"/><path class="b" d="M955.033,458.02c10.876,122.831-220.1-13.905-493.63,5.488S-24.624,651.076-35.5,528.245-2.635-87.175,270.9-106.568,944.161,335.188,955.033,458.02Z" transform="matrix(0.545, -0.839, 0.839, 0.545, 918.916, 700.125)"/><path class="c" d="M955.033,458.02c10.876,122.831-170.357,163.24-443.884,182.633S-24.624,651.076-35.5,528.245,353.94-46.794,627.472-66.187,944.161,335.188,955.033,458.02Z" transform="translate(722.191 1272.071) rotate(-148)"/><path class="d" d="M760.456,302.9c-85.9,144.383-410.063,260.826-525.014,218.782s-138.5-193.187-52.606-337.57,205.893-35.721,320.844,6.328S846.359,158.512,760.456,302.9Z" transform="matrix(-0.375, 0.927, -0.927, -0.375, 1120.013, 272.85)"/></g></svg>