<svg xmlns="http://www.w3.org/2000/svg" xmlns:xlink="http://www.w3.org/1999/xlink" width="1920" height="2815" viewBox="0 0 1920 2815"><defs><style>.a{fill:none;}.b{clip-path:url(#a);}.c{fill:#51e3d4;opacity:0.35;}.d,.e{fill:#f3ecd3;}.d,.g{opacity:0.3;}.e,.h,.i{opacity:0.61;}.f,.i{fill:#efc130;}.f{opacity:0.28;}.g,.h{fill:#474f85;}</style><clipPath id="a"><rect class="a" width="1920" height="2815" transform="translate(0 2)"/></clipPath></defs><g class="b" transform="translate(0 -2)"><g transform="translate(89.149 17.667)"><path class="c" d="M1032.591-8.333S732.5,157.2,724.127,485.084s-59.755,417.375-99.888,445.848-313.8,3.753-334.272,275.552S476.3,1477.79,544.308,1540.362s32.555,96.274,69.371,141.45c18.887,23.173-175.486-33.864-189.2,92.01-4.712,43.261,1.859-53.417,27.425,15.422,45.375,122.179,124,413.729,117.187,424.625-21.905,35.02-540.021,98.632,0,874.073,0,0-734.1,346.041-183.506,1069.176,30.989,40.7,998.484-1271.442,907.03-1720.68-68.444-336.2-470.75-556.58-822.346-593.961-318.424-33.854-589.465,100.1-640.689,106.1-146.715,17.2-613.191-25.936-678.331-22.015,234.261,658.95-833.947,874.785-946.876,989.578-353.091-200.833,1089.731,2388.393,940.343,2890.7-140.908,473.812,91.625,1007.272,91.625,1007.272H148.6L1162,2490.59h0V-8.333Z" transform="translate(671.261 17.212)"/><path class="c" d="M883.942,502.412c0,142.427-116.278,283.493-258.706,283.493s-237.6-142.4-257.065-283.493C345.519,338.227,562.6,152.333,705.024,152.333S883.942,359.985,883.942,502.412Z" transform="translate(972.052 394.28)"/><path class="d" d="M981.868,575.482c0,150.072-72.1,459.844-215.316,459.844S218.784,818.9,463.235,575.482C569.58,469.589,579.336,303.75,722.553,303.75S981.868,425.41,981.868,575.482Z" transform="translate(222.74 647.641)"/><path class="e" d="M1243.708,204.974c0,121.857-202.428,256.851-459.085,256.851s-601.994,88.5-470.354-256.851C361.8,80.279,522.329-15.667,778.987-15.667S1243.708,83.117,1243.708,204.974Z" transform="translate(781.446 0)"/><path class="f" d="M668.2,367.378c7.728,97.535-62.293,319.734-256.647,335.133S-27.9,520.676-35.626,423.141,95.107,33.923,289.465,18.524,660.473,269.843,668.2,367.378Z" transform="translate(-192.484 452.351) rotate(-49)"/><path class="g" d="M267.872,202.74c-49.595,106.314-10.147,209.154-76.516,178.2s-79.968-142.25-30.373-248.564S304.588-35.034,370.957-4.072,317.469,96.423,267.872,202.74Z" transform="translate(539.728 -86.416) rotate(45)"/><path class="h" d="M293.111,358.522c26.169,45.551-3.066,164.052-92.107,215.206s-242.788,26.9-248.548-46.087c-4.18-52.985,110.849-3.427,172.8-83.987C211.377,331.666,266.942,312.97,293.111,358.522Z" transform="translate(0 824.059)"/><path class="i" d="M1048.153,753.357c-122.314,172.342-472.859,93.478-651.52,38.7s-312.115-61.17-189.8-233.513S573.137,290.9,751.8,345.677,1170.467,581.015,1048.153,753.357Z" transform="translate(-185.709 1128.725)"/><g transform="translate(-251.572 1650.861)"><path class="e" d="M-38.441,577.84c-26.169-45.551,3.066-164.052,92.107-215.206s242.788-26.9,248.548,46.087c4.18,52.985-110.849,3.427-172.8,83.987C43.294,604.7-12.271,623.391-38.441,577.84Z" transform="translate(2754.85 143.773)"/><path class="e" d="M157.428,591.041C237.825,418.7,559.14,288.07,676.573,342.852s147.455,238.9,67.059,411.244-240.77,267.645-358.2,212.863S77.032,763.383,157.428,591.041Z" transform="translate(827.822 -776.871)"/></g></g></g></svg>