<svg xmlns="http://www.w3.org/2000/svg" xmlns:xlink="http://www.w3.org/1999/xlink" width="1920" height="4809" viewBox="0 0 1920 4809"><defs><style>.a{fill:none;}.b{clip-path:url(#a);}.c,.f{fill:#51e3d4;}.c{opacity:0.35;}.d{fill:#474f85;opacity:0.3;}.e{fill:#f3ecd3;opacity:0.61;}.f{opacity:0.28;}</style><clipPath id="a"><rect class="a" width="1920" height="4809"/></clipPath></defs><g class="b"><g transform="translate(89.149 17.667)"><path class="c" d="M1032.591-8.333S732.5,107.691,724.127,337.512s-59.755,292.546-99.888,312.5-313.8,2.631-334.272,193.14S476.3,1033.32,544.308,1077.178s32.555,67.48,69.371,99.145S591,1524.709,569.1,1549.252s-540.021,69.133,0,612.655c0,0-734.1,242.547-183.506,749.406,136.1,125.29,204.333,374.229,58.278,380.392,234.262,461.872-150.7,176.5-263.633,256.959-353.091-140.768-886.126,166.9-1035.515,518.977-140.908,332.1,91.625,706.017,91.625,706.017H1162V-8.333Z" transform="translate(671.261 17.212)"/><path class="c" d="M883.942,502.412c0,142.427-116.278,283.493-258.706,283.493s-237.6-142.4-257.065-283.493C345.519,338.227,562.6,152.333,705.024,152.333S883.942,359.985,883.942,502.412Z" transform="translate(972.052 394.28)"/><path class="d" d="M981.868,575.482c0,150.072-72.1,459.844-215.316,459.844S218.784,818.9,463.235,575.482C569.58,469.589,579.336,303.75,722.553,303.75S981.868,425.41,981.868,575.482Z" transform="translate(1018.74 749.641)"/><path class="e" d="M1243.708,204.974c0,121.857-202.428,256.851-459.085,256.851s-601.994,88.5-470.354-256.851C361.8,80.279,522.329-15.667,778.987-15.667S1243.708,83.117,1243.708,204.974Z" transform="translate(781.446 0)"/><path class="f" d="M668.2,367.378c7.728,97.535-156.394-11.041-350.749,4.358S-27.9,520.676-35.626,423.141,95.107,33.923,289.465,18.524,660.473,269.843,668.2,367.378Z" transform="translate(27.506 78.741)"/><path class="d" d="M494.481,219.839c-49.594,106.314-236.757,192.055-303.126,161.1s-79.968-142.25-30.373-248.564S304.588-35.034,370.957-4.072,544.079,113.522,494.481,219.839Z" transform="translate(419.585 8.322)"/><path class="e" d="M293.111,358.522c26.169,45.551-3.066,164.052-92.107,215.206s-242.788,26.9-248.548-46.087c-4.18-52.985,110.849-3.427,172.8-83.987C211.377,331.666,266.942,312.97,293.111,358.522Z" transform="translate(0 824.059)"/><path class="e" d="M769.531,721.595c-80.4,172.342-401.712,302.971-519.145,248.189s-147.455-238.9-67.059-411.244S424.1,290.9,541.53,345.677,849.927,549.253,769.531,721.595Z" transform="translate(436.291 811.725)"/><g transform="translate(-251.572 1650.861)"><path class="c" d="M366.531,435.826c0-142.427,116.278-283.493,258.706-283.493s237.6,142.4,257.065,283.493C904.954,600.011,687.877,785.905,545.45,785.905S366.531,578.253,366.531,435.826Z" transform="translate(-245.026 720.443)"/><path class="d" d="M386.424,763.594c0-150.072,72.1-459.844,215.316-459.844s547.768,216.431,303.317,459.844c-106.345,105.893-116.1,271.732-259.318,271.732S386.424,913.666,386.424,763.594Z" transform="translate(847.468 674.773)"/><path class="e" d="M285.315,251.346C285.315,129.488,487.743-5.506,744.4-5.506S1346.394-94,1214.753,251.346c-47.533,124.7-208.06,220.641-464.717,220.641S285.315,373.2,285.315,251.346Z" transform="translate(-332.969 1848.003)"/><path class="d" d="M143.862,155.38C193.456,49.066,380.618-36.675,446.987-5.716c40.1,18.707,60.936,66.738,60.186,125.649-.3,23.633-4.206,49.335-11.871,75.524a335.277,335.277,0,0,1-17.942,47.392c-49.6,106.318-143.606,167.405-209.975,136.443S94.264,261.7,143.862,155.38Z" transform="translate(1587.641 1920.781)"/><path class="e" d="M157.428,591.041C237.825,418.7,559.14,288.07,676.573,342.852s147.455,238.9,67.059,411.244-240.77,267.645-358.2,212.863S77.032,763.383,157.428,591.041Z" transform="translate(1194.822 -345.871)"/></g></g></g></svg>