<svg xmlns="http://www.w3.org/2000/svg" xmlns:xlink="http://www.w3.org/1999/xlink" width="1920" height="6849" viewBox="0 0 1920 6849"><defs><style>.a{fill:none;}.b{clip-path:url(#a);}.c,.f{fill:#51e3d4;}.c,.i{opacity:0.35;}.d{fill:#474f85;}.d,.g{opacity:0.3;}.e,.i{fill:#f3ecd3;}.e,.h,.j{opacity:0.61;}.f{opacity:0.28;}.g{fill:#efc130;}.h{fill:rgba(81,227,212,0.6);}.j{fill:rgba(239,193,48,0.32);}</style><clipPath id="a"><rect class="a" width="1920" height="6849"/></clipPath></defs><g class="b"><g transform="translate(89.149 17.667)"><path class="c" d="M1032.591-8.333S732.5,157.2,724.127,485.084s-59.755,417.375-99.888,445.848-313.8,3.753-334.272,275.552S476.3,1477.79,544.308,1540.362s32.555,96.274,69.371,141.45S591,2178.854,569.1,2213.869s-540.021,98.632,0,874.073c0,0-734.1,346.041-183.506,1069.176,75.4,99.028-435-130.736-618.086-109.273-146.715,17.2,41.807,293.72-23.333,297.642,234.262,658.951,548.994,606.145,436.064,720.939-353.091-200.833-886.126,238.112-1035.515,740.423-140.908,473.812,91.625,1007.272,91.625,1007.272H1162V-8.333Z" transform="translate(671.261 17.212)"/><path class="c" d="M883.942,502.412c0,142.427-116.278,283.493-258.706,283.493s-237.6-142.4-257.065-283.493C345.519,338.227,562.6,152.333,705.024,152.333S883.942,359.985,883.942,502.412Z" transform="translate(972.052 394.28)"/><path class="d" d="M981.868,575.482c0,150.072-72.1,459.844-215.316,459.844S218.784,818.9,463.235,575.482C569.58,469.589,579.336,303.75,722.553,303.75S981.868,425.41,981.868,575.482Z" transform="translate(222.74 647.641)"/><path class="e" d="M1243.708,204.974c0,121.857-202.428,256.851-459.085,256.851s-601.994,88.5-470.354-256.851C361.8,80.279,522.329-15.667,778.987-15.667S1243.708,83.117,1243.708,204.974Z" transform="translate(781.446 0)"/><path class="f" d="M668.2,367.378c7.728,97.535-156.394-11.041-350.749,4.358S-27.9,520.676-35.626,423.141,95.107,33.923,289.465,18.524,660.473,269.843,668.2,367.378Z" transform="translate(-192.484 452.351) rotate(-49)"/><path class="g" d="M494.481,219.839c-49.594,106.314-236.757,192.055-303.126,161.1s-79.968-142.25-30.373-248.564S304.588-35.034,370.957-4.072,544.079,113.522,494.481,219.839Z" transform="translate(539.728 -86.416) rotate(45)"/><path class="e" d="M293.111,358.522c26.169,45.551-3.066,164.052-92.107,215.206s-242.788,26.9-248.548-46.087c-4.18-52.985,110.849-3.427,172.8-83.987C211.377,331.666,266.942,312.97,293.111,358.522Z" transform="translate(0 824.059)"/><path class="h" d="M1098.676,721.595c-122.314,172.342-611.16,302.971-789.821,248.189S84.519,730.882,206.833,558.54,573.137,290.9,751.8,345.677,1220.989,549.253,1098.676,721.595Z" transform="translate(-185.709 1128.725)"/><g transform="translate(-251.572 1650.861)"><path class="i" d="M366.531,435.826c0-142.427,193.2-283.493,429.844-283.493s394.777,142.4,427.119,283.493c37.637,164.186-323.04,350.079-559.686,350.079S366.531,578.253,366.531,435.826Z" transform="translate(-149.303 484.443)"/><path class="d" d="M386.424,763.594c0-150.072,72.1-459.844,215.316-459.844s547.768,216.431,303.317,459.844c-106.345,105.893-116.1,271.732-259.318,271.732S386.424,913.666,386.424,763.594Z" transform="translate(847.468 674.773)"/><path class="e" d="M285.315,251.346C285.315,129.488,487.743-5.506,744.4-5.506S1346.394-94,1214.753,251.346c-47.533,124.7-208.06,220.641-464.717,220.641S285.315,373.2,285.315,251.346Z" transform="translate(-332.969 1848.003)"/><path class="e" d="M-38.441,577.84c-26.169-45.551,3.066-164.052,92.107-215.206s242.788-26.9,248.548,46.087c4.18,52.985-110.849,3.427-172.8,83.987C43.294,604.7-12.271,623.391-38.441,577.84Z" transform="translate(2754.85 143.773)"/><path class="e" d="M157.428,591.041C237.825,418.7,559.14,288.07,676.573,342.852s147.455,238.9,67.059,411.244-240.77,267.645-358.2,212.863S77.032,763.383,157.428,591.041Z" transform="translate(1194.822 -345.871)"/><path class="e" d="M285.315,251.346C285.315,129.488,487.743-5.506,744.4-5.506S1346.394-94,1214.753,251.346c-47.533,124.7-208.06,220.641-464.717,220.641S285.315,373.2,285.315,251.346Z" transform="translate(-332.969 1848.003)"/><path class="j" d="M867.026,641.885c-122.314,172.342-379.511,382.681-558.172,327.9S84.519,730.882,206.833,558.54,573.137,290.9,751.8,345.677,989.34,469.539,867.026,641.885Z" transform="translate(23.863 2342.865)"/><path class="d" d="M386.424,763.594c0-150.072,103.007-459.844,307.618-459.844s782.586,216.431,433.343,459.844C975.453,869.487,961.514,1035.326,756.9,1035.326S386.424,913.666,386.424,763.594Z" transform="translate(690.212 2782.773)"/></g></g></g></svg>