<svg xmlns="http://www.w3.org/2000/svg" width="328.574" height="250.063" viewBox="0 0 328.574 250.063"><defs><style>.a{opacity:0.43;}.b{fill:#51e3d4;}.c{fill:#f3ecd3;}.d{fill:#efc130;}.e{fill:#e09ba4;}.f{fill:#f36a7b;}.g{fill:#474f85;}.h{fill:#8c6cb9;}.i{fill:#f9c8c7;}.j{fill:#452775;}.k{fill:#b8abd6;opacity:0.14;}.l{fill:#db9d6a;}.m{fill:#b28560;}.n{opacity:0.07;}.o{fill:#f9fafd;}.p{fill:#a869c5;}.q{fill:#c7cddd;}.r{fill:#e08f8d;}.s{fill:#2c0e57;}.t,.u{fill:#d7d1e8;}.u{opacity:0.19;}.v{fill:#46a2da;}.w{fill:none;stroke:#e8947e;stroke-miterlimit:10;stroke-width:0.15px;}</style></defs><g transform="translate(-105.285 -180.746)"><g transform="translate(105.285 180.746)"><g class="a" transform="translate(0 31.467)"><path class="b" d="M109.7,374.555c-11.714-29.572.65-66.707,27.754-83.353,16.383-10.059,36.165-12.772,53.785-20.458,27.112-11.825,47.632-34.656,71.914-51.544,18.031-12.542,38.553-21.923,60.287-25.105s44.722.137,63.643,11.294c20.086,11.843,34.638,32.033,41.571,54.3s6.567,46.437,1.073,69.1c-2.1,8.663-5,17.278-10.082,24.6s-12.589,13.28-21.335,15" transform="translate(-105.285 -192.947)"/></g><path class="c" d="M412.438,259.612s-303.668,6.9-305.455,7.869c0,0,25.381,40.83,102.446,38.708S415.732,300.38,412.438,259.612Z" transform="translate(-102.602 -56.205)"/><path class="d" d="M169.053,247.009c-8.558,3.105-5.553-6.659-5.857-10.807s-.064-8.485-1.777-12.274c-1.367-3.023-3.956-5.69-3.964-9.006-.008-2.522,1.511-4.769,2.148-7.209.879-3.358.059-6.943.622-10.368a13.467,13.467,0,0,1,14.484-10.763c3.3.431,6.487,2.128,9.783,1.674,3.631-.5,6.355-3.446,9.517-5.3a15.585,15.585,0,0,1,14.706-.676,13.074,13.074,0,0,1,7.069,12.6c-.554,5.089-4.967,9.61-10.077,9.894-2.984.165-5.862-.975-8.759-1.713s-6.2-1.011-8.666.673c-3.113,2.123-4.454,7.015-8.207,7.363-1.981.183-3.76-1.073-5.581-1.875s-4.369-.957-5.4.743c-.854,1.408-.144,3.19.046,4.823.348,2.989-.356,5.973-3.059,7.291-1.091,8.248,1.4,16.158,3.856,24.11" transform="translate(-22.9 -180.746)"/><path class="e" d="M148.772,341.149l-23.1-129.221h74.3l27.5,126.776Z" transform="translate(-73.092 -131.506)"/><path class="f" d="M151.751,340.97,127.4,211.927h74.3L229.2,338.7Z" transform="translate(-70.357 -131.506)"/><path class="g" d="M232.618,241.188c-.4-1.254-3.252-28.595-32.074-27.922-27.019.632-42.056,2.195-51.469,23.215l10.038,39.726,2.081,61.464,77.921-2.512Z" transform="translate(-36.135 -129.411)"/><path class="g" d="M181.49,216.365a52.056,52.056,0,0,0-18.216,18.018c-6.213,10.51-35.945,72.34-24.925,81s84.214,5.906,84.214,5.906l4.759-19.681-57.476-9.842L179.881,271.3Z" transform="translate(-56.904 -124.498)"/><path class="g" d="M175.946,215.04s27.525,18.456,56.243,66.48l-11.6,28.425L190.3,271.518Z" transform="translate(6.3 -126.591)"/><path class="h" d="M164.542,266.129h63.071l3.121-5.385-66.191,1.9Z" transform="translate(-11.709 -54.418)"/><path class="i" d="M172.618,252.148h25.838s15.81,14.087,13.074,14.771-12.39-8.846-12.39-8.846l7.358,16.357s-11.3-1.54-14.972-4.617-7.093-5.476-7.093-5.476l-14.7,1.37Z" transform="translate(-3.518 -67.992)"/><g transform="translate(121.924 92.249)"><path class="j" d="M154.813,216.667a3.879,3.879,0,0,1,.683-.106,4.273,4.273,0,0,1,.838-.044,6.872,6.872,0,0,1,1.145.07,11.677,11.677,0,0,1,6.471,3.211,15.2,15.2,0,0,1,3.043,4.029,16.1,16.1,0,0,1,1.674,5.55c.534,4.083-.211,8.607-1.517,13.1a107.26,107.26,0,0,1-9.272,22.1c-1.506,2.68-2.829,4.787-3.786,6.213-.467.72-.859,1.259-1.117,1.63a3.934,3.934,0,0,1-.418.549,3.968,3.968,0,0,1,.343-.6l1.045-1.674c.91-1.452,2.187-3.58,3.655-6.27a113.234,113.234,0,0,0,9.117-22.077c1.3-4.467,2.04-8.926,1.537-12.927a15.231,15.231,0,0,0-4.524-9.4,11.711,11.711,0,0,0-6.275-3.265A16.1,16.1,0,0,0,154.813,216.667Z" transform="translate(-152.558 -216.513)"/></g><g transform="translate(192.641 108.613)"><path class="j" d="M179.983,222.858a2.852,2.852,0,0,1,.119.547c.065.407.15.931.255,1.578.224,1.424.536,3.392.916,5.8.787,4.949,1.854,11.689,3.033,19.14,1.143,7.482,2.1,14.268,2.651,19.2.276,2.466.451,4.467.547,5.852.036.655.062,1.184.083,1.6a2.622,2.622,0,0,1,0,.557,2.525,2.525,0,0,1-.088-.552c-.044-.41-.1-.936-.165-1.589-.15-1.377-.374-3.368-.691-5.826-.627-4.918-1.638-11.694-2.78-19.173s-2.2-14.247-2.9-19.158c-.348-2.455-.611-4.446-.776-5.824-.07-.653-.126-1.179-.17-1.589A2.617,2.617,0,0,1,179.983,222.858Z" transform="translate(-179.976 -222.858)"/></g><g transform="translate(80.788 166.693)"><path class="k" d="M168.764,269.291c0,1.388-6.448,2.509-14.4,2.509s-14.4-1.122-14.4-2.509,6.45-2.507,14.4-2.507S168.764,267.906,168.764,269.291Z" transform="translate(-131.318 -211.573)"/><path class="d" d="M164.844,258.763s-12.437-4.707-24.035,0v2.687s-4.2-.335-4.2,3.7,1.344,9.414,6.724,11.6l2.352,7.394s10.084,2.52,15.294,0c0,0,1.181-3.871,2.185-7.9C163.89,273.338,164.844,258.763,164.844,258.763Zm-26.189,7.871c-.279-3.4,2.512-2.29,2.512-2.29l1.478,9.607S139.174,272.93,138.656,266.634Z" transform="translate(-136.608 -227.543)"/><path class="l" d="M159.474,258.289s-10.907-2.626-20.525.09C138.949,258.38,148.817,266.643,159.474,258.289Z" transform="translate(-132.911 -226.788)"/><g transform="translate(5.553 42.645)"><path class="m" d="M160.867,261.92a3.542,3.542,0,0,1-.8.389,22.438,22.438,0,0,1-2.288.81,31.157,31.157,0,0,1-15.859.526,21.466,21.466,0,0,1-2.334-.658,3.3,3.3,0,0,1-.825-.335c.023-.077,1.23.3,3.226.681a35.224,35.224,0,0,0,15.707-.521C159.657,262.3,160.839,261.845,160.867,261.92Z" transform="translate(-138.761 -261.912)"/></g><g transform="translate(5.356 40.308)"><path class="m" d="M160.44,261.012a3.248,3.248,0,0,1-.769.441,18.364,18.364,0,0,1-2.218.941,26.418,26.418,0,0,1-15.684.624,18.87,18.87,0,0,1-2.285-.758,3.317,3.317,0,0,1-.8-.379c.028-.077,1.2.371,3.162.83a29.141,29.141,0,0,0,15.506-.622C159.272,261.479,160.407,260.94,160.44,261.012Z" transform="translate(-138.685 -261.005)"/></g><g class="n" transform="translate(5.847)"><path class="o" d="M139.463,276.961c-.944-1.063-.438-2.835.606-3.8a14.274,14.274,0,0,1,3.742-2.007,4.589,4.589,0,0,0,2.811-2.989c.472-2.685-3.064-5.065-2.169-7.639.843-2.419,4.635-2.246,6.1-4.351,1.6-2.306-.578-5.612.415-8.24a4.416,4.416,0,0,1,4.735-2.512,7.1,7.1,0,0,1,4.642,3.188,19.372,19.372,0,0,1,2.275,5.3c.743,2.409,1.4,5.148.157,7.343-.627,1.112-1.744,2.267-1.261,3.448.294.717,1.075,1.083,1.633,1.62,1.37,1.336,1.215,3.6.58,5.4a13.865,13.865,0,0,1-24.855,2.713" transform="translate(-138.875 -245.377)"/></g></g><g transform="translate(183.119 113.097)"><path class="p" d="M180.046,224.6a11.939,11.939,0,0,1-1.692,2.8,12.226,12.226,0,0,1-2.061,2.538,23.677,23.677,0,0,1,3.753-5.336Z" transform="translate(-176.285 -224.597)"/></g><path class="o" d="M161.98,214.4s15.88,41.173,26.967,55.085c0,0,4.655-40.609,0-55.268C188.947,214.217,167.677,211.666,161.98,214.4Z" transform="translate(-15.754 -129.598)"/><path class="i" d="M166.2,189.493l-1.068,24.424s-7.5-.093-7.5,6.793c.01,8.656,8.135,7.2,8.135,7.2s-1.679,16.514,20.976,17.876c26.5,1.594,20.868-39.83,19.844-59.274Z" transform="translate(-22.611 -171.633)"/><path class="i" d="M187.539,202.116,186.224,231.9a11.54,11.54,0,0,1-16.695,9.808c-.1-.049-.193-.1-.289-.142a11.552,11.552,0,0,1-6.363-10.685c.32-10.464.431-28.5.431-28.5Z" transform="translate(-14.346 -147)"/><g transform="translate(144.117 85.125)"><path class="j" d="M190.238,268.514a4.115,4.115,0,0,1-.534-.449c-.343-.3-.836-.766-1.465-1.364-1.259-1.2-3.038-2.974-5.207-5.192s-4.733-4.885-7.691-7.722a56.923,56.923,0,0,1-4.534-4.6,13.5,13.5,0,0,1-3.121-6.208,8.284,8.284,0,0,1,.787-5.517l.34.276a3.2,3.2,0,0,1-3.059.5,4.555,4.555,0,0,1-2.414-1.78A10.547,10.547,0,0,1,162,231.119c-.186-3.446-.351-6.525-.49-9.112-.119-2.54-.219-4.591-.289-6.056-.023-.681-.044-1.223-.057-1.633a2.637,2.637,0,0,1,.008-.567,3.033,3.033,0,0,1,.072.562q.05.615.137,1.628c.1,1.462.245,3.513.423,6.048.168,2.587.364,5.661.585,9.107a10.233,10.233,0,0,0,1.3,5.125,4.11,4.11,0,0,0,2.187,1.6,2.766,2.766,0,0,0,2.641-.42l.983-.861-.642,1.137a7.849,7.849,0,0,0-.732,5.223,13.136,13.136,0,0,0,3.018,6,58.273,58.273,0,0,0,4.483,4.586c2.951,2.863,5.486,5.555,7.632,7.8s3.882,4.052,5.1,5.29l1.4,1.421A3.994,3.994,0,0,1,190.238,268.514Z" transform="translate(-161.163 -213.751)"/></g><g transform="translate(173.192 84.621)"><path class="j" d="M172.436,213.556a1.73,1.73,0,0,1,.343.268c.219.183.534.469.926.854a23.531,23.531,0,0,1,3,3.619,27.089,27.089,0,0,1,1.674,2.847,14.162,14.162,0,0,1,1.388,3.6,10.958,10.958,0,0,1,.134,4.325,8.061,8.061,0,0,1-2.089,4.24l.008-.3a6.825,6.825,0,0,1,1.537,3.208,13.286,13.286,0,0,1,.137,3.693c-.188,2.058-.614,4.005-.947,5.9-.356,1.893-.72,3.714-1.086,5.447-.73,3.466-1.47,6.569-2.125,9.164s-1.238,4.681-1.658,6.12c-.206.681-.371,1.228-.5,1.648a3.23,3.23,0,0,1-.2.567,2.971,2.971,0,0,1,.116-.591c.106-.428.245-.983.418-1.674.366-1.449.9-3.546,1.517-6.149s1.323-5.708,2.03-9.169c.353-1.733.709-3.554,1.057-5.445.328-1.9.745-3.853.931-5.862a12.825,12.825,0,0,0-.126-3.567,6.4,6.4,0,0,0-1.424-3l-.134-.152L177.5,233A7.647,7.647,0,0,0,179.5,229a10.71,10.71,0,0,0-.1-4.173,14.106,14.106,0,0,0-1.315-3.528,27.855,27.855,0,0,0-1.609-2.842,25.93,25.93,0,0,0-2.881-3.668l-.869-.9A1.82,1.82,0,0,1,172.436,213.556Z" transform="translate(-172.436 -213.556)"/></g><g transform="translate(172.802 140.047)"><path class="j" d="M175.321,279.154c-.121.008-.9-9.86-1.733-22.036s-1.411-22.062-1.287-22.072.9,9.857,1.736,22.039S175.448,279.147,175.321,279.154Z" transform="translate(-172.285 -235.046)"/></g><g transform="translate(177.416 151.451)"><path class="j" d="M176.464,239.861c-.005-.023.2-.1.6-.062a2.344,2.344,0,0,1,1.465.756,2.4,2.4,0,0,1,.451,2.4,2.441,2.441,0,0,1-2.491,1.6,2.658,2.658,0,0,1-2.28-1.909,2.631,2.631,0,0,1,.384-2.419,2.035,2.035,0,0,1,1.467-.761c.4-.013.6.1.591.124s-.217-.013-.573.049a1.979,1.979,0,0,0-1.233.781,2.356,2.356,0,0,0-.245,2.094,2.284,2.284,0,0,0,1.922,1.591,2.051,2.051,0,0,0,2.068-1.292,2.106,2.106,0,0,0-.3-2.056,2.372,2.372,0,0,0-1.256-.789C176.678,239.879,176.466,239.9,176.464,239.861Z" transform="translate(-174.073 -239.468)"/></g><g transform="translate(178.821 168.959)"><path class="j" d="M177.009,246.649c-.005-.023.206-.1.6-.062a2.369,2.369,0,0,1,1.468.756,2.4,2.4,0,0,1,.449,2.4,2.438,2.438,0,0,1-2.489,1.6,2.668,2.668,0,0,1-2.285-1.909,2.64,2.64,0,0,1,.387-2.419,2.039,2.039,0,0,1,1.468-.761c.4-.013.6.1.591.124s-.217-.013-.573.052a1.957,1.957,0,0,0-1.23.779,2.353,2.353,0,0,0-.248,2.1,2.285,2.285,0,0,0,1.921,1.589,2.045,2.045,0,0,0,2.068-1.292,2.107,2.107,0,0,0-.3-2.056,2.372,2.372,0,0,0-1.256-.789C177.223,246.669,177.012,246.687,177.009,246.649Z" transform="translate(-174.618 -246.256)"/></g><g transform="translate(178.994 153.184)"><path class="j" d="M175.116,240.211a.283.283,0,0,1-.291.436c-.124-.013-.2-.2-.083-.369S175.054,240.105,175.116,240.211Z" transform="translate(-174.685 -240.139)"/></g><g transform="translate(180.333 154.19)"><path class="j" d="M175.551,240.562a.229.229,0,1,1-.312.075A.229.229,0,0,1,175.551,240.562Z" transform="translate(-175.204 -240.529)"/></g><g transform="translate(180.225 170.635)"><path class="j" d="M175.618,246.943a.275.275,0,0,1-.018.382.236.236,0,1,1,.018-.382Z" transform="translate(-175.162 -246.905)"/></g><g transform="translate(181.511 171.976)"><path class="j" d="M176.233,247.476c.085.093.034.276-.116.41s-.333.165-.415.075-.034-.276.113-.407S176.151,247.386,176.233,247.476Z" transform="translate(-175.661 -247.425)"/></g><g transform="translate(165.478 178.072)"><path class="j" d="M173.869,249.789c.121.023-.769,5.12-1.986,11.382s-2.3,11.317-2.427,11.294.769-5.12,1.986-11.379S173.745,249.766,173.869,249.789Z" transform="translate(-169.445 -249.789)"/></g><g transform="translate(155.575 176.702)"><path class="j" d="M170.366,249.258c.121.026-.843,5.024-2.156,11.157s-2.473,11.093-2.595,11.067.843-5.022,2.154-11.16S170.242,249.232,170.366,249.258Z" transform="translate(-165.605 -249.258)"/></g><g transform="translate(124.396 169.295)"><path class="j" d="M199.768,255.307c-.023.121-10.4-1.774-23.168-4.238s-23.107-4.555-23.083-4.679,10.394,1.774,23.168,4.238S199.791,255.184,199.768,255.307Z" transform="translate(-153.516 -246.386)"/></g><g transform="translate(125.177 197.144)"><path class="j" d="M194.131,260.406c-.01.126-9.042-.49-20.171-1.377s-20.148-1.7-20.141-1.829,9.042.493,20.177,1.38S194.141,260.282,194.131,260.406Z" transform="translate(-153.819 -257.184)"/></g><g transform="translate(176.27 196.807)"><path class="j" d="M174.612,266.828a23.259,23.259,0,0,1-.753-9.775c.134.005.093,2.2.307,4.9S174.741,266.8,174.612,266.828Z" transform="translate(-173.629 -257.053)"/></g><g transform="translate(181.016 127.393)"><path class="j" d="M187.666,230.19a41.47,41.47,0,0,1-6.082.7,41.221,41.221,0,0,1-6.115.255,41.9,41.9,0,0,1,6.082-.7A41.644,41.644,0,0,1,187.666,230.19Z" transform="translate(-175.469 -230.14)"/></g><g transform="translate(196.866 130.383)"><path class="j" d="M216.279,273.932c-.1.08-7.936-9.4-17.5-21.172S181.52,231.377,181.616,231.3s7.933,9.4,17.507,21.175S216.375,273.855,216.279,273.932Z" transform="translate(-181.615 -231.299)"/></g><g transform="translate(128.32 137.94)"><path class="j" d="M157.393,266.587c-.124.008-.745-7.227-1.39-16.161s-1.068-16.187-.944-16.2.748,7.227,1.393,16.163S157.517,266.577,157.393,266.587Z" transform="translate(-155.038 -234.229)"/></g><g transform="translate(132.725 197.952)"><path class="j" d="M158.429,267.553A16.727,16.727,0,0,1,157,257.5c.137.008-.026,2.3.377,5.076C157.763,265.353,158.558,267.507,158.429,267.553Z" transform="translate(-156.745 -257.497)"/></g><g transform="translate(186.617 121.012)"><path class="p" d="M180.3,230.819c-.093.08-.763-.56-1.5-1.429s-1.248-1.638-1.153-1.718.766.56,1.5,1.429S180.4,230.736,180.3,230.819Z" transform="translate(-177.641 -227.665)"/></g><g transform="translate(144.975 139.223)"><path class="p" d="M164.332,234.73a14.118,14.118,0,0,1-2.824,4.132,13.984,13.984,0,0,1,2.824-4.132Z" transform="translate(-161.495 -234.726)"/></g><g transform="translate(132.617 143.889)"><path class="p" d="M161.04,240.653a19.734,19.734,0,0,1-4.33-4.111,20.053,20.053,0,0,1,4.33,4.111Z" transform="translate(-156.704 -236.535)"/></g><g transform="translate(137.463 131.642)"><path class="p" d="M160.214,236.744a6.135,6.135,0,0,1-1.527-4.957c.132,0,.222,1.163.645,2.515S160.325,236.672,160.214,236.744Z" transform="translate(-158.582 -231.787)"/></g><g transform="translate(140.894 123.854)"><path class="p" d="M163.9,231.753a4.8,4.8,0,0,1-2.257-1.13,4.87,4.87,0,0,1-1.718-1.849,13.806,13.806,0,0,1,1.988,1.488A14,14,0,0,1,163.9,231.753Z" transform="translate(-159.913 -228.767)"/></g><g transform="translate(159.188 136.972)"><path class="p" d="M169.312,233.857a5.924,5.924,0,0,1-.952,2.061,5.859,5.859,0,0,1-1.339,1.834,11.425,11.425,0,0,1,2.29-3.895Z" transform="translate(-167.006 -233.854)"/></g><g transform="translate(154.395 127.835)"><path class="p" d="M165.727,236.1a10.986,10.986,0,0,1-.33-5.793,67.924,67.924,0,0,1,.33,5.793Z" transform="translate(-165.147 -230.311)"/></g><g transform="translate(153.926 147.204)"><path class="p" d="M165.975,243.794a8.854,8.854,0,0,1-.784-5.973c.132.01.1,1.362.315,3S166.1,243.751,165.975,243.794Z" transform="translate(-164.966 -237.821)"/></g><g transform="translate(145.191 153.493)"><path class="p" d="M164.906,244.9a8.945,8.945,0,0,1-3.312-4.637,19.612,19.612,0,0,1,1.643,2.329A19.347,19.347,0,0,1,164.906,244.9Z" transform="translate(-161.579 -240.259)"/></g><g transform="translate(135.95 160.956)"><path class="p" d="M161.475,243.166c.072.1-.647.74-1.607,1.426a5.234,5.234,0,0,1-1.867,1.06c-.072-.1.647-.738,1.607-1.426A5.285,5.285,0,0,1,161.475,243.166Z" transform="translate(-157.996 -243.153)"/></g><g transform="translate(132.116 153.65)"><path class="p" d="M158.293,242.87c-.072.093-.709-.294-1.215-1.039s-.645-1.478-.531-1.509.431.57.9,1.253S158.376,242.77,158.293,242.87Z" transform="translate(-156.509 -240.32)"/></g><g transform="translate(146.797 168.048)"><path class="p" d="M163.536,245.9a12.169,12.169,0,0,1-1.3,4.477,12.171,12.171,0,0,1,1.3-4.477Z" transform="translate(-162.201 -245.903)"/></g><g transform="translate(154.588 165.916)"><path class="p" d="M167.6,249.7a6.688,6.688,0,0,1-2.347-4.624,22.425,22.425,0,0,1,1.109,2.344A22.885,22.885,0,0,1,167.6,249.7Z" transform="translate(-165.222 -245.076)"/></g><g transform="translate(163.572 167.736)"><path class="p" d="M173.181,248.77a16.022,16.022,0,0,1-4.472-2.976,16.276,16.276,0,0,1,4.472,2.976Z" transform="translate(-168.706 -245.781)"/></g><g transform="translate(165.29 157.858)"><path class="p" d="M173.352,241.961a15.019,15.019,0,0,1-3.974,3.312,14.914,14.914,0,0,1,3.974-3.312Z" transform="translate(-169.372 -241.951)"/></g><g transform="translate(158.399 157.775)"><path class="p" d="M168.057,241.929c.1.075-.116.539-.485,1.042s-.745.849-.849.774.119-.539.487-1.039S167.956,241.857,168.057,241.929Z" transform="translate(-166.7 -241.919)"/></g><g transform="translate(162.567 146.729)"><path class="p" d="M172.647,241.421a18.145,18.145,0,0,1-2.164-1.885,18.466,18.466,0,0,1-2.164-1.888,9.41,9.41,0,0,1,4.328,3.773Z" transform="translate(-168.316 -237.636)"/></g><g transform="translate(145.119 113.92)"><path class="p" d="M161.559,230.949c-.1-.083.792-1.29,1.573-2.948s1.163-3.113,1.292-3.085a9.534,9.534,0,0,1-2.865,6.033Z" transform="translate(-161.551 -224.916)"/></g><g transform="translate(140.294 109.124)"><path class="p" d="M160.307,229.181a12.719,12.719,0,0,1-.42-6.125,15.807,15.807,0,0,1,.286,3.059A15.96,15.96,0,0,1,160.307,229.181Z" transform="translate(-159.68 -223.056)"/></g><g transform="translate(137.737 94.887)"><path class="p" d="M162.022,220.015a3,3,0,0,1-1.991-.792c-.977-.722-1.429-1.625-1.328-1.682.111-.075.691.655,1.6,1.321S162.063,219.888,162.022,220.015Z" transform="translate(-158.689 -217.536)"/></g><g transform="translate(134.777 88.579)"><path class="p" d="M160.693,215.118c.052.113-.611.536-1.478.947s-1.617.653-1.671.539.609-.534,1.478-.944S160.639,215.007,160.693,215.118Z" transform="translate(-157.541 -215.09)"/></g><g transform="translate(148.733 98.03)"><path class="p" d="M163.037,222.892a5.071,5.071,0,0,1,.026-2.094,5,5,0,0,1,.472-2.043,9.668,9.668,0,0,1-.5,4.137Z" transform="translate(-162.952 -218.755)"/></g><g transform="translate(153.974 113.406)"><path class="p" d="M166.98,226.229c-.072.1-.578-.155-1.127-.567s-.934-.825-.859-.923.58.152,1.13.565S167.054,226.129,166.98,226.229Z" transform="translate(-164.984 -224.716)"/></g><g transform="translate(177.008 110.278)"><path class="p" d="M175.031,223.5a12.614,12.614,0,0,1-1.073,4.617,12.581,12.581,0,0,1,1.073-4.617Z" transform="translate(-173.915 -223.504)"/></g><g transform="translate(176.79 96.708)"><path class="p" d="M175.691,220.56c-.057.106-.73-.183-1.269-.877s-.668-1.411-.552-1.439.415.544.905,1.161S175.761,220.452,175.691,220.56Z" transform="translate(-173.83 -218.242)"/></g><g transform="translate(182.605 101.671)"><path class="p" d="M178.256,220.17a4.841,4.841,0,0,1-.885,1.857c-.6.962-1.163,1.687-1.269,1.62a4.857,4.857,0,0,1,.885-1.857C177.583,220.831,178.15,220.106,178.256,220.17Z" transform="translate(-176.085 -220.166)"/></g><g transform="translate(189.407 102.168)"><path class="p" d="M178.843,225.494a14.742,14.742,0,0,1,.307-5.135,7.572,7.572,0,0,1,.07,2.582A7.667,7.667,0,0,1,178.843,225.494Z" transform="translate(-178.722 -220.359)"/></g><g transform="translate(182.245 90.444)"><path class="p" d="M179.6,220.287a18.56,18.56,0,0,1-3.644-4.47,18.69,18.69,0,0,1,3.644,4.47Z" transform="translate(-175.946 -215.813)"/></g><g transform="translate(126.057 106.965)"><path class="p" d="M154.206,228.345a21.643,21.643,0,0,1,1-6.125,21.442,21.442,0,0,1-1,6.125Z" transform="translate(-154.16 -222.219)"/></g><g transform="translate(116.736 102.581)"><path class="p" d="M155.175,220.6a11.076,11.076,0,0,1-2.3.629,10.921,10.921,0,0,1-2.324.552,4.744,4.744,0,0,1,2.213-.988A4.679,4.679,0,0,1,155.175,220.6Z" transform="translate(-150.546 -220.519)"/></g><g transform="translate(125.001 95.541)"><path class="p" d="M156.738,220.78c-.088.088-.825-.508-1.648-1.331s-1.419-1.563-1.331-1.651.825.508,1.648,1.333S156.826,220.692,156.738,220.78Z" transform="translate(-153.751 -217.79)"/></g><g transform="translate(132.886 105.649)"><path class="p" d="M157.373,226.842a7.144,7.144,0,0,1-.165-5.133,17.346,17.346,0,0,1,.054,2.569A16.608,16.608,0,0,1,157.373,226.842Z" transform="translate(-156.808 -221.709)"/></g><g transform="translate(126.622 123.16)"><path class="p" d="M154.4,233a13.457,13.457,0,0,1,1.924-4.5A13.4,13.4,0,0,1,154.4,233Z" transform="translate(-154.379 -228.498)"/></g><g transform="translate(120.511 116.898)"><path class="p" d="M152.039,229.557a3.394,3.394,0,0,1,.766-2c.665-1,1.475-1.571,1.55-1.478s-.547.781-1.174,1.728S152.16,229.6,152.039,229.557Z" transform="translate(-152.01 -226.07)"/></g><g transform="translate(112.428 113.272)"><path class="p" d="M148.894,229.964a9.52,9.52,0,0,1,.952-2.739,9.385,9.385,0,0,1,1.364-2.559,9.493,9.493,0,0,1-.952,2.739A9.3,9.3,0,0,1,148.894,229.964Z" transform="translate(-148.876 -224.664)"/></g><g transform="translate(107.184 111.277)"><path class="p" d="M146.908,229.183a16.04,16.04,0,0,1,.7-5.292,16.041,16.041,0,0,1-.7,5.292Z" transform="translate(-146.843 -223.891)"/></g><g transform="translate(101.278 126.364)"><path class="p" d="M146.9,233.711a11.848,11.848,0,0,1-2.329-3.967,6.137,6.137,0,0,1,1.359,1.87A6.03,6.03,0,0,1,146.9,233.711Z" transform="translate(-144.553 -229.741)"/></g><g transform="translate(108.557 121.384)"><path class="p" d="M148.76,232.437a12.96,12.96,0,0,1-1.352-4.627,6.717,6.717,0,0,1,.892,2.252A6.567,6.567,0,0,1,148.76,232.437Z" transform="translate(-147.375 -227.81)"/></g><g transform="translate(113.074 130.982)"><path class="p" d="M154.284,231.549a18.983,18.983,0,0,1-2.569,1.573,18.793,18.793,0,0,1-2.584,1.54,10.685,10.685,0,0,1,5.153-3.113Z" transform="translate(-149.126 -231.531)"/></g><g transform="translate(120.208 138.759)"><path class="p" d="M151.9,239.523a18.241,18.241,0,0,1,1.318-2.489,18.011,18.011,0,0,1,1.318-2.486,9,9,0,0,1-2.636,4.975Z" transform="translate(-151.892 -234.547)"/></g><g transform="translate(114.114 139.423)"><path class="p" d="M149.639,240.929a21.041,21.041,0,0,1,.351-6.125,21.054,21.054,0,0,1-.351,6.125Z" transform="translate(-149.529 -234.804)"/></g><g transform="translate(103.777 137.448)"><path class="p" d="M150.206,238.809a7.525,7.525,0,0,1-4.671-4.769c.121-.062.8,1.305,2.1,2.615C148.917,237.981,150.268,238.688,150.206,238.809Z" transform="translate(-145.522 -234.038)"/></g><g transform="translate(98.348 135.951)"><path class="p" d="M143.464,238.593a7.79,7.79,0,0,1,.273-2.608,7.9,7.9,0,0,1,.714-2.528,7.8,7.8,0,0,1-.273,2.61A7.687,7.687,0,0,1,143.464,238.593Z" transform="translate(-143.417 -233.458)"/></g><g transform="translate(111.42 152.652)"><path class="p" d="M151.645,239.948c.067.108-.7.7-1.553,1.514S148.6,243,148.5,242.927s.389-.947,1.284-1.792A3.892,3.892,0,0,1,151.645,239.948Z" transform="translate(-148.485 -239.933)"/></g><g transform="translate(102.56 151.014)"><path class="p" d="M145.321,245.091a9.629,9.629,0,0,1-.268-2.894,9.468,9.468,0,0,1,.186-2.9,18.8,18.8,0,0,1,.083,5.793Z" transform="translate(-145.05 -239.298)"/></g><g transform="translate(92.193 158.01)"><path class="p" d="M146.191,244.14a10.019,10.019,0,0,1-5.158-2.115,14.152,14.152,0,0,1,2.6,1.008A14.413,14.413,0,0,1,146.191,244.14Z" transform="translate(-141.03 -242.01)"/></g><g transform="translate(93.489 146.374)"><path class="p" d="M142.3,242.629a14.978,14.978,0,0,1-.7-5.13,15,15,0,0,1,.7,5.13Z" transform="translate(-141.533 -237.499)"/></g><g transform="translate(99.512 165.664)"><path class="p" d="M148.5,245.032a12.423,12.423,0,0,1-4.632.846,6.263,6.263,0,0,1,2.275-.645A6.418,6.418,0,0,1,148.5,245.032Z" transform="translate(-143.868 -244.978)"/></g><g transform="translate(88.186 164.585)"><path class="p" d="M140.061,249.527a14,14,0,0,1-.5-4.967,14.017,14.017,0,0,1,.5,4.967Z" transform="translate(-139.477 -244.56)"/></g><g transform="translate(82.423 173.362)"><path class="p" d="M138.426,253.1a15.407,15.407,0,0,1-1.143-5.135,15.407,15.407,0,0,1,1.143,5.135Z" transform="translate(-137.242 -247.963)"/></g><g transform="translate(83.779 182.935)"><path class="p" d="M141.908,251.693a12.268,12.268,0,0,1-4.137,2.156,12.2,12.2,0,0,1,4.137-2.156Z" transform="translate(-137.768 -251.675)"/></g><g transform="translate(90.576 175.837)"><path class="p" d="M143.162,254.105a6.4,6.4,0,0,1-1.8-2.368,6.325,6.325,0,0,1-.939-2.814,22.5,22.5,0,0,1,1.339,2.6A22.05,22.05,0,0,1,143.162,254.105Z" transform="translate(-140.403 -248.923)"/></g><g transform="translate(99.043 174.069)"><path class="p" d="M145.282,252.015a4.889,4.889,0,0,1-.993-1.8,4.8,4.8,0,0,1-.575-1.973,9.336,9.336,0,0,1,1.568,3.776Z" transform="translate(-143.686 -248.237)"/></g><g transform="translate(92.554 185.606)"><path class="p" d="M145.645,252.717a19.929,19.929,0,0,1-4.47,3.972,20.253,20.253,0,0,1,4.47-3.972Z" transform="translate(-141.17 -252.71)"/></g><g transform="translate(103.428 183.318)"><path class="p" d="M149.473,257.543a13.381,13.381,0,0,1-4.075-5.718,30.27,30.27,0,0,1,2.025,2.868A29.389,29.389,0,0,1,149.473,257.543Z" transform="translate(-145.386 -251.823)"/></g><g transform="translate(100.175 192.951)"><path class="p" d="M148.76,255.671a6.226,6.226,0,0,1-2.3.389,6.1,6.1,0,0,1-2.334-.059,12.114,12.114,0,0,1,4.635-.33Z" transform="translate(-144.125 -255.558)"/></g><g transform="translate(109.38 169.238)"><path class="p" d="M149.912,253.635a32.069,32.069,0,0,1-2.2-7.271,15.955,15.955,0,0,1,1.315,3.57A16.228,16.228,0,0,1,149.912,253.635Z" transform="translate(-147.694 -246.364)"/></g><g transform="translate(116.24 172.538)"><path class="p" d="M156.152,247.7a9.775,9.775,0,0,1-2.868.627,9.624,9.624,0,0,1-2.93.181,19.132,19.132,0,0,1,5.8-.807Z" transform="translate(-150.354 -247.643)"/></g><g transform="translate(112.918 183.408)"><path class="p" d="M152.714,251.909a9.214,9.214,0,0,1-1.821.83,9.33,9.33,0,0,1-1.821.828c-.077-.09.586-.766,1.635-1.238A3.221,3.221,0,0,1,152.714,251.909Z" transform="translate(-149.066 -251.858)"/></g><g transform="translate(116.696 188.617)"><path class="p" d="M154.867,258.325a10.86,10.86,0,0,1-2.326-2.063,10.745,10.745,0,0,1-2-2.378,21.465,21.465,0,0,1,4.33,4.441Z" transform="translate(-150.531 -253.878)"/></g><g transform="translate(126.126 179.818)"><path class="p" d="M154.228,255.766a12.833,12.833,0,0,1,.188-2.654,12.608,12.608,0,0,1,.309-2.646,9.285,9.285,0,0,1-.5,5.3Z" transform="translate(-154.187 -250.466)"/></g><g transform="translate(127.347 190.963)"><path class="p" d="M160.3,254.8a10.78,10.78,0,0,1-2.729,1.439,10.574,10.574,0,0,1-2.909,1.024A21.232,21.232,0,0,1,160.3,254.8Z" transform="translate(-154.66 -254.787)"/></g><g transform="translate(133.633 173.015)"><path class="p" d="M160.418,253.793a25.941,25.941,0,0,1-3.309-5.963,26.058,26.058,0,0,1,3.309,5.963Z" transform="translate(-157.097 -247.828)"/></g><g transform="translate(134.206 183.557)"><path class="p" d="M162.855,252.174a21.654,21.654,0,0,1-2.77.242,20.468,20.468,0,0,1-2.765.317,8.161,8.161,0,0,1,5.535-.56Z" transform="translate(-157.32 -251.916)"/></g><g transform="translate(145.532 176.169)"><path class="p" d="M165.69,254.026c-.116.059-.838-1.168-1.932-2.528s-2.125-2.339-2.043-2.44a9.949,9.949,0,0,1,3.974,4.967Z" transform="translate(-161.711 -249.051)"/></g><g transform="translate(142.899 189.302)"><path class="p" d="M165.012,254.171a6.15,6.15,0,0,1-2.081,1.014,6.048,6.048,0,0,1-2.239.6,11.887,11.887,0,0,1,4.32-1.609Z" transform="translate(-160.69 -254.143)"/></g><g transform="translate(162.014 188.927)"><path class="p" d="M168.866,258.958a14.027,14.027,0,0,1-.7-4.96,14.045,14.045,0,0,1,.7,4.96Z" transform="translate(-168.102 -253.998)"/></g><g transform="translate(164.865 178.332)"><path class="p" d="M169.264,255.683a9.629,9.629,0,0,1,.191-2.927,9.838,9.838,0,0,1,.64-2.865,9.629,9.629,0,0,1-.191,2.927A9.837,9.837,0,0,1,169.264,255.683Z" transform="translate(-169.207 -249.89)"/></g><g transform="translate(151.165 186.61)"><path class="p" d="M167.217,253.1a40.871,40.871,0,0,1-3.309,7.946,41.3,41.3,0,0,1,3.309-7.946Z" transform="translate(-163.895 -253.1)"/></g><g transform="translate(125.748 151.181)"><path class="p" d="M154.935,245.323a20.2,20.2,0,0,1-.838-5.96,20.2,20.2,0,0,1,.838,5.96Z" transform="translate(-154.04 -239.363)"/></g><g transform="translate(126.76 163.76)"><path class="p" d="M155.158,247.719c-.106.052-.542-.668-.678-1.676a2.568,2.568,0,0,1,.191-1.8c.129.018.119.8.255,1.738S155.277,247.668,155.158,247.719Z" transform="translate(-154.433 -244.24)"/></g><g transform="translate(128.44 201.505)"><path class="p" d="M156.123,263.015a10.077,10.077,0,0,1-.993-4.14,10.241,10.241,0,0,1,.993,4.14Z" transform="translate(-155.084 -258.875)"/></g><g transform="translate(135.612 201.955)"><path class="p" d="M163.493,260.9a19.337,19.337,0,0,1-5.628-1.821,19.538,19.538,0,0,1,5.628,1.821Z" transform="translate(-157.865 -259.049)"/></g><g transform="translate(147.85 201.827)"><path class="p" d="M166.092,259.011c.077.1-.637.8-1.6,1.584a5.74,5.74,0,0,1-1.88,1.23c-.077-.1.637-.8,1.6-1.581A5.726,5.726,0,0,1,166.092,259.011Z" transform="translate(-162.61 -259)"/></g><g transform="translate(156.465 202.447)"><path class="p" d="M170.755,260.942a15.177,15.177,0,0,1-2.4-.828,15.025,15.025,0,0,1-2.4-.818,7.306,7.306,0,0,1,4.8,1.646Z" transform="translate(-165.95 -259.24)"/></g><g transform="translate(170.837 200.006)"><path class="p" d="M173.54,258.3c.09.09-.418.748-.954,1.6s-.91,1.591-1.032,1.545.08-.89.65-1.787S173.458,258.217,173.54,258.3Z" transform="translate(-171.523 -258.294)"/></g><g transform="translate(172.264 171.216)"><path class="p" d="M172.958,252.594a16.931,16.931,0,0,1-.825-5.463,17.123,17.123,0,0,1,.825,5.463Z" transform="translate(-172.076 -247.131)"/></g><g transform="translate(178.819 178.97)"><path class="p" d="M178.586,252.973a6.845,6.845,0,0,1-2.112-1.228,6.737,6.737,0,0,1-1.852-1.6,6.811,6.811,0,0,1,2.112,1.228A6.687,6.687,0,0,1,178.586,252.973Z" transform="translate(-174.617 -250.137)"/></g><g transform="translate(193.052 160.143)"><path class="p" d="M180.157,249.441a13.6,13.6,0,0,1,.892-3.374,13.936,13.936,0,0,1,1.32-3.229,13.572,13.572,0,0,1-.892,3.374A13.743,13.743,0,0,1,180.157,249.441Z" transform="translate(-180.136 -242.838)"/></g><g transform="translate(183.195 162.657)"><path class="p" d="M180.2,246.919a7.069,7.069,0,0,1-2.081-1.372c-1.07-.856-1.875-1.627-1.8-1.725A7.081,7.081,0,0,1,178.4,245.2C179.471,246.05,180.276,246.822,180.2,246.919Z" transform="translate(-176.314 -243.812)"/></g><g transform="translate(188.087 154.001)"><path class="p" d="M180.221,240.458a12.569,12.569,0,0,1-1.989,4.3,12.569,12.569,0,0,1,1.989-4.3Z" transform="translate(-178.211 -240.456)"/></g><g transform="translate(176.793 160.448)"><path class="p" d="M175.689,247.261a7.4,7.4,0,0,1-1.821-4.3,39.07,39.07,0,0,1,1.821,4.3Z" transform="translate(-173.832 -242.956)"/></g><g transform="translate(184.275 142.731)"><path class="p" d="M180.048,236.091a5.7,5.7,0,0,1-3.312,3.144c-.064-.111.776-.691,1.674-1.553S179.939,236.021,180.048,236.091Z" transform="translate(-176.733 -236.086)"/></g><g transform="translate(175.49 140.577)"><path class="p" d="M175.824,238.9c-.1.07-.743-.689-1.429-1.694a5.622,5.622,0,0,1-1.055-1.95c.1-.07.743.689,1.429,1.694A5.651,5.651,0,0,1,175.824,238.9Z" transform="translate(-173.327 -235.251)"/></g><g transform="translate(183.444 133.119)"><path class="p" d="M180.224,234.694a5.747,5.747,0,0,1-2.022-.967c-1.052-.64-1.852-1.246-1.787-1.351a5.725,5.725,0,0,1,2.022.967C179.489,233.983,180.288,234.589,180.224,234.694Z" transform="translate(-176.411 -232.36)"/></g><g transform="translate(193.51 136.607)"><path class="p" d="M180.413,240.671a26.977,26.977,0,0,1,.41-6.959,26.988,26.988,0,0,1-.41,6.959Z" transform="translate(-180.313 -233.712)"/></g><g transform="translate(188.658 173.841)"><path class="p" d="M178.452,253.935a21.4,21.4,0,0,1,2.179-5.785,10.645,10.645,0,0,1-.879,2.974A10.778,10.778,0,0,1,178.452,253.935Z" transform="translate(-178.432 -248.149)"/></g><g transform="translate(197.487 175.028)"><path class="p" d="M181.89,254.229a9.383,9.383,0,0,1,.464-2.863,9.618,9.618,0,0,1,.9-2.757,18.658,18.658,0,0,1-1.367,5.62Z" transform="translate(-181.856 -248.609)"/></g><g transform="translate(182.489 199.357)"><path class="p" d="M177.67,262.5a5.231,5.231,0,0,1-1.532-4.462c.132,0,.235,1.052.66,2.267S177.778,262.429,177.67,262.5Z" transform="translate(-176.04 -258.042)"/></g><g transform="translate(210.037 128.002)"><path class="p" d="M187.079,236.339a10,10,0,0,1,.214-5.963,20.784,20.784,0,0,1-.113,2.979A20.913,20.913,0,0,1,187.079,236.339Z" transform="translate(-186.721 -230.376)"/></g><g transform="translate(200.828 126.818)"><path class="p" d="M187.459,231.109a5.642,5.642,0,0,1-2.21-.358,5.723,5.723,0,0,1-2.1-.794,5.709,5.709,0,0,1,2.213.358A5.776,5.776,0,0,1,187.459,231.109Z" transform="translate(-183.151 -229.916)"/></g><g transform="translate(205.924 113.761)"><path class="p" d="M185.305,231.145a11.111,11.111,0,0,1-.173-3.149,11.223,11.223,0,0,1,.276-3.141,22.162,22.162,0,0,1-.1,6.291Z" transform="translate(-185.127 -224.854)"/></g><g transform="translate(196.702 115.574)"><path class="p" d="M186.5,226.073a13.777,13.777,0,0,1-4.944-.418,13.778,13.778,0,0,1,4.944.418Z" transform="translate(-181.551 -225.557)"/></g><g transform="translate(197.569 103.168)"><path class="p" d="M182.333,225.214a11.327,11.327,0,0,1-.333-4.467,11.194,11.194,0,0,1,.333,4.467Z" transform="translate(-181.887 -220.747)"/></g><g transform="translate(201.517 143.533)"><path class="p" d="M186.572,240.544a15.108,15.108,0,0,1-3.144-4.142,7.663,7.663,0,0,1,1.751,1.934A7.8,7.8,0,0,1,186.572,240.544Z" transform="translate(-183.418 -236.397)"/></g><g transform="translate(208.667 148.687)"><path class="p" d="M186.285,243.534a14.873,14.873,0,0,1,.433-5.138,14.877,14.877,0,0,1-.433,5.138Z" transform="translate(-186.19 -238.396)"/></g><g transform="translate(211.599 157.73)"><path class="p" d="M191.464,241.987a9.723,9.723,0,0,1-4.137.5,9.71,9.71,0,0,1,4.137-.5Z" transform="translate(-187.327 -241.902)"/></g><g transform="translate(217.67 162.758)"><path class="p" d="M191.035,243.853a5.116,5.116,0,0,1-.446,2.058,5,5,0,0,1-.874,1.916,9.835,9.835,0,0,1,1.321-3.974Z" transform="translate(-189.681 -243.851)"/></g><g transform="translate(223.336 170.213)"><path class="p" d="M192.89,246.75c.106.08-.328.761-.506,1.7-.193.944-.052,1.738-.178,1.772a2.151,2.151,0,0,1-.263-1.857C192.147,247.3,192.807,246.662,192.89,246.75Z" transform="translate(-191.878 -246.742)"/></g><g transform="translate(220.865 157.699)"><path class="p" d="M196.386,242.156a19.173,19.173,0,0,1-2.734.227,19.1,19.1,0,0,1-2.731.271,8.2,8.2,0,0,1,5.465-.5Z" transform="translate(-190.92 -241.89)"/></g><g transform="translate(231.331 155.813)"><path class="p" d="M195.789,241.16a19.321,19.321,0,0,1-.307,2.726,18.677,18.677,0,0,1-.261,2.729,8.162,8.162,0,0,1,.567-5.455Z" transform="translate(-194.977 -241.159)"/></g><g transform="translate(218.095 139.25)"><path class="p" d="M189.916,241.528a13.178,13.178,0,0,1,.1-3.417,12.955,12.955,0,0,1,.547-3.374,13.231,13.231,0,0,1-.1,3.415A13.051,13.051,0,0,1,189.916,241.528Z" transform="translate(-189.846 -234.737)"/></g><g transform="translate(210.428 138.922)"><path class="p" d="M191.333,235.536a11.607,11.607,0,0,1-4.459-.874,11.607,11.607,0,0,1,4.459.874Z" transform="translate(-186.873 -234.61)"/></g><g transform="translate(217.003 124.848)"><path class="p" d="M190.151,234.951a8.363,8.363,0,0,1-.374-5.8,28.341,28.341,0,0,1,.116,2.9A28.274,28.274,0,0,1,190.151,234.951Z" transform="translate(-189.422 -229.153)"/></g><g transform="translate(211.096 121.117)"><path class="p" d="M189.781,228.152c-.015.124-.622.15-1.352.057s-1.313-.268-1.3-.392.622-.147,1.354-.054S189.8,228.03,189.781,228.152Z" transform="translate(-187.132 -227.706)"/></g><g transform="translate(222.183 136.267)"><path class="p" d="M194.916,235.576a3.114,3.114,0,0,1-1.97-.588c-1.006-.57-1.594-1.318-1.506-1.4s.784.475,1.731,1.008S194.949,235.452,194.916,235.576Z" transform="translate(-191.431 -233.58)"/></g><g transform="translate(225.728 147.574)"><path class="p" d="M197.079,237.982a12.977,12.977,0,0,1-4.271,2.216,6.586,6.586,0,0,1,2.032-1.308A6.686,6.686,0,0,1,197.079,237.982Z" transform="translate(-192.805 -237.964)"/></g><path class="o" d="M162.411,217.951l.656-7.326,14.577,11.385,3.642,5.881,6.521-15.21,1.6,2.116v9.215l-7.047,8.577-13.3-1.159Z" transform="translate(-15.074 -133.562)"/><g transform="translate(146.812 84.157)"><path class="q" d="M177.351,218.568a4.214,4.214,0,0,1-.013.892q-.066.979-.168,2.471c-.183,2.192-.431,5.138-.714,8.532l-.046.524-.33-.4c-1.011-1.223-2.1-2.546-3.239-3.92-2.987-3.631-5.669-6.933-7.593-9.336-.916-1.161-1.676-2.123-2.259-2.86a7.142,7.142,0,0,1-.779-1.088,8.088,8.088,0,0,1,.918.977c.611.717,1.408,1.651,2.37,2.773,1.986,2.35,4.7,5.617,7.688,9.246,1.127,1.377,2.215,2.7,3.219,3.931l-.377.119c.348-3.389.65-6.324.874-8.514l.294-2.461A3.984,3.984,0,0,1,177.351,218.568Z" transform="translate(-162.207 -213.376)"/></g><g transform="translate(171.26 84.843)"><path class="q" d="M174.572,218.854a5.944,5.944,0,0,1-.075,1.47c-.093.921-.248,2.221-.444,3.735l-.124.947-.289-.916c-.253-.8-.506-1.676-.74-2.6a44.483,44.483,0,0,1-1.045-5.522,9.84,9.84,0,0,1-.142-2.324,15.171,15.171,0,0,1,.456,2.277c.25,1.408.629,3.345,1.166,5.457.232.921.475,1.8.709,2.589l-.413.034c.23-1.509.438-2.8.6-3.711A6.063,6.063,0,0,1,174.572,218.854Z" transform="translate(-171.686 -213.642)"/></g><g transform="translate(166.249 93.953)"><path class="q" d="M176.688,263.109a1.878,1.878,0,0,1-.113-.459c-.062-.356-.142-.8-.237-1.333-.193-1.225-.456-2.891-.779-4.918-.629-4.214-1.478-9.93-2.414-16.246s-1.79-12.029-2.419-16.243c-.309-2.03-.562-3.693-.748-4.921-.077-.539-.139-.983-.191-1.339a1.872,1.872,0,0,1-.036-.475,1.917,1.917,0,0,1,.124.459c.075.351.165.789.276,1.326.227,1.153.534,2.827.89,4.9.717,4.145,1.617,9.883,2.548,16.231s1.725,12.1,2.285,16.264c.263,2.038.48,3.709.64,4.939.062.542.111.988.152,1.344A1.842,1.842,0,0,1,176.688,263.109Z" transform="translate(-169.743 -217.174)"/></g><g transform="translate(159.137 96.206)"><path class="q" d="M167.765,218.08c.075.1-.088.351-.248.647s-.286.57-.413.56-.2-.382.021-.774S167.695,217.977,167.765,218.08Z" transform="translate(-166.986 -218.047)"/></g><g transform="translate(173.115 89.868)"><path class="q" d="M172.608,217.083c-.124,0-.214-.34-.2-.753s.126-.745.25-.74.214.343.2.753S172.734,217.089,172.608,217.083Z" transform="translate(-172.406 -215.59)"/></g><g transform="translate(166.239 85.34)"><path class="q" d="M174.834,213.835a21.122,21.122,0,0,1-5.089,8.681c-.106-.085,1.284-1.865,2.68-4.261S174.71,213.786,174.834,213.835Z" transform="translate(-169.74 -213.835)"/></g><g transform="translate(161.88 89.719)"><path class="q" d="M172.7,220.4a10.811,10.811,0,0,1-2.538-2.221,10.938,10.938,0,0,1-2.1-2.638,15.093,15.093,0,0,1,2.427,2.326A15.423,15.423,0,0,1,172.7,220.4Z" transform="translate(-168.049 -215.532)"/></g><g transform="translate(169.897 106.707)"><path class="q" d="M171.6,223.328c-.106.085-.364-.193-.413-.552s-.041-.575.057-.645c.113-.077.343.219.387.56S171.7,223.251,171.6,223.328Z" transform="translate(-171.158 -222.119)"/></g><g transform="translate(171.395 115.424)"><path class="q" d="M172.008,226.7c-.126,0-.219-.263-.258-.575-.041-.33.036-.619.16-.627s.245.242.289.575C172.242,226.422,172.129,226.706,172.008,226.7Z" transform="translate(-171.739 -225.499)"/></g><g transform="translate(167.599 32.732)"><path class="r" d="M170.27,212.9a2.2,2.2,0,0,0,.652.6,1.834,1.834,0,0,0,2.172-.361,3.053,3.053,0,0,0,.789-1.426,6.4,6.4,0,0,0,.137-1.929c-.093-1.418-.2-2.958-.3-4.573-.206-3.25-.369-6.193-.464-8.323-.049-1.065-.08-1.929-.09-2.528a3.761,3.761,0,0,1,.028-.928,3.654,3.654,0,0,1,.147.918c.064.6.144,1.452.232,2.517.175,2.125.389,5.065.6,8.315.1,1.62.188,3.162.271,4.583a6.565,6.565,0,0,1-.191,2.045,3.339,3.339,0,0,1-.931,1.56,2.132,2.132,0,0,1-1.39.583,1.968,1.968,0,0,1-1.091-.3C170.3,213.3,170.254,212.891,170.27,212.9Z" transform="translate(-170.267 -193.437)"/></g><g transform="translate(161.59 53.056)"><path class="r" d="M176.368,206.22a3.073,3.073,0,0,1-1.571.616,5.844,5.844,0,0,1-6.59-3.848,3.124,3.124,0,0,1-.235-1.671c.077-.01.134.632.531,1.555a5.985,5.985,0,0,0,6.249,3.649C175.751,206.416,176.339,206.15,176.368,206.22Z" transform="translate(-167.937 -201.317)"/></g><g transform="translate(159.957 52.434)"><path class="r" d="M169.984,201.334c-.036.121-.769-.031-1.511.4-.756.408-1,1.114-1.125,1.083-.054-.01-.077-.222.044-.531A2.049,2.049,0,0,1,169.5,201.1C169.834,201.153,170,201.282,169.984,201.334Z" transform="translate(-167.304 -201.076)"/></g><g transform="translate(148.987 68.76)"><path class="r" d="M187.7,210.88a4.244,4.244,0,0,1-.895.552,17.81,17.81,0,0,1-2.644,1.122A20.411,20.411,0,0,1,165.992,210a17.9,17.9,0,0,1-2.231-1.808,4.219,4.219,0,0,1-.709-.779c.059-.064,1.1,1.019,3.116,2.321a21.288,21.288,0,0,0,17.9,2.522C186.357,211.553,187.659,210.8,187.7,210.88Z" transform="translate(-163.051 -207.406)"/></g><g transform="translate(137.572 46.424)"><path class="r" d="M160.761,204.774a2.943,2.943,0,0,0,.921-1.256,2.39,2.39,0,0,0-.041-1.625,1.416,1.416,0,0,0-1.465-.97.883.883,0,0,0-.7,1.225l-.387.144a18.819,18.819,0,0,1-.444-3.546,18.27,18.27,0,0,1,.854,3.471l.232,1.15-.616-1.006a1.305,1.305,0,0,1,.993-1.885,1.726,1.726,0,0,1,1.235.322,2.041,2.041,0,0,1,.681.947,2.594,2.594,0,0,1-.049,1.883,2.118,2.118,0,0,1-.787.983C160.936,204.771,160.768,204.8,160.761,204.774Z" transform="translate(-158.625 -198.746)"/></g><path class="d" d="M162.709,216.394c-.5,1.493-.988,3.147-.374,4.6s2.9,2.148,3.753.825a3.3,3.3,0,0,0,.353-1.782q.054-6.341.106-12.676a16.654,16.654,0,0,0,12.9-11.918,11.212,11.212,0,0,0,10.825.361c1.377-.722,2.762-1.774,4.3-1.566,1.854.25,2.943,2.161,4.465,3.245a5.747,5.747,0,0,0,8.215-2.254c1.359-3.072-.482-6.848-3.353-8.589-3.621-2.192-8.181-1.767-12.382-1.269q-11.641,1.373-23.282,2.752a8.16,8.16,0,0,0-4.23,1.315,7.657,7.657,0,0,0-2.2,3.977,57.473,57.473,0,0,0-2.365,18.008c.052,1.865.379,4.034,2,4.952" transform="translate(-19.808 -174.081)"/><g transform="translate(191.55 190.513)"><path class="r" d="M189.864,270.617a15.463,15.463,0,0,1-1.785-2.151c-1.045-1.375-2.43-3.322-3.856-5.537s-2.626-4.281-3.446-5.8a15.379,15.379,0,0,1-1.22-2.515,19.357,19.357,0,0,1,1.5,2.357c.89,1.475,2.125,3.505,3.546,5.715s2.762,4.173,3.737,5.592A19.728,19.728,0,0,1,189.864,270.617Z" transform="translate(-179.553 -254.613)"/></g><g transform="translate(188.704 195.247)"><path class="r" d="M190.2,267.612a1.589,1.589,0,0,1-.655-.067,6.677,6.677,0,0,1-1.674-.642,15.375,15.375,0,0,1-4.354-3.933c-1.449-1.761-2.736-3.371-3.655-4.552a13.125,13.125,0,0,1-1.411-1.968,12.9,12.9,0,0,1,1.656,1.767c.98,1.127,2.308,2.708,3.755,4.467a17.439,17.439,0,0,0,4.165,3.943A15.64,15.64,0,0,0,190.2,267.612Z" transform="translate(-178.45 -256.448)"/></g><path class="h" d="M189,297.6l22.585-56.78,75.707,1.384L266,296.02,189,297.6" transform="translate(26.908 -85.886)"/><path class="s" d="M213.27,240.841l-23.133,56.716,74.056-1.577,21.293-53.819Z" transform="translate(28.71 -85.847)"/><path class="t" d="M209.589,251.668c2.014-2.012,4.973-2.321,6.605-.689s1.326,4.594-.689,6.605-4.97,2.321-6.6.689S207.577,253.683,209.589,251.668Z" transform="translate(56.685 -71.492)"/><path class="u" d="M209.616,251.695c3.159-3.162,7.8-3.647,10.366-1.083s2.081,7.209-1.081,10.368-7.8,3.647-10.366,1.083S206.454,254.854,209.616,251.695Z" transform="translate(55.16 -73.017)"/><g class="a" transform="translate(62.216 9.393)"><path class="v" d="M145.49,186.005c12.279-4.836,27.824,1.591,33.1,13.688S178,227.555,166.1,233.26s-27.865.408-33.993-11.281S130.7,194.148,142.158,187.6" transform="translate(-129.407 -184.388)"/></g></g><path class="w" d="M231.79,203.727c-.1-.1-.191-.193-.289-.289" transform="translate(199.314 35.834)"/></g></svg>