<svg xmlns="http://www.w3.org/2000/svg" xmlns:xlink="http://www.w3.org/1999/xlink" width="312.487" height="279.948" viewBox="0 0 312.487 279.948"><defs><style>.a{fill:rgba(243,106,123,0.46);}.b{fill:#474f85;}.c{fill:#ede6f5;}.d,.m{fill:#fff;}.d{opacity:0.57;}.e{fill:rgba(81,227,212,0.26);}.f{fill:#46a2da;}.g,.h,.i,.j,.k,.l,.u{fill:none;stroke-miterlimit:10;}.g{stroke:#6e3281;}.g,.h,.i,.j,.k,.l{stroke-width:0.15px;}.h{stroke:#efc130;}.i{stroke:#474f85;}.j{stroke:#f36a7b;}.k{stroke:#e8947e;}.l{stroke:#edc483;}.n{fill:url(#a);}.o{fill:#968abc;}.p{fill:url(#b);}.q{fill:#636eb9;}.r{fill:rgba(239,193,48,0.87);}.s,.t{fill:#d2a133;}.t{opacity:0.45;}.u{stroke:#473a60;stroke-width:0.05px;stroke-dasharray:2;}</style><linearGradient id="a" x1="1.564" y1="11.898" x2="1.813" y2="13.859" gradientUnits="objectBoundingBox"><stop offset="0.05" stop-color="#6bc1cd"/><stop offset="1" stop-color="#a8eba4"/></linearGradient><linearGradient id="b" y1="0.5" x2="1" y2="0.5" gradientUnits="objectBoundingBox"><stop offset="0" stop-color="#efc130"/><stop offset="0.139" stop-color="#e3857e"/><stop offset="0.698" stop-color="#df637e"/><stop offset="1" stop-color="#f36a7b"/></linearGradient></defs><g transform="translate(-515.902 -162.705)"><path class="a" d="M690.755,389.691c35.5-13.627,63.461-39.557,77.046-77.418,7.74-21.568,15.681-44.52,9.281-66.525-8.476-29.15-38.726-49.906-69.065-48.787s-58.407,23.061-68.271,51.773c-6.328,18.425-8.664,42.519-26.94,49.263-14.908,5.5-31.223-4.989-47.014-3.236-19.326,2.147-32.516,23.635-30.018,42.916s17.216,35.242,34.385,44.37c10.613,5.639,22.128,9.1,33.9,11.707a154.205,154.205,0,0,0,52.393,2.718C666.935,395.165,681.8,393.129,690.755,389.691Z" transform="translate(25.859 45.069)"/><path class="b" d="M559.406,239.636l2.672,120.236,165.476-5.226L729.7,215.733a9.76,9.76,0,0,0-11.171-9.808l-149.059,21.8A11.773,11.773,0,0,0,559.406,239.636Z" transform="translate(57.483 56.833)"/><path class="c" d="M562.577,230.712,566.1,346.988l147.346-5.769s.961-131.328,1.92-131.328S562.577,230.712,562.577,230.712Z" transform="translate(61.678 62.213)"/><path class="d" d="M562.865,240.241l152.505-20.9,0-9.451-152.788,20.82Z" transform="translate(61.678 62.213)"/><path class="e" d="M550.359,196.467l-3.264,27.9,11.872-1.188,13.355,2.671-3.264-29.383Z" transform="translate(41.22 44.475)"/><path class="e" d="M555.067,200.149l.757-7.925h18.7l3.267,29.383L562.7,218.59l-2.129-18.063Z" transform="translate(51.754 38.866)"/><g transform="translate(595.887 235.516)"><path class="f" d="M550.364,200.163c-.1-1.987.817-5.806,5.005-6.029a4.432,4.432,0,0,1,3.44,1.184c1.748,1.732,1.639,4.715,1.632,4.84l-1.093-.046c0-.026.093-2.633-1.312-4.021a3.272,3.272,0,0,0-2.609-.861c-4.155.221-3.979,4.687-3.967,4.877Z" transform="translate(-550.357 -194.13)"/></g><g transform="translate(611.845 225.35)"><path class="f" d="M557.238,195.791c-.1-1.989.815-5.808,5.005-6.033a4.387,4.387,0,0,1,3.44,1.186c1.748,1.734,1.639,4.715,1.632,4.842l-1.093-.046c0-.028.091-2.632-1.314-4.021a3.23,3.23,0,0,0-2.607-.864c-4.139.216-3.977,4.692-3.97,4.882Z" transform="translate(-557.231 -189.751)"/></g><path class="g" d="M600.157,216.877a8.064,8.064,0,0,1,10.182-10.518c1.971.689,3.626,2.124,5.627,2.714a7.137,7.137,0,0,0,7.77-11.066" transform="translate(110.655 46.508)"/><path class="h" d="M610.829,170.548a76,76,0,0,0,5.026,7.155c.406.511.928,1.07,1.581,1.024a2.071,2.071,0,0,0,1-.469l8.366-5.957q-3.082-4.746-6.166-9.49l-7.352,5.2" transform="translate(125.44)"/><path class="i" d="M599.117,181.859a7.344,7.344,0,1,0,11.837,3.09c-1.455-4.23-6.583-6.256-11.013-5.641" transform="translate(106.82 21.656)"/><path class="i" d="M646.57,191.561a7.344,7.344,0,1,0,11.837,3.087c-1.456-4.227-6.583-6.254-11.013-5.639" transform="translate(169.526 34.477)"/><path class="j" d="M623.692,193.314q-1.173,8.789-2.345,17.58l16.359-2.6a53.146,53.146,0,0,0-12.216-15.113" transform="translate(139.34 40.127)"/><path class="k" d="M638.264,178.479q-8.535,1.671-17.07,3.345" transform="translate(139.138 20.704)"/><path class="l" d="M639,200.77q3.615,7.915,7.22,15.828" transform="translate(162.669 50.16)"/><path class="g" d="M639.159,180.2c-.091-.093-.183-.186-.276-.279" transform="translate(162.511 22.608)"/><path class="m" d="M593.9,229.186v9.165l64.7-5v-9.289Z" transform="translate(103.067 80.938)"/><path class="m" d="M593.9,233.811v8.447l50.289-3.363v-8.168Z" transform="translate(103.067 89.746)"/><path class="n" d="M594.031,241.723l.664,8.945,25.076-1.86-.222-9.388Z" transform="translate(103.242 101.233)"/><path class="o" d="M566.859,221.455a1.3,1.3,0,1,1-1.3-1.3A1.3,1.3,0,0,1,566.859,221.455Z" transform="translate(63.889 75.77)"/><path class="o" d="M568.745,221.156a1.3,1.3,0,1,1-1.3-1.3A1.3,1.3,0,0,1,568.745,221.156Z" transform="translate(66.384 75.379)"/><circle class="o" cx="1.303" cy="1.303" r="1.303" transform="translate(637.072 294.617)"/><path class="p" d="M580.73,229.325s1.11,6.776,7.7,7.015c6.254.227,6.254-7.921,6.254-7.921l14.792,7.693-2.261,9.193-6.11-2.63,1.834,22.613-24.916.924-.455-21.951-3.821,3.055-3.152-8.269Z" transform="translate(72.267 86.698)"/><path class="b" d="M515.9,284.67v4.622L640.74,286.98l144.3-17.05Z" transform="translate(0 141.551)"/><path class="q" d="M785.038,269.93,634.295,282.619,515.9,284.67l103.66-9.515Z" transform="translate(0 141.551)"/><g transform="translate(750.738 368.02)"><rect class="r" width="74.776" height="50.831" rx="1.767"/><path class="s" d="M632.39,260.687a6.008,6.008,0,1,1-6.008-6.008A6.008,6.008,0,0,1,632.39,260.687Z" transform="translate(-612.685 -246.622)"/><path class="t" d="M635.073,260.687a6.009,6.009,0,1,1-6.01-6.008A6.01,6.01,0,0,1,635.073,260.687Z" transform="translate(-609.143 -246.622)"/><path class="s" d="M617.093,264.607h74.776V274l-74.776-1.712Z" transform="translate(-617.021 -233.503)"/></g><path class="o" d="M573.87,252.219v27.252l27.152-1.836-.914-27.191Z" transform="translate(76.601 115.801)"/><path class="o" d="M588.182,251.73v27.251l27.152-1.836-.911-27.191Z" transform="translate(95.514 115.153)"/><path class="o" d="M602.574,251.139v27.252l27.152-1.836-.911-27.191Z" transform="translate(114.531 114.374)"/><path class="u" d="M551.634,203.285c-5.144,7.1-9.59,14.883-11.6,23.419s-1.381,17.933,3.078,25.485c2.774,4.7,7.354,8.715,12.786,9.2s11.324-3.682,11.31-9.137c-.019-5.91-7.183-10.073-12.8-8.232s-8.968,8.081-8.833,13.989,3.145,11.415,6.918,15.962c5.627,6.783,13.271,12.044,21.861,14.026s18.093.469,25.169-4.78" transform="translate(30.453 53.484)"/><path class="u" d="M567.94,197.5a40.128,40.128,0,0,1,44.53,52.567" transform="translate(68.765 45.169)"/><path class="f" d="M551.327,199.962c0,.2-.478,9.789-.478,9.789h7.8l-1.1-9.789Z" transform="translate(46.18 49.093)"/><path class="f" d="M558.678,195.878c0,.207,1.008,9.792,1.008,9.792H566l-1.093-9.792Z" transform="translate(56.526 43.696)"/></g></svg>