<svg xmlns="http://www.w3.org/2000/svg" xmlns:xlink="http://www.w3.org/1999/xlink" width="377.921" height="305.718" viewBox="0 0 377.921 305.718"><defs><style>.a{fill:none;}.b{fill:#dbddde;}.c{fill:#eeeff0;}.d{fill:#efc130;}.e{fill:#e0b52d;}.f{fill:#c19d2a;}.g{fill:#fcf1d4;}.h{fill:#f7e2a1;}.i{fill:#ead38d;}.j{fill:#e6d6a1;}.k,.m{opacity:0.51;}.l,.m{fill:#a7a9ac;}.ac,.ax,.n{fill:#fff;}.n{opacity:0.55;}.o{fill:#9dcde1;}.p{clip-path:url(#a);}.q{fill:#852548;}.r{fill:#ffcb75;}.s{fill:#d91e63;}.t{fill:#cf922d;}.u{clip-path:url(#b);}.v{fill:#de5066;}.w{fill:#f794a4;}.x{fill:#d41c22;}.y{fill:#f36a7b;}.z{fill:#f2a6af;}.aa{fill:#e8a4ac;}.ab{fill:#e2e4e6;}.ad{fill:#f1f2f2;}.ae{fill:#ad171c;}.af{fill:#bc5461;}.ag{fill:#f78d9a;}.ah{fill:#282829;}.ai{fill:#414042;}.aj{fill:#58595b;}.ak,.bc{fill:#51e3d4;}.al{fill:#4bebdb;}.am{fill:#4bd0c2;}.an{fill:#45baae;}.ao{fill:#f5e5b2;}.ap{fill:#e3c35c;}.aq{fill:#f4db8d;}.ar{fill:#285987;}.as{fill:#3577b5;}.at{fill:#ffd1ba;}.au{fill:#3b8aba;}.av{fill:#46a2da;}.aw{fill:#9dd593;}.ax{font-size:28.607px;font-family:Helvetica;}.ay{fill:#3b1274;}.az{fill:#622eaa;}.ba{fill:#fff2a6;}.ba,.bb,.bc{opacity:0.405;}.bb{fill:#474f85;}</style><clipPath id="a"><path class="a" d="M390.86,411.367l-1.737-1.01a.94.94,0,0,1-.147-.1l1.738,1.01A.979.979,0,0,0,390.86,411.367Z"/></clipPath><clipPath id="b"><path class="a" d="M299.925,358.865l-1.738-1.01a.973.973,0,0,1-.146-.1l1.737,1.009A.938.938,0,0,0,299.925,358.865Z"/></clipPath></defs><g transform="translate(-240.875 -146.717)"><path class="b" d="M509.037,146.717l51.712,29.856v7.017l-51.544-29.759Z"/><path class="c" d="M509.037,220.016v-73.3l5.738,3.313v73.3Z"/><path class="c" d="M555.011,246.559v-73.3l5.738,3.313v73.3Z"/><path class="d" d="M462.926,208.211l84.209,48.618L539.467,390.9l-84.208-48.616Z"/><path class="d" d="M553.81,244.479l21.392-3.854,7.667,125.22-12.627,1.924-8.452,1.288-7.98,1.216Z"/><path class="e" d="M553.81,370.271V244.479l-6.676,12.35L539.467,390.9Z"/><path class="f" d="M582.869,365.844,553.81,358.53,539.467,390.9Z"/><path class="g" d="M553.81,244.479l-6.676,12.35-84.209-48.618,22.214-3.379L491,192.006,575.2,240.624Z"/><path class="h" d="M550.826,242.755l-5.815,10.758-76.5-44.169,19.349-2.943,5.1-11.172,76.5,44.17Z"/><path class="i" d="M487.857,206.4v14.115l-19.349-11.171Z"/><path class="j" d="M492.957,195.228v28.231l-5.1-2.944V206.4Z"/><path class="b" d="M473.412,167.286l51.712,29.856v7.016L473.579,174.4Z"/><path class="c" d="M473.411,240.585v-73.3l5.737,3.313v73.3Z"/><path class="c" d="M519.385,267.128v-73.3l5.738,3.313v73.3Z"/><g class="k"><path class="l" d="M407.125,378.711c13.384,7.728,13.5,20.238.2,27.966l-50.548,29.375c-13.3,7.727-34.9,7.7-48.28-.025L257.62,406.652c-13.341-7.7-13.455-20.212-.157-27.94l50.547-29.375c13.3-7.728,34.9-7.7,48.236,0Z"/></g><path class="m" d="M499.574,420.289s-30.052,25.2-48.469,29.354-31.533,3.007-49.414-9.753c-13.34-9.519-13.6-9.329-22.613-22.062-9.651-13.636,12.633-56.246,53.285-48.342S499.574,420.289,499.574,420.289Z"/><path class="n" d="M252.792,377.729a52.627,52.627,0,0,1,19.3,7.938,73.379,73.379,0,0,1,15.88,15.4v10.3s-4.535,12.446-14.6,6.883-18.688-15.437-20.313-26.187S252.792,377.729,252.792,377.729Z"/><path class="o" d="M258.375,405.125l16.043-16.568,3.177,2.323-16.852,17.05Z"/><path class="o" d="M263.429,410.367l16.615-17.674,6.393,5.521-17.1,17.747Z"/><path class="n" d="M302,405.173a52.635,52.635,0,0,1,19.3,7.937,73.371,73.371,0,0,1,15.88,15.4v10.3s-4.534,12.446-14.6,6.883-18.687-15.437-20.312-26.187S302,405.173,302,405.173Z"/><path class="o" d="M307.581,432.569,323.625,416l3.177,2.323-16.852,17.05Z"/><path class="o" d="M312.635,437.811l16.615-17.674,6.393,5.521-17.1,17.747Z"/><g class="p"><path class="q" d="M390.86,411.367l-1.737-1.01a.94.94,0,0,1-.147-.1l1.738,1.01a.979.979,0,0,0,.146.105"/></g><path class="r" d="M390.714,411.262l-1.738-1.01-5.732-4.849,1.738,1.01Z"/><path class="r" d="M340.678,425.783l-1.737-1.01,46.435-23.706,1.738,1.01Z"/><path class="s" d="M340.7,431.981l-1.738-1.01-.017-6.2,1.737,1.01Z"/><path class="t" d="M340.678,425.783l46.436-23.7,6.655,4.364c1.217.8.3,3.759-1.473,4.782a1.338,1.338,0,0,1-1.582.038l-5.732-4.849L340.7,431.981Z"/><g class="u"><path class="q" d="M299.925,358.865l-1.738-1.01a.973.973,0,0,1-.146-.1l1.737,1.009a.938.938,0,0,0,.147.1"/></g><path class="r" d="M299.778,358.76l-1.737-1.01-5.732-4.849,1.738,1.01Z"/><path class="r" d="M249.743,373.282l-1.738-1.01,46.436-23.706,1.738,1.01Z"/><path class="s" d="M249.761,379.479l-1.738-1.01-.018-6.2,1.738,1.01Z"/><path class="t" d="M249.743,373.282l46.436-23.706,6.655,4.365c1.216.795.3,3.758-1.474,4.782a1.338,1.338,0,0,1-1.582.037l-5.731-4.849L249.761,379.48Z"/><path class="t" d="M280.1,417.6a20.309,20.309,0,0,1-6.472-2.572c-6.58-3.8-13.815-11.037-16.037-17.971-2.4-7.5-3.886-16.638-.508-18.6l-2.317,1.347c-3.377,1.963-1.9,11.1.508,18.6,2.223,6.935,9.457,14.172,16.038,17.971a20.333,20.333,0,0,0,6.471,2.573,5.819,5.819,0,0,0,4-.631l2.316-1.346A5.81,5.81,0,0,1,280.1,417.6Z"/><path class="t" d="M289.791,405.3a1.855,1.855,0,0,0-.773,1.7v.488c-.014,5.064-1.54,9.148-4.473,11.259-.226.162-.461.316-.708.46l2.316-1.347a8.449,8.449,0,0,0,.709-.46c2.933-2.111,4.458-6.194,4.473-11.258v-.489a1.855,1.855,0,0,1,.773-1.7Z"/><path class="t" d="M303.066,409.276l2.316-1.347a3.131,3.131,0,0,0-1.485,2.609c-.606,6.425,1.131,18.455,8.436,25.674a32.248,32.248,0,0,0,6.465,4.9c5.3,3.057,11.026,4.383,14.237,2.517l-2.317,1.347c-3.21,1.865-8.941.539-14.237-2.518a32.206,32.206,0,0,1-6.465-4.9c-7.3-7.22-9.042-19.25-8.435-25.675A3.123,3.123,0,0,1,303.066,409.276Z"/><path class="t" d="M339.316,433.156l2.316-1.346c-4.987,2.9-2.5,11.155-6.924,13.727l-2.317,1.346C336.817,444.311,334.328,436.055,339.316,433.156Z"/><path class="r" d="M318.89,409.133c-8.993-5.192-16.657-4.587-17.161-4.878-.178-.1-.9-.6-1.757-1.207q-1.833-1.29-3.68-2.356t-3.681-1.894c-.861-.389-1.58-.719-1.759-.822-.5-.291-8.139-9.73-17.132-14.922s-23.856-12.4-24.638-12.775l-2.317,1.346c.782.379,15.64,7.58,24.638,12.775s16.629,14.631,17.133,14.922c.178.1.9.434,1.758.822q1.834.828,3.681,1.895t3.68,2.355c.86.6,1.579,1.1,1.757,1.208.5.291,8.168-.315,17.161,4.877s23.848,15.146,24.63,15.67l2.317-1.347C342.738,424.279,327.888,414.328,318.89,409.133Z"/><path class="d" d="M316.573,410.479c9,5.2,23.848,15.146,24.63,15.67l-.018,6.276c-10.281,2.482.364,20.144-18.985,13.907a29.71,29.71,0,0,1-5.763-2.554,35.068,35.068,0,0,1-13.156-14.209,35.7,35.7,0,0,1-4.4-16.378l0-.488a5.824,5.824,0,0,0-2.641-4.575l-2.288-1.32-2.282-1.318c-1.464-.845-2.654-.167-2.659,1.515v.488c-.014,5.064-1.54,9.148-4.473,11.259-2.694,1.94-6.867,2.649-13.193-1a41.572,41.572,0,0,1-5.759-4.1c-19.321-16.088-8.611-21.421-18.845-35.748l.018-6.276c.782.379,15.64,7.58,24.638,12.775s16.629,14.631,17.133,14.922c.178.1.9.434,1.758.822q1.834.828,3.681,1.895t3.68,2.355c.86.6,1.579,1.1,1.757,1.208C299.916,405.893,307.58,405.287,316.573,410.479Zm-38.788,8.471c7.323,1.226,9.122-8.762,8.554-15.866s-11.353-14.156-11.921-14.527c-.136-.1-2.726-1.913-6.463-4.07a63.2,63.2,0,0,0-9.678-4.669c-7.57-2.723-6.006,9.207-3,18.588,2.222,6.935,9.457,14.172,16.038,17.971a20.333,20.333,0,0,0,6.471,2.573m54.783,24.08c3.049-5.885,4.675-15.973-2.886-21.987a80.435,80.435,0,0,0-9.672-6.5c-3.737-2.157-6.329-3.333-6.466-3.395-.568-.284-11.356-5.687-11.963.738s1.13,18.455,8.435,25.675a32.206,32.206,0,0,0,6.465,4.9c6.581,3.8,13.833,4.925,16.087.575"/><path class="t" d="M341.2,426.149l2.317-1.346-.018,6.276-2.317,1.346Z"/><path class="v" d="M383.476,399.327V307.569l81.269-46.919v91.728Z"/><path class="w" d="M302.431,352.494V260.779l81.051,46.783v91.773Z"/><path class="x" d="M302.43,260.772l81.308-46.9,81.008,46.77-81.267,46.919Z"/><path class="c" d="M417.219,379.845V288.087l13.724-7.922v91.728Z"/><path class="c" d="M349.818,379.845V288.087l-13.724-7.922v91.728Z"/><path class="y" d="M383.464,321.779V303.235l89.746-51.813v18.512Z"/><path class="z" d="M293.966,270.062v-18.5l89.505,51.662v18.561Z"/><path class="aa" d="M293.964,251.557l89.789-51.787,89.457,51.648-89.743,51.813Z"/><path class="b" d="M421.968,299.554V281.015l13.724-7.922V291.6Z"/><path class="ab" d="M344.115,299.045V280.506l-13.724-7.922v18.51Z"/><path class="ac" d="M420.105,220.788l-89.714,51.8,13.724,7.922,89.737-51.81Z"/><path class="ad" d="M345.977,221.285l89.714,51.8L421.968,281l-89.737-51.81Z"/><path class="ae" d="M383.482,399.335"/><path class="af" d="M311.229,400.935V381.792L328.184,372V391.14Z"/><path class="y" d="M294.32,391.164V372.03l16.91,9.76v19.147Z"/><path class="ag" d="M294.32,372.029l16.963-9.784,16.9,9.758-16.955,9.789Z"/><path class="af" d="M311.2,378.43v-4.8l10.615-6.128V372.3Z"/><path class="y" d="M300.614,372.313V367.52l10.587,6.111v4.8Z"/><path class="ag" d="M300.613,367.52l10.62-6.125,10.581,6.109L311.2,373.632Z"/><path class="ah" d="M311.207,370.584l0-31.068,2.827-1.794,2.575,29.739Z"/><path class="ai" d="M305.817,367.469l2.575-29.742,2.819,1.789,0,31.068Z"/><path class="aj" d="M308.391,337.727l2.828-1.631,2.818,1.627-2.827,1.794Z"/><path class="ai" d="M350.486,359.428l-.11,52.01c-.01,1.3-.86,2.59-2.56,3.58a11.622,11.622,0,0,1-4.24,1.36,13.484,13.484,0,0,1-8.2-1.36c-1.73-1-2.6-2.32-2.6-3.63l.12-52.01c0,1.31.86,2.63,2.6,3.63a13.4,13.4,0,0,0,8.08,1.37,11.452,11.452,0,0,0,4.36-1.37C349.636,362.018,350.486,360.718,350.486,359.428Z"/><path class="aj" d="M347.893,355.8c3.442,1.987,3.466,5.213.041,7.2a13.715,13.715,0,0,1-12.441,0c-3.448-1.991-3.466-5.22-.041-7.211A13.709,13.709,0,0,1,347.893,355.8Z"/><path class="ah" d="M350.486,359.428l-.11,52.01c-.01,1.3-.86,2.59-2.56,3.58a11.622,11.622,0,0,1-4.24,1.36v-52a11.452,11.452,0,0,0,4.36-1.37C349.636,362.018,350.486,360.718,350.486,359.428Z"/><path class="v" d="M350.489,371.065l-.116,3.316c0,1.295-.854,2.588-2.554,3.576a13.717,13.717,0,0,1-12.442,0c-1.735-1-2.6-2.317-2.6-3.63l.116-3.316c0,1.313.863,2.628,2.6,3.63a13.715,13.715,0,0,0,12.441,0C349.635,373.653,350.485,372.36,350.489,371.065Z"/><path class="ak" d="M454.735,285.491l56.957,32.884-5.186,90.685-56.957-32.883Z"/><path class="al" d="M516.207,310.022l14.469-2.607,5.186,84.7-19.655,2.994Z"/><path class="am" d="M516.207,395.105V310.022l-4.515,8.354-5.186,90.685Z"/><path class="an" d="M535.862,392.111l-19.655-4.947-9.7,21.9Z"/><path class="g" d="M516.207,310.022l-4.515,8.354-56.957-32.884,15.025-2.286,3.96-8.676,56.956,32.885Z"/><path class="ao" d="M514.189,308.856l-3.933,7.276L458.51,286.257l13.087-1.991,3.449-7.557,51.745,29.876Z"/><path class="ap" d="M471.6,284.266v9.547l-13.087-7.556Z"/><path class="aq" d="M475.047,276.709v19.1l-3.449-1.991v-9.547Z"/><path class="b" d="M461.827,338.79,496.8,358.984v4.746L461.94,343.6Z"/><path class="c" d="M461.827,343.536V308.668l3.881,2.241v34.868Z"/><path class="c" d="M492.923,361.489V326.621l3.881,2.241V363.73Z"/><path class="ar" d="M425.763,378.178s-.512,5.968-.456,7.193.226,10.078.226,10.078l-1.94,1.744-.431-1.063-1.53-12.653-1.559-7.516.78-1.875,2.065-.464Z"/><path class="as" d="M501.848,420.95s1.521,5.066-6.5,6.9a62.586,62.586,0,0,1-20.935,1.726,181.051,181.051,0,0,1-18.608-3.23s-.811-1.062-.525-1.424,13.342-2.807,13.342-2.807,24.778,2.84,25.557,2.505S501.848,420.95,501.848,420.95Z"/><path class="at" d="M498.191,415.326s4.677,3.229,3.452,6.793-12.583,5.712-13.7,5.027-27.034-8.7-27.034-8.7l-20.4-28.724-11.356-12.026s-10.359-10.141-12.586-11.7-9.243-9.59-9.355-11.253.038-5.966,5.42-7.434c0,0,8.612,1.093,18.3,11.226s17.928,19.488,17.928,19.488,16.259,18.708,20.6,21.381S498.191,415.326,498.191,415.326Z"/><path class="as" d="M406.246,431.22s.492,8.271,5.754,12.614,17.455,8.185,24.3,8.519,17.539-.334,21.214-2.255,4.092-3.007,3.09-7.935S406.246,431.22,406.246,431.22Z"/><path class="as" d="M389.178,361.568s-1.774,3.006,0,8.936,8.411,19.954,8.411,19.954v-12.27Z"/><path class="at" d="M460.608,442.163s2.088,4.009-4.677,6.181-17.372,2.505-17.372,2.505l-31.487-32.321s-9.118-32.573-10.614-35.412-8.762-18.124-7.008-23.135,11.024-7.433,15.952-2.673c0,0,7.182,6.932,12.611,24.054,5.3,16.716,9.187,25.64,15.034,31.069C433.047,412.431,457.183,431.473,460.608,442.163Z"/><path class="au" d="M475.14,391.941s-9.577-11.581-11.693-15.925-18.262-30.623-26.057-37.75-15.925-10.913-18.041-7.795l-1.781,2.45,1,.111s3.675-.779,5.9.334,11.693,7.907,17.817,17.261,10.579,16.37,8.686,22.16-2.116,5.234-2.116,5.234,14.7,18.6,20.045,22.16,29.287,15.145,29.287,15.145-.157-4.083-1.225-5.457S475.14,391.941,475.14,391.941Z"/><path class="as" d="M407.459,352.042a10.026,10.026,0,0,0,1.982,10.515,34.47,34.47,0,0,1,8.127,13.456,56.786,56.786,0,0,1,2.271,10.957l3.323,9.16s-.3-11.929-.806-13.822-1-5.957-.724-6.4l.006-.009a1.046,1.046,0,0,1,1.628-.2l6.422,6.384.8-1.665-1.333-2.721Z"/><path class="av" d="M456.576,425.783s10.435,3.129,17.339,2.683,14.031-1.32,14.031-1.32S486.5,415.277,490.4,411.4s6.57-1.535,6.57-1.535a55,55,0,0,0-13.14-12.472c-7.572-4.788-8.686-5.456-8.686-5.456s3.819,5.679,1.631,7.683-11.029,8.018-14.9,8.018-9.777-.111-15.456-12.138-25.836-49.554-26.5-52.227-2.116-11.136-.557-12.806c0,0-3.9,2.561-4.342,3.452s-1.07,6.323,2.3,13.963,14.622,28.127,14.622,28.127l6.236,27.509Z"/><path class="au" d="M449.583,411.321s-10.356-17.1-11.692-21.44S431.71,370,428.2,363.322s-20.044-31.236-30.4-25.056l-1.344,3.505s4.183-2,6.438-1.25,12.361,7.1,17.873,16.7,11.609,23.886,7.684,31.486-5.432,7.016-5.432,7.016,4.1,12.277,11.445,18.04,18.876,17.455,21.214,20.211a48.322,48.322,0,0,1,4.928,8.185,5.84,5.84,0,0,0,1.169-4.343c-.486-2.279-11.526-22.049-11.526-22.049Z"/><path class="av" d="M397.8,338.266s-4.677,1.838-6.515,10.691.167,15.7,3.257,23.886c2.308,6.111,2.985,15.668,3.181,20.118a24.724,24.724,0,0,0,.76,5.082c1.805,7.031,6.6,25.84,7,29.087.5,4.009,2.172,13.363,11.86,18.875s21.214,4.844,21.214,4.844-4.677-11.692,9.02-16.871,14.2,3.842,14.2,3.842,1.514,0-8.1-17.371l-4.1-9.128s1,7.123-10.022,9.629-21.548,6.013-26.225,1.169-11.525-35.913-14.2-43.263-6.347-16.537-6.013-23.385S397.8,338.266,397.8,338.266Z"/><path class="aw" d="M313.408,291.454l-10.773-9.341a6.053,6.053,0,0,0-7.929,0l-10.773,9.341a6.055,6.055,0,0,0-2.087,4.572v32.42A6.051,6.051,0,0,0,287.9,334.5h21.546a6.051,6.051,0,0,0,6.051-6.051v-32.42A6.054,6.054,0,0,0,313.408,291.454Zm-14.738,1.9a3.375,3.375,0,1,1,3.375-3.375A3.375,3.375,0,0,1,298.67,293.357Z"/><text class="ax" transform="translate(289.272 323.382)"><tspan x="0" y="0">%</tspan></text><path class="ai" d="M298.671,288.179h-.058a1,1,0,0,1-.941-1.057c1.841-31.966,18.9-34.647,19.631-34.745a1,1,0,0,1,.272,1.981c-.2.03-16.169,2.713-17.906,32.88A1,1,0,0,1,298.671,288.179Z"/><path class="ay" d="M321.248,200.015s-29.209,12.616-26.332,35.633,17.706,35.853,60.641,42.713,76.353-3.541,82.772-11.287,13.5-19.033-5.091-35.853-21.91-17.484-21.91-17.484Z"/><path class="ay" d="M317.712,233.274c1.769,5.371,10.182,14.547,44.262,18.308s52.232-8.631,54-11.287c1.288-1.935,1.992-14.912.4-23.912l0,0c-.594-3.353-1.507-6.155-2.829-7.625-4.87-5.428-5.311-6.527-5.534-15.1S403.8,181.2,393.4,175.169s-30.1-2.6-44.262,0-20.363,3.157-24.125,8.249c-2.234,3.028-4.392,20.048-5.776,33.374C318.3,225.894,317.712,233.274,317.712,233.274Z"/><path class="az" d="M321.033,201.565s-17.457,11.545-21.026,24.864c-2.29,8.544-2.213,19.178,4.869,29.358,0,0-3.092-22.394,13.725-32.554Z"/><path class="az" d="M317.712,233.274c1.769,5.371,10.182,14.547,44.262,18.308s52.232-8.631,54-11.287c1.288-1.935,1.992-14.912.4-23.912l0,0s-16.994,17.5-53.288,15.725-43.715-15.725-43.715-15.725l-.129.412C318.3,225.894,317.712,233.274,317.712,233.274Z"/><circle class="ba" cx="17.5" cy="17.5" r="17.5" transform="translate(240.875 277.795)"/><circle class="bb" cx="17.5" cy="17.5" r="17.5" transform="translate(583.798 186.659)"/><circle class="ba" cx="9.621" cy="9.621" r="9.621" transform="translate(424.041 190.149)"/><circle class="bc" cx="17.5" cy="17.5" r="17.5" transform="translate(427.677 147.654)"/></g></svg>